{"header":{"formatType":0,"trackCount":1,"ticksPerBeat":96},"tracks":[[{"deltaTime":0,"channel":0,"type":"channel","noteNumber":70,"velocity":42,"subtype":"noteOn"},{"deltaTime":44,"channel":0,"type":"channel","subtype":"noteOff","noteNumber":70,"velocity":64},{"deltaTime":4,"channel":0,"type":"channel","noteNumber":39,"velocity":26,"subtype":"noteOn"},{"deltaTime":0,"channel":0,"type":"channel","noteNumber":79,"velocity":56,"subtype":"noteOn"},{"deltaTime":24,"channel":0,"type":"channel","subtype":"noteOff","noteNumber":39,"velocity":64},{"deltaTime":24,"channel":0,"type":"channel","noteNumber":55,"velocity":24,"subtype":"noteOn"},{"deltaTime":0,"channel":0,"type":"channel","noteNumber":63,"velocity":28,"subtype":"noteOn"},{"deltaTime":48,"channel":0,"type":"channel","subtype":"noteOff","noteNumber":55,"velocity":64},{"deltaTime":0,"channel":0,"type":"channel","noteNumber":58,"velocity":20,"subtype":"noteOn"},{"deltaTime":0,"channel":0,"type":"channel","subtype":"noteOff","noteNumber":63,"velocity":64},{"deltaTime":0,"channel":0,"type":"channel","noteNumber":63,"velocity":22,"subtype":"noteOn"},{"deltaTime":0,"channel":0,"type":"channel","noteNumber":67,"velocity":24,"subtype":"noteOn"},{"deltaTime":44,"channel":0,"type":"channel","subtype":"noteOff","noteNumber":58,"velocity":64},{"deltaTime":0,"channel":0,"type":"channel","subtype":"noteOff","noteNumber":63,"velocity":64},{"deltaTime":0,"channel":0,"type":"channel","subtype":"noteOff","noteNumber":67,"velocity":64},{"deltaTime":4,"channel":0,"type":"channel","noteNumber":51,"velocity":28,"subtype":"noteOn"},{"deltaTime":24,"channel":0,"type":"channel","subtype":"noteOff","noteNumber":51,"velocity":64},{"deltaTime":24,"channel":0,"type":"channel","noteNumber":56,"velocity":30,"subtype":"noteOn"},{"deltaTime":0,"channel":0,"type":"channel","noteNumber":62,"velocity":34,"subtype":"noteOn"},{"deltaTime":0,"channel":0,"type":"channel","noteNumber":77,"velocity":58,"subtype":"noteOn"},{"deltaTime":0,"channel":0,"type":"channel","subtype":"noteOff","noteNumber":79,"velocity":64},{"deltaTime":48,"channel":0,"type":"channel","subtype":"noteOff","noteNumber":56,"velocity":64},{"deltaTime":0,"channel":0,"type":"channel","noteNumber":59,"velocity":32,"subtype":"noteOn"},{"deltaTime":0,"channel":0,"type":"channel","subtype":"noteOff","noteNumber":62,"velocity":64},{"deltaTime":0,"channel":0,"type":"channel","noteNumber":62,"velocity":34,"subtype":"noteOn"},{"deltaTime":0,"channel":0,"type":"channel","noteNumber":68,"velocity":36,"subtype":"noteOn"},{"deltaTime":0,"channel":0,"type":"channel","subtype":"noteOff","noteNumber":77,"velocity":64},{"deltaTime":0,"channel":0,"type":"channel","noteNumber":79,"velocity":68,"subtype":"noteOn"},{"deltaTime":44,"channel":0,"type":"channel","subtype":"noteOff","noteNumber":59,"velocity":64},{"deltaTime":0,"channel":0,"type":"channel","subtype":"noteOff","noteNumber":62,"velocity":64},{"deltaTime":0,"channel":0,"type":"channel","subtype":"noteOff","noteNumber":68,"velocity":64},{"deltaTime":4,"channel":0,"type":"channel","noteNumber":39,"velocity":26,"subtype":"noteOn"},{"deltaTime":0,"channel":0,"type":"channel","noteNumber":77,"velocity":56,"subtype":"noteOn"},{"deltaTime":0,"channel":0,"type":"channel","subtype":"noteOff","noteNumber":79,"velocity":64},{"deltaTime":24,"channel":0,"type":"channel","subtype":"noteOff","noteNumber":39,"velocity":64},{"deltaTime":24,"channel":0,"type":"channel","noteNumber":55,"velocity":24,"subtype":"noteOn"},{"deltaTime":0,"channel":0,"type":"channel","noteNumber":63,"velocity":28,"subtype":"noteOn"},{"deltaTime":48,"channel":0,"type":"channel","subtype":"noteOff","noteNumber":55,"velocity":64},{"deltaTime":0,"channel":0,"type":"channel","noteNumber":58,"velocity":22,"subtype":"noteOn"},{"deltaTime":0,"channel":0,"type":"channel","subtype":"noteOff","noteNumber":63,"velocity":64},{"deltaTime":0,"channel":0,"type":"channel","noteNumber":63,"velocity":24,"subtype":"noteOn"},{"deltaTime":0,"channel":0,"type":"channel","noteNumber":67,"velocity":26,"subtype":"noteOn"},{"deltaTime":44,"channel":0,"type":"channel","subtype":"noteOff","noteNumber":58,"velocity":64},{"deltaTime":0,"channel":0,"type":"channel","subtype":"noteOff","noteNumber":63,"velocity":64},{"deltaTime":0,"channel":0,"type":"channel","subtype":"noteOff","noteNumber":67,"velocity":64},{"deltaTime":4,"channel":0,"type":"channel","noteNumber":38,"velocity":28,"subtype":"noteOn"},{"deltaTime":0,"channel":0,"type":"channel","noteNumber":75,"velocity":50,"subtype":"noteOn"},{"deltaTime":0,"channel":0,"type":"channel","subtype":"noteOff","noteNumber":77,"velocity":64},{"deltaTime":24,"channel":0,"type":"channel","subtype":"noteOff","noteNumber":38,"velocity":64},{"deltaTime":24,"channel":0,"type":"channel","noteNumber":55,"velocity":32,"subtype":"noteOn"},{"deltaTime":0,"channel":0,"type":"channel","noteNumber":63,"velocity":36,"subtype":"noteOn"},{"deltaTime":44,"channel":0,"type":"channel","subtype":"noteOff","noteNumber":75,"velocity":64},{"deltaTime":4,"channel":0,"type":"channel","subtype":"noteOff","noteNumber":55,"velocity":64},{"deltaTime":0,"channel":0,"type":"channel","noteNumber":58,"velocity":36,"subtype":"noteOn"},{"deltaTime":0,"channel":0,"type":"channel","subtype":"noteOff","noteNumber":63,"velocity":64},{"deltaTime":0,"channel":0,"type":"channel","noteNumber":63,"velocity":38,"subtype":"noteOn"},{"deltaTime":0,"channel":0,"type":"channel","noteNumber":67,"velocity":40,"subtype":"noteOn"},{"deltaTime":0,"channel":0,"type":"channel","noteNumber":70,"velocity":64,"subtype":"noteOn"},{"deltaTime":44,"channel":0,"type":"channel","subtype":"noteOff","noteNumber":58,"velocity":64},{"deltaTime":0,"channel":0,"type":"channel","subtype":"noteOff","noteNumber":63,"velocity":64},{"deltaTime":0,"channel":0,"type":"channel","subtype":"noteOff","noteNumber":67,"velocity":64},{"deltaTime":4,"channel":0,"type":"channel","noteNumber":36,"velocity":26,"subtype":"noteOn"},{"deltaTime":0,"channel":0,"type":"channel","subtype":"noteOff","noteNumber":70,"velocity":64},{"deltaTime":0,"channel":0,"type":"channel","noteNumber":79,"velocity":66,"subtype":"noteOn"},{"deltaTime":24,"channel":0,"type":"channel","subtype":"noteOff","noteNumber":36,"velocity":64},{"deltaTime":24,"channel":0,"type":"channel","noteNumber":55,"velocity":28,"subtype":"noteOn"},{"deltaTime":0,"channel":0,"type":"channel","noteNumber":64,"velocity":32,"subtype":"noteOn"},{"deltaTime":48,"channel":0,"type":"channel","subtype":"noteOff","noteNumber":55,"velocity":64},{"deltaTime":0,"channel":0,"type":"channel","noteNumber":58,"velocity":28,"subtype":"noteOn"},{"deltaTime":0,"channel":0,"type":"channel","subtype":"noteOff","noteNumber":64,"velocity":64},{"deltaTime":0,"channel":0,"type":"channel","noteNumber":64,"velocity":30,"subtype":"noteOn"},{"deltaTime":0,"channel":0,"type":"channel","noteNumber":67,"velocity":32,"subtype":"noteOn"},{"deltaTime":0,"channel":0,"type":"channel","noteNumber":72,"velocity":58,"subtype":"noteOn"},{"deltaTime":0,"channel":0,"type":"channel","subtype":"noteOff","noteNumber":79,"velocity":64},{"deltaTime":8,"channel":0,"type":"channel","subtype":"noteOff","noteNumber":72,"velocity":64},{"deltaTime":0,"channel":0,"type":"channel","noteNumber":73,"velocity":60,"subtype":"noteOn"},{"deltaTime":8,"channel":0,"type":"channel","noteNumber":72,"velocity":58,"subtype":"noteOn"},{"deltaTime":0,"channel":0,"type":"channel","subtype":"noteOff","noteNumber":73,"velocity":64},{"deltaTime":8,"channel":0,"type":"channel","noteNumber":71,"velocity":56,"subtype":"noteOn"},{"deltaTime":0,"channel":0,"type":"channel","subtype":"noteOff","noteNumber":72,"velocity":64},{"deltaTime":8,"channel":0,"type":"channel","subtype":"noteOff","noteNumber":71,"velocity":64},{"deltaTime":0,"channel":0,"type":"channel","noteNumber":72,"velocity":58,"subtype":"noteOn"},{"deltaTime":12,"channel":0,"type":"channel","subtype":"noteOff","noteNumber":58,"velocity":64},{"deltaTime":0,"channel":0,"type":"channel","subtype":"noteOff","noteNumber":64,"velocity":64},{"deltaTime":0,"channel":0,"type":"channel","subtype":"noteOff","noteNumber":67,"velocity":64},{"deltaTime":4,"channel":0,"type":"channel","noteNumber":48,"velocity":30,"subtype":"noteOn"},{"deltaTime":0,"channel":0,"type":"channel","subtype":"noteOff","noteNumber":72,"velocity":64},{"deltaTime":0,"channel":0,"type":"channel","noteNumber":84,"velocity":72,"subtype":"noteOn"},{"deltaTime":24,"channel":0,"type":"channel","subtype":"noteOff","noteNumber":48,"velocity":64},{"deltaTime":24,"channel":0,"type":"channel","noteNumber":55,"velocity":34,"subtype":"noteOn"},{"deltaTime":0,"channel":0,"type":"channel","noteNumber":64,"velocity":38,"subtype":"noteOn"},{"deltaTime":48,"channel":0,"type":"channel","subtype":"noteOff","noteNumber":55,"velocity":64},{"deltaTime":0,"channel":0,"type":"channel","noteNumber":60,"velocity":32,"subtype":"noteOn"},{"deltaTime":0,"channel":0,"type":"channel","subtype":"noteOff","noteNumber":64,"velocity":64},{"deltaTime":0,"channel":0,"type":"channel","noteNumber":64,"velocity":34,"subtype":"noteOn"},{"deltaTime":0,"channel":0,"type":"channel","noteNumber":70,"velocity":36,"subtype":"noteOn"},{"deltaTime":0,"channel":0,"type":"channel","noteNumber":79,"velocity":72,"subtype":"noteOn"},{"deltaTime":0,"channel":0,"type":"channel","subtype":"noteOff","noteNumber":84,"velocity":64},{"deltaTime":44,"channel":0,"type":"channel","subtype":"noteOff","noteNumber":60,"velocity":64},{"deltaTime":0,"channel":0,"type":"channel","subtype":"noteOff","noteNumber":64,"velocity":64},{"deltaTime":0,"channel":0,"type":"channel","subtype":"noteOff","noteNumber":70,"velocity":64},{"deltaTime":4,"channel":0,"type":"channel","noteNumber":41,"velocity":30,"subtype":"noteOn"},{"deltaTime":0,"channel":0,"type":"channel","subtype":"noteOff","noteNumber":79,"velocity":64},{"deltaTime":0,"channel":0,"type":"channel","noteNumber":82,"velocity":56,"subtype":"noteOn"},{"deltaTime":24,"channel":0,"type":"channel","subtype":"noteOff","noteNumber":41,"velocity":64},{"deltaTime":24,"channel":0,"type":"channel","noteNumber":53,"velocity":24,"subtype":"noteOn"},{"deltaTime":0,"channel":0,"type":"channel","noteNumber":61,"velocity":28,"subtype":"noteOn"},{"deltaTime":48,"channel":0,"type":"channel","subtype":"noteOff","noteNumber":53,"velocity":64},{"deltaTime":0,"channel":0,"type":"channel","noteNumber":58,"velocity":22,"subtype":"noteOn"},{"deltaTime":0,"channel":0,"type":"channel","subtype":"noteOff","noteNumber":61,"velocity":64},{"deltaTime":0,"channel":0,"type":"channel","noteNumber":61,"velocity":24,"subtype":"noteOn"},{"deltaTime":0,"channel":0,"type":"channel","noteNumber":64,"velocity":26,"subtype":"noteOn"},{"deltaTime":44,"channel":0,"type":"channel","subtype":"noteOff","noteNumber":58,"velocity":64},{"deltaTime":0,"channel":0,"type":"channel","subtype":"noteOff","noteNumber":61,"velocity":64},{"deltaTime":0,"channel":0,"type":"channel","subtype":"noteOff","noteNumber":64,"velocity":64},{"deltaTime":4,"channel":0,"type":"channel","noteNumber":41,"velocity":30,"subtype":"noteOn"},{"deltaTime":0,"channel":0,"type":"channel","noteNumber":80,"velocity":54,"subtype":"noteOn"},{"deltaTime":0,"channel":0,"type":"channel","subtype":"noteOff","noteNumber":82,"velocity":64},{"deltaTime":24,"channel":0,"type":"channel","subtype":"noteOff","noteNumber":41,"velocity":64},{"deltaTime":24,"channel":0,"type":"channel","noteNumber":53,"velocity":22,"subtype":"noteOn"},{"deltaTime":0,"channel":0,"type":"channel","noteNumber":60,"velocity":26,"subtype":"noteOn"},{"deltaTime":48,"channel":0,"type":"channel","subtype":"noteOff","noteNumber":53,"velocity":64},{"deltaTime":0,"channel":0,"type":"channel","noteNumber":56,"velocity":18,"subtype":"noteOn"},{"deltaTime":0,"channel":0,"type":"channel","subtype":"noteOff","noteNumber":60,"velocity":64},{"deltaTime":0,"channel":0,"type":"channel","noteNumber":60,"velocity":20,"subtype":"noteOn"},{"deltaTime":0,"channel":0,"type":"channel","noteNumber":65,"velocity":22,"subtype":"noteOn"},{"deltaTime":0,"channel":0,"type":"channel","noteNumber":79,"velocity":54,"subtype":"noteOn"},{"deltaTime":0,"channel":0,"type":"channel","subtype":"noteOff","noteNumber":80,"velocity":64},{"deltaTime":44,"channel":0,"type":"channel","subtype":"noteOff","noteNumber":56,"velocity":64},{"deltaTime":0,"channel":0,"type":"channel","subtype":"noteOff","noteNumber":60,"velocity":64},{"deltaTime":0,"channel":0,"type":"channel","subtype":"noteOff","noteNumber":65,"velocity":64},{"deltaTime":0,"channel":0,"type":"channel","subtype":"noteOff","noteNumber":79,"velocity":64},{"deltaTime":4,"channel":0,"type":"channel","noteNumber":46,"velocity":32,"subtype":"noteOn"},{"deltaTime":0,"channel":0,"type":"channel","noteNumber":77,"velocity":66,"subtype":"noteOn"},{"deltaTime":24,"channel":0,"type":"channel","subtype":"noteOff","noteNumber":46,"velocity":64},{"deltaTime":24,"channel":0,"type":"channel","noteNumber":53,"velocity":28,"subtype":"noteOn"},{"deltaTime":0,"channel":0,"type":"channel","noteNumber":62,"velocity":32,"subtype":"noteOn"},{"deltaTime":48,"channel":0,"type":"channel","subtype":"noteOff","noteNumber":53,"velocity":64},{"deltaTime":0,"channel":0,"type":"channel","noteNumber":58,"velocity":32,"subtype":"noteOn"},{"deltaTime":0,"channel":0,"type":"channel","subtype":"noteOff","noteNumber":62,"velocity":64},{"deltaTime":0,"channel":0,"type":"channel","noteNumber":62,"velocity":34,"subtype":"noteOn"},{"deltaTime":0,"channel":0,"type":"channel","noteNumber":68,"velocity":36,"subtype":"noteOn"},{"deltaTime":44,"channel":0,"type":"channel","subtype":"noteOff","noteNumber":58,"velocity":64},{"deltaTime":0,"channel":0,"type":"channel","subtype":"noteOff","noteNumber":62,"velocity":64},{"deltaTime":0,"channel":0,"type":"channel","subtype":"noteOff","noteNumber":68,"velocity":64},{"deltaTime":0,"channel":0,"type":"channel","subtype":"noteOff","noteNumber":77,"velocity":64},{"deltaTime":4,"channel":0,"type":"channel","noteNumber":47,"velocity":36,"subtype":"noteOn"},{"deltaTime":0,"channel":0,"type":"channel","noteNumber":79,"velocity":62,"subtype":"noteOn"},{"deltaTime":24,"channel":0,"type":"channel","subtype":"noteOff","noteNumber":47,"velocity":64},{"deltaTime":24,"channel":0,"type":"channel","noteNumber":55,"velocity":32,"subtype":"noteOn"},{"deltaTime":0,"channel":0,"type":"channel","noteNumber":65,"velocity":36,"subtype":"noteOn"},{"deltaTime":48,"channel":0,"type":"channel","subtype":"noteOff","noteNumber":55,"velocity":64},{"deltaTime":0,"channel":0,"type":"channel","noteNumber":62,"velocity":34,"subtype":"noteOn"},{"deltaTime":0,"channel":0,"type":"channel","subtype":"noteOff","noteNumber":65,"velocity":64},{"deltaTime":0,"channel":0,"type":"channel","noteNumber":65,"velocity":36,"subtype":"noteOn"},{"deltaTime":0,"channel":0,"type":"channel","noteNumber":67,"velocity":38,"subtype":"noteOn"},{"deltaTime":0,"channel":0,"type":"channel","noteNumber":74,"velocity":68,"subtype":"noteOn"},{"deltaTime":0,"channel":0,"type":"channel","subtype":"noteOff","noteNumber":79,"velocity":64},{"deltaTime":44,"channel":0,"type":"channel","subtype":"noteOff","noteNumber":62,"velocity":64},{"deltaTime":0,"channel":0,"type":"channel","subtype":"noteOff","noteNumber":65,"velocity":64},{"deltaTime":0,"channel":0,"type":"channel","subtype":"noteOff","noteNumber":67,"velocity":64},{"deltaTime":0,"channel":0,"type":"channel","subtype":"noteOff","noteNumber":74,"velocity":64},{"deltaTime":4,"channel":0,"type":"channel","noteNumber":48,"velocity":34,"subtype":"noteOn"},{"deltaTime":0,"channel":0,"type":"channel","noteNumber":75,"velocity":60,"subtype":"noteOn"},{"deltaTime":24,"channel":0,"type":"channel","subtype":"noteOff","noteNumber":48,"velocity":64},{"deltaTime":24,"channel":0,"type":"channel","noteNumber":55,"velocity":34,"subtype":"noteOn"},{"deltaTime":0,"channel":0,"type":"channel","noteNumber":63,"velocity":38,"subtype":"noteOn"},{"deltaTime":48,"channel":0,"type":"channel","subtype":"noteOff","noteNumber":55,"velocity":64},{"deltaTime":0,"channel":0,"type":"channel","noteNumber":60,"velocity":34,"subtype":"noteOn"},{"deltaTime":0,"channel":0,"type":"channel","subtype":"noteOff","noteNumber":63,"velocity":64},{"deltaTime":0,"channel":0,"type":"channel","noteNumber":63,"velocity":36,"subtype":"noteOn"},{"deltaTime":0,"channel":0,"type":"channel","noteNumber":67,"velocity":38,"subtype":"noteOn"},{"deltaTime":44,"channel":0,"type":"channel","subtype":"noteOff","noteNumber":60,"velocity":64},{"deltaTime":0,"channel":0,"type":"channel","subtype":"noteOff","noteNumber":63,"velocity":64},{"deltaTime":0,"channel":0,"type":"channel","subtype":"noteOff","noteNumber":67,"velocity":64},{"deltaTime":0,"channel":0,"type":"channel","subtype":"noteOff","noteNumber":75,"velocity":64},{"deltaTime":4,"channel":0,"type":"channel","noteNumber":45,"velocity":38,"subtype":"noteOn"},{"deltaTime":0,"channel":0,"type":"channel","noteNumber":72,"velocity":62,"subtype":"noteOn"},{"deltaTime":24,"channel":0,"type":"channel","subtype":"noteOff","noteNumber":45,"velocity":64},{"deltaTime":24,"channel":0,"type":"channel","noteNumber":54,"velocity":40,"subtype":"noteOn"},{"deltaTime":0,"channel":0,"type":"channel","noteNumber":63,"velocity":44,"subtype":"noteOn"},{"deltaTime":48,"channel":0,"type":"channel","subtype":"noteOff","noteNumber":54,"velocity":64},{"deltaTime":0,"channel":0,"type":"channel","noteNumber":60,"velocity":42,"subtype":"noteOn"},{"deltaTime":0,"channel":0,"type":"channel","subtype":"noteOff","noteNumber":63,"velocity":64},{"deltaTime":0,"channel":0,"type":"channel","noteNumber":63,"velocity":44,"subtype":"noteOn"},{"deltaTime":0,"channel":0,"type":"channel","noteNumber":66,"velocity":46,"subtype":"noteOn"},{"deltaTime":44,"channel":0,"type":"channel","subtype":"noteOff","noteNumber":60,"velocity":64},{"deltaTime":0,"channel":0,"type":"channel","subtype":"noteOff","noteNumber":63,"velocity":64},{"deltaTime":0,"channel":0,"type":"channel","subtype":"noteOff","noteNumber":66,"velocity":64},{"deltaTime":0,"channel":0,"type":"channel","subtype":"noteOff","noteNumber":72,"velocity":64},{"deltaTime":4,"channel":0,"type":"channel","noteNumber":46,"velocity":40,"subtype":"noteOn"},{"deltaTime":0,"channel":0,"type":"channel","noteNumber":70,"velocity":60,"subtype":"noteOn"},{"deltaTime":24,"channel":0,"type":"channel","subtype":"noteOff","noteNumber":46,"velocity":64},{"deltaTime":24,"channel":0,"type":"channel","noteNumber":53,"velocity":40,"subtype":"noteOn"},{"deltaTime":0,"channel":0,"type":"channel","noteNumber":63,"velocity":44,"subtype":"noteOn"},{"deltaTime":0,"channel":0,"type":"channel","subtype":"noteOff","noteNumber":70,"velocity":64},{"deltaTime":0,"channel":0,"type":"channel","noteNumber":86,"velocity":78,"subtype":"noteOn"},{"deltaTime":44,"channel":0,"type":"channel","subtype":"noteOff","noteNumber":86,"velocity":64},{"deltaTime":4,"channel":0,"type":"channel","subtype":"noteOff","noteNumber":53,"velocity":64},{"deltaTime":0,"channel":0,"type":"channel","noteNumber":58,"velocity":40,"subtype":"noteOn"},{"deltaTime":0,"channel":0,"type":"channel","subtype":"noteOff","noteNumber":63,"velocity":64},{"deltaTime":0,"channel":0,"type":"channel","noteNumber":63,"velocity":42,"subtype":"noteOn"},{"deltaTime":0,"channel":0,"type":"channel","noteNumber":68,"velocity":44,"subtype":"noteOn"},{"deltaTime":0,"channel":0,"type":"channel","noteNumber":84,"velocity":72,"subtype":"noteOn"},{"deltaTime":44,"channel":0,"type":"channel","subtype":"noteOff","noteNumber":58,"velocity":64},{"deltaTime":0,"channel":0,"type":"channel","subtype":"noteOff","noteNumber":63,"velocity":64},{"deltaTime":0,"channel":0,"type":"channel","subtype":"noteOff","noteNumber":68,"velocity":64},{"deltaTime":4,"channel":0,"type":"channel","noteNumber":34,"velocity":40,"subtype":"noteOn"},{"deltaTime":0,"channel":0,"type":"channel","noteNumber":82,"velocity":70,"subtype":"noteOn"},{"deltaTime":0,"channel":0,"type":"channel","subtype":"noteOff","noteNumber":84,"velocity":64},{"deltaTime":24,"channel":0,"type":"channel","subtype":"noteOff","noteNumber":34,"velocity":64},{"deltaTime":0,"channel":0,"type":"channel","noteNumber":80,"velocity":67,"subtype":"noteOn"},{"deltaTime":0,"channel":0,"type":"channel","subtype":"noteOff","noteNumber":82,"velocity":64},{"deltaTime":24,"channel":0,"type":"channel","noteNumber":53,"velocity":40,"subtype":"noteOn"},{"deltaTime":0,"channel":0,"type":"channel","noteNumber":62,"velocity":44,"subtype":"noteOn"},{"deltaTime":0,"channel":0,"type":"channel","noteNumber":79,"velocity":64,"subtype":"noteOn"},{"deltaTime":0,"channel":0,"type":"channel","subtype":"noteOff","noteNumber":80,"velocity":64},{"deltaTime":24,"channel":0,"type":"channel","subtype":"noteOff","noteNumber":79,"velocity":64},{"deltaTime":0,"channel":0,"type":"channel","noteNumber":80,"velocity":64,"subtype":"noteOn"},{"deltaTime":20,"channel":0,"type":"channel","subtype":"noteOff","noteNumber":80,"velocity":64},{"deltaTime":4,"channel":0,"type":"channel","subtype":"noteOff","noteNumber":53,"velocity":64},{"deltaTime":0,"channel":0,"type":"channel","noteNumber":58,"velocity":32,"subtype":"noteOn"},{"deltaTime":0,"channel":0,"type":"channel","subtype":"noteOff","noteNumber":62,"velocity":64},{"deltaTime":0,"channel":0,"type":"channel","noteNumber":68,"velocity":36,"subtype":"noteOn"},{"deltaTime":0,"channel":0,"type":"channel","noteNumber":72,"velocity":56,"subtype":"noteOn"},{"deltaTime":24,"channel":0,"type":"channel","subtype":"noteOff","noteNumber":72,"velocity":64},{"deltaTime":0,"channel":0,"type":"channel","noteNumber":74,"velocity":56,"subtype":"noteOn"},{"deltaTime":20,"channel":0,"type":"channel","subtype":"noteOff","noteNumber":58,"velocity":64},{"deltaTime":0,"channel":0,"type":"channel","subtype":"noteOff","noteNumber":68,"velocity":64},{"deltaTime":4,"channel":0,"type":"channel","noteNumber":39,"velocity":32,"subtype":"noteOn"},{"deltaTime":0,"channel":0,"type":"channel","subtype":"noteOff","noteNumber":74,"velocity":64},{"deltaTime":0,"channel":0,"type":"channel","noteNumber":75,"velocity":48,"subtype":"noteOn"},{"deltaTime":24,"channel":0,"type":"channel","subtype":"noteOff","noteNumber":39,"velocity":64},{"deltaTime":24,"channel":0,"type":"channel","noteNumber":55,"velocity":28,"subtype":"noteOn"},{"deltaTime":0,"channel":0,"type":"channel","noteNumber":63,"velocity":32,"subtype":"noteOn"},{"deltaTime":48,"channel":0,"type":"channel","subtype":"noteOff","noteNumber":55,"velocity":64},{"deltaTime":0,"channel":0,"type":"channel","noteNumber":58,"velocity":26,"subtype":"noteOn"},{"deltaTime":0,"channel":0,"type":"channel","subtype":"noteOff","noteNumber":63,"velocity":64},{"deltaTime":0,"channel":0,"type":"channel","noteNumber":63,"velocity":28,"subtype":"noteOn"},{"deltaTime":0,"channel":0,"type":"channel","noteNumber":67,"velocity":30,"subtype":"noteOn"},{"deltaTime":44,"channel":0,"type":"channel","subtype":"noteOff","noteNumber":58,"velocity":64},{"deltaTime":0,"channel":0,"type":"channel","subtype":"noteOff","noteNumber":63,"velocity":64},{"deltaTime":0,"channel":0,"type":"channel","subtype":"noteOff","noteNumber":67,"velocity":64},{"deltaTime":0,"channel":0,"type":"channel","subtype":"noteOff","noteNumber":75,"velocity":64},{"deltaTime":4,"channel":0,"type":"channel","noteNumber":51,"velocity":30,"subtype":"noteOn"},{"deltaTime":24,"channel":0,"type":"channel","subtype":"noteOff","noteNumber":51,"velocity":64},{"deltaTime":24,"channel":0,"type":"channel","noteNumber":55,"velocity":24,"subtype":"noteOn"},{"deltaTime":0,"channel":0,"type":"channel","noteNumber":63,"velocity":28,"subtype":"noteOn"},{"deltaTime":48,"channel":0,"type":"channel","subtype":"noteOff","noteNumber":55,"velocity":64},{"deltaTime":0,"channel":0,"type":"channel","noteNumber":58,"velocity":20,"subtype":"noteOn"},{"deltaTime":0,"channel":0,"type":"channel","subtype":"noteOff","noteNumber":63,"velocity":64},{"deltaTime":0,"channel":0,"type":"channel","noteNumber":63,"velocity":22,"subtype":"noteOn"},{"deltaTime":0,"channel":0,"type":"channel","noteNumber":67,"velocity":24,"subtype":"noteOn"},{"deltaTime":0,"channel":0,"type":"channel","noteNumber":70,"velocity":44,"subtype":"noteOn"},{"deltaTime":44,"channel":0,"type":"channel","subtype":"noteOff","noteNumber":58,"velocity":64},{"deltaTime":0,"channel":0,"type":"channel","subtype":"noteOff","noteNumber":63,"velocity":64},{"deltaTime":0,"channel":0,"type":"channel","subtype":"noteOff","noteNumber":67,"velocity":64},{"deltaTime":4,"channel":0,"type":"channel","noteNumber":51,"velocity":22,"subtype":"noteOn"},{"deltaTime":0,"channel":0,"type":"channel","subtype":"noteOff","noteNumber":70,"velocity":64},{"deltaTime":0,"channel":0,"type":"channel","noteNumber":79,"velocity":46,"subtype":"noteOn"},{"deltaTime":24,"channel":0,"type":"channel","subtype":"noteOff","noteNumber":51,"velocity":64},{"deltaTime":24,"channel":0,"type":"channel","noteNumber":55,"velocity":20,"subtype":"noteOn"},{"deltaTime":0,"channel":0,"type":"channel","noteNumber":63,"velocity":24,"subtype":"noteOn"},{"deltaTime":48,"channel":0,"type":"channel","subtype":"noteOff","noteNumber":55,"velocity":64},{"deltaTime":0,"channel":0,"type":"channel","noteNumber":58,"velocity":18,"subtype":"noteOn"},{"deltaTime":0,"channel":0,"type":"channel","subtype":"noteOff","noteNumber":63,"velocity":64},{"deltaTime":0,"channel":0,"type":"channel","noteNumber":63,"velocity":20,"subtype":"noteOn"},{"deltaTime":0,"channel":0,"type":"channel","noteNumber":67,"velocity":22,"subtype":"noteOn"},{"deltaTime":44,"channel":0,"type":"channel","subtype":"noteOff","noteNumber":58,"velocity":64},{"deltaTime":0,"channel":0,"type":"channel","subtype":"noteOff","noteNumber":63,"velocity":64},{"deltaTime":0,"channel":0,"type":"channel","subtype":"noteOff","noteNumber":67,"velocity":64},{"deltaTime":0,"channel":0,"type":"channel","subtype":"noteOff","noteNumber":79,"velocity":64},{"deltaTime":4,"channel":0,"type":"channel","noteNumber":51,"velocity":20,"subtype":"noteOn"},{"deltaTime":0,"channel":0,"type":"channel","noteNumber":77,"velocity":36,"subtype":"noteOn"},{"deltaTime":24,"channel":0,"type":"channel","subtype":"noteOff","noteNumber":51,"velocity":64},{"deltaTime":0,"channel":0,"type":"channel","subtype":"noteOff","noteNumber":77,"velocity":64},{"deltaTime":0,"channel":0,"type":"channel","noteNumber":79,"velocity":38,"subtype":"noteOn"},{"deltaTime":12,"channel":0,"type":"channel","noteNumber":77,"velocity":44,"subtype":"noteOn"},{"deltaTime":0,"channel":0,"type":"channel","subtype":"noteOff","noteNumber":79,"velocity":64},{"deltaTime":6,"channel":0,"type":"channel","subtype":"noteOff","noteNumber":77,"velocity":64},{"deltaTime":0,"channel":0,"type":"channel","noteNumber":79,"velocity":47,"subtype":"noteOn"},{"deltaTime":6,"channel":0,"type":"channel","noteNumber":56,"velocity":18,"subtype":"noteOn"},{"deltaTime":0,"channel":0,"type":"channel","noteNumber":62,"velocity":22,"subtype":"noteOn"},{"deltaTime":0,"channel":0,"type":"channel","noteNumber":77,"velocity":44,"subtype":"noteOn"},{"deltaTime":0,"channel":0,"type":"channel","subtype":"noteOff","noteNumber":79,"velocity":64},{"deltaTime":24,"channel":0,"type":"channel","noteNumber":76,"velocity":42,"subtype":"noteOn"},{"deltaTime":0,"channel":0,"type":"channel","subtype":"noteOff","noteNumber":77,"velocity":64},{"deltaTime":20,"channel":0,"type":"channel","subtype":"noteOff","noteNumber":76,"velocity":64},{"deltaTime":4,"channel":0,"type":"channel","subtype":"noteOff","noteNumber":56,"velocity":64},{"deltaTime":0,"channel":0,"type":"channel","noteNumber":59,"velocity":16,"subtype":"noteOn"},{"deltaTime":0,"channel":0,"type":"channel","subtype":"noteOff","noteNumber":62,"velocity":64},{"deltaTime":0,"channel":0,"type":"channel","noteNumber":62,"velocity":18,"subtype":"noteOn"},{"deltaTime":0,"channel":0,"type":"channel","noteNumber":68,"velocity":20,"subtype":"noteOn"},{"deltaTime":0,"channel":0,"type":"channel","noteNumber":77,"velocity":40,"subtype":"noteOn"},{"deltaTime":20,"channel":0,"type":"channel","subtype":"noteOff","noteNumber":77,"velocity":64},{"deltaTime":4,"channel":0,"type":"channel","noteNumber":79,"velocity":38,"subtype":"noteOn"},{"deltaTime":20,"channel":0,"type":"channel","subtype":"noteOff","noteNumber":59,"velocity":64},{"deltaTime":0,"channel":0,"type":"channel","subtype":"noteOff","noteNumber":62,"velocity":64},{"deltaTime":0,"channel":0,"type":"channel","subtype":"noteOff","noteNumber":68,"velocity":64},{"deltaTime":0,"channel":0,"type":"channel","subtype":"noteOff","noteNumber":79,"velocity":64},{"deltaTime":4,"channel":0,"type":"channel","noteNumber":51,"velocity":20,"subtype":"noteOn"},{"deltaTime":0,"channel":0,"type":"channel","noteNumber":77,"velocity":40,"subtype":"noteOn"},{"deltaTime":24,"channel":0,"type":"channel","subtype":"noteOff","noteNumber":51,"velocity":64},{"deltaTime":20,"channel":0,"type":"channel","subtype":"noteOff","noteNumber":77,"velocity":64},{"deltaTime":4,"channel":0,"type":"channel","noteNumber":55,"velocity":20,"subtype":"noteOn"},{"deltaTime":0,"channel":0,"type":"channel","noteNumber":63,"velocity":24,"subtype":"noteOn"},{"deltaTime":0,"channel":0,"type":"channel","noteNumber":75,"velocity":60,"subtype":"noteOn"},{"deltaTime":48,"channel":0,"type":"channel","subtype":"noteOff","noteNumber":55,"velocity":64},{"deltaTime":0,"channel":0,"type":"channel","noteNumber":58,"velocity":30,"subtype":"noteOn"},{"deltaTime":0,"channel":0,"type":"channel","subtype":"noteOff","noteNumber":63,"velocity":64},{"deltaTime":0,"channel":0,"type":"channel","noteNumber":63,"velocity":32,"subtype":"noteOn"},{"deltaTime":0,"channel":0,"type":"channel","noteNumber":67,"velocity":34,"subtype":"noteOn"},{"deltaTime":44,"channel":0,"type":"channel","subtype":"noteOff","noteNumber":58,"velocity":64},{"deltaTime":0,"channel":0,"type":"channel","subtype":"noteOff","noteNumber":63,"velocity":64},{"deltaTime":0,"channel":0,"type":"channel","subtype":"noteOff","noteNumber":67,"velocity":64},{"deltaTime":4,"channel":0,"type":"channel","noteNumber":50,"velocity":30,"subtype":"noteOn"},{"deltaTime":20,"channel":0,"type":"channel","subtype":"noteOff","noteNumber":75,"velocity":64},{"deltaTime":4,"channel":0,"type":"channel","subtype":"noteOff","noteNumber":50,"velocity":64},{"deltaTime":0,"channel":0,"type":"channel","noteNumber":77,"velocity":60,"subtype":"noteOn"},{"deltaTime":12,"channel":0,"type":"channel","noteNumber":75,"velocity":62,"subtype":"noteOn"},{"deltaTime":0,"channel":0,"type":"channel","subtype":"noteOff","noteNumber":77,"velocity":64},{"deltaTime":6,"channel":0,"type":"channel","subtype":"noteOff","noteNumber":75,"velocity":64},{"deltaTime":0,"channel":0,"type":"channel","noteNumber":77,"velocity":64,"subtype":"noteOn"},{"deltaTime":6,"channel":0,"type":"channel","noteNumber":55,"velocity":32,"subtype":"noteOn"},{"deltaTime":0,"channel":0,"type":"channel","noteNumber":63,"velocity":36,"subtype":"noteOn"},{"deltaTime":0,"channel":0,"type":"channel","noteNumber":75,"velocity":62,"subtype":"noteOn"},{"deltaTime":0,"channel":0,"type":"channel","subtype":"noteOff","noteNumber":77,"velocity":64},{"deltaTime":20,"channel":0,"type":"channel","subtype":"noteOff","noteNumber":75,"velocity":64},{"deltaTime":4,"channel":0,"type":"channel","noteNumber":74,"velocity":64,"subtype":"noteOn"},{"deltaTime":20,"channel":0,"type":"channel","subtype":"noteOff","noteNumber":74,"velocity":64},{"deltaTime":4,"channel":0,"type":"channel","subtype":"noteOff","noteNumber":55,"velocity":64},{"deltaTime":0,"channel":0,"type":"channel","noteNumber":58,"velocity":30,"subtype":"noteOn"},{"deltaTime":0,"channel":0,"type":"channel","subtype":"noteOff","noteNumber":63,"velocity":64},{"deltaTime":0,"channel":0,"type":"channel","noteNumber":63,"velocity":32,"subtype":"noteOn"},{"deltaTime":0,"channel":0,"type":"channel","noteNumber":67,"velocity":34,"subtype":"noteOn"},{"deltaTime":0,"channel":0,"type":"channel","noteNumber":75,"velocity":64,"subtype":"noteOn"},{"deltaTime":20,"channel":0,"type":"channel","subtype":"noteOff","noteNumber":75,"velocity":64},{"deltaTime":4,"channel":0,"type":"channel","noteNumber":77,"velocity":60,"subtype":"noteOn"},{"deltaTime":20,"channel":0,"type":"channel","subtype":"noteOff","noteNumber":58,"velocity":64},{"deltaTime":0,"channel":0,"type":"channel","subtype":"noteOff","noteNumber":63,"velocity":64},{"deltaTime":0,"channel":0,"type":"channel","subtype":"noteOff","noteNumber":67,"velocity":64},{"deltaTime":0,"channel":0,"type":"channel","subtype":"noteOff","noteNumber":77,"velocity":64},{"deltaTime":4,"channel":0,"type":"channel","noteNumber":48,"velocity":28,"subtype":"noteOn"},{"deltaTime":0,"channel":0,"type":"channel","noteNumber":79,"velocity":54,"subtype":"noteOn"},{"deltaTime":20,"channel":0,"type":"channel","subtype":"noteOff","noteNumber":79,"velocity":64},{"deltaTime":4,"channel":0,"type":"channel","subtype":"noteOff","noteNumber":48,"velocity":64},{"deltaTime":0,"channel":0,"type":"channel","noteNumber":71,"velocity":58,"subtype":"noteOn"},{"deltaTime":20,"channel":0,"type":"channel","subtype":"noteOff","noteNumber":71,"velocity":64},{"deltaTime":4,"channel":0,"type":"channel","noteNumber":55,"velocity":28,"subtype":"noteOn"},{"deltaTime":0,"channel":0,"type":"channel","noteNumber":64,"velocity":32,"subtype":"noteOn"},{"deltaTime":0,"channel":0,"type":"channel","noteNumber":72,"velocity":62,"subtype":"noteOn"},{"deltaTime":20,"channel":0,"type":"channel","subtype":"noteOff","noteNumber":72,"velocity":64},{"deltaTime":4,"channel":0,"type":"channel","noteNumber":73,"velocity":66,"subtype":"noteOn"},{"deltaTime":24,"channel":0,"type":"channel","subtype":"noteOff","noteNumber":55,"velocity":64},{"deltaTime":0,"channel":0,"type":"channel","noteNumber":58,"velocity":34,"subtype":"noteOn"},{"deltaTime":0,"channel":0,"type":"channel","subtype":"noteOff","noteNumber":64,"velocity":64},{"deltaTime":0,"channel":0,"type":"channel","noteNumber":64,"velocity":36,"subtype":"noteOn"},{"deltaTime":0,"channel":0,"type":"channel","noteNumber":67,"velocity":38,"subtype":"noteOn"},{"deltaTime":0,"channel":0,"type":"channel","noteNumber":72,"velocity":64,"subtype":"noteOn"},{"deltaTime":0,"channel":0,"type":"channel","subtype":"noteOff","noteNumber":73,"velocity":64},{"deltaTime":20,"channel":0,"type":"channel","subtype":"noteOff","noteNumber":72,"velocity":64},{"deltaTime":4,"channel":0,"type":"channel","noteNumber":77,"velocity":70,"subtype":"noteOn"},{"deltaTime":20,"channel":0,"type":"channel","subtype":"noteOff","noteNumber":58,"velocity":64},{"deltaTime":0,"channel":0,"type":"channel","subtype":"noteOff","noteNumber":64,"velocity":64},{"deltaTime":0,"channel":0,"type":"channel","subtype":"noteOff","noteNumber":67,"velocity":64},{"deltaTime":4,"channel":0,"type":"channel","noteNumber":48,"velocity":34,"subtype":"noteOn"},{"deltaTime":0,"channel":0,"type":"channel","noteNumber":76,"velocity":68,"subtype":"noteOn"},{"deltaTime":0,"channel":0,"type":"channel","subtype":"noteOff","noteNumber":77,"velocity":64},{"deltaTime":20,"channel":0,"type":"channel","subtype":"noteOff","noteNumber":76,"velocity":64},{"deltaTime":4,"channel":0,"type":"channel","subtype":"noteOff","noteNumber":48,"velocity":64},{"deltaTime":0,"channel":0,"type":"channel","noteNumber":80,"velocity":74,"subtype":"noteOn"},{"deltaTime":24,"channel":0,"type":"channel","noteNumber":55,"velocity":34,"subtype":"noteOn"},{"deltaTime":0,"channel":0,"type":"channel","noteNumber":64,"velocity":38,"subtype":"noteOn"},{"deltaTime":0,"channel":0,"type":"channel","noteNumber":79,"velocity":66,"subtype":"noteOn"},{"deltaTime":0,"channel":0,"type":"channel","subtype":"noteOff","noteNumber":80,"velocity":64},{"deltaTime":20,"channel":0,"type":"channel","subtype":"noteOff","noteNumber":79,"velocity":64},{"deltaTime":4,"channel":0,"type":"channel","noteNumber":85,"velocity":77,"subtype":"noteOn"},{"deltaTime":24,"channel":0,"type":"channel","subtype":"noteOff","noteNumber":55,"velocity":64},{"deltaTime":0,"channel":0,"type":"channel","noteNumber":60,"velocity":36,"subtype":"noteOn"},{"deltaTime":0,"channel":0,"type":"channel","subtype":"noteOff","noteNumber":64,"velocity":64},{"deltaTime":0,"channel":0,"type":"channel","noteNumber":64,"velocity":38,"subtype":"noteOn"},{"deltaTime":0,"channel":0,"type":"channel","noteNumber":70,"velocity":40,"subtype":"noteOn"},{"deltaTime":0,"channel":0,"type":"channel","noteNumber":84,"velocity":74,"subtype":"noteOn"},{"deltaTime":0,"channel":0,"type":"channel","subtype":"noteOff","noteNumber":85,"velocity":64},{"deltaTime":24,"channel":0,"type":"channel","noteNumber":79,"velocity":70,"subtype":"noteOn"},{"deltaTime":0,"channel":0,"type":"channel","subtype":"noteOff","noteNumber":84,"velocity":64},{"deltaTime":20,"channel":0,"type":"channel","subtype":"noteOff","noteNumber":60,"velocity":64},{"deltaTime":0,"channel":0,"type":"channel","subtype":"noteOff","noteNumber":64,"velocity":64},{"deltaTime":0,"channel":0,"type":"channel","subtype":"noteOff","noteNumber":70,"velocity":64},{"deltaTime":4,"channel":0,"type":"channel","noteNumber":41,"velocity":46,"subtype":"noteOn"},{"deltaTime":0,"channel":0,"type":"channel","subtype":"noteOff","noteNumber":79,"velocity":64},{"deltaTime":0,"channel":0,"type":"channel","noteNumber":82,"velocity":62,"subtype":"noteOn"},{"deltaTime":24,"channel":0,"type":"channel","subtype":"noteOff","noteNumber":41,"velocity":64},{"deltaTime":24,"channel":0,"type":"channel","noteNumber":53,"velocity":30,"subtype":"noteOn"},{"deltaTime":0,"channel":0,"type":"channel","noteNumber":61,"velocity":34,"subtype":"noteOn"},{"deltaTime":48,"channel":0,"type":"channel","subtype":"noteOff","noteNumber":53,"velocity":64},{"deltaTime":0,"channel":0,"type":"channel","noteNumber":58,"velocity":28,"subtype":"noteOn"},{"deltaTime":0,"channel":0,"type":"channel","subtype":"noteOff","noteNumber":61,"velocity":64},{"deltaTime":0,"channel":0,"type":"channel","noteNumber":61,"velocity":30,"subtype":"noteOn"},{"deltaTime":0,"channel":0,"type":"channel","noteNumber":64,"velocity":32,"subtype":"noteOn"},{"deltaTime":44,"channel":0,"type":"channel","subtype":"noteOff","noteNumber":58,"velocity":64},{"deltaTime":0,"channel":0,"type":"channel","subtype":"noteOff","noteNumber":61,"velocity":64},{"deltaTime":0,"channel":0,"type":"channel","subtype":"noteOff","noteNumber":64,"velocity":64},{"deltaTime":0,"channel":0,"type":"channel","subtype":"noteOff","noteNumber":82,"velocity":64},{"deltaTime":4,"channel":0,"type":"channel","noteNumber":41,"velocity":36,"subtype":"noteOn"},{"deltaTime":0,"channel":0,"type":"channel","noteNumber":80,"velocity":54,"subtype":"noteOn"},{"deltaTime":24,"channel":0,"type":"channel","subtype":"noteOff","noteNumber":41,"velocity":64},{"deltaTime":24,"channel":0,"type":"channel","noteNumber":53,"velocity":28,"subtype":"noteOn"},{"deltaTime":0,"channel":0,"type":"channel","noteNumber":60,"velocity":32,"subtype":"noteOn"},{"deltaTime":44,"channel":0,"type":"channel","subtype":"noteOff","noteNumber":80,"velocity":64},{"deltaTime":4,"channel":0,"type":"channel","subtype":"noteOff","noteNumber":53,"velocity":64},{"deltaTime":0,"channel":0,"type":"channel","noteNumber":56,"velocity":28,"subtype":"noteOn"},{"deltaTime":0,"channel":0,"type":"channel","subtype":"noteOff","noteNumber":60,"velocity":64},{"deltaTime":0,"channel":0,"type":"channel","noteNumber":60,"velocity":30,"subtype":"noteOn"},{"deltaTime":0,"channel":0,"type":"channel","noteNumber":65,"velocity":32,"subtype":"noteOn"},{"deltaTime":0,"channel":0,"type":"channel","noteNumber":79,"velocity":54,"subtype":"noteOn"},{"deltaTime":44,"channel":0,"type":"channel","subtype":"noteOff","noteNumber":56,"velocity":64},{"deltaTime":0,"channel":0,"type":"channel","subtype":"noteOff","noteNumber":60,"velocity":64},{"deltaTime":0,"channel":0,"type":"channel","subtype":"noteOff","noteNumber":65,"velocity":64},{"deltaTime":0,"channel":0,"type":"channel","subtype":"noteOff","noteNumber":79,"velocity":64},{"deltaTime":4,"channel":0,"type":"channel","noteNumber":46,"velocity":34,"subtype":"noteOn"},{"deltaTime":0,"channel":0,"type":"channel","noteNumber":77,"velocity":60,"subtype":"noteOn"},{"deltaTime":10,"channel":0,"type":"channel","subtype":"noteOff","noteNumber":77,"velocity":64},{"deltaTime":0,"channel":0,"type":"channel","noteNumber":79,"velocity":54,"subtype":"noteOn"},{"deltaTime":10,"channel":0,"type":"channel","noteNumber":77,"velocity":50,"subtype":"noteOn"},{"deltaTime":0,"channel":0,"type":"channel","subtype":"noteOff","noteNumber":79,"velocity":64},{"deltaTime":4,"channel":0,"type":"channel","subtype":"noteOff","noteNumber":46,"velocity":64},{"deltaTime":6,"channel":0,"type":"channel","subtype":"noteOff","noteNumber":77,"velocity":64},{"deltaTime":0,"channel":0,"type":"channel","noteNumber":79,"velocity":49,"subtype":"noteOn"},{"deltaTime":10,"channel":0,"type":"channel","noteNumber":77,"velocity":48,"subtype":"noteOn"},{"deltaTime":0,"channel":0,"type":"channel","subtype":"noteOff","noteNumber":79,"velocity":64},{"deltaTime":6,"channel":0,"type":"channel","noteNumber":53,"velocity":32,"subtype":"noteOn"},{"deltaTime":0,"channel":0,"type":"channel","noteNumber":62,"velocity":36,"subtype":"noteOn"},{"deltaTime":4,"channel":0,"type":"channel","subtype":"noteOff","noteNumber":77,"velocity":64},{"deltaTime":0,"channel":0,"type":"channel","noteNumber":79,"velocity":50,"subtype":"noteOn"},{"deltaTime":10,"channel":0,"type":"channel","noteNumber":77,"velocity":49,"subtype":"noteOn"},{"deltaTime":0,"channel":0,"type":"channel","subtype":"noteOff","noteNumber":79,"velocity":64},{"deltaTime":10,"channel":0,"type":"channel","subtype":"noteOff","noteNumber":77,"velocity":64},{"deltaTime":0,"channel":0,"type":"channel","noteNumber":79,"velocity":52,"subtype":"noteOn"},{"deltaTime":10,"channel":0,"type":"channel","noteNumber":77,"velocity":49,"subtype":"noteOn"},{"deltaTime":0,"channel":0,"type":"channel","subtype":"noteOff","noteNumber":79,"velocity":64},{"deltaTime":10,"channel":0,"type":"channel","subtype":"noteOff","noteNumber":77,"velocity":64},{"deltaTime":0,"channel":0,"type":"channel","noteNumber":79,"velocity":50,"subtype":"noteOn"},{"deltaTime":8,"channel":0,"type":"channel","subtype":"noteOff","noteNumber":53,"velocity":64},{"deltaTime":0,"channel":0,"type":"channel","noteNumber":58,"velocity":34,"subtype":"noteOn"},{"deltaTime":0,"channel":0,"type":"channel","subtype":"noteOff","noteNumber":62,"velocity":64},{"deltaTime":0,"channel":0,"type":"channel","noteNumber":62,"velocity":36,"subtype":"noteOn"},{"deltaTime":0,"channel":0,"type":"channel","noteNumber":68,"velocity":38,"subtype":"noteOn"},{"deltaTime":2,"channel":0,"type":"channel","noteNumber":77,"velocity":47,"subtype":"noteOn"},{"deltaTime":0,"channel":0,"type":"channel","subtype":"noteOff","noteNumber":79,"velocity":64},{"deltaTime":10,"channel":0,"type":"channel","subtype":"noteOff","noteNumber":77,"velocity":64},{"deltaTime":0,"channel":0,"type":"channel","noteNumber":79,"velocity":48,"subtype":"noteOn"},{"deltaTime":10,"channel":0,"type":"channel","noteNumber":77,"velocity":46,"subtype":"noteOn"},{"deltaTime":0,"channel":0,"type":"channel","subtype":"noteOff","noteNumber":79,"velocity":64},{"deltaTime":8,"channel":0,"type":"channel","noteNumber":76,"velocity":60,"subtype":"noteOn"},{"deltaTime":0,"channel":0,"type":"channel","subtype":"noteOff","noteNumber":77,"velocity":64},{"deltaTime":8,"channel":0,"type":"channel","subtype":"noteOff","noteNumber":76,"velocity":64},{"deltaTime":0,"channel":0,"type":"channel","noteNumber":77,"velocity":60,"subtype":"noteOn"},{"deltaTime":4,"channel":0,"type":"channel","subtype":"noteOff","noteNumber":58,"velocity":64},{"deltaTime":0,"channel":0,"type":"channel","subtype":"noteOff","noteNumber":62,"velocity":64},{"deltaTime":0,"channel":0,"type":"channel","subtype":"noteOff","noteNumber":68,"velocity":64},{"deltaTime":4,"channel":0,"type":"channel","noteNumber":47,"velocity":34,"subtype":"noteOn"},{"deltaTime":0,"channel":0,"type":"channel","subtype":"noteOff","noteNumber":77,"velocity":64},{"deltaTime":0,"channel":0,"type":"channel","noteNumber":79,"velocity":56,"subtype":"noteOn"},{"deltaTime":24,"channel":0,"type":"channel","subtype":"noteOff","noteNumber":47,"velocity":64},{"deltaTime":0,"channel":0,"type":"channel","subtype":"noteOff","noteNumber":79,"velocity":64},{"deltaTime":24,"channel":0,"type":"channel","noteNumber":55,"velocity":32,"subtype":"noteOn"},{"deltaTime":0,"channel":0,"type":"channel","noteNumber":65,"velocity":36,"subtype":"noteOn"},{"deltaTime":0,"channel":0,"type":"channel","noteNumber":79,"velocity":58,"subtype":"noteOn"},{"deltaTime":48,"channel":0,"type":"channel","subtype":"noteOff","noteNumber":55,"velocity":64},{"deltaTime":0,"channel":0,"type":"channel","noteNumber":62,"velocity":32,"subtype":"noteOn"},{"deltaTime":0,"channel":0,"type":"channel","subtype":"noteOff","noteNumber":65,"velocity":64},{"deltaTime":0,"channel":0,"type":"channel","noteNumber":65,"velocity":34,"subtype":"noteOn"},{"deltaTime":0,"channel":0,"type":"channel","noteNumber":67,"velocity":36,"subtype":"noteOn"},{"deltaTime":0,"channel":0,"type":"channel","noteNumber":74,"velocity":66,"subtype":"noteOn"},{"deltaTime":0,"channel":0,"type":"channel","subtype":"noteOff","noteNumber":79,"velocity":64},{"deltaTime":44,"channel":0,"type":"channel","subtype":"noteOff","noteNumber":62,"velocity":64},{"deltaTime":0,"channel":0,"type":"channel","subtype":"noteOff","noteNumber":65,"velocity":64},{"deltaTime":0,"channel":0,"type":"channel","subtype":"noteOff","noteNumber":67,"velocity":64},{"deltaTime":0,"channel":0,"type":"channel","subtype":"noteOff","noteNumber":74,"velocity":64},{"deltaTime":4,"channel":0,"type":"channel","noteNumber":48,"velocity":36,"subtype":"noteOn"},{"deltaTime":0,"channel":0,"type":"channel","noteNumber":75,"velocity":64,"subtype":"noteOn"},{"deltaTime":24,"channel":0,"type":"channel","subtype":"noteOff","noteNumber":48,"velocity":64},{"deltaTime":24,"channel":0,"type":"channel","noteNumber":55,"velocity":36,"subtype":"noteOn"},{"deltaTime":0,"channel":0,"type":"channel","noteNumber":63,"velocity":40,"subtype":"noteOn"},{"deltaTime":48,"channel":0,"type":"channel","subtype":"noteOff","noteNumber":55,"velocity":64},{"deltaTime":0,"channel":0,"type":"channel","noteNumber":60,"velocity":36,"subtype":"noteOn"},{"deltaTime":0,"channel":0,"type":"channel","subtype":"noteOff","noteNumber":63,"velocity":64},{"deltaTime":0,"channel":0,"type":"channel","noteNumber":63,"velocity":38,"subtype":"noteOn"},{"deltaTime":0,"channel":0,"type":"channel","noteNumber":67,"velocity":40,"subtype":"noteOn"},{"deltaTime":44,"channel":0,"type":"channel","subtype":"noteOff","noteNumber":60,"velocity":64},{"deltaTime":0,"channel":0,"type":"channel","subtype":"noteOff","noteNumber":63,"velocity":64},{"deltaTime":0,"channel":0,"type":"channel","subtype":"noteOff","noteNumber":67,"velocity":64},{"deltaTime":4,"channel":0,"type":"channel","noteNumber":45,"velocity":38,"subtype":"noteOn"},{"deltaTime":0,"channel":0,"type":"channel","noteNumber":72,"velocity":62,"subtype":"noteOn"},{"deltaTime":0,"channel":0,"type":"channel","subtype":"noteOff","noteNumber":75,"velocity":64},{"deltaTime":24,"channel":0,"type":"channel","subtype":"noteOff","noteNumber":45,"velocity":64},{"deltaTime":24,"channel":0,"type":"channel","noteNumber":54,"velocity":36,"subtype":"noteOn"},{"deltaTime":0,"channel":0,"type":"channel","noteNumber":63,"velocity":40,"subtype":"noteOn"},{"deltaTime":48,"channel":0,"type":"channel","subtype":"noteOff","noteNumber":54,"velocity":64},{"deltaTime":0,"channel":0,"type":"channel","noteNumber":60,"velocity":34,"subtype":"noteOn"},{"deltaTime":0,"channel":0,"type":"channel","subtype":"noteOff","noteNumber":63,"velocity":64},{"deltaTime":0,"channel":0,"type":"channel","noteNumber":63,"velocity":36,"subtype":"noteOn"},{"deltaTime":0,"channel":0,"type":"channel","noteNumber":66,"velocity":38,"subtype":"noteOn"},{"deltaTime":44,"channel":0,"type":"channel","subtype":"noteOff","noteNumber":60,"velocity":64},{"deltaTime":0,"channel":0,"type":"channel","subtype":"noteOff","noteNumber":63,"velocity":64},{"deltaTime":0,"channel":0,"type":"channel","subtype":"noteOff","noteNumber":66,"velocity":64},{"deltaTime":0,"channel":0,"type":"channel","subtype":"noteOff","noteNumber":72,"velocity":64},{"deltaTime":4,"channel":0,"type":"channel","noteNumber":46,"velocity":32,"subtype":"noteOn"},{"deltaTime":0,"channel":0,"type":"channel","noteNumber":70,"velocity":60,"subtype":"noteOn"},{"deltaTime":24,"channel":0,"type":"channel","subtype":"noteOff","noteNumber":46,"velocity":64},{"deltaTime":24,"channel":0,"type":"channel","noteNumber":53,"velocity":32,"subtype":"noteOn"},{"deltaTime":0,"channel":0,"type":"channel","noteNumber":63,"velocity":36,"subtype":"noteOn"},{"deltaTime":0,"channel":0,"type":"channel","subtype":"noteOff","noteNumber":70,"velocity":64},{"deltaTime":0,"channel":0,"type":"channel","noteNumber":86,"velocity":74,"subtype":"noteOn"},{"deltaTime":48,"channel":0,"type":"channel","subtype":"noteOff","noteNumber":53,"velocity":64},{"deltaTime":0,"channel":0,"type":"channel","noteNumber":58,"velocity":34,"subtype":"noteOn"},{"deltaTime":0,"channel":0,"type":"channel","subtype":"noteOff","noteNumber":63,"velocity":64},{"deltaTime":0,"channel":0,"type":"channel","noteNumber":63,"velocity":36,"subtype":"noteOn"},{"deltaTime":0,"channel":0,"type":"channel","noteNumber":68,"velocity":38,"subtype":"noteOn"},{"deltaTime":0,"channel":0,"type":"channel","noteNumber":84,"velocity":70,"subtype":"noteOn"},{"deltaTime":0,"channel":0,"type":"channel","subtype":"noteOff","noteNumber":86,"velocity":64},{"deltaTime":24,"channel":0,"type":"channel","subtype":"noteOff","noteNumber":84,"velocity":64},{"deltaTime":20,"channel":0,"type":"channel","subtype":"noteOff","noteNumber":58,"velocity":64},{"deltaTime":0,"channel":0,"type":"channel","subtype":"noteOff","noteNumber":63,"velocity":64},{"deltaTime":0,"channel":0,"type":"channel","subtype":"noteOff","noteNumber":68,"velocity":64},{"deltaTime":4,"channel":0,"type":"channel","noteNumber":34,"velocity":36,"subtype":"noteOn"},{"deltaTime":0,"channel":0,"type":"channel","noteNumber":82,"velocity":68,"subtype":"noteOn"},{"deltaTime":20,"channel":0,"type":"channel","subtype":"noteOff","noteNumber":82,"velocity":64},{"deltaTime":4,"channel":0,"type":"channel","subtype":"noteOff","noteNumber":34,"velocity":64},{"deltaTime":0,"channel":0,"type":"channel","noteNumber":80,"velocity":65,"subtype":"noteOn"},{"deltaTime":12,"channel":0,"type":"channel","subtype":"noteOff","noteNumber":80,"velocity":64},{"deltaTime":12,"channel":0,"type":"channel","noteNumber":53,"velocity":28,"subtype":"noteOn"},{"deltaTime":0,"channel":0,"type":"channel","noteNumber":62,"velocity":32,"subtype":"noteOn"},{"deltaTime":0,"channel":0,"type":"channel","noteNumber":79,"velocity":62,"subtype":"noteOn"},{"deltaTime":12,"channel":0,"type":"channel","subtype":"noteOff","noteNumber":79,"velocity":64},{"deltaTime":12,"channel":0,"type":"channel","noteNumber":80,"velocity":60,"subtype":"noteOn"},{"deltaTime":12,"channel":0,"type":"channel","subtype":"noteOff","noteNumber":80,"velocity":64},{"deltaTime":4,"channel":0,"type":"channel","noteNumber":80,"velocity":50,"subtype":"noteOn"},{"deltaTime":8,"channel":0,"type":"channel","subtype":"noteOff","noteNumber":53,"velocity":64},{"deltaTime":0,"channel":0,"type":"channel","noteNumber":58,"velocity":22,"subtype":"noteOn"},{"deltaTime":0,"channel":0,"type":"channel","subtype":"noteOff","noteNumber":62,"velocity":64},{"deltaTime":0,"channel":0,"type":"channel","noteNumber":68,"velocity":26,"subtype":"noteOn"},{"deltaTime":0,"channel":0,"type":"channel","noteNumber":72,"velocity":42,"subtype":"noteOn"},{"deltaTime":0,"channel":0,"type":"channel","subtype":"noteOff","noteNumber":80,"velocity":64},{"deltaTime":24,"channel":0,"type":"channel","subtype":"noteOff","noteNumber":72,"velocity":64},{"deltaTime":0,"channel":0,"type":"channel","noteNumber":74,"velocity":42,"subtype":"noteOn"},{"deltaTime":20,"channel":0,"type":"channel","subtype":"noteOff","noteNumber":58,"velocity":64},{"deltaTime":0,"channel":0,"type":"channel","subtype":"noteOff","noteNumber":68,"velocity":64},{"deltaTime":0,"channel":0,"type":"channel","subtype":"noteOff","noteNumber":74,"velocity":64},{"deltaTime":4,"channel":0,"type":"channel","noteNumber":39,"velocity":28,"subtype":"noteOn"},{"deltaTime":0,"channel":0,"type":"channel","noteNumber":75,"velocity":40,"subtype":"noteOn"},{"deltaTime":24,"channel":0,"type":"channel","subtype":"noteOff","noteNumber":39,"velocity":64},{"deltaTime":24,"channel":0,"type":"channel","noteNumber":55,"velocity":20,"subtype":"noteOn"},{"deltaTime":0,"channel":0,"type":"channel","noteNumber":63,"velocity":24,"subtype":"noteOn"},{"deltaTime":48,"channel":0,"type":"channel","subtype":"noteOff","noteNumber":55,"velocity":64},{"deltaTime":0,"channel":0,"type":"channel","noteNumber":58,"velocity":20,"subtype":"noteOn"},{"deltaTime":0,"channel":0,"type":"channel","subtype":"noteOff","noteNumber":63,"velocity":64},{"deltaTime":0,"channel":0,"type":"channel","noteNumber":63,"velocity":22,"subtype":"noteOn"},{"deltaTime":0,"channel":0,"type":"channel","noteNumber":67,"velocity":24,"subtype":"noteOn"},{"deltaTime":44,"channel":0,"type":"channel","subtype":"noteOff","noteNumber":58,"velocity":64},{"deltaTime":0,"channel":0,"type":"channel","subtype":"noteOff","noteNumber":63,"velocity":64},{"deltaTime":0,"channel":0,"type":"channel","subtype":"noteOff","noteNumber":67,"velocity":64},{"deltaTime":4,"channel":0,"type":"channel","noteNumber":51,"velocity":24,"subtype":"noteOn"},{"deltaTime":24,"channel":0,"type":"channel","subtype":"noteOff","noteNumber":51,"velocity":64},{"deltaTime":20,"channel":0,"type":"channel","subtype":"noteOff","noteNumber":75,"velocity":64},{"deltaTime":4,"channel":0,"type":"channel","noteNumber":55,"velocity":20,"subtype":"noteOn"},{"deltaTime":0,"channel":0,"type":"channel","noteNumber":63,"velocity":24,"subtype":"noteOn"},{"deltaTime":0,"channel":0,"type":"channel","noteNumber":74,"velocity":47,"subtype":"noteOn"},{"deltaTime":44,"channel":0,"type":"channel","subtype":"noteOff","noteNumber":74,"velocity":64},{"deltaTime":4,"channel":0,"type":"channel","subtype":"noteOff","noteNumber":55,"velocity":64},{"deltaTime":0,"channel":0,"type":"channel","noteNumber":58,"velocity":20,"subtype":"noteOn"},{"deltaTime":0,"channel":0,"type":"channel","subtype":"noteOff","noteNumber":63,"velocity":64},{"deltaTime":0,"channel":0,"type":"channel","noteNumber":63,"velocity":22,"subtype":"noteOn"},{"deltaTime":0,"channel":0,"type":"channel","noteNumber":67,"velocity":24,"subtype":"noteOn"},{"deltaTime":0,"channel":0,"type":"channel","noteNumber":75,"velocity":48,"subtype":"noteOn"},{"deltaTime":44,"channel":0,"type":"channel","subtype":"noteOff","noteNumber":58,"velocity":64},{"deltaTime":0,"channel":0,"type":"channel","subtype":"noteOff","noteNumber":63,"velocity":64},{"deltaTime":0,"channel":0,"type":"channel","subtype":"noteOff","noteNumber":67,"velocity":64},{"deltaTime":0,"channel":0,"type":"channel","subtype":"noteOff","noteNumber":75,"velocity":64},{"deltaTime":4,"channel":0,"type":"channel","noteNumber":46,"velocity":24,"subtype":"noteOn"},{"deltaTime":0,"channel":0,"type":"channel","noteNumber":77,"velocity":50,"subtype":"noteOn"},{"deltaTime":24,"channel":0,"type":"channel","subtype":"noteOff","noteNumber":46,"velocity":64},{"deltaTime":24,"channel":0,"type":"channel","noteNumber":53,"velocity":20,"subtype":"noteOn"},{"deltaTime":0,"channel":0,"type":"channel","noteNumber":62,"velocity":24,"subtype":"noteOn"},{"deltaTime":48,"channel":0,"type":"channel","subtype":"noteOff","noteNumber":53,"velocity":64},{"deltaTime":0,"channel":0,"type":"channel","noteNumber":58,"velocity":18,"subtype":"noteOn"},{"deltaTime":0,"channel":0,"type":"channel","subtype":"noteOff","noteNumber":62,"velocity":64},{"deltaTime":0,"channel":0,"type":"channel","noteNumber":62,"velocity":20,"subtype":"noteOn"},{"deltaTime":0,"channel":0,"type":"channel","noteNumber":65,"velocity":22,"subtype":"noteOn"},{"deltaTime":44,"channel":0,"type":"channel","subtype":"noteOff","noteNumber":58,"velocity":64},{"deltaTime":0,"channel":0,"type":"channel","subtype":"noteOff","noteNumber":62,"velocity":64},{"deltaTime":0,"channel":0,"type":"channel","subtype":"noteOff","noteNumber":65,"velocity":64},{"deltaTime":0,"channel":0,"type":"channel","subtype":"noteOff","noteNumber":77,"velocity":64},{"deltaTime":4,"channel":0,"type":"channel","noteNumber":46,"velocity":24,"subtype":"noteOn"},{"deltaTime":0,"channel":0,"type":"channel","noteNumber":79,"velocity":50,"subtype":"noteOn"},{"deltaTime":24,"channel":0,"type":"channel","subtype":"noteOff","noteNumber":46,"velocity":64},{"deltaTime":24,"channel":0,"type":"channel","noteNumber":53,"velocity":20,"subtype":"noteOn"},{"deltaTime":0,"channel":0,"type":"channel","noteNumber":62,"velocity":24,"subtype":"noteOn"},{"deltaTime":48,"channel":0,"type":"channel","subtype":"noteOff","noteNumber":53,"velocity":64},{"deltaTime":0,"channel":0,"type":"channel","noteNumber":58,"velocity":18,"subtype":"noteOn"},{"deltaTime":0,"channel":0,"type":"channel","subtype":"noteOff","noteNumber":62,"velocity":64},{"deltaTime":0,"channel":0,"type":"channel","noteNumber":62,"velocity":20,"subtype":"noteOn"},{"deltaTime":0,"channel":0,"type":"channel","noteNumber":65,"velocity":22,"subtype":"noteOn"},{"deltaTime":0,"channel":0,"type":"channel","noteNumber":77,"velocity":44,"subtype":"noteOn"},{"deltaTime":0,"channel":0,"type":"channel","subtype":"noteOff","noteNumber":79,"velocity":64},{"deltaTime":44,"channel":0,"type":"channel","subtype":"noteOff","noteNumber":58,"velocity":64},{"deltaTime":0,"channel":0,"type":"channel","subtype":"noteOff","noteNumber":62,"velocity":64},{"deltaTime":0,"channel":0,"type":"channel","subtype":"noteOff","noteNumber":65,"velocity":64},{"deltaTime":0,"channel":0,"type":"channel","subtype":"noteOff","noteNumber":77,"velocity":64},{"deltaTime":4,"channel":0,"type":"channel","noteNumber":45,"velocity":20,"subtype":"noteOn"},{"deltaTime":0,"channel":0,"type":"channel","noteNumber":77,"velocity":34,"subtype":"noteOn"},{"deltaTime":24,"channel":0,"type":"channel","subtype":"noteOff","noteNumber":45,"velocity":64},{"deltaTime":24,"channel":0,"type":"channel","noteNumber":53,"velocity":18,"subtype":"noteOn"},{"deltaTime":0,"channel":0,"type":"channel","noteNumber":60,"velocity":22,"subtype":"noteOn"},{"deltaTime":48,"channel":0,"type":"channel","subtype":"noteOff","noteNumber":53,"velocity":64},{"deltaTime":0,"channel":0,"type":"channel","subtype":"noteOff","noteNumber":60,"velocity":64},{"deltaTime":0,"channel":0,"type":"channel","noteNumber":60,"velocity":16,"subtype":"noteOn"},{"deltaTime":0,"channel":0,"type":"channel","noteNumber":65,"velocity":20,"subtype":"noteOn"},{"deltaTime":44,"channel":0,"type":"channel","subtype":"noteOff","noteNumber":60,"velocity":64},{"deltaTime":0,"channel":0,"type":"channel","subtype":"noteOff","noteNumber":65,"velocity":64},{"deltaTime":4,"channel":0,"type":"channel","noteNumber":45,"velocity":20,"subtype":"noteOn"},{"deltaTime":0,"channel":0,"type":"channel","noteNumber":72,"velocity":34,"subtype":"noteOn"},{"deltaTime":0,"channel":0,"type":"channel","subtype":"noteOff","noteNumber":77,"velocity":64},{"deltaTime":24,"channel":0,"type":"channel","subtype":"noteOff","noteNumber":45,"velocity":64},{"deltaTime":24,"channel":0,"type":"channel","noteNumber":53,"velocity":18,"subtype":"noteOn"},{"deltaTime":0,"channel":0,"type":"channel","noteNumber":60,"velocity":22,"subtype":"noteOn"},{"deltaTime":48,"channel":0,"type":"channel","subtype":"noteOff","noteNumber":53,"velocity":64},{"deltaTime":0,"channel":0,"type":"channel","subtype":"noteOff","noteNumber":60,"velocity":64},{"deltaTime":0,"channel":0,"type":"channel","noteNumber":60,"velocity":16,"subtype":"noteOn"},{"deltaTime":0,"channel":0,"type":"channel","noteNumber":65,"velocity":20,"subtype":"noteOn"},{"deltaTime":44,"channel":0,"type":"channel","subtype":"noteOff","noteNumber":60,"velocity":64},{"deltaTime":0,"channel":0,"type":"channel","subtype":"noteOff","noteNumber":65,"velocity":64},{"deltaTime":0,"channel":0,"type":"channel","subtype":"noteOff","noteNumber":72,"velocity":64},{"deltaTime":4,"channel":0,"type":"channel","noteNumber":44,"velocity":26,"subtype":"noteOn"},{"deltaTime":0,"channel":0,"type":"channel","noteNumber":75,"velocity":44,"subtype":"noteOn"},{"deltaTime":24,"channel":0,"type":"channel","subtype":"noteOff","noteNumber":75,"velocity":64},{"deltaTime":20,"channel":0,"type":"channel","subtype":"noteOff","noteNumber":44,"velocity":64},{"deltaTime":4,"channel":0,"type":"channel","noteNumber":51,"velocity":24,"subtype":"noteOn"},{"deltaTime":0,"channel":0,"type":"channel","noteNumber":60,"velocity":28,"subtype":"noteOn"},{"deltaTime":0,"channel":0,"type":"channel","noteNumber":75,"velocity":60,"subtype":"noteOn"},{"deltaTime":24,"channel":0,"type":"channel","subtype":"noteOff","noteNumber":75,"velocity":64},{"deltaTime":20,"channel":0,"type":"channel","subtype":"noteOff","noteNumber":51,"velocity":64},{"deltaTime":0,"channel":0,"type":"channel","subtype":"noteOff","noteNumber":60,"velocity":64},{"deltaTime":4,"channel":0,"type":"channel","noteNumber":56,"velocity":30,"subtype":"noteOn"},{"deltaTime":0,"channel":0,"type":"channel","noteNumber":60,"velocity":32,"subtype":"noteOn"},{"deltaTime":0,"channel":0,"type":"channel","noteNumber":63,"velocity":34,"subtype":"noteOn"},{"deltaTime":0,"channel":0,"type":"channel","noteNumber":75,"velocity":68,"subtype":"noteOn"},{"deltaTime":24,"channel":0,"type":"channel","subtype":"noteOff","noteNumber":75,"velocity":64},{"deltaTime":20,"channel":0,"type":"channel","subtype":"noteOff","noteNumber":56,"velocity":64},{"deltaTime":0,"channel":0,"type":"channel","subtype":"noteOff","noteNumber":60,"velocity":64},{"deltaTime":0,"channel":0,"type":"channel","subtype":"noteOff","noteNumber":63,"velocity":64},{"deltaTime":4,"channel":0,"type":"channel","noteNumber":32,"velocity":36,"subtype":"noteOn"},{"deltaTime":0,"channel":0,"type":"channel","noteNumber":75,"velocity":62,"subtype":"noteOn"},{"deltaTime":44,"channel":0,"type":"channel","subtype":"noteOff","noteNumber":32,"velocity":64},{"deltaTime":0,"channel":0,"type":"channel","subtype":"noteOff","noteNumber":75,"velocity":64},{"deltaTime":4,"channel":0,"type":"channel","noteNumber":51,"velocity":30,"subtype":"noteOn"},{"deltaTime":0,"channel":0,"type":"channel","noteNumber":59,"velocity":34,"subtype":"noteOn"},{"deltaTime":0,"channel":0,"type":"channel","noteNumber":74,"velocity":59,"subtype":"noteOn"},{"deltaTime":24,"channel":0,"type":"channel","subtype":"noteOff","noteNumber":74,"velocity":64},{"deltaTime":0,"channel":0,"type":"channel","noteNumber":75,"velocity":58,"subtype":"noteOn"},{"deltaTime":20,"channel":0,"type":"channel","subtype":"noteOff","noteNumber":51,"velocity":64},{"deltaTime":0,"channel":0,"type":"channel","subtype":"noteOff","noteNumber":59,"velocity":64},{"deltaTime":4,"channel":0,"type":"channel","noteNumber":56,"velocity":28,"subtype":"noteOn"},{"deltaTime":0,"channel":0,"type":"channel","noteNumber":59,"velocity":30,"subtype":"noteOn"},{"deltaTime":0,"channel":0,"type":"channel","noteNumber":63,"velocity":32,"subtype":"noteOn"},{"deltaTime":0,"channel":0,"type":"channel","subtype":"noteOff","noteNumber":75,"velocity":64},{"deltaTime":0,"channel":0,"type":"channel","noteNumber":77,"velocity":50,"subtype":"noteOn"},{"deltaTime":36,"channel":0,"type":"channel","noteNumber":75,"velocity":46,"subtype":"noteOn"},{"deltaTime":0,"channel":0,"type":"channel","subtype":"noteOff","noteNumber":77,"velocity":64},{"deltaTime":8,"channel":0,"type":"channel","subtype":"noteOff","noteNumber":56,"velocity":64},{"deltaTime":0,"channel":0,"type":"channel","subtype":"noteOff","noteNumber":59,"velocity":64},{"deltaTime":0,"channel":0,"type":"channel","subtype":"noteOff","noteNumber":63,"velocity":64},{"deltaTime":4,"channel":0,"type":"channel","noteNumber":39,"velocity":26,"subtype":"noteOn"},{"deltaTime":0,"channel":0,"type":"channel","subtype":"noteOff","noteNumber":75,"velocity":64},{"deltaTime":0,"channel":0,"type":"channel","noteNumber":75,"velocity":46,"subtype":"noteOn"},{"deltaTime":24,"channel":0,"type":"channel","subtype":"noteOff","noteNumber":39,"velocity":64},{"deltaTime":24,"channel":0,"type":"channel","noteNumber":55,"velocity":24,"subtype":"noteOn"},{"deltaTime":0,"channel":0,"type":"channel","noteNumber":63,"velocity":28,"subtype":"noteOn"},{"deltaTime":48,"channel":0,"type":"channel","subtype":"noteOff","noteNumber":55,"velocity":64},{"deltaTime":0,"channel":0,"type":"channel","noteNumber":58,"velocity":26,"subtype":"noteOn"},{"deltaTime":0,"channel":0,"type":"channel","subtype":"noteOff","noteNumber":63,"velocity":64},{"deltaTime":0,"channel":0,"type":"channel","noteNumber":63,"velocity":28,"subtype":"noteOn"},{"deltaTime":0,"channel":0,"type":"channel","noteNumber":67,"velocity":30,"subtype":"noteOn"},{"deltaTime":44,"channel":0,"type":"channel","subtype":"noteOff","noteNumber":58,"velocity":64},{"deltaTime":0,"channel":0,"type":"channel","subtype":"noteOff","noteNumber":63,"velocity":64},{"deltaTime":0,"channel":0,"type":"channel","subtype":"noteOff","noteNumber":67,"velocity":64},{"deltaTime":0,"channel":0,"type":"channel","subtype":"noteOff","noteNumber":75,"velocity":64},{"deltaTime":4,"channel":0,"type":"channel","noteNumber":51,"velocity":32,"subtype":"noteOn"},{"deltaTime":0,"channel":0,"type":"channel","noteNumber":70,"velocity":44,"subtype":"noteOn"},{"deltaTime":24,"channel":0,"type":"channel","subtype":"noteOff","noteNumber":51,"velocity":64},{"deltaTime":24,"channel":0,"type":"channel","noteNumber":55,"velocity":36,"subtype":"noteOn"},{"deltaTime":0,"channel":0,"type":"channel","noteNumber":63,"velocity":40,"subtype":"noteOn"},{"deltaTime":48,"channel":0,"type":"channel","subtype":"noteOff","noteNumber":55,"velocity":64},{"deltaTime":0,"channel":0,"type":"channel","noteNumber":58,"velocity":42,"subtype":"noteOn"},{"deltaTime":0,"channel":0,"type":"channel","subtype":"noteOff","noteNumber":63,"velocity":64},{"deltaTime":0,"channel":0,"type":"channel","noteNumber":63,"velocity":44,"subtype":"noteOn"},{"deltaTime":0,"channel":0,"type":"channel","noteNumber":67,"velocity":46,"subtype":"noteOn"},{"deltaTime":44,"channel":0,"type":"channel","subtype":"noteOff","noteNumber":58,"velocity":64},{"deltaTime":0,"channel":0,"type":"channel","subtype":"noteOff","noteNumber":63,"velocity":64},{"deltaTime":0,"channel":0,"type":"channel","subtype":"noteOff","noteNumber":67,"velocity":64},{"deltaTime":0,"channel":0,"type":"channel","subtype":"noteOff","noteNumber":70,"velocity":64},{"deltaTime":4,"channel":0,"type":"channel","noteNumber":40,"velocity":40,"subtype":"noteOn"},{"deltaTime":0,"channel":0,"type":"channel","noteNumber":82,"velocity":78,"subtype":"noteOn"},{"deltaTime":44,"channel":0,"type":"channel","subtype":"noteOff","noteNumber":40,"velocity":64},{"deltaTime":4,"channel":0,"type":"channel","noteNumber":52,"velocity":34,"subtype":"noteOn"},{"deltaTime":0,"channel":0,"type":"channel","noteNumber":61,"velocity":38,"subtype":"noteOn"},{"deltaTime":44,"channel":0,"type":"channel","subtype":"noteOff","noteNumber":52,"velocity":64},{"deltaTime":0,"channel":0,"type":"channel","subtype":"noteOff","noteNumber":61,"velocity":64},{"deltaTime":4,"channel":0,"type":"channel","noteNumber":58,"velocity":36,"subtype":"noteOn"},{"deltaTime":0,"channel":0,"type":"channel","noteNumber":61,"velocity":38,"subtype":"noteOn"},{"deltaTime":0,"channel":0,"type":"channel","noteNumber":67,"velocity":40,"subtype":"noteOn"},{"deltaTime":44,"channel":0,"type":"channel","subtype":"noteOff","noteNumber":58,"velocity":64},{"deltaTime":0,"channel":0,"type":"channel","subtype":"noteOff","noteNumber":61,"velocity":64},{"deltaTime":0,"channel":0,"type":"channel","subtype":"noteOff","noteNumber":67,"velocity":64},{"deltaTime":0,"channel":0,"type":"channel","subtype":"noteOff","noteNumber":82,"velocity":64},{"deltaTime":4,"channel":0,"type":"channel","noteNumber":40,"velocity":42,"subtype":"noteOn"},{"deltaTime":0,"channel":0,"type":"channel","noteNumber":81,"velocity":76,"subtype":"noteOn"},{"deltaTime":44,"channel":0,"type":"channel","subtype":"noteOff","noteNumber":40,"velocity":64},{"deltaTime":4,"channel":0,"type":"channel","noteNumber":52,"velocity":34,"subtype":"noteOn"},{"deltaTime":0,"channel":0,"type":"channel","noteNumber":60,"velocity":38,"subtype":"noteOn"},{"deltaTime":44,"channel":0,"type":"channel","subtype":"noteOff","noteNumber":52,"velocity":64},{"deltaTime":0,"channel":0,"type":"channel","subtype":"noteOff","noteNumber":60,"velocity":64},{"deltaTime":0,"channel":0,"type":"channel","subtype":"noteOff","noteNumber":81,"velocity":64},{"deltaTime":4,"channel":0,"type":"channel","noteNumber":58,"velocity":34,"subtype":"noteOn"},{"deltaTime":0,"channel":0,"type":"channel","noteNumber":60,"velocity":36,"subtype":"noteOn"},{"deltaTime":0,"channel":0,"type":"channel","noteNumber":67,"velocity":38,"subtype":"noteOn"},{"deltaTime":0,"channel":0,"type":"channel","noteNumber":79,"velocity":68,"subtype":"noteOn"},{"deltaTime":44,"channel":0,"type":"channel","subtype":"noteOff","noteNumber":58,"velocity":64},{"deltaTime":0,"channel":0,"type":"channel","subtype":"noteOff","noteNumber":60,"velocity":64},{"deltaTime":0,"channel":0,"type":"channel","subtype":"noteOff","noteNumber":67,"velocity":64},{"deltaTime":0,"channel":0,"type":"channel","subtype":"noteOff","noteNumber":79,"velocity":64},{"deltaTime":4,"channel":0,"type":"channel","noteNumber":41,"velocity":40,"subtype":"noteOn"},{"deltaTime":0,"channel":0,"type":"channel","noteNumber":69,"velocity":56,"subtype":"noteOn"},{"deltaTime":0,"channel":0,"type":"channel","noteNumber":77,"velocity":70,"subtype":"noteOn"},{"deltaTime":44,"channel":0,"type":"channel","subtype":"noteOff","noteNumber":41,"velocity":64},{"deltaTime":4,"channel":0,"type":"channel","noteNumber":53,"velocity":34,"subtype":"noteOn"},{"deltaTime":0,"channel":0,"type":"channel","noteNumber":63,"velocity":38,"subtype":"noteOn"},{"deltaTime":44,"channel":0,"type":"channel","subtype":"noteOff","noteNumber":53,"velocity":64},{"deltaTime":0,"channel":0,"type":"channel","subtype":"noteOff","noteNumber":63,"velocity":64},{"deltaTime":4,"channel":0,"type":"channel","noteNumber":60,"velocity":34,"subtype":"noteOn"},{"deltaTime":0,"channel":0,"type":"channel","noteNumber":63,"velocity":36,"subtype":"noteOn"},{"deltaTime":0,"channel":0,"type":"channel","subtype":"noteOff","noteNumber":69,"velocity":64},{"deltaTime":0,"channel":0,"type":"channel","noteNumber":69,"velocity":38,"subtype":"noteOn"},{"deltaTime":44,"channel":0,"type":"channel","subtype":"noteOff","noteNumber":60,"velocity":64},{"deltaTime":0,"channel":0,"type":"channel","subtype":"noteOff","noteNumber":63,"velocity":64},{"deltaTime":0,"channel":0,"type":"channel","subtype":"noteOff","noteNumber":69,"velocity":64},{"deltaTime":0,"channel":0,"type":"channel","subtype":"noteOff","noteNumber":77,"velocity":64},{"deltaTime":4,"channel":0,"type":"channel","noteNumber":43,"velocity":44,"subtype":"noteOn"},{"deltaTime":0,"channel":0,"type":"channel","noteNumber":70,"velocity":48,"subtype":"noteOn"},{"deltaTime":0,"channel":0,"type":"channel","noteNumber":74,"velocity":58,"subtype":"noteOn"},{"deltaTime":44,"channel":0,"type":"channel","subtype":"noteOff","noteNumber":43,"velocity":64},{"deltaTime":4,"channel":0,"type":"channel","noteNumber":55,"velocity":38,"subtype":"noteOn"},{"deltaTime":0,"channel":0,"type":"channel","noteNumber":62,"velocity":42,"subtype":"noteOn"},{"deltaTime":44,"channel":0,"type":"channel","subtype":"noteOff","noteNumber":55,"velocity":64},{"deltaTime":0,"channel":0,"type":"channel","subtype":"noteOff","noteNumber":62,"velocity":64},{"deltaTime":4,"channel":0,"type":"channel","noteNumber":58,"velocity":42,"subtype":"noteOn"},{"deltaTime":0,"channel":0,"type":"channel","noteNumber":62,"velocity":44,"subtype":"noteOn"},{"deltaTime":0,"channel":0,"type":"channel","subtype":"noteOff","noteNumber":70,"velocity":64},{"deltaTime":0,"channel":0,"type":"channel","noteNumber":70,"velocity":60,"subtype":"noteOn"},{"deltaTime":44,"channel":0,"type":"channel","subtype":"noteOff","noteNumber":58,"velocity":64},{"deltaTime":0,"channel":0,"type":"channel","subtype":"noteOff","noteNumber":62,"velocity":64},{"deltaTime":0,"channel":0,"type":"channel","subtype":"noteOff","noteNumber":70,"velocity":64},{"deltaTime":0,"channel":0,"type":"channel","subtype":"noteOff","noteNumber":74,"velocity":64},{"deltaTime":4,"channel":0,"type":"channel","noteNumber":36,"velocity":40,"subtype":"noteOn"},{"deltaTime":0,"channel":0,"type":"channel","noteNumber":67,"velocity":54,"subtype":"noteOn"},{"deltaTime":0,"channel":0,"type":"channel","noteNumber":75,"velocity":64,"subtype":"noteOn"},{"deltaTime":44,"channel":0,"type":"channel","subtype":"noteOff","noteNumber":36,"velocity":64},{"deltaTime":4,"channel":0,"type":"channel","noteNumber":55,"velocity":36,"subtype":"noteOn"},{"deltaTime":0,"channel":0,"type":"channel","noteNumber":63,"velocity":40,"subtype":"noteOn"},{"deltaTime":44,"channel":0,"type":"channel","subtype":"noteOff","noteNumber":55,"velocity":64},{"deltaTime":0,"channel":0,"type":"channel","subtype":"noteOff","noteNumber":63,"velocity":64},{"deltaTime":4,"channel":0,"type":"channel","noteNumber":60,"velocity":34,"subtype":"noteOn"},{"deltaTime":0,"channel":0,"type":"channel","noteNumber":63,"velocity":36,"subtype":"noteOn"},{"deltaTime":0,"channel":0,"type":"channel","subtype":"noteOff","noteNumber":67,"velocity":64},{"deltaTime":0,"channel":0,"type":"channel","noteNumber":67,"velocity":38,"subtype":"noteOn"},{"deltaTime":44,"channel":0,"type":"channel","subtype":"noteOff","noteNumber":60,"velocity":64},{"deltaTime":0,"channel":0,"type":"channel","subtype":"noteOff","noteNumber":63,"velocity":64},{"deltaTime":0,"channel":0,"type":"channel","subtype":"noteOff","noteNumber":67,"velocity":64},{"deltaTime":0,"channel":0,"type":"channel","subtype":"noteOff","noteNumber":75,"velocity":64},{"deltaTime":4,"channel":0,"type":"channel","noteNumber":41,"velocity":40,"subtype":"noteOn"},{"deltaTime":0,"channel":0,"type":"channel","noteNumber":69,"velocity":46,"subtype":"noteOn"},{"deltaTime":0,"channel":0,"type":"channel","noteNumber":74,"velocity":58,"subtype":"noteOn"},{"deltaTime":24,"channel":0,"type":"channel","subtype":"noteOff","noteNumber":41,"velocity":64},{"deltaTime":0,"channel":0,"type":"channel","subtype":"noteOff","noteNumber":69,"velocity":64},{"deltaTime":0,"channel":0,"type":"channel","subtype":"noteOff","noteNumber":74,"velocity":64},{"deltaTime":24,"channel":0,"type":"channel","noteNumber":53,"velocity":40,"subtype":"noteOn"},{"deltaTime":0,"channel":0,"type":"channel","noteNumber":63,"velocity":44,"subtype":"noteOn"},{"deltaTime":0,"channel":0,"type":"channel","noteNumber":69,"velocity":47,"subtype":"noteOn"},{"deltaTime":0,"channel":0,"type":"channel","noteNumber":72,"velocity":59,"subtype":"noteOn"},{"deltaTime":24,"channel":0,"type":"channel","subtype":"noteOff","noteNumber":53,"velocity":64},{"deltaTime":0,"channel":0,"type":"channel","subtype":"noteOff","noteNumber":63,"velocity":64},{"deltaTime":0,"channel":0,"type":"channel","subtype":"noteOff","noteNumber":69,"velocity":64},{"deltaTime":0,"channel":0,"type":"channel","subtype":"noteOff","noteNumber":72,"velocity":64},{"deltaTime":24,"channel":0,"type":"channel","noteNumber":60,"velocity":42,"subtype":"noteOn"},{"deltaTime":0,"channel":0,"type":"channel","noteNumber":63,"velocity":44,"subtype":"noteOn"},{"deltaTime":0,"channel":0,"type":"channel","noteNumber":65,"velocity":46,"subtype":"noteOn"},{"deltaTime":0,"channel":0,"type":"channel","noteNumber":69,"velocity":46,"subtype":"noteOn"},{"deltaTime":0,"channel":0,"type":"channel","noteNumber":74,"velocity":58,"subtype":"noteOn"},{"deltaTime":24,"channel":0,"type":"channel","subtype":"noteOff","noteNumber":60,"velocity":64},{"deltaTime":0,"channel":0,"type":"channel","subtype":"noteOff","noteNumber":63,"velocity":64},{"deltaTime":0,"channel":0,"type":"channel","subtype":"noteOff","noteNumber":65,"velocity":64},{"deltaTime":0,"channel":0,"type":"channel","subtype":"noteOff","noteNumber":69,"velocity":64},{"deltaTime":0,"channel":0,"type":"channel","subtype":"noteOff","noteNumber":74,"velocity":64},{"deltaTime":24,"channel":0,"type":"channel","noteNumber":58,"velocity":36,"subtype":"noteOn"},{"deltaTime":0,"channel":0,"type":"channel","noteNumber":62,"velocity":40,"subtype":"noteOn"},{"deltaTime":0,"channel":0,"type":"channel","noteNumber":65,"velocity":40,"subtype":"noteOn"},{"deltaTime":0,"channel":0,"type":"channel","noteNumber":70,"velocity":50,"subtype":"noteOn"},{"deltaTime":24,"channel":0,"type":"channel","subtype":"noteOff","noteNumber":58,"velocity":64},{"deltaTime":0,"channel":0,"type":"channel","subtype":"noteOff","noteNumber":62,"velocity":64},{"deltaTime":0,"channel":0,"type":"channel","subtype":"noteOff","noteNumber":65,"velocity":64},{"deltaTime":0,"channel":0,"type":"channel","subtype":"noteOff","noteNumber":70,"velocity":64},{"deltaTime":24,"channel":0,"type":"channel","noteNumber":57,"velocity":26,"subtype":"noteOn"},{"deltaTime":0,"channel":0,"type":"channel","noteNumber":63,"velocity":30,"subtype":"noteOn"},{"deltaTime":0,"channel":0,"type":"channel","noteNumber":66,"velocity":34,"subtype":"noteOn"},{"deltaTime":0,"channel":0,"type":"channel","noteNumber":71,"velocity":42,"subtype":"noteOn"},{"deltaTime":24,"channel":0,"type":"channel","subtype":"noteOff","noteNumber":57,"velocity":64},{"deltaTime":0,"channel":0,"type":"channel","subtype":"noteOff","noteNumber":63,"velocity":64},{"deltaTime":0,"channel":0,"type":"channel","subtype":"noteOff","noteNumber":66,"velocity":64},{"deltaTime":0,"channel":0,"type":"channel","subtype":"noteOff","noteNumber":71,"velocity":64},{"deltaTime":24,"channel":0,"type":"channel","noteNumber":56,"velocity":44,"subtype":"noteOn"},{"deltaTime":0,"channel":0,"type":"channel","noteNumber":64,"velocity":46,"subtype":"noteOn"},{"deltaTime":0,"channel":0,"type":"channel","noteNumber":71,"velocity":58,"subtype":"noteOn"},{"deltaTime":24,"channel":0,"type":"channel","subtype":"noteOff","noteNumber":56,"velocity":64},{"deltaTime":0,"channel":0,"type":"channel","subtype":"noteOff","noteNumber":64,"velocity":64},{"deltaTime":0,"channel":0,"type":"channel","subtype":"noteOff","noteNumber":71,"velocity":64},{"deltaTime":24,"channel":0,"type":"channel","noteNumber":55,"velocity":50,"subtype":"noteOn"},{"deltaTime":0,"channel":0,"type":"channel","noteNumber":64,"velocity":54,"subtype":"noteOn"},{"deltaTime":0,"channel":0,"type":"channel","noteNumber":70,"velocity":58,"subtype":"noteOn"},{"deltaTime":0,"channel":0,"type":"channel","noteNumber":72,"velocity":66,"subtype":"noteOn"},{"deltaTime":24,"channel":0,"type":"channel","subtype":"noteOff","noteNumber":55,"velocity":64},{"deltaTime":0,"channel":0,"type":"channel","subtype":"noteOff","noteNumber":64,"velocity":64},{"deltaTime":0,"channel":0,"type":"channel","subtype":"noteOff","noteNumber":70,"velocity":64},{"deltaTime":0,"channel":0,"type":"channel","subtype":"noteOff","noteNumber":72,"velocity":64},{"deltaTime":24,"channel":0,"type":"channel","noteNumber":53,"velocity":44,"subtype":"noteOn"},{"deltaTime":0,"channel":0,"type":"channel","noteNumber":60,"velocity":48,"subtype":"noteOn"},{"deltaTime":0,"channel":0,"type":"channel","noteNumber":63,"velocity":52,"subtype":"noteOn"},{"deltaTime":0,"channel":0,"type":"channel","noteNumber":65,"velocity":60,"subtype":"noteOn"},{"deltaTime":0,"channel":0,"type":"channel","noteNumber":69,"velocity":64,"subtype":"noteOn"},{"deltaTime":0,"channel":0,"type":"channel","noteNumber":72,"velocity":72,"subtype":"noteOn"},{"deltaTime":24,"channel":0,"type":"channel","subtype":"noteOff","noteNumber":53,"velocity":64},{"deltaTime":0,"channel":0,"type":"channel","subtype":"noteOff","noteNumber":60,"velocity":64},{"deltaTime":0,"channel":0,"type":"channel","subtype":"noteOff","noteNumber":63,"velocity":64},{"deltaTime":0,"channel":0,"type":"channel","subtype":"noteOff","noteNumber":65,"velocity":64},{"deltaTime":0,"channel":0,"type":"channel","subtype":"noteOff","noteNumber":69,"velocity":64},{"deltaTime":0,"channel":0,"type":"channel","subtype":"noteOff","noteNumber":72,"velocity":64},{"deltaTime":24,"channel":0,"type":"channel","noteNumber":58,"velocity":52,"subtype":"noteOn"},{"deltaTime":0,"channel":0,"type":"channel","noteNumber":65,"velocity":56,"subtype":"noteOn"},{"deltaTime":0,"channel":0,"type":"channel","noteNumber":68,"velocity":62,"subtype":"noteOn"},{"deltaTime":0,"channel":0,"type":"channel","noteNumber":74,"velocity":74,"subtype":"noteOn"},{"deltaTime":24,"channel":0,"type":"channel","subtype":"noteOff","noteNumber":58,"velocity":64},{"deltaTime":0,"channel":0,"type":"channel","subtype":"noteOff","noteNumber":65,"velocity":64},{"deltaTime":0,"channel":0,"type":"channel","subtype":"noteOff","noteNumber":68,"velocity":64},{"deltaTime":0,"channel":0,"type":"channel","subtype":"noteOff","noteNumber":74,"velocity":64},{"deltaTime":24,"channel":0,"type":"channel","noteNumber":39,"velocity":44,"subtype":"noteOn"},{"deltaTime":0,"channel":0,"type":"channel","noteNumber":67,"velocity":50,"subtype":"noteOn"},{"deltaTime":8,"channel":0,"type":"channel","subtype":"noteOff","noteNumber":67,"velocity":64},{"deltaTime":0,"channel":0,"type":"channel","noteNumber":70,"velocity":54,"subtype":"noteOn"},{"deltaTime":8,"channel":0,"type":"channel","subtype":"noteOff","noteNumber":70,"velocity":64},{"deltaTime":0,"channel":0,"type":"channel","noteNumber":75,"velocity":58,"subtype":"noteOn"},{"deltaTime":8,"channel":0,"type":"channel","subtype":"noteOff","noteNumber":75,"velocity":64},{"deltaTime":0,"channel":0,"type":"channel","noteNumber":79,"velocity":72,"subtype":"noteOn"},{"deltaTime":20,"channel":0,"type":"channel","subtype":"noteOff","noteNumber":39,"velocity":64},{"deltaTime":4,"channel":0,"type":"channel","noteNumber":55,"velocity":26,"subtype":"noteOn"},{"deltaTime":0,"channel":0,"type":"channel","noteNumber":63,"velocity":30,"subtype":"noteOn"},{"deltaTime":48,"channel":0,"type":"channel","subtype":"noteOff","noteNumber":55,"velocity":64},{"deltaTime":0,"channel":0,"type":"channel","noteNumber":58,"velocity":24,"subtype":"noteOn"},{"deltaTime":0,"channel":0,"type":"channel","subtype":"noteOff","noteNumber":63,"velocity":64},{"deltaTime":0,"channel":0,"type":"channel","noteNumber":63,"velocity":26,"subtype":"noteOn"},{"deltaTime":0,"channel":0,"type":"channel","noteNumber":67,"velocity":28,"subtype":"noteOn"},{"deltaTime":0,"channel":0,"type":"channel","noteNumber":69,"velocity":50,"subtype":"noteOn"},{"deltaTime":0,"channel":0,"type":"channel","subtype":"noteOff","noteNumber":79,"velocity":64},{"deltaTime":24,"channel":0,"type":"channel","subtype":"noteOff","noteNumber":69,"velocity":64},{"deltaTime":0,"channel":0,"type":"channel","noteNumber":70,"velocity":52,"subtype":"noteOn"},{"deltaTime":20,"channel":0,"type":"channel","subtype":"noteOff","noteNumber":58,"velocity":64},{"deltaTime":0,"channel":0,"type":"channel","subtype":"noteOff","noteNumber":63,"velocity":64},{"deltaTime":0,"channel":0,"type":"channel","subtype":"noteOff","noteNumber":67,"velocity":64},{"deltaTime":4,"channel":0,"type":"channel","noteNumber":51,"velocity":26,"subtype":"noteOn"},{"deltaTime":0,"channel":0,"type":"channel","subtype":"noteOff","noteNumber":70,"velocity":64},{"deltaTime":0,"channel":0,"type":"channel","noteNumber":71,"velocity":56,"subtype":"noteOn"},{"deltaTime":24,"channel":0,"type":"channel","subtype":"noteOff","noteNumber":51,"velocity":64},{"deltaTime":0,"channel":0,"type":"channel","noteNumber":70,"velocity":63,"subtype":"noteOn"},{"deltaTime":0,"channel":0,"type":"channel","subtype":"noteOff","noteNumber":71,"velocity":64},{"deltaTime":24,"channel":0,"type":"channel","noteNumber":56,"velocity":24,"subtype":"noteOn"},{"deltaTime":0,"channel":0,"type":"channel","noteNumber":62,"velocity":28,"subtype":"noteOn"},{"deltaTime":0,"channel":0,"type":"channel","subtype":"noteOff","noteNumber":70,"velocity":64},{"deltaTime":0,"channel":0,"type":"channel","noteNumber":73,"velocity":62,"subtype":"noteOn"},{"deltaTime":24,"channel":0,"type":"channel","subtype":"noteOff","noteNumber":73,"velocity":64},{"deltaTime":0,"channel":0,"type":"channel","noteNumber":74,"velocity":60,"subtype":"noteOn"},{"deltaTime":24,"channel":0,"type":"channel","subtype":"noteOff","noteNumber":56,"velocity":64},{"deltaTime":0,"channel":0,"type":"channel","noteNumber":58,"velocity":20,"subtype":"noteOn"},{"deltaTime":0,"channel":0,"type":"channel","subtype":"noteOff","noteNumber":62,"velocity":64},{"deltaTime":0,"channel":0,"type":"channel","noteNumber":62,"velocity":22,"subtype":"noteOn"},{"deltaTime":0,"channel":0,"type":"channel","noteNumber":68,"velocity":24,"subtype":"noteOn"},{"deltaTime":0,"channel":0,"type":"channel","subtype":"noteOff","noteNumber":74,"velocity":64},{"deltaTime":0,"channel":0,"type":"channel","noteNumber":79,"velocity":50,"subtype":"noteOn"},{"deltaTime":36,"channel":0,"type":"channel","noteNumber":77,"velocity":48,"subtype":"noteOn"},{"deltaTime":0,"channel":0,"type":"channel","subtype":"noteOff","noteNumber":79,"velocity":64},{"deltaTime":8,"channel":0,"type":"channel","subtype":"noteOff","noteNumber":58,"velocity":64},{"deltaTime":0,"channel":0,"type":"channel","subtype":"noteOff","noteNumber":62,"velocity":64},{"deltaTime":0,"channel":0,"type":"channel","subtype":"noteOff","noteNumber":68,"velocity":64},{"deltaTime":4,"channel":0,"type":"channel","noteNumber":51,"velocity":25,"subtype":"noteOn"},{"deltaTime":0,"channel":0,"type":"channel","subtype":"noteOff","noteNumber":77,"velocity":64},{"deltaTime":0,"channel":0,"type":"channel","noteNumber":77,"velocity":48,"subtype":"noteOn"},{"deltaTime":24,"channel":0,"type":"channel","subtype":"noteOff","noteNumber":51,"velocity":64},{"deltaTime":24,"channel":0,"type":"channel","noteNumber":55,"velocity":24,"subtype":"noteOn"},{"deltaTime":0,"channel":0,"type":"channel","noteNumber":63,"velocity":28,"subtype":"noteOn"},{"deltaTime":44,"channel":0,"type":"channel","subtype":"noteOff","noteNumber":77,"velocity":64},{"deltaTime":4,"channel":0,"type":"channel","subtype":"noteOff","noteNumber":55,"velocity":64},{"deltaTime":0,"channel":0,"type":"channel","noteNumber":58,"velocity":22,"subtype":"noteOn"},{"deltaTime":0,"channel":0,"type":"channel","subtype":"noteOff","noteNumber":63,"velocity":64},{"deltaTime":0,"channel":0,"type":"channel","noteNumber":63,"velocity":24,"subtype":"noteOn"},{"deltaTime":0,"channel":0,"type":"channel","noteNumber":67,"velocity":26,"subtype":"noteOn"},{"deltaTime":0,"channel":0,"type":"channel","noteNumber":75,"velocity":50,"subtype":"noteOn"},{"deltaTime":44,"channel":0,"type":"channel","subtype":"noteOff","noteNumber":58,"velocity":64},{"deltaTime":0,"channel":0,"type":"channel","subtype":"noteOff","noteNumber":63,"velocity":64},{"deltaTime":0,"channel":0,"type":"channel","subtype":"noteOff","noteNumber":67,"velocity":64},{"deltaTime":4,"channel":0,"type":"channel","noteNumber":50,"velocity":34,"subtype":"noteOn"},{"deltaTime":20,"channel":0,"type":"channel","subtype":"noteOff","noteNumber":75,"velocity":64},{"deltaTime":4,"channel":0,"type":"channel","subtype":"noteOff","noteNumber":50,"velocity":64},{"deltaTime":0,"channel":0,"type":"channel","noteNumber":77,"velocity":60,"subtype":"noteOn"},{"deltaTime":12,"channel":0,"type":"channel","noteNumber":75,"velocity":62,"subtype":"noteOn"},{"deltaTime":0,"channel":0,"type":"channel","subtype":"noteOff","noteNumber":77,"velocity":64},{"deltaTime":6,"channel":0,"type":"channel","subtype":"noteOff","noteNumber":75,"velocity":64},{"deltaTime":0,"channel":0,"type":"channel","noteNumber":77,"velocity":64,"subtype":"noteOn"},{"deltaTime":6,"channel":0,"type":"channel","noteNumber":55,"velocity":34,"subtype":"noteOn"},{"deltaTime":0,"channel":0,"type":"channel","noteNumber":63,"velocity":38,"subtype":"noteOn"},{"deltaTime":0,"channel":0,"type":"channel","noteNumber":75,"velocity":62,"subtype":"noteOn"},{"deltaTime":0,"channel":0,"type":"channel","subtype":"noteOff","noteNumber":77,"velocity":64},{"deltaTime":20,"channel":0,"type":"channel","subtype":"noteOff","noteNumber":75,"velocity":64},{"deltaTime":4,"channel":0,"type":"channel","noteNumber":74,"velocity":64,"subtype":"noteOn"},{"deltaTime":20,"channel":0,"type":"channel","subtype":"noteOff","noteNumber":74,"velocity":64},{"deltaTime":4,"channel":0,"type":"channel","subtype":"noteOff","noteNumber":55,"velocity":64},{"deltaTime":0,"channel":0,"type":"channel","noteNumber":58,"velocity":34,"subtype":"noteOn"},{"deltaTime":0,"channel":0,"type":"channel","subtype":"noteOff","noteNumber":63,"velocity":64},{"deltaTime":0,"channel":0,"type":"channel","noteNumber":63,"velocity":36,"subtype":"noteOn"},{"deltaTime":0,"channel":0,"type":"channel","noteNumber":67,"velocity":38,"subtype":"noteOn"},{"deltaTime":0,"channel":0,"type":"channel","noteNumber":75,"velocity":64,"subtype":"noteOn"},{"deltaTime":20,"channel":0,"type":"channel","subtype":"noteOff","noteNumber":75,"velocity":64},{"deltaTime":4,"channel":0,"type":"channel","noteNumber":77,"velocity":60,"subtype":"noteOn"},{"deltaTime":20,"channel":0,"type":"channel","subtype":"noteOff","noteNumber":58,"velocity":64},{"deltaTime":0,"channel":0,"type":"channel","subtype":"noteOff","noteNumber":63,"velocity":64},{"deltaTime":0,"channel":0,"type":"channel","subtype":"noteOff","noteNumber":67,"velocity":64},{"deltaTime":0,"channel":0,"type":"channel","subtype":"noteOff","noteNumber":77,"velocity":64},{"deltaTime":4,"channel":0,"type":"channel","noteNumber":48,"velocity":28,"subtype":"noteOn"},{"deltaTime":0,"channel":0,"type":"channel","noteNumber":79,"velocity":54,"subtype":"noteOn"},{"deltaTime":20,"channel":0,"type":"channel","subtype":"noteOff","noteNumber":79,"velocity":64},{"deltaTime":4,"channel":0,"type":"channel","subtype":"noteOff","noteNumber":48,"velocity":64},{"deltaTime":0,"channel":0,"type":"channel","noteNumber":71,"velocity":58,"subtype":"noteOn"},{"deltaTime":20,"channel":0,"type":"channel","subtype":"noteOff","noteNumber":71,"velocity":64},{"deltaTime":4,"channel":0,"type":"channel","noteNumber":55,"velocity":28,"subtype":"noteOn"},{"deltaTime":0,"channel":0,"type":"channel","noteNumber":64,"velocity":32,"subtype":"noteOn"},{"deltaTime":0,"channel":0,"type":"channel","noteNumber":72,"velocity":62,"subtype":"noteOn"},{"deltaTime":20,"channel":0,"type":"channel","subtype":"noteOff","noteNumber":72,"velocity":64},{"deltaTime":4,"channel":0,"type":"channel","noteNumber":73,"velocity":66,"subtype":"noteOn"},{"deltaTime":24,"channel":0,"type":"channel","subtype":"noteOff","noteNumber":55,"velocity":64},{"deltaTime":0,"channel":0,"type":"channel","noteNumber":58,"velocity":34,"subtype":"noteOn"},{"deltaTime":0,"channel":0,"type":"channel","subtype":"noteOff","noteNumber":64,"velocity":64},{"deltaTime":0,"channel":0,"type":"channel","noteNumber":64,"velocity":36,"subtype":"noteOn"},{"deltaTime":0,"channel":0,"type":"channel","noteNumber":67,"velocity":38,"subtype":"noteOn"},{"deltaTime":0,"channel":0,"type":"channel","noteNumber":72,"velocity":64,"subtype":"noteOn"},{"deltaTime":0,"channel":0,"type":"channel","subtype":"noteOff","noteNumber":73,"velocity":64},{"deltaTime":20,"channel":0,"type":"channel","subtype":"noteOff","noteNumber":72,"velocity":64},{"deltaTime":4,"channel":0,"type":"channel","noteNumber":77,"velocity":70,"subtype":"noteOn"},{"deltaTime":20,"channel":0,"type":"channel","subtype":"noteOff","noteNumber":58,"velocity":64},{"deltaTime":0,"channel":0,"type":"channel","subtype":"noteOff","noteNumber":64,"velocity":64},{"deltaTime":0,"channel":0,"type":"channel","subtype":"noteOff","noteNumber":67,"velocity":64},{"deltaTime":4,"channel":0,"type":"channel","noteNumber":48,"velocity":34,"subtype":"noteOn"},{"deltaTime":0,"channel":0,"type":"channel","noteNumber":76,"velocity":68,"subtype":"noteOn"},{"deltaTime":0,"channel":0,"type":"channel","subtype":"noteOff","noteNumber":77,"velocity":64},{"deltaTime":20,"channel":0,"type":"channel","subtype":"noteOff","noteNumber":76,"velocity":64},{"deltaTime":4,"channel":0,"type":"channel","subtype":"noteOff","noteNumber":48,"velocity":64},{"deltaTime":0,"channel":0,"type":"channel","noteNumber":80,"velocity":74,"subtype":"noteOn"},{"deltaTime":24,"channel":0,"type":"channel","noteNumber":55,"velocity":34,"subtype":"noteOn"},{"deltaTime":0,"channel":0,"type":"channel","noteNumber":64,"velocity":38,"subtype":"noteOn"},{"deltaTime":0,"channel":0,"type":"channel","noteNumber":79,"velocity":66,"subtype":"noteOn"},{"deltaTime":0,"channel":0,"type":"channel","subtype":"noteOff","noteNumber":80,"velocity":64},{"deltaTime":20,"channel":0,"type":"channel","subtype":"noteOff","noteNumber":79,"velocity":64},{"deltaTime":4,"channel":0,"type":"channel","noteNumber":85,"velocity":77,"subtype":"noteOn"},{"deltaTime":24,"channel":0,"type":"channel","subtype":"noteOff","noteNumber":55,"velocity":64},{"deltaTime":0,"channel":0,"type":"channel","noteNumber":60,"velocity":36,"subtype":"noteOn"},{"deltaTime":0,"channel":0,"type":"channel","subtype":"noteOff","noteNumber":64,"velocity":64},{"deltaTime":0,"channel":0,"type":"channel","noteNumber":64,"velocity":38,"subtype":"noteOn"},{"deltaTime":0,"channel":0,"type":"channel","noteNumber":70,"velocity":40,"subtype":"noteOn"},{"deltaTime":0,"channel":0,"type":"channel","noteNumber":84,"velocity":72,"subtype":"noteOn"},{"deltaTime":0,"channel":0,"type":"channel","subtype":"noteOff","noteNumber":85,"velocity":64},{"deltaTime":24,"channel":0,"type":"channel","noteNumber":79,"velocity":68,"subtype":"noteOn"},{"deltaTime":0,"channel":0,"type":"channel","subtype":"noteOff","noteNumber":84,"velocity":64},{"deltaTime":20,"channel":0,"type":"channel","subtype":"noteOff","noteNumber":60,"velocity":64},{"deltaTime":0,"channel":0,"type":"channel","subtype":"noteOff","noteNumber":64,"velocity":64},{"deltaTime":0,"channel":0,"type":"channel","subtype":"noteOff","noteNumber":70,"velocity":64},{"deltaTime":4,"channel":0,"type":"channel","noteNumber":41,"velocity":46,"subtype":"noteOn"},{"deltaTime":0,"channel":0,"type":"channel","subtype":"noteOff","noteNumber":79,"velocity":64},{"deltaTime":0,"channel":0,"type":"channel","noteNumber":82,"velocity":70,"subtype":"noteOn"},{"deltaTime":24,"channel":0,"type":"channel","subtype":"noteOff","noteNumber":41,"velocity":64},{"deltaTime":24,"channel":0,"type":"channel","noteNumber":53,"velocity":30,"subtype":"noteOn"},{"deltaTime":0,"channel":0,"type":"channel","noteNumber":61,"velocity":34,"subtype":"noteOn"},{"deltaTime":48,"channel":0,"type":"channel","subtype":"noteOff","noteNumber":53,"velocity":64},{"deltaTime":0,"channel":0,"type":"channel","noteNumber":58,"velocity":28,"subtype":"noteOn"},{"deltaTime":0,"channel":0,"type":"channel","subtype":"noteOff","noteNumber":61,"velocity":64},{"deltaTime":0,"channel":0,"type":"channel","noteNumber":61,"velocity":30,"subtype":"noteOn"},{"deltaTime":0,"channel":0,"type":"channel","noteNumber":64,"velocity":32,"subtype":"noteOn"},{"deltaTime":44,"channel":0,"type":"channel","subtype":"noteOff","noteNumber":58,"velocity":64},{"deltaTime":0,"channel":0,"type":"channel","subtype":"noteOff","noteNumber":61,"velocity":64},{"deltaTime":0,"channel":0,"type":"channel","subtype":"noteOff","noteNumber":64,"velocity":64},{"deltaTime":0,"channel":0,"type":"channel","subtype":"noteOff","noteNumber":82,"velocity":64},{"deltaTime":4,"channel":0,"type":"channel","noteNumber":41,"velocity":36,"subtype":"noteOn"},{"deltaTime":0,"channel":0,"type":"channel","noteNumber":80,"velocity":54,"subtype":"noteOn"},{"deltaTime":24,"channel":0,"type":"channel","subtype":"noteOff","noteNumber":41,"velocity":64},{"deltaTime":24,"channel":0,"type":"channel","noteNumber":53,"velocity":28,"subtype":"noteOn"},{"deltaTime":0,"channel":0,"type":"channel","noteNumber":60,"velocity":32,"subtype":"noteOn"},{"deltaTime":44,"channel":0,"type":"channel","subtype":"noteOff","noteNumber":80,"velocity":64},{"deltaTime":4,"channel":0,"type":"channel","subtype":"noteOff","noteNumber":53,"velocity":64},{"deltaTime":0,"channel":0,"type":"channel","noteNumber":56,"velocity":28,"subtype":"noteOn"},{"deltaTime":0,"channel":0,"type":"channel","subtype":"noteOff","noteNumber":60,"velocity":64},{"deltaTime":0,"channel":0,"type":"channel","noteNumber":60,"velocity":30,"subtype":"noteOn"},{"deltaTime":0,"channel":0,"type":"channel","noteNumber":65,"velocity":32,"subtype":"noteOn"},{"deltaTime":0,"channel":0,"type":"channel","noteNumber":79,"velocity":52,"subtype":"noteOn"},{"deltaTime":44,"channel":0,"type":"channel","subtype":"noteOff","noteNumber":56,"velocity":64},{"deltaTime":0,"channel":0,"type":"channel","subtype":"noteOff","noteNumber":60,"velocity":64},{"deltaTime":0,"channel":0,"type":"channel","subtype":"noteOff","noteNumber":65,"velocity":64},{"deltaTime":0,"channel":0,"type":"channel","subtype":"noteOff","noteNumber":79,"velocity":64},{"deltaTime":4,"channel":0,"type":"channel","noteNumber":46,"velocity":30,"subtype":"noteOn"},{"deltaTime":0,"channel":0,"type":"channel","noteNumber":77,"velocity":50,"subtype":"noteOn"},{"deltaTime":10,"channel":0,"type":"channel","subtype":"noteOff","noteNumber":77,"velocity":64},{"deltaTime":0,"channel":0,"type":"channel","noteNumber":79,"velocity":46,"subtype":"noteOn"},{"deltaTime":10,"channel":0,"type":"channel","noteNumber":77,"velocity":45,"subtype":"noteOn"},{"deltaTime":0,"channel":0,"type":"channel","subtype":"noteOff","noteNumber":79,"velocity":64},{"deltaTime":4,"channel":0,"type":"channel","subtype":"noteOff","noteNumber":46,"velocity":64},{"deltaTime":6,"channel":0,"type":"channel","subtype":"noteOff","noteNumber":77,"velocity":64},{"deltaTime":0,"channel":0,"type":"channel","noteNumber":79,"velocity":47,"subtype":"noteOn"},{"deltaTime":10,"channel":0,"type":"channel","noteNumber":77,"velocity":46,"subtype":"noteOn"},{"deltaTime":0,"channel":0,"type":"channel","subtype":"noteOff","noteNumber":79,"velocity":64},{"deltaTime":6,"channel":0,"type":"channel","noteNumber":53,"velocity":28,"subtype":"noteOn"},{"deltaTime":0,"channel":0,"type":"channel","noteNumber":62,"velocity":32,"subtype":"noteOn"},{"deltaTime":4,"channel":0,"type":"channel","subtype":"noteOff","noteNumber":77,"velocity":64},{"deltaTime":0,"channel":0,"type":"channel","noteNumber":79,"velocity":48,"subtype":"noteOn"},{"deltaTime":10,"channel":0,"type":"channel","noteNumber":77,"velocity":47,"subtype":"noteOn"},{"deltaTime":0,"channel":0,"type":"channel","subtype":"noteOff","noteNumber":79,"velocity":64},{"deltaTime":10,"channel":0,"type":"channel","subtype":"noteOff","noteNumber":77,"velocity":64},{"deltaTime":0,"channel":0,"type":"channel","noteNumber":79,"velocity":50,"subtype":"noteOn"},{"deltaTime":10,"channel":0,"type":"channel","noteNumber":77,"velocity":47,"subtype":"noteOn"},{"deltaTime":0,"channel":0,"type":"channel","subtype":"noteOff","noteNumber":79,"velocity":64},{"deltaTime":10,"channel":0,"type":"channel","subtype":"noteOff","noteNumber":77,"velocity":64},{"deltaTime":0,"channel":0,"type":"channel","noteNumber":79,"velocity":48,"subtype":"noteOn"},{"deltaTime":6,"channel":0,"type":"channel","subtype":"noteOff","noteNumber":53,"velocity":64},{"deltaTime":0,"channel":0,"type":"channel","noteNumber":58,"velocity":30,"subtype":"noteOn"},{"deltaTime":0,"channel":0,"type":"channel","subtype":"noteOff","noteNumber":62,"velocity":64},{"deltaTime":0,"channel":0,"type":"channel","noteNumber":62,"velocity":32,"subtype":"noteOn"},{"deltaTime":0,"channel":0,"type":"channel","noteNumber":68,"velocity":34,"subtype":"noteOn"},{"deltaTime":4,"channel":0,"type":"channel","noteNumber":77,"velocity":47,"subtype":"noteOn"},{"deltaTime":0,"channel":0,"type":"channel","subtype":"noteOff","noteNumber":79,"velocity":64},{"deltaTime":10,"channel":0,"type":"channel","subtype":"noteOff","noteNumber":77,"velocity":64},{"deltaTime":0,"channel":0,"type":"channel","noteNumber":79,"velocity":48,"subtype":"noteOn"},{"deltaTime":10,"channel":0,"type":"channel","noteNumber":77,"velocity":46,"subtype":"noteOn"},{"deltaTime":0,"channel":0,"type":"channel","subtype":"noteOff","noteNumber":79,"velocity":64},{"deltaTime":8,"channel":0,"type":"channel","noteNumber":76,"velocity":52,"subtype":"noteOn"},{"deltaTime":0,"channel":0,"type":"channel","subtype":"noteOff","noteNumber":77,"velocity":64},{"deltaTime":8,"channel":0,"type":"channel","subtype":"noteOff","noteNumber":76,"velocity":64},{"deltaTime":0,"channel":0,"type":"channel","noteNumber":77,"velocity":56,"subtype":"noteOn"},{"deltaTime":4,"channel":0,"type":"channel","subtype":"noteOff","noteNumber":58,"velocity":64},{"deltaTime":0,"channel":0,"type":"channel","subtype":"noteOff","noteNumber":62,"velocity":64},{"deltaTime":0,"channel":0,"type":"channel","subtype":"noteOff","noteNumber":68,"velocity":64},{"deltaTime":4,"channel":0,"type":"channel","noteNumber":47,"velocity":30,"subtype":"noteOn"},{"deltaTime":0,"channel":0,"type":"channel","subtype":"noteOff","noteNumber":77,"velocity":64},{"deltaTime":0,"channel":0,"type":"channel","noteNumber":79,"velocity":60,"subtype":"noteOn"},{"deltaTime":24,"channel":0,"type":"channel","subtype":"noteOff","noteNumber":47,"velocity":64},{"deltaTime":0,"channel":0,"type":"channel","subtype":"noteOff","noteNumber":79,"velocity":64},{"deltaTime":24,"channel":0,"type":"channel","noteNumber":55,"velocity":28,"subtype":"noteOn"},{"deltaTime":0,"channel":0,"type":"channel","noteNumber":65,"velocity":32,"subtype":"noteOn"},{"deltaTime":0,"channel":0,"type":"channel","noteNumber":79,"velocity":62,"subtype":"noteOn"},{"deltaTime":48,"channel":0,"type":"channel","subtype":"noteOff","noteNumber":55,"velocity":64},{"deltaTime":0,"channel":0,"type":"channel","noteNumber":62,"velocity":28,"subtype":"noteOn"},{"deltaTime":0,"channel":0,"type":"channel","subtype":"noteOff","noteNumber":65,"velocity":64},{"deltaTime":0,"channel":0,"type":"channel","noteNumber":65,"velocity":30,"subtype":"noteOn"},{"deltaTime":0,"channel":0,"type":"channel","noteNumber":67,"velocity":32,"subtype":"noteOn"},{"deltaTime":0,"channel":0,"type":"channel","noteNumber":74,"velocity":68,"subtype":"noteOn"},{"deltaTime":0,"channel":0,"type":"channel","subtype":"noteOff","noteNumber":79,"velocity":64},{"deltaTime":44,"channel":0,"type":"channel","subtype":"noteOff","noteNumber":62,"velocity":64},{"deltaTime":0,"channel":0,"type":"channel","subtype":"noteOff","noteNumber":65,"velocity":64},{"deltaTime":0,"channel":0,"type":"channel","subtype":"noteOff","noteNumber":67,"velocity":64},{"deltaTime":0,"channel":0,"type":"channel","subtype":"noteOff","noteNumber":74,"velocity":64},{"deltaTime":4,"channel":0,"type":"channel","noteNumber":48,"velocity":34,"subtype":"noteOn"},{"deltaTime":0,"channel":0,"type":"channel","noteNumber":75,"velocity":64,"subtype":"noteOn"},{"deltaTime":24,"channel":0,"type":"channel","subtype":"noteOff","noteNumber":48,"velocity":64},{"deltaTime":24,"channel":0,"type":"channel","noteNumber":55,"velocity":34,"subtype":"noteOn"},{"deltaTime":0,"channel":0,"type":"channel","noteNumber":63,"velocity":38,"subtype":"noteOn"},{"deltaTime":48,"channel":0,"type":"channel","subtype":"noteOff","noteNumber":55,"velocity":64},{"deltaTime":0,"channel":0,"type":"channel","noteNumber":60,"velocity":34,"subtype":"noteOn"},{"deltaTime":0,"channel":0,"type":"channel","subtype":"noteOff","noteNumber":63,"velocity":64},{"deltaTime":0,"channel":0,"type":"channel","noteNumber":63,"velocity":36,"subtype":"noteOn"},{"deltaTime":0,"channel":0,"type":"channel","noteNumber":67,"velocity":38,"subtype":"noteOn"},{"deltaTime":44,"channel":0,"type":"channel","subtype":"noteOff","noteNumber":60,"velocity":64},{"deltaTime":0,"channel":0,"type":"channel","subtype":"noteOff","noteNumber":63,"velocity":64},{"deltaTime":0,"channel":0,"type":"channel","subtype":"noteOff","noteNumber":67,"velocity":64},{"deltaTime":4,"channel":0,"type":"channel","noteNumber":45,"velocity":40,"subtype":"noteOn"},{"deltaTime":0,"channel":0,"type":"channel","noteNumber":72,"velocity":70,"subtype":"noteOn"},{"deltaTime":0,"channel":0,"type":"channel","subtype":"noteOff","noteNumber":75,"velocity":64},{"deltaTime":24,"channel":0,"type":"channel","subtype":"noteOff","noteNumber":45,"velocity":64},{"deltaTime":24,"channel":0,"type":"channel","noteNumber":54,"velocity":38,"subtype":"noteOn"},{"deltaTime":0,"channel":0,"type":"channel","noteNumber":63,"velocity":42,"subtype":"noteOn"},{"deltaTime":48,"channel":0,"type":"channel","subtype":"noteOff","noteNumber":54,"velocity":64},{"deltaTime":0,"channel":0,"type":"channel","noteNumber":60,"velocity":42,"subtype":"noteOn"},{"deltaTime":0,"channel":0,"type":"channel","subtype":"noteOff","noteNumber":63,"velocity":64},{"deltaTime":0,"channel":0,"type":"channel","noteNumber":63,"velocity":44,"subtype":"noteOn"},{"deltaTime":0,"channel":0,"type":"channel","noteNumber":66,"velocity":46,"subtype":"noteOn"},{"deltaTime":44,"channel":0,"type":"channel","subtype":"noteOff","noteNumber":60,"velocity":64},{"deltaTime":0,"channel":0,"type":"channel","subtype":"noteOff","noteNumber":63,"velocity":64},{"deltaTime":0,"channel":0,"type":"channel","subtype":"noteOff","noteNumber":66,"velocity":64},{"deltaTime":0,"channel":0,"type":"channel","subtype":"noteOff","noteNumber":72,"velocity":64},{"deltaTime":4,"channel":0,"type":"channel","noteNumber":46,"velocity":34,"subtype":"noteOn"},{"deltaTime":0,"channel":0,"type":"channel","noteNumber":70,"velocity":68,"subtype":"noteOn"},{"deltaTime":24,"channel":0,"type":"channel","subtype":"noteOff","noteNumber":46,"velocity":64},{"deltaTime":24,"channel":0,"type":"channel","noteNumber":53,"velocity":34,"subtype":"noteOn"},{"deltaTime":0,"channel":0,"type":"channel","noteNumber":63,"velocity":38,"subtype":"noteOn"},{"deltaTime":0,"channel":0,"type":"channel","subtype":"noteOff","noteNumber":70,"velocity":64},{"deltaTime":0,"channel":0,"type":"channel","noteNumber":86,"velocity":78,"subtype":"noteOn"},{"deltaTime":48,"channel":0,"type":"channel","subtype":"noteOff","noteNumber":53,"velocity":64},{"deltaTime":0,"channel":0,"type":"channel","noteNumber":58,"velocity":36,"subtype":"noteOn"},{"deltaTime":0,"channel":0,"type":"channel","subtype":"noteOff","noteNumber":63,"velocity":64},{"deltaTime":0,"channel":0,"type":"channel","noteNumber":63,"velocity":38,"subtype":"noteOn"},{"deltaTime":0,"channel":0,"type":"channel","noteNumber":68,"velocity":40,"subtype":"noteOn"},{"deltaTime":0,"channel":0,"type":"channel","noteNumber":85,"velocity":76,"subtype":"noteOn"},{"deltaTime":0,"channel":0,"type":"channel","subtype":"noteOff","noteNumber":86,"velocity":64},{"deltaTime":24,"channel":0,"type":"channel","subtype":"noteOff","noteNumber":85,"velocity":64},{"deltaTime":20,"channel":0,"type":"channel","subtype":"noteOff","noteNumber":58,"velocity":64},{"deltaTime":0,"channel":0,"type":"channel","subtype":"noteOff","noteNumber":63,"velocity":64},{"deltaTime":0,"channel":0,"type":"channel","subtype":"noteOff","noteNumber":68,"velocity":64},{"deltaTime":4,"channel":0,"type":"channel","noteNumber":34,"velocity":42,"subtype":"noteOn"},{"deltaTime":0,"channel":0,"type":"channel","noteNumber":84,"velocity":68,"subtype":"noteOn"},{"deltaTime":8,"channel":0,"type":"channel","subtype":"noteOff","noteNumber":84,"velocity":64},{"deltaTime":4,"channel":0,"type":"channel","noteNumber":83,"velocity":70,"subtype":"noteOn"},{"deltaTime":8,"channel":0,"type":"channel","subtype":"noteOff","noteNumber":83,"velocity":64},{"deltaTime":4,"channel":0,"type":"channel","subtype":"noteOff","noteNumber":34,"velocity":64},{"deltaTime":0,"channel":0,"type":"channel","noteNumber":82,"velocity":72,"subtype":"noteOn"},{"deltaTime":8,"channel":0,"type":"channel","subtype":"noteOff","noteNumber":82,"velocity":64},{"deltaTime":4,"channel":0,"type":"channel","noteNumber":81,"velocity":71,"subtype":"noteOn"},{"deltaTime":8,"channel":0,"type":"channel","subtype":"noteOff","noteNumber":81,"velocity":64},{"deltaTime":4,"channel":0,"type":"channel","noteNumber":53,"velocity":32,"subtype":"noteOn"},{"deltaTime":0,"channel":0,"type":"channel","noteNumber":62,"velocity":36,"subtype":"noteOn"},{"deltaTime":0,"channel":0,"type":"channel","noteNumber":80,"velocity":69,"subtype":"noteOn"},{"deltaTime":8,"channel":0,"type":"channel","subtype":"noteOff","noteNumber":80,"velocity":64},{"deltaTime":4,"channel":0,"type":"channel","noteNumber":77,"velocity":66,"subtype":"noteOn"},{"deltaTime":8,"channel":0,"type":"channel","subtype":"noteOff","noteNumber":77,"velocity":64},{"deltaTime":4,"channel":0,"type":"channel","noteNumber":74,"velocity":62,"subtype":"noteOn"},{"deltaTime":8,"channel":0,"type":"channel","subtype":"noteOff","noteNumber":74,"velocity":64},{"deltaTime":4,"channel":0,"type":"channel","noteNumber":71,"velocity":56,"subtype":"noteOn"},{"deltaTime":12,"channel":0,"type":"channel","subtype":"noteOff","noteNumber":53,"velocity":64},{"deltaTime":0,"channel":0,"type":"channel","noteNumber":58,"velocity":26,"subtype":"noteOn"},{"deltaTime":0,"channel":0,"type":"channel","subtype":"noteOff","noteNumber":62,"velocity":64},{"deltaTime":0,"channel":0,"type":"channel","noteNumber":68,"velocity":30,"subtype":"noteOn"},{"deltaTime":0,"channel":0,"type":"channel","noteNumber":70,"velocity":50,"subtype":"noteOn"},{"deltaTime":0,"channel":0,"type":"channel","subtype":"noteOff","noteNumber":71,"velocity":64},{"deltaTime":12,"channel":0,"type":"channel","subtype":"noteOff","noteNumber":70,"velocity":64},{"deltaTime":0,"channel":0,"type":"channel","noteNumber":74,"velocity":48,"subtype":"noteOn"},{"deltaTime":12,"channel":0,"type":"channel","subtype":"noteOff","noteNumber":74,"velocity":64},{"deltaTime":0,"channel":0,"type":"channel","noteNumber":79,"velocity":44,"subtype":"noteOn"},{"deltaTime":8,"channel":0,"type":"channel","noteNumber":77,"velocity":47,"subtype":"noteOn"},{"deltaTime":0,"channel":0,"type":"channel","subtype":"noteOff","noteNumber":79,"velocity":64},{"deltaTime":8,"channel":0,"type":"channel","noteNumber":75,"velocity":46,"subtype":"noteOn"},{"deltaTime":0,"channel":0,"type":"channel","subtype":"noteOff","noteNumber":77,"velocity":64},{"deltaTime":4,"channel":0,"type":"channel","subtype":"noteOff","noteNumber":58,"velocity":64},{"deltaTime":0,"channel":0,"type":"channel","subtype":"noteOff","noteNumber":68,"velocity":64},{"deltaTime":4,"channel":0,"type":"channel","noteNumber":39,"velocity":30,"subtype":"noteOn"},{"deltaTime":0,"channel":0,"type":"channel","subtype":"noteOff","noteNumber":75,"velocity":64},{"deltaTime":0,"channel":0,"type":"channel","noteNumber":75,"velocity":42,"subtype":"noteOn"},{"deltaTime":24,"channel":0,"type":"channel","subtype":"noteOff","noteNumber":39,"velocity":64},{"deltaTime":24,"channel":0,"type":"channel","noteNumber":55,"velocity":20,"subtype":"noteOn"},{"deltaTime":0,"channel":0,"type":"channel","noteNumber":63,"velocity":24,"subtype":"noteOn"},{"deltaTime":48,"channel":0,"type":"channel","subtype":"noteOff","noteNumber":55,"velocity":64},{"deltaTime":0,"channel":0,"type":"channel","noteNumber":58,"velocity":20,"subtype":"noteOn"},{"deltaTime":0,"channel":0,"type":"channel","subtype":"noteOff","noteNumber":63,"velocity":64},{"deltaTime":0,"channel":0,"type":"channel","noteNumber":63,"velocity":22,"subtype":"noteOn"},{"deltaTime":0,"channel":0,"type":"channel","noteNumber":67,"velocity":24,"subtype":"noteOn"},{"deltaTime":44,"channel":0,"type":"channel","subtype":"noteOff","noteNumber":58,"velocity":64},{"deltaTime":0,"channel":0,"type":"channel","subtype":"noteOff","noteNumber":63,"velocity":64},{"deltaTime":0,"channel":0,"type":"channel","subtype":"noteOff","noteNumber":67,"velocity":64},{"deltaTime":4,"channel":0,"type":"channel","noteNumber":51,"velocity":24,"subtype":"noteOn"},{"deltaTime":24,"channel":0,"type":"channel","subtype":"noteOff","noteNumber":51,"velocity":64},{"deltaTime":20,"channel":0,"type":"channel","subtype":"noteOff","noteNumber":75,"velocity":64},{"deltaTime":4,"channel":0,"type":"channel","noteNumber":55,"velocity":20,"subtype":"noteOn"},{"deltaTime":0,"channel":0,"type":"channel","noteNumber":63,"velocity":24,"subtype":"noteOn"},{"deltaTime":0,"channel":0,"type":"channel","noteNumber":74,"velocity":50,"subtype":"noteOn"},{"deltaTime":44,"channel":0,"type":"channel","subtype":"noteOff","noteNumber":74,"velocity":64},{"deltaTime":4,"channel":0,"type":"channel","subtype":"noteOff","noteNumber":55,"velocity":64},{"deltaTime":0,"channel":0,"type":"channel","noteNumber":58,"velocity":20,"subtype":"noteOn"},{"deltaTime":0,"channel":0,"type":"channel","subtype":"noteOff","noteNumber":63,"velocity":64},{"deltaTime":0,"channel":0,"type":"channel","noteNumber":63,"velocity":22,"subtype":"noteOn"},{"deltaTime":0,"channel":0,"type":"channel","noteNumber":67,"velocity":24,"subtype":"noteOn"},{"deltaTime":0,"channel":0,"type":"channel","noteNumber":75,"velocity":46,"subtype":"noteOn"},{"deltaTime":44,"channel":0,"type":"channel","subtype":"noteOff","noteNumber":58,"velocity":64},{"deltaTime":0,"channel":0,"type":"channel","subtype":"noteOff","noteNumber":63,"velocity":64},{"deltaTime":0,"channel":0,"type":"channel","subtype":"noteOff","noteNumber":67,"velocity":64},{"deltaTime":0,"channel":0,"type":"channel","subtype":"noteOff","noteNumber":75,"velocity":64},{"deltaTime":4,"channel":0,"type":"channel","noteNumber":46,"velocity":24,"subtype":"noteOn"},{"deltaTime":0,"channel":0,"type":"channel","noteNumber":77,"velocity":52,"subtype":"noteOn"},{"deltaTime":24,"channel":0,"type":"channel","subtype":"noteOff","noteNumber":46,"velocity":64},{"deltaTime":24,"channel":0,"type":"channel","noteNumber":53,"velocity":20,"subtype":"noteOn"},{"deltaTime":0,"channel":0,"type":"channel","noteNumber":62,"velocity":24,"subtype":"noteOn"},{"deltaTime":48,"channel":0,"type":"channel","subtype":"noteOff","noteNumber":53,"velocity":64},{"deltaTime":0,"channel":0,"type":"channel","noteNumber":58,"velocity":16,"subtype":"noteOn"},{"deltaTime":0,"channel":0,"type":"channel","subtype":"noteOff","noteNumber":62,"velocity":64},{"deltaTime":0,"channel":0,"type":"channel","noteNumber":62,"velocity":21,"subtype":"noteOn"},{"deltaTime":0,"channel":0,"type":"channel","noteNumber":65,"velocity":23,"subtype":"noteOn"},{"deltaTime":44,"channel":0,"type":"channel","subtype":"noteOff","noteNumber":58,"velocity":64},{"deltaTime":0,"channel":0,"type":"channel","subtype":"noteOff","noteNumber":62,"velocity":64},{"deltaTime":0,"channel":0,"type":"channel","subtype":"noteOff","noteNumber":65,"velocity":64},{"deltaTime":0,"channel":0,"type":"channel","subtype":"noteOff","noteNumber":77,"velocity":64},{"deltaTime":4,"channel":0,"type":"channel","noteNumber":46,"velocity":27,"subtype":"noteOn"},{"deltaTime":0,"channel":0,"type":"channel","noteNumber":79,"velocity":54,"subtype":"noteOn"},{"deltaTime":24,"channel":0,"type":"channel","subtype":"noteOff","noteNumber":46,"velocity":64},{"deltaTime":24,"channel":0,"type":"channel","noteNumber":53,"velocity":24,"subtype":"noteOn"},{"deltaTime":0,"channel":0,"type":"channel","noteNumber":62,"velocity":28,"subtype":"noteOn"},{"deltaTime":48,"channel":0,"type":"channel","subtype":"noteOff","noteNumber":53,"velocity":64},{"deltaTime":0,"channel":0,"type":"channel","noteNumber":58,"velocity":22,"subtype":"noteOn"},{"deltaTime":0,"channel":0,"type":"channel","subtype":"noteOff","noteNumber":62,"velocity":64},{"deltaTime":0,"channel":0,"type":"channel","noteNumber":62,"velocity":24,"subtype":"noteOn"},{"deltaTime":0,"channel":0,"type":"channel","noteNumber":65,"velocity":26,"subtype":"noteOn"},{"deltaTime":0,"channel":0,"type":"channel","noteNumber":77,"velocity":52,"subtype":"noteOn"},{"deltaTime":0,"channel":0,"type":"channel","subtype":"noteOff","noteNumber":79,"velocity":64},{"deltaTime":44,"channel":0,"type":"channel","subtype":"noteOff","noteNumber":58,"velocity":64},{"deltaTime":0,"channel":0,"type":"channel","subtype":"noteOff","noteNumber":62,"velocity":64},{"deltaTime":0,"channel":0,"type":"channel","subtype":"noteOff","noteNumber":65,"velocity":64},{"deltaTime":0,"channel":0,"type":"channel","subtype":"noteOff","noteNumber":77,"velocity":64},{"deltaTime":4,"channel":0,"type":"channel","noteNumber":45,"velocity":27,"subtype":"noteOn"},{"deltaTime":0,"channel":0,"type":"channel","noteNumber":77,"velocity":55,"subtype":"noteOn"},{"deltaTime":24,"channel":0,"type":"channel","subtype":"noteOff","noteNumber":45,"velocity":64},{"deltaTime":24,"channel":0,"type":"channel","noteNumber":53,"velocity":25,"subtype":"noteOn"},{"deltaTime":0,"channel":0,"type":"channel","noteNumber":60,"velocity":29,"subtype":"noteOn"},{"deltaTime":48,"channel":0,"type":"channel","subtype":"noteOff","noteNumber":53,"velocity":64},{"deltaTime":0,"channel":0,"type":"channel","subtype":"noteOff","noteNumber":60,"velocity":64},{"deltaTime":0,"channel":0,"type":"channel","noteNumber":60,"velocity":24,"subtype":"noteOn"},{"deltaTime":0,"channel":0,"type":"channel","noteNumber":65,"velocity":28,"subtype":"noteOn"},{"deltaTime":44,"channel":0,"type":"channel","subtype":"noteOff","noteNumber":60,"velocity":64},{"deltaTime":0,"channel":0,"type":"channel","subtype":"noteOff","noteNumber":65,"velocity":64},{"deltaTime":4,"channel":0,"type":"channel","noteNumber":45,"velocity":30,"subtype":"noteOn"},{"deltaTime":0,"channel":0,"type":"channel","noteNumber":72,"velocity":46,"subtype":"noteOn"},{"deltaTime":0,"channel":0,"type":"channel","subtype":"noteOff","noteNumber":77,"velocity":64},{"deltaTime":24,"channel":0,"type":"channel","subtype":"noteOff","noteNumber":45,"velocity":64},{"deltaTime":24,"channel":0,"type":"channel","noteNumber":53,"velocity":26,"subtype":"noteOn"},{"deltaTime":0,"channel":0,"type":"channel","noteNumber":60,"velocity":30,"subtype":"noteOn"},{"deltaTime":48,"channel":0,"type":"channel","subtype":"noteOff","noteNumber":53,"velocity":64},{"deltaTime":0,"channel":0,"type":"channel","subtype":"noteOff","noteNumber":60,"velocity":64},{"deltaTime":0,"channel":0,"type":"channel","noteNumber":60,"velocity":30,"subtype":"noteOn"},{"deltaTime":0,"channel":0,"type":"channel","noteNumber":65,"velocity":34,"subtype":"noteOn"},{"deltaTime":44,"channel":0,"type":"channel","subtype":"noteOff","noteNumber":60,"velocity":64},{"deltaTime":0,"channel":0,"type":"channel","subtype":"noteOff","noteNumber":65,"velocity":64},{"deltaTime":0,"channel":0,"type":"channel","subtype":"noteOff","noteNumber":72,"velocity":64},{"deltaTime":4,"channel":0,"type":"channel","noteNumber":44,"velocity":26,"subtype":"noteOn"},{"deltaTime":0,"channel":0,"type":"channel","noteNumber":75,"velocity":44,"subtype":"noteOn"},{"deltaTime":36,"channel":0,"type":"channel","subtype":"noteOff","noteNumber":75,"velocity":64},{"deltaTime":0,"channel":0,"type":"channel","noteNumber":75,"velocity":62,"subtype":"noteOn"},{"deltaTime":8,"channel":0,"type":"channel","subtype":"noteOff","noteNumber":44,"velocity":64},{"deltaTime":4,"channel":0,"type":"channel","noteNumber":51,"velocity":24,"subtype":"noteOn"},{"deltaTime":0,"channel":0,"type":"channel","noteNumber":60,"velocity":28,"subtype":"noteOn"},{"deltaTime":24,"channel":0,"type":"channel","subtype":"noteOff","noteNumber":75,"velocity":64},{"deltaTime":0,"channel":0,"type":"channel","noteNumber":75,"velocity":68,"subtype":"noteOn"},{"deltaTime":20,"channel":0,"type":"channel","subtype":"noteOff","noteNumber":51,"velocity":64},{"deltaTime":0,"channel":0,"type":"channel","subtype":"noteOff","noteNumber":60,"velocity":64},{"deltaTime":4,"channel":0,"type":"channel","noteNumber":56,"velocity":30,"subtype":"noteOn"},{"deltaTime":0,"channel":0,"type":"channel","noteNumber":60,"velocity":32,"subtype":"noteOn"},{"deltaTime":0,"channel":0,"type":"channel","noteNumber":63,"velocity":34,"subtype":"noteOn"},{"deltaTime":12,"channel":0,"type":"channel","subtype":"noteOff","noteNumber":75,"velocity":64},{"deltaTime":0,"channel":0,"type":"channel","noteNumber":75,"velocity":65,"subtype":"noteOn"},{"deltaTime":32,"channel":0,"type":"channel","subtype":"noteOff","noteNumber":56,"velocity":64},{"deltaTime":0,"channel":0,"type":"channel","subtype":"noteOff","noteNumber":60,"velocity":64},{"deltaTime":0,"channel":0,"type":"channel","subtype":"noteOff","noteNumber":63,"velocity":64},{"deltaTime":4,"channel":0,"type":"channel","noteNumber":32,"velocity":36,"subtype":"noteOn"},{"deltaTime":0,"channel":0,"type":"channel","subtype":"noteOff","noteNumber":75,"velocity":64},{"deltaTime":0,"channel":0,"type":"channel","noteNumber":75,"velocity":64,"subtype":"noteOn"},{"deltaTime":44,"channel":0,"type":"channel","subtype":"noteOff","noteNumber":32,"velocity":64},{"deltaTime":0,"channel":0,"type":"channel","subtype":"noteOff","noteNumber":75,"velocity":64},{"deltaTime":4,"channel":0,"type":"channel","noteNumber":51,"velocity":30,"subtype":"noteOn"},{"deltaTime":0,"channel":0,"type":"channel","noteNumber":59,"velocity":34,"subtype":"noteOn"},{"deltaTime":0,"channel":0,"type":"channel","noteNumber":74,"velocity":60,"subtype":"noteOn"},{"deltaTime":24,"channel":0,"type":"channel","subtype":"noteOff","noteNumber":74,"velocity":64},{"deltaTime":0,"channel":0,"type":"channel","noteNumber":75,"velocity":60,"subtype":"noteOn"},{"deltaTime":20,"channel":0,"type":"channel","subtype":"noteOff","noteNumber":51,"velocity":64},{"deltaTime":0,"channel":0,"type":"channel","subtype":"noteOff","noteNumber":59,"velocity":64},{"deltaTime":4,"channel":0,"type":"channel","noteNumber":56,"velocity":28,"subtype":"noteOn"},{"deltaTime":0,"channel":0,"type":"channel","noteNumber":59,"velocity":30,"subtype":"noteOn"},{"deltaTime":0,"channel":0,"type":"channel","noteNumber":63,"velocity":32,"subtype":"noteOn"},{"deltaTime":0,"channel":0,"type":"channel","subtype":"noteOff","noteNumber":75,"velocity":64},{"deltaTime":0,"channel":0,"type":"channel","noteNumber":77,"velocity":56,"subtype":"noteOn"},{"deltaTime":36,"channel":0,"type":"channel","noteNumber":75,"velocity":54,"subtype":"noteOn"},{"deltaTime":0,"channel":0,"type":"channel","subtype":"noteOff","noteNumber":77,"velocity":64},{"deltaTime":8,"channel":0,"type":"channel","subtype":"noteOff","noteNumber":56,"velocity":64},{"deltaTime":0,"channel":0,"type":"channel","subtype":"noteOff","noteNumber":59,"velocity":64},{"deltaTime":0,"channel":0,"type":"channel","subtype":"noteOff","noteNumber":63,"velocity":64},{"deltaTime":4,"channel":0,"type":"channel","noteNumber":39,"velocity":26,"subtype":"noteOn"},{"deltaTime":0,"channel":0,"type":"channel","subtype":"noteOff","noteNumber":75,"velocity":64},{"deltaTime":0,"channel":0,"type":"channel","noteNumber":75,"velocity":50,"subtype":"noteOn"},{"deltaTime":24,"channel":0,"type":"channel","subtype":"noteOff","noteNumber":39,"velocity":64},{"deltaTime":24,"channel":0,"type":"channel","noteNumber":55,"velocity":24,"subtype":"noteOn"},{"deltaTime":0,"channel":0,"type":"channel","noteNumber":63,"velocity":28,"subtype":"noteOn"},{"deltaTime":48,"channel":0,"type":"channel","subtype":"noteOff","noteNumber":55,"velocity":64},{"deltaTime":0,"channel":0,"type":"channel","noteNumber":58,"velocity":26,"subtype":"noteOn"},{"deltaTime":0,"channel":0,"type":"channel","subtype":"noteOff","noteNumber":63,"velocity":64},{"deltaTime":0,"channel":0,"type":"channel","noteNumber":63,"velocity":28,"subtype":"noteOn"},{"deltaTime":0,"channel":0,"type":"channel","noteNumber":67,"velocity":30,"subtype":"noteOn"},{"deltaTime":44,"channel":0,"type":"channel","subtype":"noteOff","noteNumber":58,"velocity":64},{"deltaTime":0,"channel":0,"type":"channel","subtype":"noteOff","noteNumber":63,"velocity":64},{"deltaTime":0,"channel":0,"type":"channel","subtype":"noteOff","noteNumber":67,"velocity":64},{"deltaTime":0,"channel":0,"type":"channel","subtype":"noteOff","noteNumber":75,"velocity":64},{"deltaTime":4,"channel":0,"type":"channel","noteNumber":51,"velocity":32,"subtype":"noteOn"},{"deltaTime":0,"channel":0,"type":"channel","noteNumber":70,"velocity":60,"subtype":"noteOn"},{"deltaTime":24,"channel":0,"type":"channel","subtype":"noteOff","noteNumber":51,"velocity":64},{"deltaTime":24,"channel":0,"type":"channel","noteNumber":55,"velocity":36,"subtype":"noteOn"},{"deltaTime":0,"channel":0,"type":"channel","noteNumber":63,"velocity":40,"subtype":"noteOn"},{"deltaTime":48,"channel":0,"type":"channel","subtype":"noteOff","noteNumber":55,"velocity":64},{"deltaTime":0,"channel":0,"type":"channel","noteNumber":58,"velocity":42,"subtype":"noteOn"},{"deltaTime":0,"channel":0,"type":"channel","subtype":"noteOff","noteNumber":63,"velocity":64},{"deltaTime":0,"channel":0,"type":"channel","noteNumber":63,"velocity":44,"subtype":"noteOn"},{"deltaTime":0,"channel":0,"type":"channel","noteNumber":67,"velocity":46,"subtype":"noteOn"},{"deltaTime":44,"channel":0,"type":"channel","subtype":"noteOff","noteNumber":58,"velocity":64},{"deltaTime":0,"channel":0,"type":"channel","subtype":"noteOff","noteNumber":63,"velocity":64},{"deltaTime":0,"channel":0,"type":"channel","subtype":"noteOff","noteNumber":67,"velocity":64},{"deltaTime":0,"channel":0,"type":"channel","subtype":"noteOff","noteNumber":70,"velocity":64},{"deltaTime":4,"channel":0,"type":"channel","noteNumber":40,"velocity":42,"subtype":"noteOn"},{"deltaTime":0,"channel":0,"type":"channel","noteNumber":82,"velocity":78,"subtype":"noteOn"},{"deltaTime":44,"channel":0,"type":"channel","subtype":"noteOff","noteNumber":40,"velocity":64},{"deltaTime":4,"channel":0,"type":"channel","noteNumber":52,"velocity":34,"subtype":"noteOn"},{"deltaTime":0,"channel":0,"type":"channel","noteNumber":61,"velocity":38,"subtype":"noteOn"},{"deltaTime":44,"channel":0,"type":"channel","subtype":"noteOff","noteNumber":52,"velocity":64},{"deltaTime":0,"channel":0,"type":"channel","subtype":"noteOff","noteNumber":61,"velocity":64},{"deltaTime":4,"channel":0,"type":"channel","noteNumber":58,"velocity":36,"subtype":"noteOn"},{"deltaTime":0,"channel":0,"type":"channel","noteNumber":61,"velocity":38,"subtype":"noteOn"},{"deltaTime":0,"channel":0,"type":"channel","noteNumber":67,"velocity":40,"subtype":"noteOn"},{"deltaTime":44,"channel":0,"type":"channel","subtype":"noteOff","noteNumber":58,"velocity":64},{"deltaTime":0,"channel":0,"type":"channel","subtype":"noteOff","noteNumber":61,"velocity":64},{"deltaTime":0,"channel":0,"type":"channel","subtype":"noteOff","noteNumber":67,"velocity":64},{"deltaTime":0,"channel":0,"type":"channel","subtype":"noteOff","noteNumber":82,"velocity":64},{"deltaTime":4,"channel":0,"type":"channel","noteNumber":40,"velocity":42,"subtype":"noteOn"},{"deltaTime":0,"channel":0,"type":"channel","noteNumber":81,"velocity":76,"subtype":"noteOn"},{"deltaTime":44,"channel":0,"type":"channel","subtype":"noteOff","noteNumber":40,"velocity":64},{"deltaTime":4,"channel":0,"type":"channel","noteNumber":52,"velocity":34,"subtype":"noteOn"},{"deltaTime":0,"channel":0,"type":"channel","noteNumber":60,"velocity":38,"subtype":"noteOn"},{"deltaTime":44,"channel":0,"type":"channel","subtype":"noteOff","noteNumber":52,"velocity":64},{"deltaTime":0,"channel":0,"type":"channel","subtype":"noteOff","noteNumber":60,"velocity":64},{"deltaTime":0,"channel":0,"type":"channel","subtype":"noteOff","noteNumber":81,"velocity":64},{"deltaTime":4,"channel":0,"type":"channel","noteNumber":58,"velocity":34,"subtype":"noteOn"},{"deltaTime":0,"channel":0,"type":"channel","noteNumber":60,"velocity":36,"subtype":"noteOn"},{"deltaTime":0,"channel":0,"type":"channel","noteNumber":67,"velocity":38,"subtype":"noteOn"},{"deltaTime":0,"channel":0,"type":"channel","noteNumber":79,"velocity":68,"subtype":"noteOn"},{"deltaTime":44,"channel":0,"type":"channel","subtype":"noteOff","noteNumber":58,"velocity":64},{"deltaTime":0,"channel":0,"type":"channel","subtype":"noteOff","noteNumber":60,"velocity":64},{"deltaTime":0,"channel":0,"type":"channel","subtype":"noteOff","noteNumber":67,"velocity":64},{"deltaTime":0,"channel":0,"type":"channel","subtype":"noteOff","noteNumber":79,"velocity":64},{"deltaTime":4,"channel":0,"type":"channel","noteNumber":41,"velocity":40,"subtype":"noteOn"},{"deltaTime":0,"channel":0,"type":"channel","noteNumber":69,"velocity":60,"subtype":"noteOn"},{"deltaTime":0,"channel":0,"type":"channel","noteNumber":77,"velocity":74,"subtype":"noteOn"},{"deltaTime":44,"channel":0,"type":"channel","subtype":"noteOff","noteNumber":41,"velocity":64},{"deltaTime":4,"channel":0,"type":"channel","noteNumber":53,"velocity":34,"subtype":"noteOn"},{"deltaTime":0,"channel":0,"type":"channel","noteNumber":63,"velocity":38,"subtype":"noteOn"},{"deltaTime":44,"channel":0,"type":"channel","subtype":"noteOff","noteNumber":53,"velocity":64},{"deltaTime":0,"channel":0,"type":"channel","subtype":"noteOff","noteNumber":63,"velocity":64},{"deltaTime":4,"channel":0,"type":"channel","noteNumber":60,"velocity":34,"subtype":"noteOn"},{"deltaTime":0,"channel":0,"type":"channel","noteNumber":63,"velocity":36,"subtype":"noteOn"},{"deltaTime":0,"channel":0,"type":"channel","subtype":"noteOff","noteNumber":69,"velocity":64},{"deltaTime":0,"channel":0,"type":"channel","noteNumber":69,"velocity":38,"subtype":"noteOn"},{"deltaTime":44,"channel":0,"type":"channel","subtype":"noteOff","noteNumber":60,"velocity":64},{"deltaTime":0,"channel":0,"type":"channel","subtype":"noteOff","noteNumber":63,"velocity":64},{"deltaTime":0,"channel":0,"type":"channel","subtype":"noteOff","noteNumber":69,"velocity":64},{"deltaTime":0,"channel":0,"type":"channel","subtype":"noteOff","noteNumber":77,"velocity":64},{"deltaTime":4,"channel":0,"type":"channel","noteNumber":43,"velocity":40,"subtype":"noteOn"},{"deltaTime":0,"channel":0,"type":"channel","noteNumber":70,"velocity":52,"subtype":"noteOn"},{"deltaTime":0,"channel":0,"type":"channel","noteNumber":74,"velocity":62,"subtype":"noteOn"},{"deltaTime":44,"channel":0,"type":"channel","subtype":"noteOff","noteNumber":43,"velocity":64},{"deltaTime":4,"channel":0,"type":"channel","noteNumber":55,"velocity":38,"subtype":"noteOn"},{"deltaTime":0,"channel":0,"type":"channel","noteNumber":62,"velocity":42,"subtype":"noteOn"},{"deltaTime":44,"channel":0,"type":"channel","subtype":"noteOff","noteNumber":55,"velocity":64},{"deltaTime":0,"channel":0,"type":"channel","subtype":"noteOff","noteNumber":62,"velocity":64},{"deltaTime":4,"channel":0,"type":"channel","noteNumber":58,"velocity":42,"subtype":"noteOn"},{"deltaTime":0,"channel":0,"type":"channel","noteNumber":62,"velocity":44,"subtype":"noteOn"},{"deltaTime":0,"channel":0,"type":"channel","subtype":"noteOff","noteNumber":70,"velocity":64},{"deltaTime":0,"channel":0,"type":"channel","noteNumber":70,"velocity":60,"subtype":"noteOn"},{"deltaTime":44,"channel":0,"type":"channel","subtype":"noteOff","noteNumber":58,"velocity":64},{"deltaTime":0,"channel":0,"type":"channel","subtype":"noteOff","noteNumber":62,"velocity":64},{"deltaTime":0,"channel":0,"type":"channel","subtype":"noteOff","noteNumber":70,"velocity":64},{"deltaTime":0,"channel":0,"type":"channel","subtype":"noteOff","noteNumber":74,"velocity":64},{"deltaTime":4,"channel":0,"type":"channel","noteNumber":36,"velocity":40,"subtype":"noteOn"},{"deltaTime":0,"channel":0,"type":"channel","noteNumber":67,"velocity":58,"subtype":"noteOn"},{"deltaTime":0,"channel":0,"type":"channel","noteNumber":75,"velocity":68,"subtype":"noteOn"},{"deltaTime":44,"channel":0,"type":"channel","subtype":"noteOff","noteNumber":36,"velocity":64},{"deltaTime":4,"channel":0,"type":"channel","noteNumber":55,"velocity":34,"subtype":"noteOn"},{"deltaTime":0,"channel":0,"type":"channel","noteNumber":63,"velocity":38,"subtype":"noteOn"},{"deltaTime":44,"channel":0,"type":"channel","subtype":"noteOff","noteNumber":55,"velocity":64},{"deltaTime":0,"channel":0,"type":"channel","subtype":"noteOff","noteNumber":63,"velocity":64},{"deltaTime":4,"channel":0,"type":"channel","noteNumber":60,"velocity":24,"subtype":"noteOn"},{"deltaTime":0,"channel":0,"type":"channel","noteNumber":63,"velocity":26,"subtype":"noteOn"},{"deltaTime":0,"channel":0,"type":"channel","subtype":"noteOff","noteNumber":67,"velocity":64},{"deltaTime":0,"channel":0,"type":"channel","noteNumber":67,"velocity":28,"subtype":"noteOn"},{"deltaTime":44,"channel":0,"type":"channel","subtype":"noteOff","noteNumber":60,"velocity":64},{"deltaTime":0,"channel":0,"type":"channel","subtype":"noteOff","noteNumber":63,"velocity":64},{"deltaTime":0,"channel":0,"type":"channel","subtype":"noteOff","noteNumber":67,"velocity":64},{"deltaTime":0,"channel":0,"type":"channel","subtype":"noteOff","noteNumber":75,"velocity":64},{"deltaTime":4,"channel":0,"type":"channel","noteNumber":41,"velocity":38,"subtype":"noteOn"},{"deltaTime":0,"channel":0,"type":"channel","noteNumber":69,"velocity":40,"subtype":"noteOn"},{"deltaTime":0,"channel":0,"type":"channel","noteNumber":74,"velocity":52,"subtype":"noteOn"},{"deltaTime":24,"channel":0,"type":"channel","subtype":"noteOff","noteNumber":41,"velocity":64},{"deltaTime":0,"channel":0,"type":"channel","subtype":"noteOff","noteNumber":69,"velocity":64},{"deltaTime":0,"channel":0,"type":"channel","subtype":"noteOff","noteNumber":74,"velocity":64},{"deltaTime":24,"channel":0,"type":"channel","noteNumber":53,"velocity":36,"subtype":"noteOn"},{"deltaTime":0,"channel":0,"type":"channel","noteNumber":63,"velocity":40,"subtype":"noteOn"},{"deltaTime":0,"channel":0,"type":"channel","noteNumber":69,"velocity":41,"subtype":"noteOn"},{"deltaTime":0,"channel":0,"type":"channel","noteNumber":72,"velocity":53,"subtype":"noteOn"},{"deltaTime":24,"channel":0,"type":"channel","subtype":"noteOff","noteNumber":53,"velocity":64},{"deltaTime":0,"channel":0,"type":"channel","subtype":"noteOff","noteNumber":63,"velocity":64},{"deltaTime":0,"channel":0,"type":"channel","subtype":"noteOff","noteNumber":69,"velocity":64},{"deltaTime":0,"channel":0,"type":"channel","subtype":"noteOff","noteNumber":72,"velocity":64},{"deltaTime":24,"channel":0,"type":"channel","noteNumber":60,"velocity":38,"subtype":"noteOn"},{"deltaTime":0,"channel":0,"type":"channel","noteNumber":63,"velocity":40,"subtype":"noteOn"},{"deltaTime":0,"channel":0,"type":"channel","noteNumber":65,"velocity":42,"subtype":"noteOn"},{"deltaTime":0,"channel":0,"type":"channel","noteNumber":69,"velocity":40,"subtype":"noteOn"},{"deltaTime":0,"channel":0,"type":"channel","noteNumber":74,"velocity":52,"subtype":"noteOn"},{"deltaTime":24,"channel":0,"type":"channel","subtype":"noteOff","noteNumber":60,"velocity":64},{"deltaTime":0,"channel":0,"type":"channel","subtype":"noteOff","noteNumber":63,"velocity":64},{"deltaTime":0,"channel":0,"type":"channel","subtype":"noteOff","noteNumber":65,"velocity":64},{"deltaTime":0,"channel":0,"type":"channel","subtype":"noteOff","noteNumber":69,"velocity":64},{"deltaTime":0,"channel":0,"type":"channel","subtype":"noteOff","noteNumber":74,"velocity":64},{"deltaTime":24,"channel":0,"type":"channel","noteNumber":58,"velocity":36,"subtype":"noteOn"},{"deltaTime":0,"channel":0,"type":"channel","noteNumber":62,"velocity":40,"subtype":"noteOn"},{"deltaTime":0,"channel":0,"type":"channel","noteNumber":65,"velocity":40,"subtype":"noteOn"},{"deltaTime":0,"channel":0,"type":"channel","noteNumber":70,"velocity":50,"subtype":"noteOn"},{"deltaTime":24,"channel":0,"type":"channel","subtype":"noteOff","noteNumber":58,"velocity":64},{"deltaTime":0,"channel":0,"type":"channel","subtype":"noteOff","noteNumber":62,"velocity":64},{"deltaTime":0,"channel":0,"type":"channel","subtype":"noteOff","noteNumber":65,"velocity":64},{"deltaTime":0,"channel":0,"type":"channel","subtype":"noteOff","noteNumber":70,"velocity":64},{"deltaTime":24,"channel":0,"type":"channel","noteNumber":57,"velocity":26,"subtype":"noteOn"},{"deltaTime":0,"channel":0,"type":"channel","noteNumber":63,"velocity":30,"subtype":"noteOn"},{"deltaTime":0,"channel":0,"type":"channel","noteNumber":66,"velocity":34,"subtype":"noteOn"},{"deltaTime":0,"channel":0,"type":"channel","noteNumber":71,"velocity":42,"subtype":"noteOn"},{"deltaTime":24,"channel":0,"type":"channel","subtype":"noteOff","noteNumber":57,"velocity":64},{"deltaTime":0,"channel":0,"type":"channel","subtype":"noteOff","noteNumber":63,"velocity":64},{"deltaTime":0,"channel":0,"type":"channel","subtype":"noteOff","noteNumber":66,"velocity":64},{"deltaTime":0,"channel":0,"type":"channel","subtype":"noteOff","noteNumber":71,"velocity":64},{"deltaTime":24,"channel":0,"type":"channel","noteNumber":56,"velocity":44,"subtype":"noteOn"},{"deltaTime":0,"channel":0,"type":"channel","noteNumber":64,"velocity":46,"subtype":"noteOn"},{"deltaTime":0,"channel":0,"type":"channel","noteNumber":71,"velocity":58,"subtype":"noteOn"},{"deltaTime":24,"channel":0,"type":"channel","subtype":"noteOff","noteNumber":56,"velocity":64},{"deltaTime":0,"channel":0,"type":"channel","subtype":"noteOff","noteNumber":64,"velocity":64},{"deltaTime":0,"channel":0,"type":"channel","subtype":"noteOff","noteNumber":71,"velocity":64},{"deltaTime":24,"channel":0,"type":"channel","noteNumber":55,"velocity":50,"subtype":"noteOn"},{"deltaTime":0,"channel":0,"type":"channel","noteNumber":64,"velocity":54,"subtype":"noteOn"},{"deltaTime":0,"channel":0,"type":"channel","noteNumber":70,"velocity":58,"subtype":"noteOn"},{"deltaTime":0,"channel":0,"type":"channel","noteNumber":72,"velocity":66,"subtype":"noteOn"},{"deltaTime":24,"channel":0,"type":"channel","subtype":"noteOff","noteNumber":55,"velocity":64},{"deltaTime":0,"channel":0,"type":"channel","subtype":"noteOff","noteNumber":64,"velocity":64},{"deltaTime":0,"channel":0,"type":"channel","subtype":"noteOff","noteNumber":70,"velocity":64},{"deltaTime":0,"channel":0,"type":"channel","subtype":"noteOff","noteNumber":72,"velocity":64},{"deltaTime":24,"channel":0,"type":"channel","noteNumber":53,"velocity":46,"subtype":"noteOn"},{"deltaTime":0,"channel":0,"type":"channel","noteNumber":60,"velocity":50,"subtype":"noteOn"},{"deltaTime":0,"channel":0,"type":"channel","noteNumber":63,"velocity":54,"subtype":"noteOn"},{"deltaTime":0,"channel":0,"type":"channel","noteNumber":65,"velocity":62,"subtype":"noteOn"},{"deltaTime":0,"channel":0,"type":"channel","noteNumber":69,"velocity":66,"subtype":"noteOn"},{"deltaTime":0,"channel":0,"type":"channel","noteNumber":72,"velocity":74,"subtype":"noteOn"},{"deltaTime":24,"channel":0,"type":"channel","subtype":"noteOff","noteNumber":53,"velocity":64},{"deltaTime":0,"channel":0,"type":"channel","subtype":"noteOff","noteNumber":60,"velocity":64},{"deltaTime":0,"channel":0,"type":"channel","subtype":"noteOff","noteNumber":63,"velocity":64},{"deltaTime":0,"channel":0,"type":"channel","subtype":"noteOff","noteNumber":65,"velocity":64},{"deltaTime":0,"channel":0,"type":"channel","subtype":"noteOff","noteNumber":69,"velocity":64},{"deltaTime":0,"channel":0,"type":"channel","subtype":"noteOff","noteNumber":72,"velocity":64},{"deltaTime":24,"channel":0,"type":"channel","noteNumber":58,"velocity":56,"subtype":"noteOn"},{"deltaTime":0,"channel":0,"type":"channel","noteNumber":65,"velocity":60,"subtype":"noteOn"},{"deltaTime":0,"channel":0,"type":"channel","noteNumber":68,"velocity":64,"subtype":"noteOn"},{"deltaTime":0,"channel":0,"type":"channel","noteNumber":74,"velocity":76,"subtype":"noteOn"},{"deltaTime":24,"channel":0,"type":"channel","subtype":"noteOff","noteNumber":58,"velocity":64},{"deltaTime":0,"channel":0,"type":"channel","subtype":"noteOff","noteNumber":65,"velocity":64},{"deltaTime":0,"channel":0,"type":"channel","noteNumber":67,"velocity":56,"subtype":"noteOn"},{"deltaTime":0,"channel":0,"type":"channel","subtype":"noteOff","noteNumber":68,"velocity":64},{"deltaTime":0,"channel":0,"type":"channel","subtype":"noteOff","noteNumber":74,"velocity":64},{"deltaTime":8,"channel":0,"type":"channel","subtype":"noteOff","noteNumber":67,"velocity":64},{"deltaTime":0,"channel":0,"type":"channel","noteNumber":70,"velocity":60,"subtype":"noteOn"},{"deltaTime":8,"channel":0,"type":"channel","subtype":"noteOff","noteNumber":70,"velocity":64},{"deltaTime":0,"channel":0,"type":"channel","noteNumber":75,"velocity":64,"subtype":"noteOn"},{"deltaTime":8,"channel":0,"type":"channel","noteNumber":39,"velocity":44,"subtype":"noteOn"},{"deltaTime":0,"channel":0,"type":"channel","subtype":"noteOff","noteNumber":75,"velocity":64},{"deltaTime":0,"channel":0,"type":"channel","noteNumber":79,"velocity":72,"subtype":"noteOn"},{"deltaTime":24,"channel":0,"type":"channel","subtype":"noteOff","noteNumber":39,"velocity":64},{"deltaTime":24,"channel":0,"type":"channel","noteNumber":55,"velocity":26,"subtype":"noteOn"},{"deltaTime":0,"channel":0,"type":"channel","noteNumber":63,"velocity":30,"subtype":"noteOn"},{"deltaTime":48,"channel":0,"type":"channel","subtype":"noteOff","noteNumber":55,"velocity":64},{"deltaTime":0,"channel":0,"type":"channel","noteNumber":58,"velocity":24,"subtype":"noteOn"},{"deltaTime":0,"channel":0,"type":"channel","subtype":"noteOff","noteNumber":63,"velocity":64},{"deltaTime":0,"channel":0,"type":"channel","noteNumber":63,"velocity":26,"subtype":"noteOn"},{"deltaTime":0,"channel":0,"type":"channel","noteNumber":67,"velocity":28,"subtype":"noteOn"},{"deltaTime":0,"channel":0,"type":"channel","noteNumber":69,"velocity":50,"subtype":"noteOn"},{"deltaTime":0,"channel":0,"type":"channel","subtype":"noteOff","noteNumber":79,"velocity":64},{"deltaTime":24,"channel":0,"type":"channel","subtype":"noteOff","noteNumber":69,"velocity":64},{"deltaTime":0,"channel":0,"type":"channel","noteNumber":70,"velocity":52,"subtype":"noteOn"},{"deltaTime":20,"channel":0,"type":"channel","subtype":"noteOff","noteNumber":58,"velocity":64},{"deltaTime":0,"channel":0,"type":"channel","subtype":"noteOff","noteNumber":63,"velocity":64},{"deltaTime":0,"channel":0,"type":"channel","subtype":"noteOff","noteNumber":67,"velocity":64},{"deltaTime":4,"channel":0,"type":"channel","noteNumber":51,"velocity":26,"subtype":"noteOn"},{"deltaTime":0,"channel":0,"type":"channel","subtype":"noteOff","noteNumber":70,"velocity":64},{"deltaTime":0,"channel":0,"type":"channel","noteNumber":71,"velocity":56,"subtype":"noteOn"},{"deltaTime":24,"channel":0,"type":"channel","subtype":"noteOff","noteNumber":51,"velocity":64},{"deltaTime":0,"channel":0,"type":"channel","noteNumber":70,"velocity":63,"subtype":"noteOn"},{"deltaTime":0,"channel":0,"type":"channel","subtype":"noteOff","noteNumber":71,"velocity":64},{"deltaTime":24,"channel":0,"type":"channel","noteNumber":56,"velocity":22,"subtype":"noteOn"},{"deltaTime":0,"channel":0,"type":"channel","noteNumber":62,"velocity":26,"subtype":"noteOn"},{"deltaTime":0,"channel":0,"type":"channel","subtype":"noteOff","noteNumber":70,"velocity":64},{"deltaTime":0,"channel":0,"type":"channel","noteNumber":73,"velocity":61,"subtype":"noteOn"},{"deltaTime":24,"channel":0,"type":"channel","subtype":"noteOff","noteNumber":73,"velocity":64},{"deltaTime":0,"channel":0,"type":"channel","noteNumber":74,"velocity":55,"subtype":"noteOn"},{"deltaTime":24,"channel":0,"type":"channel","subtype":"noteOff","noteNumber":56,"velocity":64},{"deltaTime":0,"channel":0,"type":"channel","noteNumber":58,"velocity":20,"subtype":"noteOn"},{"deltaTime":0,"channel":0,"type":"channel","subtype":"noteOff","noteNumber":62,"velocity":64},{"deltaTime":0,"channel":0,"type":"channel","noteNumber":62,"velocity":22,"subtype":"noteOn"},{"deltaTime":0,"channel":0,"type":"channel","noteNumber":68,"velocity":24,"subtype":"noteOn"},{"deltaTime":0,"channel":0,"type":"channel","subtype":"noteOff","noteNumber":74,"velocity":64},{"deltaTime":0,"channel":0,"type":"channel","noteNumber":79,"velocity":54,"subtype":"noteOn"},{"deltaTime":36,"channel":0,"type":"channel","noteNumber":77,"velocity":46,"subtype":"noteOn"},{"deltaTime":0,"channel":0,"type":"channel","subtype":"noteOff","noteNumber":79,"velocity":64},{"deltaTime":8,"channel":0,"type":"channel","subtype":"noteOff","noteNumber":58,"velocity":64},{"deltaTime":0,"channel":0,"type":"channel","subtype":"noteOff","noteNumber":62,"velocity":64},{"deltaTime":0,"channel":0,"type":"channel","subtype":"noteOff","noteNumber":68,"velocity":64},{"deltaTime":4,"channel":0,"type":"channel","noteNumber":51,"velocity":25,"subtype":"noteOn"},{"deltaTime":0,"channel":0,"type":"channel","subtype":"noteOff","noteNumber":77,"velocity":64},{"deltaTime":0,"channel":0,"type":"channel","noteNumber":77,"velocity":46,"subtype":"noteOn"},{"deltaTime":24,"channel":0,"type":"channel","subtype":"noteOff","noteNumber":51,"velocity":64},{"deltaTime":24,"channel":0,"type":"channel","noteNumber":55,"velocity":26,"subtype":"noteOn"},{"deltaTime":0,"channel":0,"type":"channel","noteNumber":63,"velocity":28,"subtype":"noteOn"},{"deltaTime":44,"channel":0,"type":"channel","subtype":"noteOff","noteNumber":77,"velocity":64},{"deltaTime":4,"channel":0,"type":"channel","subtype":"noteOff","noteNumber":55,"velocity":64},{"deltaTime":0,"channel":0,"type":"channel","noteNumber":58,"velocity":22,"subtype":"noteOn"},{"deltaTime":0,"channel":0,"type":"channel","subtype":"noteOff","noteNumber":63,"velocity":64},{"deltaTime":0,"channel":0,"type":"channel","noteNumber":63,"velocity":24,"subtype":"noteOn"},{"deltaTime":0,"channel":0,"type":"channel","noteNumber":67,"velocity":26,"subtype":"noteOn"},{"deltaTime":0,"channel":0,"type":"channel","noteNumber":75,"velocity":50,"subtype":"noteOn"},{"deltaTime":44,"channel":0,"type":"channel","subtype":"noteOff","noteNumber":58,"velocity":64},{"deltaTime":0,"channel":0,"type":"channel","subtype":"noteOff","noteNumber":63,"velocity":64},{"deltaTime":0,"channel":0,"type":"channel","subtype":"noteOff","noteNumber":67,"velocity":64},{"deltaTime":4,"channel":0,"type":"channel","noteNumber":50,"velocity":34,"subtype":"noteOn"},{"deltaTime":20,"channel":0,"type":"channel","subtype":"noteOff","noteNumber":75,"velocity":64},{"deltaTime":4,"channel":0,"type":"channel","subtype":"noteOff","noteNumber":50,"velocity":64},{"deltaTime":0,"channel":0,"type":"channel","noteNumber":77,"velocity":60,"subtype":"noteOn"},{"deltaTime":12,"channel":0,"type":"channel","noteNumber":75,"velocity":62,"subtype":"noteOn"},{"deltaTime":0,"channel":0,"type":"channel","subtype":"noteOff","noteNumber":77,"velocity":64},{"deltaTime":6,"channel":0,"type":"channel","subtype":"noteOff","noteNumber":75,"velocity":64},{"deltaTime":0,"channel":0,"type":"channel","noteNumber":77,"velocity":64,"subtype":"noteOn"},{"deltaTime":6,"channel":0,"type":"channel","noteNumber":55,"velocity":34,"subtype":"noteOn"},{"deltaTime":0,"channel":0,"type":"channel","noteNumber":63,"velocity":38,"subtype":"noteOn"},{"deltaTime":0,"channel":0,"type":"channel","noteNumber":75,"velocity":62,"subtype":"noteOn"},{"deltaTime":0,"channel":0,"type":"channel","subtype":"noteOff","noteNumber":77,"velocity":64},{"deltaTime":20,"channel":0,"type":"channel","subtype":"noteOff","noteNumber":75,"velocity":64},{"deltaTime":4,"channel":0,"type":"channel","noteNumber":74,"velocity":64,"subtype":"noteOn"},{"deltaTime":20,"channel":0,"type":"channel","subtype":"noteOff","noteNumber":74,"velocity":64},{"deltaTime":4,"channel":0,"type":"channel","subtype":"noteOff","noteNumber":55,"velocity":64},{"deltaTime":0,"channel":0,"type":"channel","noteNumber":58,"velocity":34,"subtype":"noteOn"},{"deltaTime":0,"channel":0,"type":"channel","subtype":"noteOff","noteNumber":63,"velocity":64},{"deltaTime":0,"channel":0,"type":"channel","noteNumber":63,"velocity":36,"subtype":"noteOn"},{"deltaTime":0,"channel":0,"type":"channel","noteNumber":67,"velocity":38,"subtype":"noteOn"},{"deltaTime":0,"channel":0,"type":"channel","noteNumber":75,"velocity":64,"subtype":"noteOn"},{"deltaTime":20,"channel":0,"type":"channel","subtype":"noteOff","noteNumber":75,"velocity":64},{"deltaTime":4,"channel":0,"type":"channel","noteNumber":77,"velocity":60,"subtype":"noteOn"},{"deltaTime":20,"channel":0,"type":"channel","subtype":"noteOff","noteNumber":58,"velocity":64},{"deltaTime":0,"channel":0,"type":"channel","subtype":"noteOff","noteNumber":63,"velocity":64},{"deltaTime":0,"channel":0,"type":"channel","subtype":"noteOff","noteNumber":67,"velocity":64},{"deltaTime":0,"channel":0,"type":"channel","subtype":"noteOff","noteNumber":77,"velocity":64},{"deltaTime":4,"channel":0,"type":"channel","noteNumber":48,"velocity":28,"subtype":"noteOn"},{"deltaTime":0,"channel":0,"type":"channel","noteNumber":79,"velocity":54,"subtype":"noteOn"},{"deltaTime":20,"channel":0,"type":"channel","subtype":"noteOff","noteNumber":79,"velocity":64},{"deltaTime":4,"channel":0,"type":"channel","subtype":"noteOff","noteNumber":48,"velocity":64},{"deltaTime":0,"channel":0,"type":"channel","noteNumber":71,"velocity":58,"subtype":"noteOn"},{"deltaTime":20,"channel":0,"type":"channel","subtype":"noteOff","noteNumber":71,"velocity":64},{"deltaTime":4,"channel":0,"type":"channel","noteNumber":55,"velocity":28,"subtype":"noteOn"},{"deltaTime":0,"channel":0,"type":"channel","noteNumber":64,"velocity":32,"subtype":"noteOn"},{"deltaTime":0,"channel":0,"type":"channel","noteNumber":72,"velocity":62,"subtype":"noteOn"},{"deltaTime":20,"channel":0,"type":"channel","subtype":"noteOff","noteNumber":72,"velocity":64},{"deltaTime":4,"channel":0,"type":"channel","noteNumber":73,"velocity":66,"subtype":"noteOn"},{"deltaTime":24,"channel":0,"type":"channel","subtype":"noteOff","noteNumber":55,"velocity":64},{"deltaTime":0,"channel":0,"type":"channel","noteNumber":58,"velocity":34,"subtype":"noteOn"},{"deltaTime":0,"channel":0,"type":"channel","subtype":"noteOff","noteNumber":64,"velocity":64},{"deltaTime":0,"channel":0,"type":"channel","noteNumber":64,"velocity":36,"subtype":"noteOn"},{"deltaTime":0,"channel":0,"type":"channel","noteNumber":67,"velocity":38,"subtype":"noteOn"},{"deltaTime":0,"channel":0,"type":"channel","noteNumber":72,"velocity":64,"subtype":"noteOn"},{"deltaTime":0,"channel":0,"type":"channel","subtype":"noteOff","noteNumber":73,"velocity":64},{"deltaTime":20,"channel":0,"type":"channel","subtype":"noteOff","noteNumber":72,"velocity":64},{"deltaTime":4,"channel":0,"type":"channel","noteNumber":77,"velocity":70,"subtype":"noteOn"},{"deltaTime":20,"channel":0,"type":"channel","subtype":"noteOff","noteNumber":58,"velocity":64},{"deltaTime":0,"channel":0,"type":"channel","subtype":"noteOff","noteNumber":64,"velocity":64},{"deltaTime":0,"channel":0,"type":"channel","subtype":"noteOff","noteNumber":67,"velocity":64},{"deltaTime":4,"channel":0,"type":"channel","noteNumber":48,"velocity":34,"subtype":"noteOn"},{"deltaTime":0,"channel":0,"type":"channel","noteNumber":76,"velocity":68,"subtype":"noteOn"},{"deltaTime":0,"channel":0,"type":"channel","subtype":"noteOff","noteNumber":77,"velocity":64},{"deltaTime":20,"channel":0,"type":"channel","subtype":"noteOff","noteNumber":76,"velocity":64},{"deltaTime":4,"channel":0,"type":"channel","subtype":"noteOff","noteNumber":48,"velocity":64},{"deltaTime":0,"channel":0,"type":"channel","noteNumber":80,"velocity":64,"subtype":"noteOn"},{"deltaTime":24,"channel":0,"type":"channel","noteNumber":55,"velocity":32,"subtype":"noteOn"},{"deltaTime":0,"channel":0,"type":"channel","noteNumber":64,"velocity":36,"subtype":"noteOn"},{"deltaTime":0,"channel":0,"type":"channel","noteNumber":79,"velocity":54,"subtype":"noteOn"},{"deltaTime":0,"channel":0,"type":"channel","subtype":"noteOff","noteNumber":80,"velocity":64},{"deltaTime":20,"channel":0,"type":"channel","subtype":"noteOff","noteNumber":79,"velocity":64},{"deltaTime":4,"channel":0,"type":"channel","noteNumber":85,"velocity":50,"subtype":"noteOn"},{"deltaTime":24,"channel":0,"type":"channel","subtype":"noteOff","noteNumber":55,"velocity":64},{"deltaTime":0,"channel":0,"type":"channel","noteNumber":60,"velocity":26,"subtype":"noteOn"},{"deltaTime":0,"channel":0,"type":"channel","subtype":"noteOff","noteNumber":64,"velocity":64},{"deltaTime":0,"channel":0,"type":"channel","noteNumber":64,"velocity":28,"subtype":"noteOn"},{"deltaTime":0,"channel":0,"type":"channel","noteNumber":70,"velocity":30,"subtype":"noteOn"},{"deltaTime":0,"channel":0,"type":"channel","noteNumber":84,"velocity":48,"subtype":"noteOn"},{"deltaTime":0,"channel":0,"type":"channel","subtype":"noteOff","noteNumber":85,"velocity":64},{"deltaTime":24,"channel":0,"type":"channel","noteNumber":79,"velocity":40,"subtype":"noteOn"},{"deltaTime":0,"channel":0,"type":"channel","subtype":"noteOff","noteNumber":84,"velocity":64},{"deltaTime":12,"channel":0,"type":"channel","subtype":"noteOff","noteNumber":79,"velocity":64},{"deltaTime":0,"channel":0,"type":"channel","noteNumber":79,"velocity":46,"subtype":"noteOn"},{"deltaTime":8,"channel":0,"type":"channel","subtype":"noteOff","noteNumber":60,"velocity":64},{"deltaTime":0,"channel":0,"type":"channel","subtype":"noteOff","noteNumber":64,"velocity":64},{"deltaTime":0,"channel":0,"type":"channel","subtype":"noteOff","noteNumber":70,"velocity":64},{"deltaTime":4,"channel":0,"type":"channel","noteNumber":41,"velocity":36,"subtype":"noteOn"},{"deltaTime":0,"channel":0,"type":"channel","subtype":"noteOff","noteNumber":79,"velocity":64},{"deltaTime":0,"channel":0,"type":"channel","noteNumber":82,"velocity":50,"subtype":"noteOn"},{"deltaTime":44,"channel":0,"type":"channel","subtype":"noteOff","noteNumber":41,"velocity":64},{"deltaTime":4,"channel":0,"type":"channel","noteNumber":53,"velocity":30,"subtype":"noteOn"},{"deltaTime":0,"channel":0,"type":"channel","noteNumber":61,"velocity":34,"subtype":"noteOn"},{"deltaTime":44,"channel":0,"type":"channel","subtype":"noteOff","noteNumber":53,"velocity":64},{"deltaTime":0,"channel":0,"type":"channel","subtype":"noteOff","noteNumber":61,"velocity":64},{"deltaTime":4,"channel":0,"type":"channel","noteNumber":58,"velocity":28,"subtype":"noteOn"},{"deltaTime":0,"channel":0,"type":"channel","noteNumber":61,"velocity":30,"subtype":"noteOn"},{"deltaTime":0,"channel":0,"type":"channel","noteNumber":64,"velocity":32,"subtype":"noteOn"},{"deltaTime":44,"channel":0,"type":"channel","subtype":"noteOff","noteNumber":58,"velocity":64},{"deltaTime":0,"channel":0,"type":"channel","subtype":"noteOff","noteNumber":61,"velocity":64},{"deltaTime":0,"channel":0,"type":"channel","subtype":"noteOff","noteNumber":64,"velocity":64},{"deltaTime":0,"channel":0,"type":"channel","subtype":"noteOff","noteNumber":82,"velocity":64},{"deltaTime":4,"channel":0,"type":"channel","noteNumber":41,"velocity":36,"subtype":"noteOn"},{"deltaTime":0,"channel":0,"type":"channel","noteNumber":80,"velocity":50,"subtype":"noteOn"},{"deltaTime":44,"channel":0,"type":"channel","subtype":"noteOff","noteNumber":41,"velocity":64},{"deltaTime":4,"channel":0,"type":"channel","noteNumber":53,"velocity":28,"subtype":"noteOn"},{"deltaTime":0,"channel":0,"type":"channel","noteNumber":60,"velocity":32,"subtype":"noteOn"},{"deltaTime":44,"channel":0,"type":"channel","subtype":"noteOff","noteNumber":53,"velocity":64},{"deltaTime":0,"channel":0,"type":"channel","subtype":"noteOff","noteNumber":60,"velocity":64},{"deltaTime":0,"channel":0,"type":"channel","subtype":"noteOff","noteNumber":80,"velocity":64},{"deltaTime":4,"channel":0,"type":"channel","noteNumber":56,"velocity":28,"subtype":"noteOn"},{"deltaTime":0,"channel":0,"type":"channel","noteNumber":60,"velocity":30,"subtype":"noteOn"},{"deltaTime":0,"channel":0,"type":"channel","noteNumber":65,"velocity":32,"subtype":"noteOn"},{"deltaTime":0,"channel":0,"type":"channel","noteNumber":79,"velocity":48,"subtype":"noteOn"},{"deltaTime":44,"channel":0,"type":"channel","subtype":"noteOff","noteNumber":56,"velocity":64},{"deltaTime":0,"channel":0,"type":"channel","subtype":"noteOff","noteNumber":60,"velocity":64},{"deltaTime":0,"channel":0,"type":"channel","subtype":"noteOff","noteNumber":65,"velocity":64},{"deltaTime":0,"channel":0,"type":"channel","subtype":"noteOff","noteNumber":79,"velocity":64},{"deltaTime":4,"channel":0,"type":"channel","noteNumber":46,"velocity":30,"subtype":"noteOn"},{"deltaTime":0,"channel":0,"type":"channel","noteNumber":77,"velocity":50,"subtype":"noteOn"},{"deltaTime":10,"channel":0,"type":"channel","subtype":"noteOff","noteNumber":77,"velocity":64},{"deltaTime":0,"channel":0,"type":"channel","noteNumber":79,"velocity":46,"subtype":"noteOn"},{"deltaTime":10,"channel":0,"type":"channel","noteNumber":77,"velocity":45,"subtype":"noteOn"},{"deltaTime":0,"channel":0,"type":"channel","subtype":"noteOff","noteNumber":79,"velocity":64},{"deltaTime":10,"channel":0,"type":"channel","subtype":"noteOff","noteNumber":77,"velocity":64},{"deltaTime":0,"channel":0,"type":"channel","noteNumber":79,"velocity":47,"subtype":"noteOn"},{"deltaTime":10,"channel":0,"type":"channel","noteNumber":77,"velocity":46,"subtype":"noteOn"},{"deltaTime":0,"channel":0,"type":"channel","subtype":"noteOff","noteNumber":79,"velocity":64},{"deltaTime":2,"channel":0,"type":"channel","subtype":"noteOff","noteNumber":46,"velocity":64},{"deltaTime":4,"channel":0,"type":"channel","noteNumber":53,"velocity":28,"subtype":"noteOn"},{"deltaTime":0,"channel":0,"type":"channel","noteNumber":62,"velocity":32,"subtype":"noteOn"},{"deltaTime":4,"channel":0,"type":"channel","subtype":"noteOff","noteNumber":77,"velocity":64},{"deltaTime":0,"channel":0,"type":"channel","noteNumber":79,"velocity":48,"subtype":"noteOn"},{"deltaTime":10,"channel":0,"type":"channel","noteNumber":77,"velocity":47,"subtype":"noteOn"},{"deltaTime":0,"channel":0,"type":"channel","subtype":"noteOff","noteNumber":79,"velocity":64},{"deltaTime":10,"channel":0,"type":"channel","subtype":"noteOff","noteNumber":77,"velocity":64},{"deltaTime":0,"channel":0,"type":"channel","noteNumber":79,"velocity":50,"subtype":"noteOn"},{"deltaTime":10,"channel":0,"type":"channel","noteNumber":77,"velocity":47,"subtype":"noteOn"},{"deltaTime":0,"channel":0,"type":"channel","subtype":"noteOff","noteNumber":79,"velocity":64},{"deltaTime":10,"channel":0,"type":"channel","subtype":"noteOff","noteNumber":77,"velocity":64},{"deltaTime":0,"channel":0,"type":"channel","noteNumber":79,"velocity":48,"subtype":"noteOn"},{"deltaTime":2,"channel":0,"type":"channel","subtype":"noteOff","noteNumber":53,"velocity":64},{"deltaTime":0,"channel":0,"type":"channel","subtype":"noteOff","noteNumber":62,"velocity":64},{"deltaTime":4,"channel":0,"type":"channel","noteNumber":58,"velocity":30,"subtype":"noteOn"},{"deltaTime":0,"channel":0,"type":"channel","noteNumber":62,"velocity":32,"subtype":"noteOn"},{"deltaTime":0,"channel":0,"type":"channel","noteNumber":68,"velocity":34,"subtype":"noteOn"},{"deltaTime":4,"channel":0,"type":"channel","noteNumber":77,"velocity":47,"subtype":"noteOn"},{"deltaTime":0,"channel":0,"type":"channel","subtype":"noteOff","noteNumber":79,"velocity":64},{"deltaTime":10,"channel":0,"type":"channel","subtype":"noteOff","noteNumber":77,"velocity":64},{"deltaTime":0,"channel":0,"type":"channel","noteNumber":79,"velocity":48,"subtype":"noteOn"},{"deltaTime":10,"channel":0,"type":"channel","noteNumber":77,"velocity":46,"subtype":"noteOn"},{"deltaTime":0,"channel":0,"type":"channel","subtype":"noteOff","noteNumber":79,"velocity":64},{"deltaTime":8,"channel":0,"type":"channel","noteNumber":76,"velocity":52,"subtype":"noteOn"},{"deltaTime":0,"channel":0,"type":"channel","subtype":"noteOff","noteNumber":77,"velocity":64},{"deltaTime":8,"channel":0,"type":"channel","subtype":"noteOff","noteNumber":76,"velocity":64},{"deltaTime":0,"channel":0,"type":"channel","noteNumber":77,"velocity":56,"subtype":"noteOn"},{"deltaTime":4,"channel":0,"type":"channel","subtype":"noteOff","noteNumber":58,"velocity":64},{"deltaTime":0,"channel":0,"type":"channel","subtype":"noteOff","noteNumber":62,"velocity":64},{"deltaTime":0,"channel":0,"type":"channel","subtype":"noteOff","noteNumber":68,"velocity":64},{"deltaTime":4,"channel":0,"type":"channel","noteNumber":47,"velocity":30,"subtype":"noteOn"},{"deltaTime":0,"channel":0,"type":"channel","subtype":"noteOff","noteNumber":77,"velocity":64},{"deltaTime":0,"channel":0,"type":"channel","noteNumber":79,"velocity":60,"subtype":"noteOn"},{"deltaTime":24,"channel":0,"type":"channel","subtype":"noteOff","noteNumber":79,"velocity":64},{"deltaTime":20,"channel":0,"type":"channel","subtype":"noteOff","noteNumber":47,"velocity":64},{"deltaTime":4,"channel":0,"type":"channel","noteNumber":55,"velocity":28,"subtype":"noteOn"},{"deltaTime":0,"channel":0,"type":"channel","noteNumber":65,"velocity":32,"subtype":"noteOn"},{"deltaTime":0,"channel":0,"type":"channel","noteNumber":79,"velocity":62,"subtype":"noteOn"},{"deltaTime":44,"channel":0,"type":"channel","subtype":"noteOff","noteNumber":55,"velocity":64},{"deltaTime":0,"channel":0,"type":"channel","subtype":"noteOff","noteNumber":65,"velocity":64},{"deltaTime":4,"channel":0,"type":"channel","noteNumber":62,"velocity":28,"subtype":"noteOn"},{"deltaTime":0,"channel":0,"type":"channel","noteNumber":65,"velocity":30,"subtype":"noteOn"},{"deltaTime":0,"channel":0,"type":"channel","noteNumber":67,"velocity":32,"subtype":"noteOn"},{"deltaTime":0,"channel":0,"type":"channel","noteNumber":74,"velocity":68,"subtype":"noteOn"},{"deltaTime":0,"channel":0,"type":"channel","subtype":"noteOff","noteNumber":79,"velocity":64},{"deltaTime":44,"channel":0,"type":"channel","subtype":"noteOff","noteNumber":62,"velocity":64},{"deltaTime":0,"channel":0,"type":"channel","subtype":"noteOff","noteNumber":65,"velocity":64},{"deltaTime":0,"channel":0,"type":"channel","subtype":"noteOff","noteNumber":67,"velocity":64},{"deltaTime":0,"channel":0,"type":"channel","subtype":"noteOff","noteNumber":74,"velocity":64},{"deltaTime":4,"channel":0,"type":"channel","noteNumber":48,"velocity":34,"subtype":"noteOn"},{"deltaTime":0,"channel":0,"type":"channel","noteNumber":75,"velocity":64,"subtype":"noteOn"},{"deltaTime":44,"channel":0,"type":"channel","subtype":"noteOff","noteNumber":48,"velocity":64},{"deltaTime":4,"channel":0,"type":"channel","noteNumber":55,"velocity":34,"subtype":"noteOn"},{"deltaTime":0,"channel":0,"type":"channel","noteNumber":63,"velocity":38,"subtype":"noteOn"},{"deltaTime":44,"channel":0,"type":"channel","subtype":"noteOff","noteNumber":55,"velocity":64},{"deltaTime":0,"channel":0,"type":"channel","subtype":"noteOff","noteNumber":63,"velocity":64},{"deltaTime":4,"channel":0,"type":"channel","noteNumber":60,"velocity":34,"subtype":"noteOn"},{"deltaTime":0,"channel":0,"type":"channel","noteNumber":63,"velocity":36,"subtype":"noteOn"},{"deltaTime":0,"channel":0,"type":"channel","noteNumber":67,"velocity":38,"subtype":"noteOn"},{"deltaTime":44,"channel":0,"type":"channel","subtype":"noteOff","noteNumber":60,"velocity":64},{"deltaTime":0,"channel":0,"type":"channel","subtype":"noteOff","noteNumber":63,"velocity":64},{"deltaTime":0,"channel":0,"type":"channel","subtype":"noteOff","noteNumber":67,"velocity":64},{"deltaTime":4,"channel":0,"type":"channel","noteNumber":45,"velocity":40,"subtype":"noteOn"},{"deltaTime":0,"channel":0,"type":"channel","noteNumber":72,"velocity":70,"subtype":"noteOn"},{"deltaTime":0,"channel":0,"type":"channel","subtype":"noteOff","noteNumber":75,"velocity":64},{"deltaTime":44,"channel":0,"type":"channel","subtype":"noteOff","noteNumber":45,"velocity":64},{"deltaTime":4,"channel":0,"type":"channel","noteNumber":54,"velocity":38,"subtype":"noteOn"},{"deltaTime":0,"channel":0,"type":"channel","noteNumber":63,"velocity":42,"subtype":"noteOn"},{"deltaTime":44,"channel":0,"type":"channel","subtype":"noteOff","noteNumber":54,"velocity":64},{"deltaTime":0,"channel":0,"type":"channel","subtype":"noteOff","noteNumber":63,"velocity":64},{"deltaTime":4,"channel":0,"type":"channel","noteNumber":60,"velocity":42,"subtype":"noteOn"},{"deltaTime":0,"channel":0,"type":"channel","noteNumber":63,"velocity":44,"subtype":"noteOn"},{"deltaTime":0,"channel":0,"type":"channel","noteNumber":66,"velocity":46,"subtype":"noteOn"},{"deltaTime":44,"channel":0,"type":"channel","subtype":"noteOff","noteNumber":60,"velocity":64},{"deltaTime":0,"channel":0,"type":"channel","subtype":"noteOff","noteNumber":63,"velocity":64},{"deltaTime":0,"channel":0,"type":"channel","subtype":"noteOff","noteNumber":66,"velocity":64},{"deltaTime":0,"channel":0,"type":"channel","subtype":"noteOff","noteNumber":72,"velocity":64},{"deltaTime":4,"channel":0,"type":"channel","noteNumber":46,"velocity":34,"subtype":"noteOn"},{"deltaTime":0,"channel":0,"type":"channel","noteNumber":70,"velocity":68,"subtype":"noteOn"},{"deltaTime":24,"channel":0,"type":"channel","subtype":"noteOff","noteNumber":70,"velocity":64},{"deltaTime":0,"channel":0,"type":"channel","noteNumber":86,"velocity":76,"subtype":"noteOn"},{"deltaTime":20,"channel":0,"type":"channel","subtype":"noteOff","noteNumber":46,"velocity":64},{"deltaTime":4,"channel":0,"type":"channel","noteNumber":53,"velocity":34,"subtype":"noteOn"},{"deltaTime":0,"channel":0,"type":"channel","noteNumber":63,"velocity":38,"subtype":"noteOn"},{"deltaTime":24,"channel":0,"type":"channel","noteNumber":85,"velocity":66,"subtype":"noteOn"},{"deltaTime":0,"channel":0,"type":"channel","subtype":"noteOff","noteNumber":86,"velocity":64},{"deltaTime":16,"channel":0,"type":"channel","subtype":"noteOff","noteNumber":85,"velocity":64},{"deltaTime":4,"channel":0,"type":"channel","subtype":"noteOff","noteNumber":53,"velocity":64},{"deltaTime":0,"channel":0,"type":"channel","subtype":"noteOff","noteNumber":63,"velocity":64},{"deltaTime":4,"channel":0,"type":"channel","noteNumber":58,"velocity":36,"subtype":"noteOn"},{"deltaTime":0,"channel":0,"type":"channel","noteNumber":63,"velocity":38,"subtype":"noteOn"},{"deltaTime":0,"channel":0,"type":"channel","noteNumber":68,"velocity":40,"subtype":"noteOn"},{"deltaTime":0,"channel":0,"type":"channel","noteNumber":84,"velocity":64,"subtype":"noteOn"},{"deltaTime":20,"channel":0,"type":"channel","subtype":"noteOff","noteNumber":84,"velocity":64},{"deltaTime":16,"channel":0,"type":"channel","noteNumber":83,"velocity":62,"subtype":"noteOn"},{"deltaTime":8,"channel":0,"type":"channel","subtype":"noteOff","noteNumber":58,"velocity":64},{"deltaTime":0,"channel":0,"type":"channel","subtype":"noteOff","noteNumber":63,"velocity":64},{"deltaTime":0,"channel":0,"type":"channel","subtype":"noteOff","noteNumber":68,"velocity":64},{"deltaTime":0,"channel":0,"type":"channel","subtype":"noteOff","noteNumber":83,"velocity":64},{"deltaTime":4,"channel":0,"type":"channel","noteNumber":34,"velocity":42,"subtype":"noteOn"},{"deltaTime":0,"channel":0,"type":"channel","noteNumber":82,"velocity":56,"subtype":"noteOn"},{"deltaTime":16,"channel":0,"type":"channel","subtype":"noteOff","noteNumber":82,"velocity":64},{"deltaTime":8,"channel":0,"type":"channel","noteNumber":81,"velocity":58,"subtype":"noteOn"},{"deltaTime":16,"channel":0,"type":"channel","subtype":"noteOff","noteNumber":81,"velocity":64},{"deltaTime":4,"channel":0,"type":"channel","subtype":"noteOff","noteNumber":34,"velocity":64},{"deltaTime":4,"channel":0,"type":"channel","noteNumber":53,"velocity":32,"subtype":"noteOn"},{"deltaTime":0,"channel":0,"type":"channel","noteNumber":62,"velocity":36,"subtype":"noteOn"},{"deltaTime":0,"channel":0,"type":"channel","noteNumber":80,"velocity":54,"subtype":"noteOn"},{"deltaTime":10,"channel":0,"type":"channel","noteNumber":69,"velocity":50,"subtype":"noteOn"},{"deltaTime":0,"channel":0,"type":"channel","subtype":"noteOff","noteNumber":80,"velocity":64},{"deltaTime":10,"channel":0,"type":"channel","subtype":"noteOff","noteNumber":69,"velocity":64},{"deltaTime":0,"channel":0,"type":"channel","noteNumber":70,"velocity":49,"subtype":"noteOn"},{"deltaTime":10,"channel":0,"type":"channel","subtype":"noteOff","noteNumber":70,"velocity":64},{"deltaTime":0,"channel":0,"type":"channel","noteNumber":71,"velocity":48,"subtype":"noteOn"},{"deltaTime":10,"channel":0,"type":"channel","subtype":"noteOff","noteNumber":71,"velocity":64},{"deltaTime":0,"channel":0,"type":"channel","noteNumber":72,"velocity":47,"subtype":"noteOn"},{"deltaTime":4,"channel":0,"type":"channel","subtype":"noteOff","noteNumber":53,"velocity":64},{"deltaTime":0,"channel":0,"type":"channel","subtype":"noteOff","noteNumber":62,"velocity":64},{"deltaTime":4,"channel":0,"type":"channel","noteNumber":58,"velocity":26,"subtype":"noteOn"},{"deltaTime":0,"channel":0,"type":"channel","noteNumber":68,"velocity":30,"subtype":"noteOn"},{"deltaTime":0,"channel":0,"type":"channel","subtype":"noteOff","noteNumber":72,"velocity":64},{"deltaTime":0,"channel":0,"type":"channel","noteNumber":73,"velocity":46,"subtype":"noteOn"},{"deltaTime":12,"channel":0,"type":"channel","subtype":"noteOff","noteNumber":73,"velocity":64},{"deltaTime":0,"channel":0,"type":"channel","noteNumber":74,"velocity":44,"subtype":"noteOn"},{"deltaTime":12,"channel":0,"type":"channel","subtype":"noteOff","noteNumber":74,"velocity":64},{"deltaTime":0,"channel":0,"type":"channel","noteNumber":79,"velocity":36,"subtype":"noteOn"},{"deltaTime":12,"channel":0,"type":"channel","noteNumber":77,"velocity":35,"subtype":"noteOn"},{"deltaTime":0,"channel":0,"type":"channel","subtype":"noteOff","noteNumber":79,"velocity":64},{"deltaTime":12,"channel":0,"type":"channel","noteNumber":75,"velocity":34,"subtype":"noteOn"},{"deltaTime":0,"channel":0,"type":"channel","subtype":"noteOff","noteNumber":77,"velocity":64},{"deltaTime":8,"channel":0,"type":"channel","subtype":"noteOff","noteNumber":58,"velocity":64},{"deltaTime":0,"channel":0,"type":"channel","subtype":"noteOff","noteNumber":68,"velocity":64},{"deltaTime":4,"channel":0,"type":"channel","noteNumber":39,"velocity":30,"subtype":"noteOn"},{"deltaTime":0,"channel":0,"type":"channel","subtype":"noteOff","noteNumber":75,"velocity":64},{"deltaTime":0,"channel":0,"type":"channel","noteNumber":75,"velocity":38,"subtype":"noteOn"},{"deltaTime":44,"channel":0,"type":"channel","subtype":"noteOff","noteNumber":39,"velocity":64},{"deltaTime":4,"channel":0,"type":"channel","noteNumber":55,"velocity":20,"subtype":"noteOn"},{"deltaTime":0,"channel":0,"type":"channel","noteNumber":63,"velocity":24,"subtype":"noteOn"},{"deltaTime":44,"channel":0,"type":"channel","subtype":"noteOff","noteNumber":55,"velocity":64},{"deltaTime":0,"channel":0,"type":"channel","subtype":"noteOff","noteNumber":63,"velocity":64},{"deltaTime":4,"channel":0,"type":"channel","noteNumber":58,"velocity":20,"subtype":"noteOn"},{"deltaTime":0,"channel":0,"type":"channel","noteNumber":63,"velocity":22,"subtype":"noteOn"},{"deltaTime":0,"channel":0,"type":"channel","noteNumber":67,"velocity":24,"subtype":"noteOn"},{"deltaTime":44,"channel":0,"type":"channel","subtype":"noteOff","noteNumber":58,"velocity":64},{"deltaTime":0,"channel":0,"type":"channel","subtype":"noteOff","noteNumber":63,"velocity":64},{"deltaTime":0,"channel":0,"type":"channel","subtype":"noteOff","noteNumber":67,"velocity":64},{"deltaTime":4,"channel":0,"type":"channel","noteNumber":51,"velocity":24,"subtype":"noteOn"},{"deltaTime":44,"channel":0,"type":"channel","subtype":"noteOff","noteNumber":51,"velocity":64},{"deltaTime":4,"channel":0,"type":"channel","noteNumber":55,"velocity":20,"subtype":"noteOn"},{"deltaTime":0,"channel":0,"type":"channel","noteNumber":63,"velocity":24,"subtype":"noteOn"},{"deltaTime":44,"channel":0,"type":"channel","subtype":"noteOff","noteNumber":55,"velocity":64},{"deltaTime":0,"channel":0,"type":"channel","subtype":"noteOff","noteNumber":63,"velocity":64},{"deltaTime":4,"channel":0,"type":"channel","noteNumber":58,"velocity":20,"subtype":"noteOn"},{"deltaTime":0,"channel":0,"type":"channel","noteNumber":63,"velocity":22,"subtype":"noteOn"},{"deltaTime":0,"channel":0,"type":"channel","noteNumber":67,"velocity":24,"subtype":"noteOn"},{"deltaTime":44,"channel":0,"type":"channel","subtype":"noteOff","noteNumber":58,"velocity":64},{"deltaTime":0,"channel":0,"type":"channel","subtype":"noteOff","noteNumber":63,"velocity":64},{"deltaTime":0,"channel":0,"type":"channel","subtype":"noteOff","noteNumber":67,"velocity":64},{"deltaTime":0,"channel":0,"type":"channel","subtype":"noteOff","noteNumber":75,"velocity":64},{"deltaTime":4,"channel":0,"type":"channel","noteNumber":39,"velocity":28,"subtype":"noteOn"},{"deltaTime":0,"channel":0,"type":"channel","noteNumber":75,"velocity":52,"subtype":"noteOn"},{"deltaTime":44,"channel":0,"type":"channel","subtype":"noteOff","noteNumber":39,"velocity":64},{"deltaTime":4,"channel":0,"type":"channel","noteNumber":56,"velocity":24,"subtype":"noteOn"},{"deltaTime":0,"channel":0,"type":"channel","noteNumber":59,"velocity":26,"subtype":"noteOn"},{"deltaTime":0,"channel":0,"type":"channel","noteNumber":63,"velocity":28,"subtype":"noteOn"},{"deltaTime":44,"channel":0,"type":"channel","subtype":"noteOff","noteNumber":56,"velocity":64},{"deltaTime":0,"channel":0,"type":"channel","subtype":"noteOff","noteNumber":59,"velocity":64},{"deltaTime":0,"channel":0,"type":"channel","subtype":"noteOff","noteNumber":63,"velocity":64},{"deltaTime":4,"channel":0,"type":"channel","noteNumber":59,"velocity":18,"subtype":"noteOn"},{"deltaTime":0,"channel":0,"type":"channel","noteNumber":63,"velocity":20,"subtype":"noteOn"},{"deltaTime":0,"channel":0,"type":"channel","noteNumber":68,"velocity":22,"subtype":"noteOn"},{"deltaTime":44,"channel":0,"type":"channel","subtype":"noteOff","noteNumber":59,"velocity":64},{"deltaTime":0,"channel":0,"type":"channel","subtype":"noteOff","noteNumber":63,"velocity":64},{"deltaTime":0,"channel":0,"type":"channel","subtype":"noteOff","noteNumber":68,"velocity":64},{"deltaTime":0,"channel":0,"type":"channel","subtype":"noteOff","noteNumber":75,"velocity":64},{"deltaTime":4,"channel":0,"type":"channel","noteNumber":51,"velocity":26,"subtype":"noteOn"},{"deltaTime":0,"channel":0,"type":"channel","noteNumber":77,"velocity":46,"subtype":"noteOn"},{"deltaTime":44,"channel":0,"type":"channel","subtype":"noteOff","noteNumber":51,"velocity":64},{"deltaTime":4,"channel":0,"type":"channel","noteNumber":56,"velocity":26,"subtype":"noteOn"},{"deltaTime":0,"channel":0,"type":"channel","noteNumber":59,"velocity":28,"subtype":"noteOn"},{"deltaTime":0,"channel":0,"type":"channel","noteNumber":63,"velocity":30,"subtype":"noteOn"},{"deltaTime":0,"channel":0,"type":"channel","noteNumber":75,"velocity":50,"subtype":"noteOn"},{"deltaTime":0,"channel":0,"type":"channel","subtype":"noteOff","noteNumber":77,"velocity":64},{"deltaTime":44,"channel":0,"type":"channel","subtype":"noteOff","noteNumber":56,"velocity":64},{"deltaTime":0,"channel":0,"type":"channel","subtype":"noteOff","noteNumber":59,"velocity":64},{"deltaTime":0,"channel":0,"type":"channel","subtype":"noteOff","noteNumber":63,"velocity":64},{"deltaTime":4,"channel":0,"type":"channel","noteNumber":59,"velocity":22,"subtype":"noteOn"},{"deltaTime":0,"channel":0,"type":"channel","noteNumber":63,"velocity":24,"subtype":"noteOn"},{"deltaTime":0,"channel":0,"type":"channel","noteNumber":68,"velocity":26,"subtype":"noteOn"},{"deltaTime":0,"channel":0,"type":"channel","subtype":"noteOff","noteNumber":75,"velocity":64},{"deltaTime":0,"channel":0,"type":"channel","noteNumber":77,"velocity":46,"subtype":"noteOn"},{"deltaTime":44,"channel":0,"type":"channel","subtype":"noteOff","noteNumber":59,"velocity":64},{"deltaTime":0,"channel":0,"type":"channel","subtype":"noteOff","noteNumber":63,"velocity":64},{"deltaTime":0,"channel":0,"type":"channel","subtype":"noteOff","noteNumber":68,"velocity":64},{"deltaTime":4,"channel":0,"type":"channel","noteNumber":39,"velocity":30,"subtype":"noteOn"},{"deltaTime":0,"channel":0,"type":"channel","subtype":"noteOff","noteNumber":77,"velocity":64},{"deltaTime":0,"channel":0,"type":"channel","noteNumber":79,"velocity":42,"subtype":"noteOn"},{"deltaTime":24,"channel":0,"type":"channel","subtype":"noteOff","noteNumber":39,"velocity":64},{"deltaTime":24,"channel":0,"type":"channel","noteNumber":55,"velocity":26,"subtype":"noteOn"},{"deltaTime":0,"channel":0,"type":"channel","noteNumber":63,"velocity":30,"subtype":"noteOn"},{"deltaTime":48,"channel":0,"type":"channel","subtype":"noteOff","noteNumber":55,"velocity":64},{"deltaTime":0,"channel":0,"type":"channel","noteNumber":58,"velocity":28,"subtype":"noteOn"},{"deltaTime":0,"channel":0,"type":"channel","subtype":"noteOff","noteNumber":63,"velocity":64},{"deltaTime":0,"channel":0,"type":"channel","noteNumber":63,"velocity":30,"subtype":"noteOn"},{"deltaTime":0,"channel":0,"type":"channel","noteNumber":67,"velocity":32,"subtype":"noteOn"},{"deltaTime":44,"channel":0,"type":"channel","subtype":"noteOff","noteNumber":58,"velocity":64},{"deltaTime":0,"channel":0,"type":"channel","subtype":"noteOff","noteNumber":63,"velocity":64},{"deltaTime":0,"channel":0,"type":"channel","subtype":"noteOff","noteNumber":67,"velocity":64},{"deltaTime":4,"channel":0,"type":"channel","noteNumber":51,"velocity":38,"subtype":"noteOn"},{"deltaTime":24,"channel":0,"type":"channel","subtype":"noteOff","noteNumber":51,"velocity":64},{"deltaTime":24,"channel":0,"type":"channel","noteNumber":55,"velocity":32,"subtype":"noteOn"},{"deltaTime":0,"channel":0,"type":"channel","noteNumber":63,"velocity":36,"subtype":"noteOn"},{"deltaTime":48,"channel":0,"type":"channel","subtype":"noteOff","noteNumber":55,"velocity":64},{"deltaTime":0,"channel":0,"type":"channel","noteNumber":58,"velocity":30,"subtype":"noteOn"},{"deltaTime":0,"channel":0,"type":"channel","subtype":"noteOff","noteNumber":63,"velocity":64},{"deltaTime":0,"channel":0,"type":"channel","noteNumber":63,"velocity":32,"subtype":"noteOn"},{"deltaTime":0,"channel":0,"type":"channel","noteNumber":67,"velocity":34,"subtype":"noteOn"},{"deltaTime":44,"channel":0,"type":"channel","subtype":"noteOff","noteNumber":58,"velocity":64},{"deltaTime":0,"channel":0,"type":"channel","subtype":"noteOff","noteNumber":63,"velocity":64},{"deltaTime":0,"channel":0,"type":"channel","subtype":"noteOff","noteNumber":67,"velocity":64},{"deltaTime":0,"channel":0,"type":"channel","subtype":"noteOff","noteNumber":79,"velocity":64},{"deltaTime":4,"channel":0,"type":"channel","noteNumber":39,"velocity":34,"subtype":"noteOn"},{"deltaTime":0,"channel":0,"type":"channel","noteNumber":75,"velocity":62,"subtype":"noteOn"},{"deltaTime":24,"channel":0,"type":"channel","subtype":"noteOff","noteNumber":39,"velocity":64},{"deltaTime":24,"channel":0,"type":"channel","noteNumber":56,"velocity":26,"subtype":"noteOn"},{"deltaTime":0,"channel":0,"type":"channel","noteNumber":59,"velocity":28,"subtype":"noteOn"},{"deltaTime":0,"channel":0,"type":"channel","noteNumber":63,"velocity":30,"subtype":"noteOn"},{"deltaTime":48,"channel":0,"type":"channel","subtype":"noteOff","noteNumber":56,"velocity":64},{"deltaTime":0,"channel":0,"type":"channel","subtype":"noteOff","noteNumber":59,"velocity":64},{"deltaTime":0,"channel":0,"type":"channel","noteNumber":59,"velocity":22,"subtype":"noteOn"},{"deltaTime":0,"channel":0,"type":"channel","subtype":"noteOff","noteNumber":63,"velocity":64},{"deltaTime":0,"channel":0,"type":"channel","noteNumber":63,"velocity":24,"subtype":"noteOn"},{"deltaTime":0,"channel":0,"type":"channel","noteNumber":68,"velocity":26,"subtype":"noteOn"},{"deltaTime":44,"channel":0,"type":"channel","subtype":"noteOff","noteNumber":59,"velocity":64},{"deltaTime":0,"channel":0,"type":"channel","subtype":"noteOff","noteNumber":63,"velocity":64},{"deltaTime":0,"channel":0,"type":"channel","subtype":"noteOff","noteNumber":68,"velocity":64},{"deltaTime":4,"channel":0,"type":"channel","noteNumber":51,"velocity":30,"subtype":"noteOn"},{"deltaTime":24,"channel":0,"type":"channel","subtype":"noteOff","noteNumber":51,"velocity":64},{"deltaTime":0,"channel":0,"type":"channel","subtype":"noteOff","noteNumber":75,"velocity":64},{"deltaTime":0,"channel":0,"type":"channel","noteNumber":77,"velocity":54,"subtype":"noteOn"},{"deltaTime":24,"channel":0,"type":"channel","noteNumber":56,"velocity":28,"subtype":"noteOn"},{"deltaTime":0,"channel":0,"type":"channel","noteNumber":59,"velocity":30,"subtype":"noteOn"},{"deltaTime":0,"channel":0,"type":"channel","noteNumber":63,"velocity":32,"subtype":"noteOn"},{"deltaTime":0,"channel":0,"type":"channel","noteNumber":75,"velocity":52,"subtype":"noteOn"},{"deltaTime":0,"channel":0,"type":"channel","subtype":"noteOff","noteNumber":77,"velocity":64},{"deltaTime":20,"channel":0,"type":"channel","subtype":"noteOff","noteNumber":75,"velocity":64},{"deltaTime":4,"channel":0,"type":"channel","noteNumber":77,"velocity":58,"subtype":"noteOn"},{"deltaTime":24,"channel":0,"type":"channel","subtype":"noteOff","noteNumber":56,"velocity":64},{"deltaTime":0,"channel":0,"type":"channel","subtype":"noteOff","noteNumber":59,"velocity":64},{"deltaTime":0,"channel":0,"type":"channel","noteNumber":59,"velocity":24,"subtype":"noteOn"},{"deltaTime":0,"channel":0,"type":"channel","subtype":"noteOff","noteNumber":63,"velocity":64},{"deltaTime":0,"channel":0,"type":"channel","noteNumber":63,"velocity":26,"subtype":"noteOn"},{"deltaTime":0,"channel":0,"type":"channel","noteNumber":68,"velocity":28,"subtype":"noteOn"},{"deltaTime":0,"channel":0,"type":"channel","noteNumber":75,"velocity":54,"subtype":"noteOn"},{"deltaTime":0,"channel":0,"type":"channel","subtype":"noteOff","noteNumber":77,"velocity":64},{"deltaTime":24,"channel":0,"type":"channel","subtype":"noteOff","noteNumber":75,"velocity":64},{"deltaTime":0,"channel":0,"type":"channel","noteNumber":77,"velocity":52,"subtype":"noteOn"},{"deltaTime":20,"channel":0,"type":"channel","subtype":"noteOff","noteNumber":59,"velocity":64},{"deltaTime":0,"channel":0,"type":"channel","subtype":"noteOff","noteNumber":63,"velocity":64},{"deltaTime":0,"channel":0,"type":"channel","subtype":"noteOff","noteNumber":68,"velocity":64},{"deltaTime":4,"channel":0,"type":"channel","noteNumber":39,"velocity":38,"subtype":"noteOn"},{"deltaTime":0,"channel":0,"type":"channel","subtype":"noteOff","noteNumber":77,"velocity":64},{"deltaTime":0,"channel":0,"type":"channel","noteNumber":79,"velocity":50,"subtype":"noteOn"},{"deltaTime":24,"channel":0,"type":"channel","subtype":"noteOff","noteNumber":39,"velocity":64},{"deltaTime":24,"channel":0,"type":"channel","noteNumber":55,"velocity":22,"subtype":"noteOn"},{"deltaTime":0,"channel":0,"type":"channel","noteNumber":58,"velocity":24,"subtype":"noteOn"},{"deltaTime":0,"channel":0,"type":"channel","noteNumber":63,"velocity":26,"subtype":"noteOn"},{"deltaTime":44,"channel":0,"type":"channel","subtype":"noteOff","noteNumber":79,"velocity":64},{"deltaTime":4,"channel":0,"type":"channel","subtype":"noteOff","noteNumber":55,"velocity":64},{"deltaTime":0,"channel":0,"type":"channel","subtype":"noteOff","noteNumber":58,"velocity":64},{"deltaTime":0,"channel":0,"type":"channel","noteNumber":58,"velocity":20,"subtype":"noteOn"},{"deltaTime":0,"channel":0,"type":"channel","subtype":"noteOff","noteNumber":63,"velocity":64},{"deltaTime":0,"channel":0,"type":"channel","noteNumber":63,"velocity":22,"subtype":"noteOn"},{"deltaTime":0,"channel":0,"type":"channel","noteNumber":67,"velocity":24,"subtype":"noteOn"},{"deltaTime":0,"channel":0,"type":"channel","noteNumber":75,"velocity":40,"subtype":"noteOn"},{"deltaTime":8,"channel":0,"type":"channel","subtype":"noteOff","noteNumber":75,"velocity":64},{"deltaTime":0,"channel":0,"type":"channel","noteNumber":77,"velocity":44,"subtype":"noteOn"},{"deltaTime":8,"channel":0,"type":"channel","noteNumber":75,"velocity":46,"subtype":"noteOn"},{"deltaTime":0,"channel":0,"type":"channel","subtype":"noteOff","noteNumber":77,"velocity":64},{"deltaTime":8,"channel":0,"type":"channel","noteNumber":74,"velocity":48,"subtype":"noteOn"},{"deltaTime":0,"channel":0,"type":"channel","subtype":"noteOff","noteNumber":75,"velocity":64},{"deltaTime":8,"channel":0,"type":"channel","subtype":"noteOff","noteNumber":74,"velocity":64},{"deltaTime":0,"channel":0,"type":"channel","noteNumber":75,"velocity":50,"subtype":"noteOn"},{"deltaTime":12,"channel":0,"type":"channel","subtype":"noteOff","noteNumber":58,"velocity":64},{"deltaTime":0,"channel":0,"type":"channel","subtype":"noteOff","noteNumber":63,"velocity":64},{"deltaTime":0,"channel":0,"type":"channel","subtype":"noteOff","noteNumber":67,"velocity":64},{"deltaTime":4,"channel":0,"type":"channel","noteNumber":51,"velocity":26,"subtype":"noteOn"},{"deltaTime":0,"channel":0,"type":"channel","subtype":"noteOff","noteNumber":75,"velocity":64},{"deltaTime":0,"channel":0,"type":"channel","noteNumber":87,"velocity":60,"subtype":"noteOn"},{"deltaTime":24,"channel":0,"type":"channel","subtype":"noteOff","noteNumber":51,"velocity":64},{"deltaTime":20,"channel":0,"type":"channel","subtype":"noteOff","noteNumber":87,"velocity":64},{"deltaTime":4,"channel":0,"type":"channel","noteNumber":55,"velocity":26,"subtype":"noteOn"},{"deltaTime":0,"channel":0,"type":"channel","noteNumber":63,"velocity":30,"subtype":"noteOn"},{"deltaTime":0,"channel":0,"type":"channel","noteNumber":86,"velocity":64,"subtype":"noteOn"},{"deltaTime":44,"channel":0,"type":"channel","subtype":"noteOff","noteNumber":86,"velocity":64},{"deltaTime":4,"channel":0,"type":"channel","subtype":"noteOff","noteNumber":55,"velocity":64},{"deltaTime":0,"channel":0,"type":"channel","noteNumber":58,"velocity":24,"subtype":"noteOn"},{"deltaTime":0,"channel":0,"type":"channel","subtype":"noteOff","noteNumber":63,"velocity":64},{"deltaTime":0,"channel":0,"type":"channel","noteNumber":63,"velocity":26,"subtype":"noteOn"},{"deltaTime":0,"channel":0,"type":"channel","noteNumber":67,"velocity":28,"subtype":"noteOn"},{"deltaTime":0,"channel":0,"type":"channel","noteNumber":84,"velocity":62,"subtype":"noteOn"},{"deltaTime":44,"channel":0,"type":"channel","subtype":"noteOff","noteNumber":58,"velocity":64},{"deltaTime":0,"channel":0,"type":"channel","subtype":"noteOff","noteNumber":63,"velocity":64},{"deltaTime":0,"channel":0,"type":"channel","subtype":"noteOff","noteNumber":67,"velocity":64},{"deltaTime":0,"channel":0,"type":"channel","subtype":"noteOff","noteNumber":84,"velocity":64},{"deltaTime":4,"channel":0,"type":"channel","noteNumber":51,"velocity":26,"subtype":"noteOn"},{"deltaTime":0,"channel":0,"type":"channel","noteNumber":82,"velocity":56,"subtype":"noteOn"},{"deltaTime":44,"channel":0,"type":"channel","subtype":"noteOff","noteNumber":51,"velocity":64},{"deltaTime":4,"channel":0,"type":"channel","noteNumber":53,"velocity":28,"subtype":"noteOn"},{"deltaTime":0,"channel":0,"type":"channel","noteNumber":62,"velocity":32,"subtype":"noteOn"},{"deltaTime":44,"channel":0,"type":"channel","subtype":"noteOff","noteNumber":53,"velocity":64},{"deltaTime":0,"channel":0,"type":"channel","subtype":"noteOff","noteNumber":62,"velocity":64},{"deltaTime":0,"channel":0,"type":"channel","subtype":"noteOff","noteNumber":82,"velocity":64},{"deltaTime":4,"channel":0,"type":"channel","noteNumber":58,"velocity":26,"subtype":"noteOn"},{"deltaTime":0,"channel":0,"type":"channel","noteNumber":68,"velocity":30,"subtype":"noteOn"},{"deltaTime":0,"channel":0,"type":"channel","noteNumber":81,"velocity":58,"subtype":"noteOn"},{"deltaTime":44,"channel":0,"type":"channel","subtype":"noteOff","noteNumber":58,"velocity":64},{"deltaTime":0,"channel":0,"type":"channel","subtype":"noteOff","noteNumber":68,"velocity":64},{"deltaTime":4,"channel":0,"type":"channel","noteNumber":51,"velocity":32,"subtype":"noteOn"},{"deltaTime":0,"channel":0,"type":"channel","noteNumber":80,"velocity":62,"subtype":"noteOn"},{"deltaTime":0,"channel":0,"type":"channel","subtype":"noteOff","noteNumber":81,"velocity":64},{"deltaTime":44,"channel":0,"type":"channel","subtype":"noteOff","noteNumber":51,"velocity":64},{"deltaTime":0,"channel":0,"type":"channel","subtype":"noteOff","noteNumber":80,"velocity":64},{"deltaTime":4,"channel":0,"type":"channel","noteNumber":53,"velocity":34,"subtype":"noteOn"},{"deltaTime":0,"channel":0,"type":"channel","noteNumber":62,"velocity":38,"subtype":"noteOn"},{"deltaTime":0,"channel":0,"type":"channel","noteNumber":72,"velocity":56,"subtype":"noteOn"},{"deltaTime":44,"channel":0,"type":"channel","subtype":"noteOff","noteNumber":53,"velocity":64},{"deltaTime":0,"channel":0,"type":"channel","subtype":"noteOff","noteNumber":62,"velocity":64},{"deltaTime":0,"channel":0,"type":"channel","subtype":"noteOff","noteNumber":72,"velocity":64},{"deltaTime":4,"channel":0,"type":"channel","noteNumber":58,"velocity":38,"subtype":"noteOn"},{"deltaTime":0,"channel":0,"type":"channel","noteNumber":68,"velocity":42,"subtype":"noteOn"},{"deltaTime":0,"channel":0,"type":"channel","noteNumber":74,"velocity":58,"subtype":"noteOn"},{"deltaTime":44,"channel":0,"type":"channel","subtype":"noteOff","noteNumber":58,"velocity":64},{"deltaTime":0,"channel":0,"type":"channel","subtype":"noteOff","noteNumber":68,"velocity":64},{"deltaTime":0,"channel":0,"type":"channel","subtype":"noteOff","noteNumber":74,"velocity":64},{"deltaTime":4,"channel":0,"type":"channel","noteNumber":51,"velocity":38,"subtype":"noteOn"},{"deltaTime":0,"channel":0,"type":"channel","noteNumber":75,"velocity":62,"subtype":"noteOn"},{"deltaTime":44,"channel":0,"type":"channel","subtype":"noteOff","noteNumber":51,"velocity":64},{"deltaTime":0,"channel":0,"type":"channel","subtype":"noteOff","noteNumber":75,"velocity":64},{"deltaTime":4,"channel":0,"type":"channel","noteNumber":55,"velocity":32,"subtype":"noteOn"},{"deltaTime":0,"channel":0,"type":"channel","noteNumber":63,"velocity":36,"subtype":"noteOn"},{"deltaTime":0,"channel":0,"type":"channel","noteNumber":77,"velocity":60,"subtype":"noteOn"},{"deltaTime":12,"channel":0,"type":"channel","noteNumber":75,"velocity":64,"subtype":"noteOn"},{"deltaTime":0,"channel":0,"type":"channel","subtype":"noteOff","noteNumber":77,"velocity":64},{"deltaTime":6,"channel":0,"type":"channel","subtype":"noteOff","noteNumber":75,"velocity":64},{"deltaTime":0,"channel":0,"type":"channel","noteNumber":77,"velocity":66,"subtype":"noteOn"},{"deltaTime":6,"channel":0,"type":"channel","noteNumber":75,"velocity":64,"subtype":"noteOn"},{"deltaTime":0,"channel":0,"type":"channel","subtype":"noteOff","noteNumber":77,"velocity":64},{"deltaTime":20,"channel":0,"type":"channel","subtype":"noteOff","noteNumber":55,"velocity":64},{"deltaTime":0,"channel":0,"type":"channel","subtype":"noteOff","noteNumber":63,"velocity":64},{"deltaTime":4,"channel":0,"type":"channel","noteNumber":58,"velocity":30,"subtype":"noteOn"},{"deltaTime":0,"channel":0,"type":"channel","noteNumber":67,"velocity":34,"subtype":"noteOn"},{"deltaTime":0,"channel":0,"type":"channel","noteNumber":74,"velocity":64,"subtype":"noteOn"},{"deltaTime":0,"channel":0,"type":"channel","subtype":"noteOff","noteNumber":75,"velocity":64},{"deltaTime":24,"channel":0,"type":"channel","subtype":"noteOff","noteNumber":74,"velocity":64},{"deltaTime":0,"channel":0,"type":"channel","noteNumber":75,"velocity":66,"subtype":"noteOn"},{"deltaTime":8,"channel":0,"type":"channel","subtype":"noteOff","noteNumber":75,"velocity":64},{"deltaTime":0,"channel":0,"type":"channel","noteNumber":75,"velocity":68,"subtype":"noteOn"},{"deltaTime":12,"channel":0,"type":"channel","subtype":"noteOff","noteNumber":58,"velocity":64},{"deltaTime":0,"channel":0,"type":"channel","subtype":"noteOff","noteNumber":67,"velocity":64},{"deltaTime":4,"channel":0,"type":"channel","noteNumber":45,"velocity":32,"subtype":"noteOn"},{"deltaTime":0,"channel":0,"type":"channel","subtype":"noteOff","noteNumber":75,"velocity":64},{"deltaTime":0,"channel":0,"type":"channel","noteNumber":91,"velocity":82,"subtype":"noteOn"},{"deltaTime":24,"channel":0,"type":"channel","subtype":"noteOff","noteNumber":91,"velocity":64},{"deltaTime":20,"channel":0,"type":"channel","subtype":"noteOff","noteNumber":45,"velocity":64},{"deltaTime":4,"channel":0,"type":"channel","noteNumber":53,"velocity":28,"subtype":"noteOn"},{"deltaTime":0,"channel":0,"type":"channel","noteNumber":63,"velocity":32,"subtype":"noteOn"},{"deltaTime":0,"channel":0,"type":"channel","noteNumber":89,"velocity":70,"subtype":"noteOn"},{"deltaTime":12,"channel":0,"type":"channel","subtype":"noteOff","noteNumber":89,"velocity":64},{"deltaTime":12,"channel":0,"type":"channel","noteNumber":87,"velocity":74,"subtype":"noteOn"},{"deltaTime":12,"channel":0,"type":"channel","subtype":"noteOff","noteNumber":87,"velocity":64},{"deltaTime":8,"channel":0,"type":"channel","subtype":"noteOff","noteNumber":53,"velocity":64},{"deltaTime":0,"channel":0,"type":"channel","subtype":"noteOff","noteNumber":63,"velocity":64},{"deltaTime":4,"channel":0,"type":"channel","noteNumber":60,"velocity":26,"subtype":"noteOn"},{"deltaTime":0,"channel":0,"type":"channel","noteNumber":63,"velocity":28,"subtype":"noteOn"},{"deltaTime":0,"channel":0,"type":"channel","noteNumber":65,"velocity":30,"subtype":"noteOn"},{"deltaTime":0,"channel":0,"type":"channel","noteNumber":86,"velocity":71,"subtype":"noteOn"},{"deltaTime":12,"channel":0,"type":"channel","subtype":"noteOff","noteNumber":86,"velocity":64},{"deltaTime":12,"channel":0,"type":"channel","noteNumber":84,"velocity":68,"subtype":"noteOn"},{"deltaTime":12,"channel":0,"type":"channel","subtype":"noteOff","noteNumber":84,"velocity":64},{"deltaTime":8,"channel":0,"type":"channel","subtype":"noteOff","noteNumber":60,"velocity":64},{"deltaTime":0,"channel":0,"type":"channel","subtype":"noteOff","noteNumber":63,"velocity":64},{"deltaTime":0,"channel":0,"type":"channel","subtype":"noteOff","noteNumber":65,"velocity":64},{"deltaTime":4,"channel":0,"type":"channel","noteNumber":46,"velocity":32,"subtype":"noteOn"},{"deltaTime":0,"channel":0,"type":"channel","noteNumber":83,"velocity":62,"subtype":"noteOn"},{"deltaTime":44,"channel":0,"type":"channel","subtype":"noteOff","noteNumber":46,"velocity":64},{"deltaTime":4,"channel":0,"type":"channel","noteNumber":53,"velocity":28,"subtype":"noteOn"},{"deltaTime":0,"channel":0,"type":"channel","noteNumber":63,"velocity":32,"subtype":"noteOn"},{"deltaTime":0,"channel":0,"type":"channel","noteNumber":82,"velocity":60,"subtype":"noteOn"},{"deltaTime":0,"channel":0,"type":"channel","subtype":"noteOff","noteNumber":83,"velocity":64},{"deltaTime":44,"channel":0,"type":"channel","subtype":"noteOff","noteNumber":53,"velocity":64},{"deltaTime":0,"channel":0,"type":"channel","subtype":"noteOff","noteNumber":63,"velocity":64},{"deltaTime":4,"channel":0,"type":"channel","noteNumber":58,"velocity":22,"subtype":"noteOn"},{"deltaTime":0,"channel":0,"type":"channel","noteNumber":63,"velocity":24,"subtype":"noteOn"},{"deltaTime":0,"channel":0,"type":"channel","noteNumber":68,"velocity":26,"subtype":"noteOn"},{"deltaTime":0,"channel":0,"type":"channel","noteNumber":81,"velocity":50,"subtype":"noteOn"},{"deltaTime":0,"channel":0,"type":"channel","subtype":"noteOff","noteNumber":82,"velocity":64},{"deltaTime":44,"channel":0,"type":"channel","subtype":"noteOff","noteNumber":58,"velocity":64},{"deltaTime":0,"channel":0,"type":"channel","subtype":"noteOff","noteNumber":63,"velocity":64},{"deltaTime":0,"channel":0,"type":"channel","subtype":"noteOff","noteNumber":68,"velocity":64},{"deltaTime":0,"channel":0,"type":"channel","subtype":"noteOff","noteNumber":81,"velocity":64},{"deltaTime":4,"channel":0,"type":"channel","noteNumber":34,"velocity":34,"subtype":"noteOn"},{"deltaTime":0,"channel":0,"type":"channel","noteNumber":81,"velocity":48,"subtype":"noteOn"},{"deltaTime":24,"channel":0,"type":"channel","noteNumber":80,"velocity":52,"subtype":"noteOn"},{"deltaTime":0,"channel":0,"type":"channel","subtype":"noteOff","noteNumber":81,"velocity":64},{"deltaTime":20,"channel":0,"type":"channel","subtype":"noteOff","noteNumber":34,"velocity":64},{"deltaTime":0,"channel":0,"type":"channel","subtype":"noteOff","noteNumber":80,"velocity":64},{"deltaTime":4,"channel":0,"type":"channel","noteNumber":53,"velocity":26,"subtype":"noteOn"},{"deltaTime":0,"channel":0,"type":"channel","noteNumber":62,"velocity":30,"subtype":"noteOn"},{"deltaTime":0,"channel":0,"type":"channel","noteNumber":80,"velocity":50,"subtype":"noteOn"},{"deltaTime":24,"channel":0,"type":"channel","noteNumber":79,"velocity":48,"subtype":"noteOn"},{"deltaTime":0,"channel":0,"type":"channel","subtype":"noteOff","noteNumber":80,"velocity":64},{"deltaTime":20,"channel":0,"type":"channel","subtype":"noteOff","noteNumber":53,"velocity":64},{"deltaTime":0,"channel":0,"type":"channel","subtype":"noteOff","noteNumber":62,"velocity":64},{"deltaTime":0,"channel":0,"type":"channel","subtype":"noteOff","noteNumber":79,"velocity":64},{"deltaTime":4,"channel":0,"type":"channel","noteNumber":58,"velocity":22,"subtype":"noteOn"},{"deltaTime":0,"channel":0,"type":"channel","noteNumber":62,"velocity":24,"subtype":"noteOn"},{"deltaTime":0,"channel":0,"type":"channel","noteNumber":68,"velocity":26,"subtype":"noteOn"},{"deltaTime":0,"channel":0,"type":"channel","noteNumber":79,"velocity":42,"subtype":"noteOn"},{"deltaTime":36,"channel":0,"type":"channel","noteNumber":77,"velocity":38,"subtype":"noteOn"},{"deltaTime":0,"channel":0,"type":"channel","subtype":"noteOff","noteNumber":79,"velocity":64},{"deltaTime":8,"channel":0,"type":"channel","subtype":"noteOff","noteNumber":58,"velocity":64},{"deltaTime":0,"channel":0,"type":"channel","subtype":"noteOff","noteNumber":62,"velocity":64},{"deltaTime":0,"channel":0,"type":"channel","subtype":"noteOff","noteNumber":68,"velocity":64},{"deltaTime":4,"channel":0,"type":"channel","noteNumber":39,"velocity":28,"subtype":"noteOn"},{"deltaTime":0,"channel":0,"type":"channel","noteNumber":75,"velocity":36,"subtype":"noteOn"},{"deltaTime":0,"channel":0,"type":"channel","subtype":"noteOff","noteNumber":77,"velocity":64},{"deltaTime":44,"channel":0,"type":"channel","subtype":"noteOff","noteNumber":39,"velocity":64},{"deltaTime":4,"channel":0,"type":"channel","noteNumber":55,"velocity":24,"subtype":"noteOn"},{"deltaTime":0,"channel":0,"type":"channel","noteNumber":63,"velocity":28,"subtype":"noteOn"},{"deltaTime":44,"channel":0,"type":"channel","subtype":"noteOff","noteNumber":55,"velocity":64},{"deltaTime":0,"channel":0,"type":"channel","subtype":"noteOff","noteNumber":63,"velocity":64},{"deltaTime":4,"channel":0,"type":"channel","noteNumber":58,"velocity":24,"subtype":"noteOn"},{"deltaTime":0,"channel":0,"type":"channel","noteNumber":63,"velocity":26,"subtype":"noteOn"},{"deltaTime":0,"channel":0,"type":"channel","noteNumber":67,"velocity":28,"subtype":"noteOn"},{"deltaTime":44,"channel":0,"type":"channel","subtype":"noteOff","noteNumber":58,"velocity":64},{"deltaTime":0,"channel":0,"type":"channel","subtype":"noteOff","noteNumber":63,"velocity":64},{"deltaTime":0,"channel":0,"type":"channel","subtype":"noteOff","noteNumber":67,"velocity":64},{"deltaTime":4,"channel":0,"type":"channel","noteNumber":51,"velocity":30,"subtype":"noteOn"},{"deltaTime":44,"channel":0,"type":"channel","subtype":"noteOff","noteNumber":51,"velocity":64},{"deltaTime":4,"channel":0,"type":"channel","noteNumber":55,"velocity":24,"subtype":"noteOn"},{"deltaTime":0,"channel":0,"type":"channel","noteNumber":63,"velocity":28,"subtype":"noteOn"},{"deltaTime":44,"channel":0,"type":"channel","subtype":"noteOff","noteNumber":55,"velocity":64},{"deltaTime":0,"channel":0,"type":"channel","subtype":"noteOff","noteNumber":63,"velocity":64},{"deltaTime":4,"channel":0,"type":"channel","noteNumber":58,"velocity":22,"subtype":"noteOn"},{"deltaTime":0,"channel":0,"type":"channel","noteNumber":63,"velocity":24,"subtype":"noteOn"},{"deltaTime":0,"channel":0,"type":"channel","noteNumber":67,"velocity":26,"subtype":"noteOn"},{"deltaTime":44,"channel":0,"type":"channel","subtype":"noteOff","noteNumber":58,"velocity":64},{"deltaTime":0,"channel":0,"type":"channel","subtype":"noteOff","noteNumber":63,"velocity":64},{"deltaTime":0,"channel":0,"type":"channel","subtype":"noteOff","noteNumber":67,"velocity":64},{"deltaTime":0,"channel":0,"type":"channel","subtype":"noteOff","noteNumber":75,"velocity":64},{"deltaTime":4,"channel":0,"type":"channel","noteNumber":32,"velocity":28,"subtype":"noteOn"},{"deltaTime":0,"channel":0,"type":"channel","noteNumber":75,"velocity":62,"subtype":"noteOn"},{"deltaTime":44,"channel":0,"type":"channel","subtype":"noteOff","noteNumber":32,"velocity":64},{"deltaTime":4,"channel":0,"type":"channel","noteNumber":51,"velocity":26,"subtype":"noteOn"},{"deltaTime":0,"channel":0,"type":"channel","noteNumber":56,"velocity":28,"subtype":"noteOn"},{"deltaTime":0,"channel":0,"type":"channel","noteNumber":59,"velocity":30,"subtype":"noteOn"},{"deltaTime":44,"channel":0,"type":"channel","subtype":"noteOff","noteNumber":51,"velocity":64},{"deltaTime":0,"channel":0,"type":"channel","subtype":"noteOff","noteNumber":56,"velocity":64},{"deltaTime":0,"channel":0,"type":"channel","subtype":"noteOff","noteNumber":59,"velocity":64},{"deltaTime":4,"channel":0,"type":"channel","noteNumber":56,"velocity":28,"subtype":"noteOn"},{"deltaTime":0,"channel":0,"type":"channel","noteNumber":59,"velocity":30,"subtype":"noteOn"},{"deltaTime":0,"channel":0,"type":"channel","noteNumber":63,"velocity":32,"subtype":"noteOn"},{"deltaTime":44,"channel":0,"type":"channel","subtype":"noteOff","noteNumber":56,"velocity":64},{"deltaTime":0,"channel":0,"type":"channel","subtype":"noteOff","noteNumber":59,"velocity":64},{"deltaTime":0,"channel":0,"type":"channel","subtype":"noteOff","noteNumber":63,"velocity":64},{"deltaTime":4,"channel":0,"type":"channel","noteNumber":59,"velocity":32,"subtype":"noteOn"},{"deltaTime":0,"channel":0,"type":"channel","noteNumber":63,"velocity":34,"subtype":"noteOn"},{"deltaTime":0,"channel":0,"type":"channel","noteNumber":68,"velocity":36,"subtype":"noteOn"},{"deltaTime":14,"channel":0,"type":"channel","subtype":"noteOff","noteNumber":75,"velocity":64},{"deltaTime":4,"channel":0,"type":"channel","noteNumber":77,"velocity":44,"subtype":"noteOn"},{"deltaTime":18,"channel":0,"type":"channel","noteNumber":75,"velocity":50,"subtype":"noteOn"},{"deltaTime":0,"channel":0,"type":"channel","subtype":"noteOff","noteNumber":77,"velocity":64},{"deltaTime":8,"channel":0,"type":"channel","subtype":"noteOff","noteNumber":59,"velocity":64},{"deltaTime":0,"channel":0,"type":"channel","subtype":"noteOff","noteNumber":63,"velocity":64},{"deltaTime":0,"channel":0,"type":"channel","subtype":"noteOff","noteNumber":68,"velocity":64},{"deltaTime":4,"channel":0,"type":"channel","noteNumber":56,"velocity":28,"subtype":"noteOn"},{"deltaTime":0,"channel":0,"type":"channel","noteNumber":59,"velocity":30,"subtype":"noteOn"},{"deltaTime":0,"channel":0,"type":"channel","noteNumber":63,"velocity":32,"subtype":"noteOn"},{"deltaTime":6,"channel":0,"type":"channel","subtype":"noteOff","noteNumber":75,"velocity":64},{"deltaTime":0,"channel":0,"type":"channel","noteNumber":77,"velocity":52,"subtype":"noteOn"},{"deltaTime":18,"channel":0,"type":"channel","noteNumber":75,"velocity":51,"subtype":"noteOn"},{"deltaTime":0,"channel":0,"type":"channel","subtype":"noteOff","noteNumber":77,"velocity":64},{"deltaTime":14,"channel":0,"type":"channel","subtype":"noteOff","noteNumber":75,"velocity":64},{"deltaTime":4,"channel":0,"type":"channel","noteNumber":77,"velocity":57,"subtype":"noteOn"},{"deltaTime":6,"channel":0,"type":"channel","subtype":"noteOff","noteNumber":56,"velocity":64},{"deltaTime":0,"channel":0,"type":"channel","subtype":"noteOff","noteNumber":59,"velocity":64},{"deltaTime":0,"channel":0,"type":"channel","subtype":"noteOff","noteNumber":63,"velocity":64},{"deltaTime":4,"channel":0,"type":"channel","noteNumber":51,"velocity":26,"subtype":"noteOn"},{"deltaTime":0,"channel":0,"type":"channel","noteNumber":56,"velocity":28,"subtype":"noteOn"},{"deltaTime":0,"channel":0,"type":"channel","noteNumber":59,"velocity":30,"subtype":"noteOn"},{"deltaTime":8,"channel":0,"type":"channel","noteNumber":75,"velocity":54,"subtype":"noteOn"},{"deltaTime":0,"channel":0,"type":"channel","subtype":"noteOff","noteNumber":77,"velocity":64},{"deltaTime":18,"channel":0,"type":"channel","subtype":"noteOff","noteNumber":75,"velocity":64},{"deltaTime":0,"channel":0,"type":"channel","noteNumber":77,"velocity":50,"subtype":"noteOn"},{"deltaTime":14,"channel":0,"type":"channel","subtype":"noteOff","noteNumber":51,"velocity":64},{"deltaTime":0,"channel":0,"type":"channel","subtype":"noteOff","noteNumber":56,"velocity":64},{"deltaTime":0,"channel":0,"type":"channel","subtype":"noteOff","noteNumber":59,"velocity":64},{"deltaTime":0,"channel":0,"type":"channel","subtype":"noteOff","noteNumber":77,"velocity":64},{"deltaTime":4,"channel":0,"type":"channel","noteNumber":39,"velocity":30,"subtype":"noteOn"},{"deltaTime":0,"channel":0,"type":"channel","noteNumber":79,"velocity":44,"subtype":"noteOn"},{"deltaTime":44,"channel":0,"type":"channel","subtype":"noteOff","noteNumber":39,"velocity":64},{"deltaTime":4,"channel":0,"type":"channel","noteNumber":55,"velocity":28,"subtype":"noteOn"},{"deltaTime":0,"channel":0,"type":"channel","noteNumber":63,"velocity":32,"subtype":"noteOn"},{"deltaTime":44,"channel":0,"type":"channel","subtype":"noteOff","noteNumber":55,"velocity":64},{"deltaTime":0,"channel":0,"type":"channel","subtype":"noteOff","noteNumber":63,"velocity":64},{"deltaTime":4,"channel":0,"type":"channel","noteNumber":58,"velocity":34,"subtype":"noteOn"},{"deltaTime":0,"channel":0,"type":"channel","noteNumber":63,"velocity":36,"subtype":"noteOn"},{"deltaTime":0,"channel":0,"type":"channel","noteNumber":67,"velocity":38,"subtype":"noteOn"},{"deltaTime":44,"channel":0,"type":"channel","subtype":"noteOff","noteNumber":58,"velocity":64},{"deltaTime":0,"channel":0,"type":"channel","subtype":"noteOff","noteNumber":63,"velocity":64},{"deltaTime":0,"channel":0,"type":"channel","subtype":"noteOff","noteNumber":67,"velocity":64},{"deltaTime":0,"channel":0,"type":"channel","subtype":"noteOff","noteNumber":79,"velocity":64},{"deltaTime":4,"channel":0,"type":"channel","noteNumber":51,"velocity":38,"subtype":"noteOn"},{"deltaTime":44,"channel":0,"type":"channel","subtype":"noteOff","noteNumber":51,"velocity":64},{"deltaTime":4,"channel":0,"type":"channel","noteNumber":55,"velocity":38,"subtype":"noteOn"},{"deltaTime":0,"channel":0,"type":"channel","noteNumber":63,"velocity":42,"subtype":"noteOn"},{"deltaTime":44,"channel":0,"type":"channel","subtype":"noteOff","noteNumber":55,"velocity":64},{"deltaTime":0,"channel":0,"type":"channel","subtype":"noteOff","noteNumber":63,"velocity":64},{"deltaTime":4,"channel":0,"type":"channel","noteNumber":58,"velocity":44,"subtype":"noteOn"},{"deltaTime":0,"channel":0,"type":"channel","noteNumber":63,"velocity":46,"subtype":"noteOn"},{"deltaTime":0,"channel":0,"type":"channel","noteNumber":67,"velocity":48,"subtype":"noteOn"},{"deltaTime":44,"channel":0,"type":"channel","subtype":"noteOff","noteNumber":58,"velocity":64},{"deltaTime":0,"channel":0,"type":"channel","subtype":"noteOff","noteNumber":63,"velocity":64},{"deltaTime":0,"channel":0,"type":"channel","subtype":"noteOff","noteNumber":67,"velocity":64},{"deltaTime":4,"channel":0,"type":"channel","noteNumber":32,"velocity":44,"subtype":"noteOn"},{"deltaTime":0,"channel":0,"type":"channel","noteNumber":75,"velocity":78,"subtype":"noteOn"},{"deltaTime":24,"channel":0,"type":"channel","subtype":"noteOff","noteNumber":75,"velocity":64},{"deltaTime":20,"channel":0,"type":"channel","subtype":"noteOff","noteNumber":32,"velocity":64},{"deltaTime":4,"channel":0,"type":"channel","noteNumber":51,"velocity":32,"subtype":"noteOn"},{"deltaTime":0,"channel":0,"type":"channel","noteNumber":56,"velocity":34,"subtype":"noteOn"},{"deltaTime":0,"channel":0,"type":"channel","noteNumber":59,"velocity":36,"subtype":"noteOn"},{"deltaTime":0,"channel":0,"type":"channel","noteNumber":68,"velocity":56,"subtype":"noteOn"},{"deltaTime":24,"channel":0,"type":"channel","subtype":"noteOff","noteNumber":68,"velocity":64},{"deltaTime":0,"channel":0,"type":"channel","noteNumber":70,"velocity":54,"subtype":"noteOn"},{"deltaTime":12,"channel":0,"type":"channel","noteNumber":68,"velocity":54,"subtype":"noteOn"},{"deltaTime":0,"channel":0,"type":"channel","subtype":"noteOff","noteNumber":70,"velocity":64},{"deltaTime":6,"channel":0,"type":"channel","subtype":"noteOff","noteNumber":68,"velocity":64},{"deltaTime":0,"channel":0,"type":"channel","noteNumber":70,"velocity":56,"subtype":"noteOn"},{"deltaTime":2,"channel":0,"type":"channel","subtype":"noteOff","noteNumber":51,"velocity":64},{"deltaTime":0,"channel":0,"type":"channel","subtype":"noteOff","noteNumber":56,"velocity":64},{"deltaTime":0,"channel":0,"type":"channel","subtype":"noteOff","noteNumber":59,"velocity":64},{"deltaTime":4,"channel":0,"type":"channel","noteNumber":56,"velocity":36,"subtype":"noteOn"},{"deltaTime":0,"channel":0,"type":"channel","noteNumber":59,"velocity":38,"subtype":"noteOn"},{"deltaTime":0,"channel":0,"type":"channel","noteNumber":63,"velocity":40,"subtype":"noteOn"},{"deltaTime":0,"channel":0,"type":"channel","noteNumber":68,"velocity":54,"subtype":"noteOn"},{"deltaTime":0,"channel":0,"type":"channel","subtype":"noteOff","noteNumber":70,"velocity":64},{"deltaTime":24,"channel":0,"type":"channel","noteNumber":67,"velocity":58,"subtype":"noteOn"},{"deltaTime":0,"channel":0,"type":"channel","subtype":"noteOff","noteNumber":68,"velocity":64},{"deltaTime":20,"channel":0,"type":"channel","subtype":"noteOff","noteNumber":56,"velocity":64},{"deltaTime":0,"channel":0,"type":"channel","subtype":"noteOff","noteNumber":59,"velocity":64},{"deltaTime":0,"channel":0,"type":"channel","subtype":"noteOff","noteNumber":63,"velocity":64},{"deltaTime":4,"channel":0,"type":"channel","noteNumber":51,"velocity":33,"subtype":"noteOn"},{"deltaTime":0,"channel":0,"type":"channel","noteNumber":56,"velocity":35,"subtype":"noteOn"},{"deltaTime":0,"channel":0,"type":"channel","noteNumber":59,"velocity":37,"subtype":"noteOn"},{"deltaTime":0,"channel":0,"type":"channel","subtype":"noteOff","noteNumber":67,"velocity":64},{"deltaTime":0,"channel":0,"type":"channel","noteNumber":68,"velocity":70,"subtype":"noteOn"},{"deltaTime":24,"channel":0,"type":"channel","subtype":"noteOff","noteNumber":68,"velocity":64},{"deltaTime":0,"channel":0,"type":"channel","noteNumber":71,"velocity":66,"subtype":"noteOn"},{"deltaTime":20,"channel":0,"type":"channel","subtype":"noteOff","noteNumber":51,"velocity":64},{"deltaTime":0,"channel":0,"type":"channel","subtype":"noteOff","noteNumber":56,"velocity":64},{"deltaTime":0,"channel":0,"type":"channel","subtype":"noteOff","noteNumber":59,"velocity":64},{"deltaTime":4,"channel":0,"type":"channel","noteNumber":56,"velocity":38,"subtype":"noteOn"},{"deltaTime":0,"channel":0,"type":"channel","noteNumber":59,"velocity":40,"subtype":"noteOn"},{"deltaTime":0,"channel":0,"type":"channel","noteNumber":63,"velocity":42,"subtype":"noteOn"},{"deltaTime":0,"channel":0,"type":"channel","subtype":"noteOff","noteNumber":71,"velocity":64},{"deltaTime":0,"channel":0,"type":"channel","noteNumber":75,"velocity":74,"subtype":"noteOn"},{"deltaTime":24,"channel":0,"type":"channel","subtype":"noteOff","noteNumber":75,"velocity":64},{"deltaTime":0,"channel":0,"type":"channel","noteNumber":80,"velocity":72,"subtype":"noteOn"},{"deltaTime":20,"channel":0,"type":"channel","subtype":"noteOff","noteNumber":56,"velocity":64},{"deltaTime":0,"channel":0,"type":"channel","subtype":"noteOff","noteNumber":59,"velocity":64},{"deltaTime":0,"channel":0,"type":"channel","subtype":"noteOff","noteNumber":63,"velocity":64},{"deltaTime":4,"channel":0,"type":"channel","noteNumber":51,"velocity":30,"subtype":"noteOn"},{"deltaTime":0,"channel":0,"type":"channel","noteNumber":56,"velocity":32,"subtype":"noteOn"},{"deltaTime":0,"channel":0,"type":"channel","noteNumber":59,"velocity":34,"subtype":"noteOn"},{"deltaTime":0,"channel":0,"type":"channel","subtype":"noteOff","noteNumber":80,"velocity":64},{"deltaTime":0,"channel":0,"type":"channel","noteNumber":87,"velocity":80,"subtype":"noteOn"},{"deltaTime":20,"channel":0,"type":"channel","subtype":"noteOff","noteNumber":87,"velocity":64},{"deltaTime":16,"channel":0,"type":"channel","noteNumber":89,"velocity":86,"subtype":"noteOn"},{"deltaTime":8,"channel":0,"type":"channel","subtype":"noteOff","noteNumber":51,"velocity":64},{"deltaTime":0,"channel":0,"type":"channel","subtype":"noteOff","noteNumber":56,"velocity":64},{"deltaTime":0,"channel":0,"type":"channel","subtype":"noteOff","noteNumber":59,"velocity":64},{"deltaTime":4,"channel":0,"type":"channel","noteNumber":39,"velocity":46,"subtype":"noteOn"},{"deltaTime":0,"channel":0,"type":"channel","subtype":"noteOff","noteNumber":89,"velocity":64},{"deltaTime":0,"channel":0,"type":"channel","noteNumber":91,"velocity":82,"subtype":"noteOn"},{"deltaTime":44,"channel":0,"type":"channel","subtype":"noteOff","noteNumber":39,"velocity":64},{"deltaTime":4,"channel":0,"type":"channel","noteNumber":55,"velocity":38,"subtype":"noteOn"},{"deltaTime":0,"channel":0,"type":"channel","noteNumber":63,"velocity":42,"subtype":"noteOn"},{"deltaTime":0,"channel":0,"type":"channel","noteNumber":87,"velocity":86,"subtype":"noteOn"},{"deltaTime":0,"channel":0,"type":"channel","subtype":"noteOff","noteNumber":91,"velocity":64},{"deltaTime":44,"channel":0,"type":"channel","subtype":"noteOff","noteNumber":55,"velocity":64},{"deltaTime":0,"channel":0,"type":"channel","subtype":"noteOff","noteNumber":63,"velocity":64},{"deltaTime":4,"channel":0,"type":"channel","noteNumber":58,"velocity":42,"subtype":"noteOn"},{"deltaTime":0,"channel":0,"type":"channel","noteNumber":63,"velocity":44,"subtype":"noteOn"},{"deltaTime":0,"channel":0,"type":"channel","noteNumber":67,"velocity":46,"subtype":"noteOn"},{"deltaTime":0,"channel":0,"type":"channel","subtype":"noteOff","noteNumber":87,"velocity":64},{"deltaTime":0,"channel":0,"type":"channel","noteNumber":87,"velocity":92,"subtype":"noteOn"},{"deltaTime":0,"channel":0,"type":"channel","noteNumber":99,"velocity":102,"subtype":"noteOn"},{"deltaTime":44,"channel":0,"type":"channel","subtype":"noteOff","noteNumber":58,"velocity":64},{"deltaTime":0,"channel":0,"type":"channel","subtype":"noteOff","noteNumber":63,"velocity":64},{"deltaTime":0,"channel":0,"type":"channel","subtype":"noteOff","noteNumber":67,"velocity":64},{"deltaTime":4,"channel":0,"type":"channel","noteNumber":45,"velocity":52,"subtype":"noteOn"},{"deltaTime":44,"channel":0,"type":"channel","subtype":"noteOff","noteNumber":45,"velocity":64},{"deltaTime":0,"channel":0,"type":"channel","subtype":"noteOff","noteNumber":87,"velocity":64},{"deltaTime":0,"channel":0,"type":"channel","subtype":"noteOff","noteNumber":99,"velocity":64},{"deltaTime":4,"channel":0,"type":"channel","noteNumber":53,"velocity":48,"subtype":"noteOn"},{"deltaTime":0,"channel":0,"type":"channel","noteNumber":63,"velocity":52,"subtype":"noteOn"},{"deltaTime":0,"channel":0,"type":"channel","noteNumber":86,"velocity":80,"subtype":"noteOn"},{"deltaTime":0,"channel":0,"type":"channel","noteNumber":98,"velocity":90,"subtype":"noteOn"},{"deltaTime":44,"channel":0,"type":"channel","subtype":"noteOff","noteNumber":53,"velocity":64},{"deltaTime":0,"channel":0,"type":"channel","subtype":"noteOff","noteNumber":63,"velocity":64},{"deltaTime":0,"channel":0,"type":"channel","subtype":"noteOff","noteNumber":86,"velocity":64},{"deltaTime":0,"channel":0,"type":"channel","subtype":"noteOff","noteNumber":98,"velocity":64},{"deltaTime":4,"channel":0,"type":"channel","noteNumber":60,"velocity":48,"subtype":"noteOn"},{"deltaTime":0,"channel":0,"type":"channel","noteNumber":63,"velocity":50,"subtype":"noteOn"},{"deltaTime":0,"channel":0,"type":"channel","noteNumber":65,"velocity":52,"subtype":"noteOn"},{"deltaTime":0,"channel":0,"type":"channel","noteNumber":84,"velocity":76,"subtype":"noteOn"},{"deltaTime":0,"channel":0,"type":"channel","noteNumber":96,"velocity":86,"subtype":"noteOn"},{"deltaTime":44,"channel":0,"type":"channel","subtype":"noteOff","noteNumber":60,"velocity":64},{"deltaTime":0,"channel":0,"type":"channel","subtype":"noteOff","noteNumber":63,"velocity":64},{"deltaTime":0,"channel":0,"type":"channel","subtype":"noteOff","noteNumber":65,"velocity":64},{"deltaTime":0,"channel":0,"type":"channel","subtype":"noteOff","noteNumber":84,"velocity":64},{"deltaTime":0,"channel":0,"type":"channel","subtype":"noteOff","noteNumber":96,"velocity":64},{"deltaTime":4,"channel":0,"type":"channel","noteNumber":46,"velocity":48,"subtype":"noteOn"},{"deltaTime":0,"channel":0,"type":"channel","noteNumber":83,"velocity":82,"subtype":"noteOn"},{"deltaTime":0,"channel":0,"type":"channel","noteNumber":95,"velocity":92,"subtype":"noteOn"},{"deltaTime":44,"channel":0,"type":"channel","subtype":"noteOff","noteNumber":46,"velocity":64},{"deltaTime":0,"channel":0,"type":"channel","subtype":"noteOff","noteNumber":83,"velocity":64},{"deltaTime":0,"channel":0,"type":"channel","subtype":"noteOff","noteNumber":95,"velocity":64},{"deltaTime":4,"channel":0,"type":"channel","noteNumber":53,"velocity":40,"subtype":"noteOn"},{"deltaTime":0,"channel":0,"type":"channel","noteNumber":58,"velocity":42,"subtype":"noteOn"},{"deltaTime":0,"channel":0,"type":"channel","noteNumber":63,"velocity":44,"subtype":"noteOn"},{"deltaTime":0,"channel":0,"type":"channel","noteNumber":82,"velocity":78,"subtype":"noteOn"},{"deltaTime":0,"channel":0,"type":"channel","noteNumber":94,"velocity":88,"subtype":"noteOn"},{"deltaTime":44,"channel":0,"type":"channel","subtype":"noteOff","noteNumber":53,"velocity":64},{"deltaTime":0,"channel":0,"type":"channel","subtype":"noteOff","noteNumber":58,"velocity":64},{"deltaTime":0,"channel":0,"type":"channel","subtype":"noteOff","noteNumber":63,"velocity":64},{"deltaTime":0,"channel":0,"type":"channel","subtype":"noteOff","noteNumber":82,"velocity":64},{"deltaTime":0,"channel":0,"type":"channel","subtype":"noteOff","noteNumber":94,"velocity":64},{"deltaTime":4,"channel":0,"type":"channel","noteNumber":58,"velocity":40,"subtype":"noteOn"},{"deltaTime":0,"channel":0,"type":"channel","noteNumber":63,"velocity":42,"subtype":"noteOn"},{"deltaTime":0,"channel":0,"type":"channel","noteNumber":68,"velocity":44,"subtype":"noteOn"},{"deltaTime":0,"channel":0,"type":"channel","noteNumber":81,"velocity":76,"subtype":"noteOn"},{"deltaTime":0,"channel":0,"type":"channel","noteNumber":93,"velocity":86,"subtype":"noteOn"},{"deltaTime":44,"channel":0,"type":"channel","subtype":"noteOff","noteNumber":58,"velocity":64},{"deltaTime":0,"channel":0,"type":"channel","subtype":"noteOff","noteNumber":63,"velocity":64},{"deltaTime":0,"channel":0,"type":"channel","subtype":"noteOff","noteNumber":68,"velocity":64},{"deltaTime":0,"channel":0,"type":"channel","subtype":"noteOff","noteNumber":81,"velocity":64},{"deltaTime":0,"channel":0,"type":"channel","subtype":"noteOff","noteNumber":93,"velocity":64},{"deltaTime":4,"channel":0,"type":"channel","noteNumber":47,"velocity":49,"subtype":"noteOn"},{"deltaTime":0,"channel":0,"type":"channel","noteNumber":80,"velocity":78,"subtype":"noteOn"},{"deltaTime":0,"channel":0,"type":"channel","noteNumber":92,"velocity":88,"subtype":"noteOn"},{"deltaTime":44,"channel":0,"type":"channel","subtype":"noteOff","noteNumber":47,"velocity":64},{"deltaTime":0,"channel":0,"type":"channel","subtype":"noteOff","noteNumber":80,"velocity":64},{"deltaTime":0,"channel":0,"type":"channel","subtype":"noteOff","noteNumber":92,"velocity":64},{"deltaTime":4,"channel":0,"type":"channel","noteNumber":55,"velocity":42,"subtype":"noteOn"},{"deltaTime":0,"channel":0,"type":"channel","noteNumber":65,"velocity":46,"subtype":"noteOn"},{"deltaTime":0,"channel":0,"type":"channel","noteNumber":79,"velocity":72,"subtype":"noteOn"},{"deltaTime":0,"channel":0,"type":"channel","noteNumber":91,"velocity":82,"subtype":"noteOn"},{"deltaTime":44,"channel":0,"type":"channel","subtype":"noteOff","noteNumber":55,"velocity":64},{"deltaTime":0,"channel":0,"type":"channel","subtype":"noteOff","noteNumber":65,"velocity":64},{"deltaTime":0,"channel":0,"type":"channel","subtype":"noteOff","noteNumber":79,"velocity":64},{"deltaTime":0,"channel":0,"type":"channel","subtype":"noteOff","noteNumber":91,"velocity":64},{"deltaTime":4,"channel":0,"type":"channel","noteNumber":62,"velocity":40,"subtype":"noteOn"},{"deltaTime":0,"channel":0,"type":"channel","noteNumber":65,"velocity":42,"subtype":"noteOn"},{"deltaTime":0,"channel":0,"type":"channel","noteNumber":67,"velocity":44,"subtype":"noteOn"},{"deltaTime":0,"channel":0,"type":"channel","noteNumber":74,"velocity":76,"subtype":"noteOn"},{"deltaTime":0,"channel":0,"type":"channel","noteNumber":86,"velocity":86,"subtype":"noteOn"},{"deltaTime":44,"channel":0,"type":"channel","subtype":"noteOff","noteNumber":62,"velocity":64},{"deltaTime":0,"channel":0,"type":"channel","subtype":"noteOff","noteNumber":65,"velocity":64},{"deltaTime":0,"channel":0,"type":"channel","subtype":"noteOff","noteNumber":67,"velocity":64},{"deltaTime":0,"channel":0,"type":"channel","subtype":"noteOff","noteNumber":74,"velocity":64},{"deltaTime":0,"channel":0,"type":"channel","subtype":"noteOff","noteNumber":86,"velocity":64},{"deltaTime":4,"channel":0,"type":"channel","noteNumber":48,"velocity":50,"subtype":"noteOn"},{"deltaTime":0,"channel":0,"type":"channel","noteNumber":75,"velocity":84,"subtype":"noteOn"},{"deltaTime":0,"channel":0,"type":"channel","noteNumber":87,"velocity":94,"subtype":"noteOn"},{"deltaTime":44,"channel":0,"type":"channel","subtype":"noteOff","noteNumber":48,"velocity":64},{"deltaTime":0,"channel":0,"type":"channel","subtype":"noteOff","noteNumber":75,"velocity":64},{"deltaTime":0,"channel":0,"type":"channel","subtype":"noteOff","noteNumber":87,"velocity":64},{"deltaTime":4,"channel":0,"type":"channel","noteNumber":55,"velocity":46,"subtype":"noteOn"},{"deltaTime":0,"channel":0,"type":"channel","noteNumber":63,"velocity":50,"subtype":"noteOn"},{"deltaTime":0,"channel":0,"type":"channel","noteNumber":87,"velocity":92,"subtype":"noteOn"},{"deltaTime":0,"channel":0,"type":"channel","noteNumber":99,"velocity":102,"subtype":"noteOn"},{"deltaTime":44,"channel":0,"type":"channel","subtype":"noteOff","noteNumber":55,"velocity":64},{"deltaTime":0,"channel":0,"type":"channel","subtype":"noteOff","noteNumber":63,"velocity":64},{"deltaTime":4,"channel":0,"type":"channel","noteNumber":60,"velocity":44,"subtype":"noteOn"},{"deltaTime":0,"channel":0,"type":"channel","noteNumber":67,"velocity":48,"subtype":"noteOn"},{"deltaTime":44,"channel":0,"type":"channel","subtype":"noteOff","noteNumber":60,"velocity":64},{"deltaTime":0,"channel":0,"type":"channel","subtype":"noteOff","noteNumber":67,"velocity":64},{"deltaTime":4,"channel":0,"type":"channel","noteNumber":45,"velocity":51,"subtype":"noteOn"},{"deltaTime":24,"channel":0,"type":"channel","subtype":"noteOff","noteNumber":45,"velocity":64},{"deltaTime":20,"channel":0,"type":"channel","subtype":"noteOff","noteNumber":87,"velocity":64},{"deltaTime":0,"channel":0,"type":"channel","subtype":"noteOff","noteNumber":99,"velocity":64},{"deltaTime":4,"channel":0,"type":"channel","noteNumber":53,"velocity":46,"subtype":"noteOn"},{"deltaTime":0,"channel":0,"type":"channel","noteNumber":60,"velocity":48,"subtype":"noteOn"},{"deltaTime":0,"channel":0,"type":"channel","noteNumber":63,"velocity":50,"subtype":"noteOn"},{"deltaTime":0,"channel":0,"type":"channel","noteNumber":77,"velocity":84,"subtype":"noteOn"},{"deltaTime":0,"channel":0,"type":"channel","noteNumber":89,"velocity":94,"subtype":"noteOn"},{"deltaTime":44,"channel":0,"type":"channel","subtype":"noteOff","noteNumber":60,"velocity":64},{"deltaTime":0,"channel":0,"type":"channel","subtype":"noteOff","noteNumber":63,"velocity":64},{"deltaTime":0,"channel":0,"type":"channel","subtype":"noteOff","noteNumber":77,"velocity":64},{"deltaTime":0,"channel":0,"type":"channel","subtype":"noteOff","noteNumber":89,"velocity":64},{"deltaTime":4,"channel":0,"type":"channel","noteNumber":60,"velocity":44,"subtype":"noteOn"},{"deltaTime":0,"channel":0,"type":"channel","noteNumber":63,"velocity":46,"subtype":"noteOn"},{"deltaTime":0,"channel":0,"type":"channel","noteNumber":65,"velocity":48,"subtype":"noteOn"},{"deltaTime":0,"channel":0,"type":"channel","noteNumber":84,"velocity":88,"subtype":"noteOn"},{"deltaTime":0,"channel":0,"type":"channel","noteNumber":96,"velocity":98,"subtype":"noteOn"},{"deltaTime":44,"channel":0,"type":"channel","subtype":"noteOff","noteNumber":53,"velocity":64},{"deltaTime":0,"channel":0,"type":"channel","subtype":"noteOff","noteNumber":60,"velocity":64},{"deltaTime":0,"channel":0,"type":"channel","subtype":"noteOff","noteNumber":63,"velocity":64},{"deltaTime":0,"channel":0,"type":"channel","subtype":"noteOff","noteNumber":65,"velocity":64},{"deltaTime":0,"channel":0,"type":"channel","subtype":"noteOff","noteNumber":84,"velocity":64},{"deltaTime":0,"channel":0,"type":"channel","subtype":"noteOff","noteNumber":96,"velocity":64},{"deltaTime":4,"channel":0,"type":"channel","noteNumber":34,"velocity":54,"subtype":"noteOn"},{"deltaTime":0,"channel":0,"type":"channel","noteNumber":83,"velocity":86,"subtype":"noteOn"},{"deltaTime":0,"channel":0,"type":"channel","noteNumber":95,"velocity":96,"subtype":"noteOn"},{"deltaTime":36,"channel":0,"type":"channel","subtype":"noteOff","noteNumber":34,"velocity":64},{"deltaTime":0,"channel":0,"type":"channel","noteNumber":46,"velocity":46,"subtype":"noteOn"},{"deltaTime":36,"channel":0,"type":"channel","subtype":"noteOff","noteNumber":46,"velocity":64},{"deltaTime":0,"channel":0,"type":"channel","noteNumber":53,"velocity":50,"subtype":"noteOn"},{"deltaTime":36,"channel":0,"type":"channel","subtype":"noteOff","noteNumber":53,"velocity":64},{"deltaTime":0,"channel":0,"type":"channel","noteNumber":56,"velocity":54,"subtype":"noteOn"},{"deltaTime":36,"channel":0,"type":"channel","subtype":"noteOff","noteNumber":56,"velocity":64},{"deltaTime":0,"channel":0,"type":"channel","noteNumber":62,"velocity":52,"subtype":"noteOn"},{"deltaTime":36,"channel":0,"type":"channel","noteNumber":58,"velocity":54,"subtype":"noteOn"},{"deltaTime":0,"channel":0,"type":"channel","subtype":"noteOff","noteNumber":62,"velocity":64},{"deltaTime":36,"channel":0,"type":"channel","subtype":"noteOff","noteNumber":58,"velocity":64},{"deltaTime":0,"channel":0,"type":"channel","noteNumber":65,"velocity":52,"subtype":"noteOn"},{"deltaTime":36,"channel":0,"type":"channel","subtype":"noteOff","noteNumber":65,"velocity":64},{"deltaTime":0,"channel":0,"type":"channel","noteNumber":68,"velocity":50,"subtype":"noteOn"},{"deltaTime":32,"channel":0,"type":"channel","subtype":"noteOff","noteNumber":83,"velocity":64},{"deltaTime":0,"channel":0,"type":"channel","subtype":"noteOff","noteNumber":95,"velocity":64},{"deltaTime":4,"channel":0,"type":"channel","subtype":"noteOff","noteNumber":68,"velocity":64},{"deltaTime":0,"channel":0,"type":"channel","noteNumber":74,"velocity":48,"subtype":"noteOn"},{"deltaTime":0,"channel":0,"type":"channel","noteNumber":82,"velocity":70,"subtype":"noteOn"},{"deltaTime":0,"channel":0,"type":"channel","noteNumber":94,"velocity":80,"subtype":"noteOn"},{"deltaTime":284,"channel":0,"type":"channel","subtype":"noteOff","noteNumber":74,"velocity":64},{"deltaTime":0,"channel":0,"type":"channel","subtype":"noteOff","noteNumber":82,"velocity":64},{"deltaTime":0,"channel":0,"type":"channel","subtype":"noteOff","noteNumber":94,"velocity":64},{"deltaTime":4,"channel":0,"type":"channel","noteNumber":95,"velocity":34,"subtype":"noteOn"},{"deltaTime":12,"channel":0,"type":"channel","noteNumber":94,"velocity":36,"subtype":"noteOn"},{"deltaTime":0,"channel":0,"type":"channel","subtype":"noteOff","noteNumber":95,"velocity":64},{"deltaTime":12,"channel":0,"type":"channel","subtype":"noteOff","noteNumber":94,"velocity":64},{"deltaTime":0,"channel":0,"type":"channel","noteNumber":96,"velocity":40,"subtype":"noteOn"},{"deltaTime":12,"channel":0,"type":"channel","noteNumber":93,"velocity":38,"subtype":"noteOn"},{"deltaTime":0,"channel":0,"type":"channel","subtype":"noteOff","noteNumber":96,"velocity":64},{"deltaTime":12,"channel":0,"type":"channel","subtype":"noteOff","noteNumber":93,"velocity":64},{"deltaTime":0,"channel":0,"type":"channel","noteNumber":95,"velocity":49,"subtype":"noteOn"},{"deltaTime":12,"channel":0,"type":"channel","noteNumber":94,"velocity":45,"subtype":"noteOn"},{"deltaTime":0,"channel":0,"type":"channel","subtype":"noteOff","noteNumber":95,"velocity":64},{"deltaTime":12,"channel":0,"type":"channel","subtype":"noteOff","noteNumber":94,"velocity":64},{"deltaTime":0,"channel":0,"type":"channel","noteNumber":96,"velocity":50,"subtype":"noteOn"},{"deltaTime":12,"channel":0,"type":"channel","noteNumber":93,"velocity":48,"subtype":"noteOn"},{"deltaTime":0,"channel":0,"type":"channel","subtype":"noteOff","noteNumber":96,"velocity":64},{"deltaTime":12,"channel":0,"type":"channel","subtype":"noteOff","noteNumber":93,"velocity":64},{"deltaTime":0,"channel":0,"type":"channel","noteNumber":95,"velocity":57,"subtype":"noteOn"},{"deltaTime":12,"channel":0,"type":"channel","noteNumber":94,"velocity":53,"subtype":"noteOn"},{"deltaTime":0,"channel":0,"type":"channel","subtype":"noteOff","noteNumber":95,"velocity":64},{"deltaTime":12,"channel":0,"type":"channel","subtype":"noteOff","noteNumber":94,"velocity":64},{"deltaTime":0,"channel":0,"type":"channel","noteNumber":96,"velocity":58,"subtype":"noteOn"},{"deltaTime":12,"channel":0,"type":"channel","noteNumber":93,"velocity":56,"subtype":"noteOn"},{"deltaTime":0,"channel":0,"type":"channel","subtype":"noteOff","noteNumber":96,"velocity":64},{"deltaTime":12,"channel":0,"type":"channel","subtype":"noteOff","noteNumber":93,"velocity":64},{"deltaTime":0,"channel":0,"type":"channel","noteNumber":95,"velocity":65,"subtype":"noteOn"},{"deltaTime":12,"channel":0,"type":"channel","noteNumber":94,"velocity":59,"subtype":"noteOn"},{"deltaTime":0,"channel":0,"type":"channel","subtype":"noteOff","noteNumber":95,"velocity":64},{"deltaTime":12,"channel":0,"type":"channel","subtype":"noteOff","noteNumber":94,"velocity":64},{"deltaTime":0,"channel":0,"type":"channel","noteNumber":96,"velocity":63,"subtype":"noteOn"},{"deltaTime":12,"channel":0,"type":"channel","noteNumber":93,"velocity":58,"subtype":"noteOn"},{"deltaTime":0,"channel":0,"type":"channel","subtype":"noteOff","noteNumber":96,"velocity":64},{"deltaTime":12,"channel":0,"type":"channel","subtype":"noteOff","noteNumber":93,"velocity":64},{"deltaTime":0,"channel":0,"type":"channel","noteNumber":95,"velocity":69,"subtype":"noteOn"},{"deltaTime":12,"channel":0,"type":"channel","noteNumber":94,"velocity":63,"subtype":"noteOn"},{"deltaTime":0,"channel":0,"type":"channel","subtype":"noteOff","noteNumber":95,"velocity":64},{"deltaTime":12,"channel":0,"type":"channel","subtype":"noteOff","noteNumber":94,"velocity":64},{"deltaTime":0,"channel":0,"type":"channel","noteNumber":96,"velocity":66,"subtype":"noteOn"},{"deltaTime":12,"channel":0,"type":"channel","noteNumber":93,"velocity":61,"subtype":"noteOn"},{"deltaTime":0,"channel":0,"type":"channel","subtype":"noteOff","noteNumber":96,"velocity":64},{"deltaTime":12,"channel":0,"type":"channel","subtype":"noteOff","noteNumber":93,"velocity":64},{"deltaTime":0,"channel":0,"type":"channel","noteNumber":95,"velocity":70,"subtype":"noteOn"},{"deltaTime":12,"channel":0,"type":"channel","noteNumber":94,"velocity":63,"subtype":"noteOn"},{"deltaTime":0,"channel":0,"type":"channel","subtype":"noteOff","noteNumber":95,"velocity":64},{"deltaTime":12,"channel":0,"type":"channel","subtype":"noteOff","noteNumber":94,"velocity":64},{"deltaTime":0,"channel":0,"type":"channel","noteNumber":96,"velocity":65,"subtype":"noteOn"},{"deltaTime":12,"channel":0,"type":"channel","noteNumber":93,"velocity":61,"subtype":"noteOn"},{"deltaTime":0,"channel":0,"type":"channel","subtype":"noteOff","noteNumber":96,"velocity":64},{"deltaTime":12,"channel":0,"type":"channel","subtype":"noteOff","noteNumber":93,"velocity":64},{"deltaTime":0,"channel":0,"type":"channel","noteNumber":95,"velocity":68,"subtype":"noteOn"},{"deltaTime":12,"channel":0,"type":"channel","noteNumber":94,"velocity":65,"subtype":"noteOn"},{"deltaTime":0,"channel":0,"type":"channel","subtype":"noteOff","noteNumber":95,"velocity":64},{"deltaTime":12,"channel":0,"type":"channel","subtype":"noteOff","noteNumber":94,"velocity":64},{"deltaTime":0,"channel":0,"type":"channel","noteNumber":96,"velocity":64,"subtype":"noteOn"},{"deltaTime":12,"channel":0,"type":"channel","noteNumber":93,"velocity":62,"subtype":"noteOn"},{"deltaTime":0,"channel":0,"type":"channel","subtype":"noteOff","noteNumber":96,"velocity":64},{"deltaTime":12,"channel":0,"type":"channel","subtype":"noteOff","noteNumber":93,"velocity":64},{"deltaTime":0,"channel":0,"type":"channel","noteNumber":95,"velocity":66,"subtype":"noteOn"},{"deltaTime":12,"channel":0,"type":"channel","noteNumber":94,"velocity":63,"subtype":"noteOn"},{"deltaTime":0,"channel":0,"type":"channel","subtype":"noteOff","noteNumber":95,"velocity":64},{"deltaTime":12,"channel":0,"type":"channel","subtype":"noteOff","noteNumber":94,"velocity":64},{"deltaTime":0,"channel":0,"type":"channel","noteNumber":96,"velocity":62,"subtype":"noteOn"},{"deltaTime":12,"channel":0,"type":"channel","noteNumber":93,"velocity":60,"subtype":"noteOn"},{"deltaTime":0,"channel":0,"type":"channel","subtype":"noteOff","noteNumber":96,"velocity":64},{"deltaTime":12,"channel":0,"type":"channel","subtype":"noteOff","noteNumber":93,"velocity":64},{"deltaTime":0,"channel":0,"type":"channel","noteNumber":95,"velocity":66,"subtype":"noteOn"},{"deltaTime":12,"channel":0,"type":"channel","noteNumber":94,"velocity":60,"subtype":"noteOn"},{"deltaTime":0,"channel":0,"type":"channel","subtype":"noteOff","noteNumber":95,"velocity":64},{"deltaTime":12,"channel":0,"type":"channel","subtype":"noteOff","noteNumber":94,"velocity":64},{"deltaTime":0,"channel":0,"type":"channel","noteNumber":96,"velocity":59,"subtype":"noteOn"},{"deltaTime":12,"channel":0,"type":"channel","noteNumber":93,"velocity":57,"subtype":"noteOn"},{"deltaTime":0,"channel":0,"type":"channel","subtype":"noteOff","noteNumber":96,"velocity":64},{"deltaTime":12,"channel":0,"type":"channel","subtype":"noteOff","noteNumber":93,"velocity":64},{"deltaTime":0,"channel":0,"type":"channel","noteNumber":95,"velocity":63,"subtype":"noteOn"},{"deltaTime":12,"channel":0,"type":"channel","noteNumber":94,"velocity":56,"subtype":"noteOn"},{"deltaTime":0,"channel":0,"type":"channel","subtype":"noteOff","noteNumber":95,"velocity":64},{"deltaTime":12,"channel":0,"type":"channel","subtype":"noteOff","noteNumber":94,"velocity":64},{"deltaTime":0,"channel":0,"type":"channel","noteNumber":96,"velocity":56,"subtype":"noteOn"},{"deltaTime":12,"channel":0,"type":"channel","noteNumber":93,"velocity":51,"subtype":"noteOn"},{"deltaTime":0,"channel":0,"type":"channel","subtype":"noteOff","noteNumber":96,"velocity":64},{"deltaTime":12,"channel":0,"type":"channel","subtype":"noteOff","noteNumber":93,"velocity":64},{"deltaTime":0,"channel":0,"type":"channel","noteNumber":95,"velocity":57,"subtype":"noteOn"},{"deltaTime":12,"channel":0,"type":"channel","noteNumber":94,"velocity":50,"subtype":"noteOn"},{"deltaTime":0,"channel":0,"type":"channel","subtype":"noteOff","noteNumber":95,"velocity":64},{"deltaTime":12,"channel":0,"type":"channel","subtype":"noteOff","noteNumber":94,"velocity":64},{"deltaTime":0,"channel":0,"type":"channel","noteNumber":96,"velocity":50,"subtype":"noteOn"},{"deltaTime":12,"channel":0,"type":"channel","noteNumber":93,"velocity":45,"subtype":"noteOn"},{"deltaTime":0,"channel":0,"type":"channel","subtype":"noteOff","noteNumber":96,"velocity":64},{"deltaTime":12,"channel":0,"type":"channel","subtype":"noteOff","noteNumber":93,"velocity":64},{"deltaTime":0,"channel":0,"type":"channel","noteNumber":95,"velocity":54,"subtype":"noteOn"},{"deltaTime":12,"channel":0,"type":"channel","noteNumber":94,"velocity":44,"subtype":"noteOn"},{"deltaTime":0,"channel":0,"type":"channel","subtype":"noteOff","noteNumber":95,"velocity":64},{"deltaTime":12,"channel":0,"type":"channel","subtype":"noteOff","noteNumber":94,"velocity":64},{"deltaTime":0,"channel":0,"type":"channel","noteNumber":96,"velocity":44,"subtype":"noteOn"},{"deltaTime":12,"channel":0,"type":"channel","noteNumber":93,"velocity":39,"subtype":"noteOn"},{"deltaTime":0,"channel":0,"type":"channel","subtype":"noteOff","noteNumber":96,"velocity":64},{"deltaTime":12,"channel":0,"type":"channel","subtype":"noteOff","noteNumber":93,"velocity":64},{"deltaTime":0,"channel":0,"type":"channel","noteNumber":95,"velocity":50,"subtype":"noteOn"},{"deltaTime":12,"channel":0,"type":"channel","noteNumber":94,"velocity":53,"subtype":"noteOn"},{"deltaTime":0,"channel":0,"type":"channel","subtype":"noteOff","noteNumber":95,"velocity":64},{"deltaTime":12,"channel":0,"type":"channel","subtype":"noteOff","noteNumber":94,"velocity":64},{"deltaTime":0,"channel":0,"type":"channel","noteNumber":98,"velocity":48,"subtype":"noteOn"},{"deltaTime":12,"channel":0,"type":"channel","noteNumber":96,"velocity":51,"subtype":"noteOn"},{"deltaTime":0,"channel":0,"type":"channel","subtype":"noteOff","noteNumber":98,"velocity":64},{"deltaTime":12,"channel":0,"type":"channel","noteNumber":94,"velocity":44,"subtype":"noteOn"},{"deltaTime":0,"channel":0,"type":"channel","subtype":"noteOff","noteNumber":96,"velocity":64},{"deltaTime":12,"channel":0,"type":"channel","noteNumber":93,"velocity":46,"subtype":"noteOn"},{"deltaTime":0,"channel":0,"type":"channel","subtype":"noteOff","noteNumber":94,"velocity":64},{"deltaTime":12,"channel":0,"type":"channel","noteNumber":92,"velocity":50,"subtype":"noteOn"},{"deltaTime":0,"channel":0,"type":"channel","subtype":"noteOff","noteNumber":93,"velocity":64},{"deltaTime":12,"channel":0,"type":"channel","noteNumber":91,"velocity":48,"subtype":"noteOn"},{"deltaTime":0,"channel":0,"type":"channel","subtype":"noteOff","noteNumber":92,"velocity":64},{"deltaTime":12,"channel":0,"type":"channel","noteNumber":89,"velocity":46,"subtype":"noteOn"},{"deltaTime":0,"channel":0,"type":"channel","subtype":"noteOff","noteNumber":91,"velocity":64},{"deltaTime":12,"channel":0,"type":"channel","noteNumber":86,"velocity":41,"subtype":"noteOn"},{"deltaTime":0,"channel":0,"type":"channel","subtype":"noteOff","noteNumber":89,"velocity":64},{"deltaTime":12,"channel":0,"type":"channel","subtype":"noteOff","noteNumber":86,"velocity":64},{"deltaTime":0,"channel":0,"type":"channel","noteNumber":87,"velocity":45,"subtype":"noteOn"},{"deltaTime":12,"channel":0,"type":"channel","noteNumber":84,"velocity":40,"subtype":"noteOn"},{"deltaTime":0,"channel":0,"type":"channel","subtype":"noteOff","noteNumber":87,"velocity":64},{"deltaTime":12,"channel":0,"type":"channel","noteNumber":82,"velocity":38,"subtype":"noteOn"},{"deltaTime":0,"channel":0,"type":"channel","subtype":"noteOff","noteNumber":84,"velocity":64},{"deltaTime":24,"channel":0,"type":"channel","noteNumber":80,"velocity":36,"subtype":"noteOn"},{"deltaTime":0,"channel":0,"type":"channel","subtype":"noteOff","noteNumber":82,"velocity":64},{"deltaTime":24,"channel":0,"type":"channel","noteNumber":72,"velocity":33,"subtype":"noteOn"},{"deltaTime":0,"channel":0,"type":"channel","subtype":"noteOff","noteNumber":80,"velocity":64},{"deltaTime":24,"channel":0,"type":"channel","subtype":"noteOff","noteNumber":72,"velocity":64},{"deltaTime":0,"channel":0,"type":"channel","noteNumber":74,"velocity":30,"subtype":"noteOn"},{"deltaTime":40,"channel":0,"type":"channel","subtype":"noteOff","noteNumber":74,"velocity":64},{"deltaTime":8,"channel":0,"type":"channel","noteNumber":39,"velocity":28,"subtype":"noteOn"},{"deltaTime":0,"channel":0,"type":"channel","noteNumber":67,"velocity":24,"subtype":"noteOn"},{"deltaTime":0,"channel":0,"type":"channel","noteNumber":75,"velocity":36,"subtype":"noteOn"},{"deltaTime":48,"channel":0,"type":"channel","subtype":"noteOff","noteNumber":39,"velocity":64},{"deltaTime":0,"channel":0,"type":"channel","noteNumber":58,"velocity":24,"subtype":"noteOn"},{"deltaTime":0,"channel":0,"type":"channel","subtype":"noteOff","noteNumber":67,"velocity":64},{"deltaTime":0,"channel":0,"type":"channel","noteNumber":70,"velocity":29,"subtype":"noteOn"},{"deltaTime":0,"channel":0,"type":"channel","subtype":"noteOff","noteNumber":75,"velocity":64},{"deltaTime":48,"channel":0,"type":"channel","noteNumber":46,"velocity":24,"subtype":"noteOn"},{"deltaTime":0,"channel":0,"type":"channel","subtype":"noteOff","noteNumber":58,"velocity":64},{"deltaTime":0,"channel":0,"type":"channel","subtype":"noteOff","noteNumber":70,"velocity":64},{"deltaTime":0,"channel":0,"type":"channel","noteNumber":79,"velocity":31,"subtype":"noteOn"},{"deltaTime":48,"channel":0,"type":"channel","subtype":"noteOff","noteNumber":46,"velocity":64},{"deltaTime":0,"channel":0,"type":"channel","noteNumber":51,"velocity":26,"subtype":"noteOn"},{"deltaTime":0,"channel":0,"type":"channel","noteNumber":67,"velocity":26,"subtype":"noteOn"},{"deltaTime":0,"channel":0,"type":"channel","noteNumber":75,"velocity":38,"subtype":"noteOn"},{"deltaTime":0,"channel":0,"type":"channel","subtype":"noteOff","noteNumber":79,"velocity":64},{"deltaTime":48,"channel":0,"type":"channel","subtype":"noteOff","noteNumber":51,"velocity":64},{"deltaTime":0,"channel":0,"type":"channel","noteNumber":58,"velocity":26,"subtype":"noteOn"},{"deltaTime":0,"channel":0,"type":"channel","subtype":"noteOff","noteNumber":67,"velocity":64},{"deltaTime":0,"channel":0,"type":"channel","noteNumber":70,"velocity":32,"subtype":"noteOn"},{"deltaTime":0,"channel":0,"type":"channel","subtype":"noteOff","noteNumber":75,"velocity":64},{"deltaTime":48,"channel":0,"type":"channel","noteNumber":46,"velocity":30,"subtype":"noteOn"},{"deltaTime":0,"channel":0,"type":"channel","subtype":"noteOff","noteNumber":58,"velocity":64},{"deltaTime":0,"channel":0,"type":"channel","subtype":"noteOff","noteNumber":70,"velocity":64},{"deltaTime":0,"channel":0,"type":"channel","noteNumber":79,"velocity":34,"subtype":"noteOn"},{"deltaTime":44,"channel":0,"type":"channel","subtype":"noteOff","noteNumber":46,"velocity":64},{"deltaTime":4,"channel":0,"type":"channel","noteNumber":39,"velocity":32,"subtype":"noteOn"},{"deltaTime":0,"channel":0,"type":"channel","noteNumber":67,"velocity":28,"subtype":"noteOn"},{"deltaTime":0,"channel":0,"type":"channel","noteNumber":75,"velocity":40,"subtype":"noteOn"},{"deltaTime":0,"channel":0,"type":"channel","subtype":"noteOff","noteNumber":79,"velocity":64},{"deltaTime":48,"channel":0,"type":"channel","subtype":"noteOff","noteNumber":39,"velocity":64},{"deltaTime":0,"channel":0,"type":"channel","noteNumber":58,"velocity":24,"subtype":"noteOn"},{"deltaTime":0,"channel":0,"type":"channel","subtype":"noteOff","noteNumber":67,"velocity":64},{"deltaTime":0,"channel":0,"type":"channel","noteNumber":70,"velocity":30,"subtype":"noteOn"},{"deltaTime":0,"channel":0,"type":"channel","subtype":"noteOff","noteNumber":75,"velocity":64},{"deltaTime":48,"channel":0,"type":"channel","noteNumber":46,"velocity":22,"subtype":"noteOn"},{"deltaTime":0,"channel":0,"type":"channel","subtype":"noteOff","noteNumber":58,"velocity":64},{"deltaTime":0,"channel":0,"type":"channel","subtype":"noteOff","noteNumber":70,"velocity":64},{"deltaTime":0,"channel":0,"type":"channel","noteNumber":79,"velocity":30,"subtype":"noteOn"},{"deltaTime":48,"channel":0,"type":"channel","subtype":"noteOff","noteNumber":46,"velocity":64},{"deltaTime":0,"channel":0,"type":"channel","noteNumber":51,"velocity":24,"subtype":"noteOn"},{"deltaTime":0,"channel":0,"type":"channel","noteNumber":67,"velocity":24,"subtype":"noteOn"},{"deltaTime":0,"channel":0,"type":"channel","noteNumber":75,"velocity":36,"subtype":"noteOn"},{"deltaTime":0,"channel":0,"type":"channel","subtype":"noteOff","noteNumber":79,"velocity":64},{"deltaTime":48,"channel":0,"type":"channel","subtype":"noteOff","noteNumber":51,"velocity":64},{"deltaTime":0,"channel":0,"type":"channel","noteNumber":58,"velocity":22,"subtype":"noteOn"},{"deltaTime":0,"channel":0,"type":"channel","subtype":"noteOff","noteNumber":67,"velocity":64},{"deltaTime":0,"channel":0,"type":"channel","noteNumber":70,"velocity":26,"subtype":"noteOn"},{"deltaTime":0,"channel":0,"type":"channel","subtype":"noteOff","noteNumber":75,"velocity":64},{"deltaTime":48,"channel":0,"type":"channel","noteNumber":46,"velocity":20,"subtype":"noteOn"},{"deltaTime":0,"channel":0,"type":"channel","subtype":"noteOff","noteNumber":70,"velocity":64},{"deltaTime":0,"channel":0,"type":"channel","noteNumber":79,"velocity":30,"subtype":"noteOn"},{"deltaTime":44,"channel":0,"type":"channel","subtype":"noteOff","noteNumber":46,"velocity":64},{"deltaTime":4,"channel":0,"type":"channel","noteNumber":51,"velocity":18,"subtype":"noteOn"},{"deltaTime":0,"channel":0,"type":"channel","noteNumber":67,"velocity":22,"subtype":"noteOn"},{"deltaTime":0,"channel":0,"type":"channel","noteNumber":75,"velocity":30,"subtype":"noteOn"},{"deltaTime":0,"channel":0,"type":"channel","subtype":"noteOff","noteNumber":79,"velocity":64},{"deltaTime":140,"channel":0,"type":"channel","subtype":"noteOff","noteNumber":51,"velocity":64},{"deltaTime":0,"channel":0,"type":"channel","subtype":"noteOff","noteNumber":58,"velocity":64},{"deltaTime":0,"channel":0,"type":"channel","subtype":"noteOff","noteNumber":67,"velocity":64},{"deltaTime":0,"channel":0,"type":"channel","subtype":"noteOff","noteNumber":75,"velocity":64},{"deltaTime":4,"channel":0,"type":"channel","noteNumber":63,"velocity":22,"subtype":"noteOn"},{"deltaTime":0,"channel":0,"type":"channel","noteNumber":70,"velocity":24,"subtype":"noteOn"},{"deltaTime":0,"channel":0,"type":"channel","noteNumber":79,"velocity":26,"subtype":"noteOn"},{"deltaTime":0,"channel":0,"type":"channel","noteNumber":87,"velocity":40,"subtype":"noteOn"},{"deltaTime":140,"channel":0,"type":"channel","subtype":"noteOff","noteNumber":63,"velocity":64},{"deltaTime":0,"channel":0,"type":"channel","subtype":"noteOff","noteNumber":70,"velocity":64},{"deltaTime":0,"channel":0,"type":"channel","subtype":"noteOff","noteNumber":79,"velocity":64},{"deltaTime":0,"channel":0,"type":"channel","subtype":"noteOff","noteNumber":87,"velocity":64},{"deltaTime":4,"channel":0,"type":"channel","noteNumber":39,"velocity":16,"subtype":"noteOn"},{"deltaTime":0,"channel":0,"type":"channel","noteNumber":46,"velocity":18,"subtype":"noteOn"},{"deltaTime":0,"channel":0,"type":"channel","noteNumber":55,"velocity":20,"subtype":"noteOn"},{"deltaTime":0,"channel":0,"type":"channel","noteNumber":63,"velocity":26,"subtype":"noteOn"},{"deltaTime":284,"channel":0,"type":"channel","subtype":"noteOff","noteNumber":39,"velocity":64},{"deltaTime":0,"channel":0,"type":"channel","subtype":"noteOff","noteNumber":46,"velocity":64},{"deltaTime":0,"channel":0,"type":"channel","subtype":"noteOff","noteNumber":55,"velocity":64},{"deltaTime":0,"channel":0,"type":"channel","subtype":"noteOff","noteNumber":63,"velocity":64},{"deltaTime":0,"type":"meta","subtype":"endOfTrack"}]]}