{"header":{"formatType":1,"trackCount":2,"ticksPerBeat":480},"tracks":[[{"deltaTime":0,"channel":0,"type":"channel","noteNumber":79,"velocity":49,"subtype":"noteOn"},{"deltaTime":959,"channel":0,"type":"channel","noteNumber":79,"velocity":0,"subtype":"noteOff"},{"deltaTime":1,"channel":0,"type":"channel","noteNumber":77,"velocity":49,"subtype":"noteOn"},{"deltaTime":239,"channel":0,"type":"channel","noteNumber":77,"velocity":0,"subtype":"noteOff"},{"deltaTime":1,"channel":0,"type":"channel","noteNumber":79,"velocity":49,"subtype":"noteOn"},{"deltaTime":239,"channel":0,"type":"channel","noteNumber":79,"velocity":0,"subtype":"noteOff"},{"deltaTime":1,"channel":0,"type":"channel","noteNumber":77,"velocity":49,"subtype":"noteOn"},{"deltaTime":719,"channel":0,"type":"channel","noteNumber":77,"velocity":0,"subtype":"noteOff"},{"deltaTime":1,"channel":0,"type":"channel","noteNumber":75,"velocity":49,"subtype":"noteOn"},{"deltaTime":479,"channel":0,"type":"channel","noteNumber":75,"velocity":0,"subtype":"noteOff"},{"deltaTime":1,"channel":0,"type":"channel","noteNumber":70,"velocity":49,"subtype":"noteOn"},{"deltaTime":239,"channel":0,"type":"channel","noteNumber":70,"velocity":0,"subtype":"noteOff"},{"deltaTime":1,"channel":0,"type":"channel","noteNumber":79,"velocity":49,"subtype":"noteOn"},{"deltaTime":479,"channel":0,"type":"channel","noteNumber":79,"velocity":0,"subtype":"noteOff"},{"deltaTime":1,"channel":0,"type":"channel","noteNumber":73,"velocity":49,"subtype":"noteOn"},{"deltaTime":0,"channel":0,"type":"channel","noteNumber":72,"velocity":0,"subtype":"noteOff"},{"deltaTime":59,"channel":0,"type":"channel","noteNumber":73,"velocity":0,"subtype":"noteOff"},{"deltaTime":1,"channel":0,"type":"channel","noteNumber":72,"velocity":49,"subtype":"noteOn"},{"deltaTime":59,"channel":0,"type":"channel","noteNumber":72,"velocity":0,"subtype":"noteOff"},{"deltaTime":1,"channel":0,"type":"channel","noteNumber":71,"velocity":49,"subtype":"noteOn"},{"deltaTime":59,"channel":0,"type":"channel","noteNumber":71,"velocity":0,"subtype":"noteOff"},{"deltaTime":1,"channel":0,"type":"channel","noteNumber":72,"velocity":49,"subtype":"noteOn"},{"deltaTime":59,"channel":0,"type":"channel","noteNumber":72,"velocity":0,"subtype":"noteOff"},{"deltaTime":0,"channel":0,"type":"channel","noteNumber":72,"velocity":0,"subtype":"noteOff"},{"deltaTime":1,"channel":0,"type":"channel","noteNumber":84,"velocity":49,"subtype":"noteOn"},{"deltaTime":479,"channel":0,"type":"channel","noteNumber":84,"velocity":0,"subtype":"noteOff"},{"deltaTime":1,"channel":0,"type":"channel","noteNumber":79,"velocity":49,"subtype":"noteOn"},{"deltaTime":239,"channel":0,"type":"channel","noteNumber":79,"velocity":0,"subtype":"noteOff"},{"deltaTime":1,"channel":0,"type":"channel","noteNumber":82,"velocity":49,"subtype":"noteOn"},{"deltaTime":719,"channel":0,"type":"channel","noteNumber":82,"velocity":0,"subtype":"noteOff"},{"deltaTime":1,"channel":0,"type":"channel","noteNumber":80,"velocity":49,"subtype":"noteOn"},{"deltaTime":479,"channel":0,"type":"channel","noteNumber":80,"velocity":0,"subtype":"noteOff"},{"deltaTime":1,"channel":0,"type":"channel","noteNumber":79,"velocity":49,"subtype":"noteOn"},{"deltaTime":239,"channel":0,"type":"channel","noteNumber":79,"velocity":0,"subtype":"noteOff"},{"deltaTime":1,"channel":0,"type":"channel","noteNumber":77,"velocity":49,"subtype":"noteOn"},{"deltaTime":719,"channel":0,"type":"channel","noteNumber":77,"velocity":0,"subtype":"noteOff"},{"deltaTime":1,"channel":0,"type":"channel","noteNumber":79,"velocity":49,"subtype":"noteOn"},{"deltaTime":479,"channel":0,"type":"channel","noteNumber":79,"velocity":0,"subtype":"noteOff"},{"deltaTime":1,"channel":0,"type":"channel","noteNumber":74,"velocity":49,"subtype":"noteOn"},{"deltaTime":239,"channel":0,"type":"channel","noteNumber":74,"velocity":0,"subtype":"noteOff"},{"deltaTime":1,"channel":0,"type":"channel","noteNumber":75,"velocity":49,"subtype":"noteOn"},{"deltaTime":719,"channel":0,"type":"channel","noteNumber":75,"velocity":0,"subtype":"noteOff"},{"deltaTime":1,"channel":0,"type":"channel","noteNumber":72,"velocity":49,"subtype":"noteOn"},{"deltaTime":719,"channel":0,"type":"channel","noteNumber":72,"velocity":0,"subtype":"noteOff"},{"deltaTime":1,"channel":0,"type":"channel","noteNumber":70,"velocity":96,"subtype":"noteOn"},{"deltaTime":239,"channel":0,"type":"channel","noteNumber":70,"velocity":0,"subtype":"noteOff"},{"deltaTime":1,"channel":0,"type":"channel","noteNumber":86,"velocity":96,"subtype":"noteOn"},{"deltaTime":239,"channel":0,"type":"channel","noteNumber":86,"velocity":0,"subtype":"noteOff"},{"deltaTime":1,"channel":0,"type":"channel","noteNumber":84,"velocity":96,"subtype":"noteOn"},{"deltaTime":239,"channel":0,"type":"channel","noteNumber":84,"velocity":0,"subtype":"noteOff"},{"deltaTime":1,"channel":0,"type":"channel","noteNumber":82,"velocity":96,"subtype":"noteOn"},{"deltaTime":119,"channel":0,"type":"channel","noteNumber":82,"velocity":0,"subtype":"noteOff"},{"deltaTime":1,"channel":0,"type":"channel","noteNumber":80,"velocity":96,"subtype":"noteOn"},{"deltaTime":119,"channel":0,"type":"channel","noteNumber":80,"velocity":0,"subtype":"noteOff"},{"deltaTime":1,"channel":0,"type":"channel","noteNumber":79,"velocity":96,"subtype":"noteOn"},{"deltaTime":119,"channel":0,"type":"channel","noteNumber":79,"velocity":0,"subtype":"noteOff"},{"deltaTime":1,"channel":0,"type":"channel","noteNumber":80,"velocity":96,"subtype":"noteOn"},{"deltaTime":119,"channel":0,"type":"channel","noteNumber":80,"velocity":0,"subtype":"noteOff"},{"deltaTime":1,"channel":0,"type":"channel","noteNumber":72,"velocity":96,"subtype":"noteOn"},{"deltaTime":119,"channel":0,"type":"channel","noteNumber":72,"velocity":0,"subtype":"noteOff"},{"deltaTime":1,"channel":0,"type":"channel","noteNumber":74,"velocity":96,"subtype":"noteOn"},{"deltaTime":119,"channel":0,"type":"channel","noteNumber":74,"velocity":0,"subtype":"noteOff"},{"deltaTime":1,"channel":0,"type":"channel","noteNumber":75,"velocity":96,"subtype":"noteOn"},{"deltaTime":719,"channel":0,"type":"channel","noteNumber":75,"velocity":0,"subtype":"noteOff"},{"deltaTime":481,"channel":0,"type":"channel","noteNumber":70,"velocity":49,"subtype":"noteOn"},{"deltaTime":239,"channel":0,"type":"channel","noteNumber":70,"velocity":0,"subtype":"noteOff"},{"deltaTime":1,"channel":0,"type":"channel","noteNumber":79,"velocity":49,"subtype":"noteOn"},{"deltaTime":719,"channel":0,"type":"channel","noteNumber":79,"velocity":0,"subtype":"noteOff"},{"deltaTime":1,"channel":0,"type":"channel","noteNumber":77,"velocity":49,"subtype":"noteOn"},{"deltaTime":119,"channel":0,"type":"channel","noteNumber":77,"velocity":0,"subtype":"noteOff"},{"deltaTime":1,"channel":0,"type":"channel","noteNumber":79,"velocity":49,"subtype":"noteOn"},{"deltaTime":119,"channel":0,"type":"channel","noteNumber":79,"velocity":0,"subtype":"noteOff"},{"deltaTime":1,"channel":0,"type":"channel","noteNumber":79,"velocity":49,"subtype":"noteOn"},{"deltaTime":0,"channel":0,"type":"channel","noteNumber":77,"velocity":0,"subtype":"noteOff"},{"deltaTime":29,"channel":0,"type":"channel","noteNumber":79,"velocity":0,"subtype":"noteOff"},{"deltaTime":1,"channel":0,"type":"channel","noteNumber":77,"velocity":49,"subtype":"noteOn"},{"deltaTime":29,"channel":0,"type":"channel","noteNumber":77,"velocity":0,"subtype":"noteOff"},{"deltaTime":1,"channel":0,"type":"channel","noteNumber":79,"velocity":49,"subtype":"noteOn"},{"deltaTime":29,"channel":0,"type":"channel","noteNumber":79,"velocity":0,"subtype":"noteOff"},{"deltaTime":1,"channel":0,"type":"channel","noteNumber":77,"velocity":49,"subtype":"noteOn"},{"deltaTime":29,"channel":0,"type":"channel","noteNumber":77,"velocity":0,"subtype":"noteOff"},{"deltaTime":0,"channel":0,"type":"channel","noteNumber":77,"velocity":0,"subtype":"noteOff"},{"deltaTime":1,"channel":0,"type":"channel","noteNumber":76,"velocity":49,"subtype":"noteOn"},{"deltaTime":119,"channel":0,"type":"channel","noteNumber":76,"velocity":0,"subtype":"noteOff"},{"deltaTime":1,"channel":0,"type":"channel","noteNumber":77,"velocity":49,"subtype":"noteOn"},{"deltaTime":119,"channel":0,"type":"channel","noteNumber":77,"velocity":0,"subtype":"noteOff"},{"deltaTime":1,"channel":0,"type":"channel","noteNumber":79,"velocity":49,"subtype":"noteOn"},{"deltaTime":119,"channel":0,"type":"channel","noteNumber":79,"velocity":0,"subtype":"noteOff"},{"deltaTime":1,"channel":0,"type":"channel","noteNumber":77,"velocity":49,"subtype":"noteOn"},{"deltaTime":239,"channel":0,"type":"channel","noteNumber":77,"velocity":0,"subtype":"noteOff"},{"deltaTime":1,"channel":0,"type":"channel","noteNumber":75,"velocity":49,"subtype":"noteOn"},{"deltaTime":599,"channel":0,"type":"channel","noteNumber":75,"velocity":0,"subtype":"noteOff"},{"deltaTime":1,"channel":0,"type":"channel","noteNumber":77,"velocity":49,"subtype":"noteOn"},{"deltaTime":119,"channel":0,"type":"channel","noteNumber":77,"velocity":0,"subtype":"noteOff"},{"deltaTime":1,"channel":0,"type":"channel","noteNumber":77,"velocity":49,"subtype":"noteOn"},{"deltaTime":0,"channel":0,"type":"channel","noteNumber":75,"velocity":0,"subtype":"noteOff"},{"deltaTime":29,"channel":0,"type":"channel","noteNumber":77,"velocity":0,"subtype":"noteOff"},{"deltaTime":1,"channel":0,"type":"channel","noteNumber":75,"velocity":49,"subtype":"noteOn"},{"deltaTime":29,"channel":0,"type":"channel","noteNumber":75,"velocity":0,"subtype":"noteOff"},{"deltaTime":1,"channel":0,"type":"channel","noteNumber":77,"velocity":49,"subtype":"noteOn"},{"deltaTime":29,"channel":0,"type":"channel","noteNumber":77,"velocity":0,"subtype":"noteOff"},{"deltaTime":1,"channel":0,"type":"channel","noteNumber":75,"velocity":49,"subtype":"noteOn"},{"deltaTime":29,"channel":0,"type":"channel","noteNumber":75,"velocity":0,"subtype":"noteOff"},{"deltaTime":0,"channel":0,"type":"channel","noteNumber":75,"velocity":0,"subtype":"noteOff"},{"deltaTime":1,"channel":0,"type":"channel","noteNumber":74,"velocity":49,"subtype":"noteOn"},{"deltaTime":119,"channel":0,"type":"channel","noteNumber":74,"velocity":0,"subtype":"noteOff"},{"deltaTime":1,"channel":0,"type":"channel","noteNumber":75,"velocity":49,"subtype":"noteOn"},{"deltaTime":119,"channel":0,"type":"channel","noteNumber":75,"velocity":0,"subtype":"noteOff"},{"deltaTime":1,"channel":0,"type":"channel","noteNumber":77,"velocity":49,"subtype":"noteOn"},{"deltaTime":119,"channel":0,"type":"channel","noteNumber":77,"velocity":0,"subtype":"noteOff"},{"deltaTime":1,"channel":0,"type":"channel","noteNumber":79,"velocity":49,"subtype":"noteOn"},{"deltaTime":119,"channel":0,"type":"channel","noteNumber":79,"velocity":0,"subtype":"noteOff"},{"deltaTime":1,"channel":0,"type":"channel","noteNumber":71,"velocity":49,"subtype":"noteOn"},{"deltaTime":119,"channel":0,"type":"channel","noteNumber":71,"velocity":0,"subtype":"noteOff"},{"deltaTime":1,"channel":0,"type":"channel","noteNumber":72,"velocity":49,"subtype":"noteOn"},{"deltaTime":119,"channel":0,"type":"channel","noteNumber":72,"velocity":0,"subtype":"noteOff"},{"deltaTime":1,"channel":0,"type":"channel","noteNumber":73,"velocity":49,"subtype":"noteOn"},{"deltaTime":119,"channel":0,"type":"channel","noteNumber":73,"velocity":0,"subtype":"noteOff"},{"deltaTime":1,"channel":0,"type":"channel","noteNumber":72,"velocity":49,"subtype":"noteOn"},{"deltaTime":119,"channel":0,"type":"channel","noteNumber":72,"velocity":0,"subtype":"noteOff"},{"deltaTime":1,"channel":0,"type":"channel","noteNumber":77,"velocity":49,"subtype":"noteOn"},{"deltaTime":119,"channel":0,"type":"channel","noteNumber":77,"velocity":0,"subtype":"noteOff"},{"deltaTime":1,"channel":0,"type":"channel","noteNumber":76,"velocity":49,"subtype":"noteOn"},{"deltaTime":119,"channel":0,"type":"channel","noteNumber":76,"velocity":0,"subtype":"noteOff"},{"deltaTime":1,"channel":0,"type":"channel","noteNumber":80,"velocity":49,"subtype":"noteOn"},{"deltaTime":119,"channel":0,"type":"channel","noteNumber":80,"velocity":0,"subtype":"noteOff"},{"deltaTime":1,"channel":0,"type":"channel","noteNumber":79,"velocity":49,"subtype":"noteOn"},{"deltaTime":119,"channel":0,"type":"channel","noteNumber":79,"velocity":0,"subtype":"noteOff"},{"deltaTime":1,"channel":0,"type":"channel","noteNumber":85,"velocity":49,"subtype":"noteOn"},{"deltaTime":119,"channel":0,"type":"channel","noteNumber":85,"velocity":0,"subtype":"noteOff"},{"deltaTime":1,"channel":0,"type":"channel","noteNumber":84,"velocity":49,"subtype":"noteOn"},{"deltaTime":119,"channel":0,"type":"channel","noteNumber":84,"velocity":0,"subtype":"noteOff"},{"deltaTime":1,"channel":0,"type":"channel","noteNumber":79,"velocity":49,"subtype":"noteOn"},{"deltaTime":119,"channel":0,"type":"channel","noteNumber":79,"velocity":0,"subtype":"noteOff"},{"deltaTime":1,"channel":0,"type":"channel","noteNumber":82,"velocity":49,"subtype":"noteOn"},{"deltaTime":719,"channel":0,"type":"channel","noteNumber":82,"velocity":0,"subtype":"noteOff"},{"deltaTime":1,"channel":0,"type":"channel","noteNumber":80,"velocity":49,"subtype":"noteOn"},{"deltaTime":479,"channel":0,"type":"channel","noteNumber":80,"velocity":0,"subtype":"noteOff"},{"deltaTime":1,"channel":0,"type":"channel","noteNumber":79,"velocity":49,"subtype":"noteOn"},{"deltaTime":239,"channel":0,"type":"channel","noteNumber":79,"velocity":0,"subtype":"noteOff"},{"deltaTime":1,"channel":0,"type":"channel","noteNumber":79,"velocity":49,"subtype":"noteOn"},{"deltaTime":0,"channel":0,"type":"channel","noteNumber":77,"velocity":0,"subtype":"noteOff"},{"deltaTime":29,"channel":0,"type":"channel","noteNumber":79,"velocity":0,"subtype":"noteOff"},{"deltaTime":1,"channel":0,"type":"channel","noteNumber":77,"velocity":49,"subtype":"noteOn"},{"deltaTime":29,"channel":0,"type":"channel","noteNumber":77,"velocity":0,"subtype":"noteOff"},{"deltaTime":1,"channel":0,"type":"channel","noteNumber":79,"velocity":49,"subtype":"noteOn"},{"deltaTime":29,"channel":0,"type":"channel","noteNumber":79,"velocity":0,"subtype":"noteOff"},{"deltaTime":1,"channel":0,"type":"channel","noteNumber":77,"velocity":49,"subtype":"noteOn"},{"deltaTime":29,"channel":0,"type":"channel","noteNumber":77,"velocity":0,"subtype":"noteOff"},{"deltaTime":1,"channel":0,"type":"channel","noteNumber":79,"velocity":49,"subtype":"noteOn"},{"deltaTime":29,"channel":0,"type":"channel","noteNumber":79,"velocity":0,"subtype":"noteOff"},{"deltaTime":1,"channel":0,"type":"channel","noteNumber":77,"velocity":49,"subtype":"noteOn"},{"deltaTime":29,"channel":0,"type":"channel","noteNumber":77,"velocity":0,"subtype":"noteOff"},{"deltaTime":1,"channel":0,"type":"channel","noteNumber":79,"velocity":49,"subtype":"noteOn"},{"deltaTime":29,"channel":0,"type":"channel","noteNumber":79,"velocity":0,"subtype":"noteOff"},{"deltaTime":1,"channel":0,"type":"channel","noteNumber":77,"velocity":49,"subtype":"noteOn"},{"deltaTime":29,"channel":0,"type":"channel","noteNumber":77,"velocity":0,"subtype":"noteOff"},{"deltaTime":1,"channel":0,"type":"channel","noteNumber":79,"velocity":49,"subtype":"noteOn"},{"deltaTime":29,"channel":0,"type":"channel","noteNumber":79,"velocity":0,"subtype":"noteOff"},{"deltaTime":1,"channel":0,"type":"channel","noteNumber":77,"velocity":49,"subtype":"noteOn"},{"deltaTime":29,"channel":0,"type":"channel","noteNumber":77,"velocity":0,"subtype":"noteOff"},{"deltaTime":1,"channel":0,"type":"channel","noteNumber":79,"velocity":49,"subtype":"noteOn"},{"deltaTime":29,"channel":0,"type":"channel","noteNumber":79,"velocity":0,"subtype":"noteOff"},{"deltaTime":1,"channel":0,"type":"channel","noteNumber":77,"velocity":49,"subtype":"noteOn"},{"deltaTime":29,"channel":0,"type":"channel","noteNumber":77,"velocity":0,"subtype":"noteOff"},{"deltaTime":1,"channel":0,"type":"channel","noteNumber":79,"velocity":49,"subtype":"noteOn"},{"deltaTime":29,"channel":0,"type":"channel","noteNumber":79,"velocity":0,"subtype":"noteOff"},{"deltaTime":1,"channel":0,"type":"channel","noteNumber":77,"velocity":49,"subtype":"noteOn"},{"deltaTime":29,"channel":0,"type":"channel","noteNumber":77,"velocity":0,"subtype":"noteOff"},{"deltaTime":1,"channel":0,"type":"channel","noteNumber":79,"velocity":49,"subtype":"noteOn"},{"deltaTime":29,"channel":0,"type":"channel","noteNumber":79,"velocity":0,"subtype":"noteOff"},{"deltaTime":1,"channel":0,"type":"channel","noteNumber":77,"velocity":49,"subtype":"noteOn"},{"deltaTime":29,"channel":0,"type":"channel","noteNumber":77,"velocity":0,"subtype":"noteOff"},{"deltaTime":1,"channel":0,"type":"channel","noteNumber":79,"velocity":49,"subtype":"noteOn"},{"deltaTime":29,"channel":0,"type":"channel","noteNumber":79,"velocity":0,"subtype":"noteOff"},{"deltaTime":1,"channel":0,"type":"channel","noteNumber":77,"velocity":49,"subtype":"noteOn"},{"deltaTime":29,"channel":0,"type":"channel","noteNumber":77,"velocity":0,"subtype":"noteOff"},{"deltaTime":1,"channel":0,"type":"channel","noteNumber":79,"velocity":49,"subtype":"noteOn"},{"deltaTime":29,"channel":0,"type":"channel","noteNumber":79,"velocity":0,"subtype":"noteOff"},{"deltaTime":1,"channel":0,"type":"channel","noteNumber":77,"velocity":49,"subtype":"noteOn"},{"deltaTime":29,"channel":0,"type":"channel","noteNumber":77,"velocity":0,"subtype":"noteOff"},{"deltaTime":1,"channel":0,"type":"channel","noteNumber":79,"velocity":49,"subtype":"noteOn"},{"deltaTime":29,"channel":0,"type":"channel","noteNumber":79,"velocity":0,"subtype":"noteOff"},{"deltaTime":1,"channel":0,"type":"channel","noteNumber":77,"velocity":49,"subtype":"noteOn"},{"deltaTime":29,"channel":0,"type":"channel","noteNumber":77,"velocity":0,"subtype":"noteOff"},{"deltaTime":1,"channel":0,"type":"channel","noteNumber":79,"velocity":49,"subtype":"noteOn"},{"deltaTime":0,"channel":0,"type":"channel","noteNumber":76,"velocity":49,"subtype":"noteOn"},{"deltaTime":14,"channel":0,"type":"channel","noteNumber":76,"velocity":0,"subtype":"noteOff"},{"deltaTime":15,"channel":0,"type":"channel","noteNumber":79,"velocity":0,"subtype":"noteOff"},{"deltaTime":1,"channel":0,"type":"channel","noteNumber":77,"velocity":49,"subtype":"noteOn"},{"deltaTime":0,"channel":0,"type":"channel","noteNumber":77,"velocity":49,"subtype":"noteOn"},{"deltaTime":14,"channel":0,"type":"channel","noteNumber":77,"velocity":0,"subtype":"noteOff"},{"deltaTime":15,"channel":0,"type":"channel","noteNumber":77,"velocity":0,"subtype":"noteOff"},{"deltaTime":0,"channel":0,"type":"channel","noteNumber":77,"velocity":0,"subtype":"noteOff"},{"deltaTime":1,"channel":0,"type":"channel","noteNumber":79,"velocity":49,"subtype":"noteOn"},{"deltaTime":119,"channel":0,"type":"channel","noteNumber":79,"velocity":0,"subtype":"noteOff"},{"deltaTime":121,"channel":0,"type":"channel","noteNumber":79,"velocity":49,"subtype":"noteOn"},{"deltaTime":239,"channel":0,"type":"channel","noteNumber":79,"velocity":0,"subtype":"noteOff"},{"deltaTime":1,"channel":0,"type":"channel","noteNumber":74,"velocity":49,"subtype":"noteOn"},{"deltaTime":239,"channel":0,"type":"channel","noteNumber":74,"velocity":0,"subtype":"noteOff"},{"deltaTime":1,"channel":0,"type":"channel","noteNumber":75,"velocity":49,"subtype":"noteOn"},{"deltaTime":719,"channel":0,"type":"channel","noteNumber":75,"velocity":0,"subtype":"noteOff"},{"deltaTime":1,"channel":0,"type":"channel","noteNumber":72,"velocity":49,"subtype":"noteOn"},{"deltaTime":719,"channel":0,"type":"channel","noteNumber":72,"velocity":0,"subtype":"noteOff"},{"deltaTime":1,"channel":0,"type":"channel","noteNumber":70,"velocity":49,"subtype":"noteOn"},{"deltaTime":239,"channel":0,"type":"channel","noteNumber":70,"velocity":0,"subtype":"noteOff"},{"deltaTime":1,"channel":0,"type":"channel","noteNumber":86,"velocity":49,"subtype":"noteOn"},{"deltaTime":239,"channel":0,"type":"channel","noteNumber":86,"velocity":0,"subtype":"noteOff"},{"deltaTime":1,"channel":0,"type":"channel","noteNumber":84,"velocity":49,"subtype":"noteOn"},{"deltaTime":119,"channel":0,"type":"channel","noteNumber":84,"velocity":0,"subtype":"noteOff"},{"deltaTime":121,"channel":0,"type":"channel","noteNumber":82,"velocity":49,"subtype":"noteOn"},{"deltaTime":59,"channel":0,"type":"channel","noteNumber":82,"velocity":0,"subtype":"noteOff"},{"deltaTime":61,"channel":0,"type":"channel","noteNumber":80,"velocity":49,"subtype":"noteOn"},{"deltaTime":59,"channel":0,"type":"channel","noteNumber":80,"velocity":0,"subtype":"noteOff"},{"deltaTime":61,"channel":0,"type":"channel","noteNumber":79,"velocity":49,"subtype":"noteOn"},{"deltaTime":59,"channel":0,"type":"channel","noteNumber":79,"velocity":0,"subtype":"noteOff"},{"deltaTime":61,"channel":0,"type":"channel","noteNumber":80,"velocity":49,"subtype":"noteOn"},{"deltaTime":90,"channel":0,"type":"channel","noteNumber":80,"velocity":49,"subtype":"noteOn"},{"deltaTime":29,"channel":0,"type":"channel","noteNumber":80,"velocity":0,"subtype":"noteOff"},{"deltaTime":0,"channel":0,"type":"channel","noteNumber":80,"velocity":0,"subtype":"noteOff"},{"deltaTime":1,"channel":0,"type":"channel","noteNumber":72,"velocity":49,"subtype":"noteOn"},{"deltaTime":119,"channel":0,"type":"channel","noteNumber":72,"velocity":0,"subtype":"noteOff"},{"deltaTime":1,"channel":0,"type":"channel","noteNumber":74,"velocity":49,"subtype":"noteOn"},{"deltaTime":119,"channel":0,"type":"channel","noteNumber":74,"velocity":0,"subtype":"noteOff"},{"deltaTime":1,"channel":0,"type":"channel","noteNumber":75,"velocity":49,"subtype":"noteOn"},{"deltaTime":959,"channel":0,"type":"channel","noteNumber":75,"velocity":0,"subtype":"noteOff"},{"deltaTime":1,"channel":0,"type":"channel","noteNumber":74,"velocity":49,"subtype":"noteOn"},{"deltaTime":239,"channel":0,"type":"channel","noteNumber":74,"velocity":0,"subtype":"noteOff"},{"deltaTime":1,"channel":0,"type":"channel","noteNumber":75,"velocity":49,"subtype":"noteOn"},{"deltaTime":239,"channel":0,"type":"channel","noteNumber":75,"velocity":0,"subtype":"noteOff"},{"deltaTime":1,"channel":0,"type":"channel","noteNumber":77,"velocity":49,"subtype":"noteOn"},{"deltaTime":719,"channel":0,"type":"channel","noteNumber":77,"velocity":0,"subtype":"noteOff"},{"deltaTime":1,"channel":0,"type":"channel","noteNumber":79,"velocity":49,"subtype":"noteOn"},{"deltaTime":479,"channel":0,"type":"channel","noteNumber":79,"velocity":0,"subtype":"noteOff"},{"deltaTime":1,"channel":0,"type":"channel","noteNumber":77,"velocity":49,"subtype":"noteOn"},{"deltaTime":239,"channel":0,"type":"channel","noteNumber":77,"velocity":0,"subtype":"noteOff"},{"deltaTime":1,"channel":0,"type":"channel","noteNumber":77,"velocity":33,"subtype":"noteOn"},{"deltaTime":719,"channel":0,"type":"channel","noteNumber":77,"velocity":0,"subtype":"noteOff"},{"deltaTime":1,"channel":0,"type":"channel","noteNumber":72,"velocity":33,"subtype":"noteOn"},{"deltaTime":719,"channel":0,"type":"channel","noteNumber":72,"velocity":0,"subtype":"noteOff"},{"deltaTime":1,"type":"meta","subtype":"setTempo","microsecondsPerBeat":967745},{"deltaTime":0,"channel":0,"type":"channel","noteNumber":75,"velocity":33,"subtype":"noteOn"},{"deltaTime":119,"channel":0,"type":"channel","noteNumber":75,"velocity":0,"subtype":"noteOff"},{"deltaTime":121,"channel":0,"type":"channel","noteNumber":75,"velocity":33,"subtype":"noteOn"},{"deltaTime":119,"channel":0,"type":"channel","noteNumber":75,"velocity":0,"subtype":"noteOff"},{"deltaTime":121,"channel":0,"type":"channel","noteNumber":75,"velocity":33,"subtype":"noteOn"},{"deltaTime":119,"channel":0,"type":"channel","noteNumber":75,"velocity":0,"subtype":"noteOff"},{"deltaTime":121,"channel":0,"type":"channel","noteNumber":75,"velocity":33,"subtype":"noteOn"},{"deltaTime":239,"channel":0,"type":"channel","noteNumber":75,"velocity":0,"subtype":"noteOff"},{"deltaTime":1,"channel":0,"type":"channel","noteNumber":74,"velocity":33,"subtype":"noteOn"},{"deltaTime":119,"channel":0,"type":"channel","noteNumber":74,"velocity":0,"subtype":"noteOff"},{"deltaTime":1,"channel":0,"type":"channel","noteNumber":75,"velocity":33,"subtype":"noteOn"},{"deltaTime":119,"channel":0,"type":"channel","noteNumber":75,"velocity":0,"subtype":"noteOff"},{"deltaTime":1,"channel":0,"type":"channel","noteNumber":77,"velocity":33,"subtype":"noteOn"},{"deltaTime":179,"channel":0,"type":"channel","noteNumber":77,"velocity":0,"subtype":"noteOff"},{"deltaTime":1,"channel":0,"type":"channel","noteNumber":75,"velocity":33,"subtype":"noteOn"},{"deltaTime":59,"channel":0,"type":"channel","noteNumber":75,"velocity":0,"subtype":"noteOff"},{"deltaTime":1,"channel":0,"type":"channel","noteNumber":75,"velocity":33,"subtype":"noteOn"},{"deltaTime":719,"channel":0,"type":"channel","noteNumber":75,"velocity":0,"subtype":"noteOff"},{"deltaTime":1,"channel":0,"type":"channel","noteNumber":70,"velocity":33,"subtype":"noteOn"},{"deltaTime":719,"channel":0,"type":"channel","noteNumber":70,"velocity":0,"subtype":"noteOff"},{"deltaTime":1,"type":"meta","subtype":"setTempo","microsecondsPerBeat":909091},{"deltaTime":0,"channel":0,"type":"channel","noteNumber":82,"velocity":96,"subtype":"noteOn"},{"deltaTime":719,"channel":0,"type":"channel","noteNumber":82,"velocity":0,"subtype":"noteOff"},{"deltaTime":1,"channel":0,"type":"channel","noteNumber":81,"velocity":96,"subtype":"noteOn"},{"deltaTime":479,"channel":0,"type":"channel","noteNumber":81,"velocity":0,"subtype":"noteOff"},{"deltaTime":1,"channel":0,"type":"channel","noteNumber":79,"velocity":96,"subtype":"noteOn"},{"deltaTime":239,"channel":0,"type":"channel","noteNumber":79,"velocity":0,"subtype":"noteOff"},{"deltaTime":1,"channel":0,"type":"channel","noteNumber":77,"velocity":96,"subtype":"noteOn"},{"deltaTime":0,"channel":0,"type":"channel","noteNumber":69,"velocity":96,"subtype":"noteOn"},{"deltaTime":719,"channel":0,"type":"channel","noteNumber":77,"velocity":0,"subtype":"noteOff"},{"deltaTime":0,"channel":0,"type":"channel","noteNumber":69,"velocity":0,"subtype":"noteOff"},{"deltaTime":1,"channel":0,"type":"channel","noteNumber":74,"velocity":96,"subtype":"noteOn"},{"deltaTime":0,"channel":0,"type":"channel","noteNumber":70,"velocity":96,"subtype":"noteOn"},{"deltaTime":719,"channel":0,"type":"channel","noteNumber":74,"velocity":0,"subtype":"noteOff"},{"deltaTime":0,"channel":0,"type":"channel","noteNumber":70,"velocity":0,"subtype":"noteOff"},{"deltaTime":1,"channel":0,"type":"channel","noteNumber":75,"velocity":96,"subtype":"noteOn"},{"deltaTime":0,"channel":0,"type":"channel","noteNumber":67,"velocity":96,"subtype":"noteOn"},{"deltaTime":719,"channel":0,"type":"channel","noteNumber":75,"velocity":0,"subtype":"noteOff"},{"deltaTime":0,"channel":0,"type":"channel","noteNumber":67,"velocity":0,"subtype":"noteOff"},{"deltaTime":1,"channel":0,"type":"channel","noteNumber":74,"velocity":96,"subtype":"noteOn"},{"deltaTime":0,"channel":0,"type":"channel","noteNumber":69,"velocity":96,"subtype":"noteOn"},{"deltaTime":119,"channel":0,"type":"channel","noteNumber":74,"velocity":0,"subtype":"noteOff"},{"deltaTime":0,"channel":0,"type":"channel","noteNumber":69,"velocity":0,"subtype":"noteOff"},{"deltaTime":121,"channel":0,"type":"channel","noteNumber":72,"velocity":96,"subtype":"noteOn"},{"deltaTime":0,"channel":0,"type":"channel","noteNumber":69,"velocity":96,"subtype":"noteOn"},{"deltaTime":119,"channel":0,"type":"channel","noteNumber":72,"velocity":0,"subtype":"noteOff"},{"deltaTime":0,"channel":0,"type":"channel","noteNumber":69,"velocity":0,"subtype":"noteOff"},{"deltaTime":121,"channel":0,"type":"channel","noteNumber":74,"velocity":96,"subtype":"noteOn"},{"deltaTime":0,"channel":0,"type":"channel","noteNumber":69,"velocity":96,"subtype":"noteOn"},{"deltaTime":119,"channel":0,"type":"channel","noteNumber":74,"velocity":0,"subtype":"noteOff"},{"deltaTime":0,"channel":0,"type":"channel","noteNumber":69,"velocity":0,"subtype":"noteOff"},{"deltaTime":121,"channel":0,"type":"channel","noteNumber":70,"velocity":96,"subtype":"noteOn"},{"deltaTime":0,"channel":0,"type":"channel","noteNumber":65,"velocity":96,"subtype":"noteOn"},{"deltaTime":119,"channel":0,"type":"channel","noteNumber":70,"velocity":0,"subtype":"noteOff"},{"deltaTime":0,"channel":0,"type":"channel","noteNumber":65,"velocity":0,"subtype":"noteOff"},{"deltaTime":121,"channel":0,"type":"channel","noteNumber":71,"velocity":96,"subtype":"noteOn"},{"deltaTime":0,"channel":0,"type":"channel","noteNumber":66,"velocity":96,"subtype":"noteOn"},{"deltaTime":119,"channel":0,"type":"channel","noteNumber":71,"velocity":0,"subtype":"noteOff"},{"deltaTime":0,"channel":0,"type":"channel","noteNumber":66,"velocity":0,"subtype":"noteOff"},{"deltaTime":121,"type":"meta","subtype":"setTempo","microsecondsPerBeat":967745},{"deltaTime":0,"channel":0,"type":"channel","noteNumber":71,"velocity":96,"subtype":"noteOn"},{"deltaTime":0,"channel":0,"type":"channel","noteNumber":64,"velocity":96,"subtype":"noteOn"},{"deltaTime":119,"channel":0,"type":"channel","noteNumber":71,"velocity":0,"subtype":"noteOff"},{"deltaTime":0,"channel":0,"type":"channel","noteNumber":64,"velocity":0,"subtype":"noteOff"},{"deltaTime":121,"channel":0,"type":"channel","noteNumber":72,"velocity":96,"subtype":"noteOn"},{"deltaTime":0,"channel":0,"type":"channel","noteNumber":70,"velocity":96,"subtype":"noteOn"},{"deltaTime":0,"channel":0,"type":"channel","noteNumber":64,"velocity":96,"subtype":"noteOn"},{"deltaTime":119,"channel":0,"type":"channel","noteNumber":72,"velocity":0,"subtype":"noteOff"},{"deltaTime":0,"channel":0,"type":"channel","noteNumber":70,"velocity":0,"subtype":"noteOff"},{"deltaTime":0,"channel":0,"type":"channel","noteNumber":64,"velocity":0,"subtype":"noteOff"},{"deltaTime":121,"channel":0,"type":"channel","noteNumber":72,"velocity":96,"subtype":"noteOn"},{"deltaTime":0,"channel":0,"type":"channel","noteNumber":69,"velocity":96,"subtype":"noteOn"},{"deltaTime":0,"channel":0,"type":"channel","noteNumber":65,"velocity":96,"subtype":"noteOn"},{"deltaTime":119,"channel":0,"type":"channel","noteNumber":72,"velocity":0,"subtype":"noteOff"},{"deltaTime":0,"channel":0,"type":"channel","noteNumber":69,"velocity":0,"subtype":"noteOff"},{"deltaTime":0,"channel":0,"type":"channel","noteNumber":65,"velocity":0,"subtype":"noteOff"},{"deltaTime":121,"channel":0,"type":"channel","noteNumber":74,"velocity":96,"subtype":"noteOn"},{"deltaTime":0,"channel":0,"type":"channel","noteNumber":68,"velocity":96,"subtype":"noteOn"},{"deltaTime":119,"channel":0,"type":"channel","noteNumber":74,"velocity":0,"subtype":"noteOff"},{"deltaTime":0,"channel":0,"type":"channel","noteNumber":68,"velocity":0,"subtype":"noteOff"},{"deltaTime":121,"type":"meta","subtype":"setTempo","microsecondsPerBeat":909091},{"deltaTime":0,"channel":0,"type":"channel","noteNumber":67,"velocity":49,"subtype":"noteOn"},{"deltaTime":59,"channel":0,"type":"channel","noteNumber":67,"velocity":0,"subtype":"noteOff"},{"deltaTime":1,"channel":0,"type":"channel","noteNumber":70,"velocity":49,"subtype":"noteOn"},{"deltaTime":59,"channel":0,"type":"channel","noteNumber":70,"velocity":0,"subtype":"noteOff"},{"deltaTime":1,"channel":0,"type":"channel","noteNumber":75,"velocity":49,"subtype":"noteOn"},{"deltaTime":59,"channel":0,"type":"channel","noteNumber":75,"velocity":0,"subtype":"noteOff"},{"deltaTime":1,"channel":0,"type":"channel","noteNumber":79,"velocity":49,"subtype":"noteOn"},{"deltaTime":300,"channel":0,"type":"channel","noteNumber":69,"velocity":49,"subtype":"noteOn"},{"deltaTime":119,"channel":0,"type":"channel","noteNumber":69,"velocity":0,"subtype":"noteOff"},{"deltaTime":1,"channel":0,"type":"channel","noteNumber":70,"velocity":49,"subtype":"noteOn"},{"deltaTime":59,"channel":0,"type":"channel","noteNumber":79,"velocity":0,"subtype":"noteOff"},{"deltaTime":60,"channel":0,"type":"channel","noteNumber":70,"velocity":0,"subtype":"noteOff"},{"deltaTime":1,"channel":0,"type":"channel","noteNumber":71,"velocity":49,"subtype":"noteOn"},{"deltaTime":119,"channel":0,"type":"channel","noteNumber":71,"velocity":0,"subtype":"noteOff"},{"deltaTime":1,"channel":0,"type":"channel","noteNumber":70,"velocity":49,"subtype":"noteOn"},{"deltaTime":119,"channel":0,"type":"channel","noteNumber":70,"velocity":0,"subtype":"noteOff"},{"deltaTime":1,"channel":0,"type":"channel","noteNumber":73,"velocity":49,"subtype":"noteOn"},{"deltaTime":119,"channel":0,"type":"channel","noteNumber":73,"velocity":0,"subtype":"noteOff"},{"deltaTime":1,"channel":0,"type":"channel","noteNumber":74,"velocity":49,"subtype":"noteOn"},{"deltaTime":119,"channel":0,"type":"channel","noteNumber":74,"velocity":0,"subtype":"noteOff"},{"deltaTime":1,"channel":0,"type":"channel","noteNumber":79,"velocity":49,"subtype":"noteOn"},{"deltaTime":179,"channel":0,"type":"channel","noteNumber":79,"velocity":0,"subtype":"noteOff"},{"deltaTime":1,"channel":0,"type":"channel","noteNumber":77,"velocity":49,"subtype":"noteOn"},{"deltaTime":59,"channel":0,"type":"channel","noteNumber":77,"velocity":0,"subtype":"noteOff"},{"deltaTime":1,"channel":0,"type":"channel","noteNumber":77,"velocity":49,"subtype":"noteOn"},{"deltaTime":479,"channel":0,"type":"channel","noteNumber":77,"velocity":0,"subtype":"noteOff"},{"deltaTime":1,"channel":0,"type":"channel","noteNumber":75,"velocity":49,"subtype":"noteOn"},{"deltaTime":359,"channel":0,"type":"channel","noteNumber":75,"velocity":0,"subtype":"noteOff"},{"deltaTime":1,"channel":0,"type":"channel","noteNumber":77,"velocity":49,"subtype":"noteOn"},{"deltaTime":119,"channel":0,"type":"channel","noteNumber":77,"velocity":0,"subtype":"noteOff"},{"deltaTime":1,"channel":0,"type":"channel","noteNumber":77,"velocity":49,"subtype":"noteOn"},{"deltaTime":0,"channel":0,"type":"channel","noteNumber":75,"velocity":0,"subtype":"noteOff"},{"deltaTime":29,"channel":0,"type":"channel","noteNumber":77,"velocity":0,"subtype":"noteOff"},{"deltaTime":1,"channel":0,"type":"channel","noteNumber":75,"velocity":49,"subtype":"noteOn"},{"deltaTime":29,"channel":0,"type":"channel","noteNumber":75,"velocity":0,"subtype":"noteOff"},{"deltaTime":1,"channel":0,"type":"channel","noteNumber":77,"velocity":49,"subtype":"noteOn"},{"deltaTime":29,"channel":0,"type":"channel","noteNumber":77,"velocity":0,"subtype":"noteOff"},{"deltaTime":1,"channel":0,"type":"channel","noteNumber":75,"velocity":49,"subtype":"noteOn"},{"deltaTime":29,"channel":0,"type":"channel","noteNumber":75,"velocity":0,"subtype":"noteOff"},{"deltaTime":0,"channel":0,"type":"channel","noteNumber":75,"velocity":0,"subtype":"noteOff"},{"deltaTime":1,"channel":0,"type":"channel","noteNumber":74,"velocity":49,"subtype":"noteOn"},{"deltaTime":119,"channel":0,"type":"channel","noteNumber":74,"velocity":0,"subtype":"noteOff"},{"deltaTime":1,"channel":0,"type":"channel","noteNumber":75,"velocity":49,"subtype":"noteOn"},{"deltaTime":119,"channel":0,"type":"channel","noteNumber":75,"velocity":0,"subtype":"noteOff"},{"deltaTime":1,"channel":0,"type":"channel","noteNumber":77,"velocity":49,"subtype":"noteOn"},{"deltaTime":119,"channel":0,"type":"channel","noteNumber":77,"velocity":0,"subtype":"noteOff"},{"deltaTime":1,"channel":0,"type":"channel","noteNumber":79,"velocity":49,"subtype":"noteOn"},{"deltaTime":119,"channel":0,"type":"channel","noteNumber":79,"velocity":0,"subtype":"noteOff"},{"deltaTime":1,"channel":0,"type":"channel","noteNumber":71,"velocity":49,"subtype":"noteOn"},{"deltaTime":119,"channel":0,"type":"channel","noteNumber":71,"velocity":0,"subtype":"noteOff"},{"deltaTime":1,"channel":0,"type":"channel","noteNumber":72,"velocity":49,"subtype":"noteOn"},{"deltaTime":119,"channel":0,"type":"channel","noteNumber":72,"velocity":0,"subtype":"noteOff"},{"deltaTime":1,"channel":0,"type":"channel","noteNumber":73,"velocity":49,"subtype":"noteOn"},{"deltaTime":119,"channel":0,"type":"channel","noteNumber":73,"velocity":0,"subtype":"noteOff"},{"deltaTime":1,"channel":0,"type":"channel","noteNumber":72,"velocity":49,"subtype":"noteOn"},{"deltaTime":119,"channel":0,"type":"channel","noteNumber":72,"velocity":0,"subtype":"noteOff"},{"deltaTime":1,"channel":0,"type":"channel","noteNumber":77,"velocity":49,"subtype":"noteOn"},{"deltaTime":119,"channel":0,"type":"channel","noteNumber":77,"velocity":0,"subtype":"noteOff"},{"deltaTime":1,"channel":0,"type":"channel","noteNumber":76,"velocity":49,"subtype":"noteOn"},{"deltaTime":119,"channel":0,"type":"channel","noteNumber":76,"velocity":0,"subtype":"noteOff"},{"deltaTime":1,"channel":0,"type":"channel","noteNumber":80,"velocity":49,"subtype":"noteOn"},{"deltaTime":119,"channel":0,"type":"channel","noteNumber":80,"velocity":0,"subtype":"noteOff"},{"deltaTime":1,"channel":0,"type":"channel","noteNumber":79,"velocity":49,"subtype":"noteOn"},{"deltaTime":119,"channel":0,"type":"channel","noteNumber":79,"velocity":0,"subtype":"noteOff"},{"deltaTime":1,"channel":0,"type":"channel","noteNumber":85,"velocity":49,"subtype":"noteOn"},{"deltaTime":119,"channel":0,"type":"channel","noteNumber":85,"velocity":0,"subtype":"noteOff"},{"deltaTime":1,"channel":0,"type":"channel","noteNumber":84,"velocity":49,"subtype":"noteOn"},{"deltaTime":119,"channel":0,"type":"channel","noteNumber":84,"velocity":0,"subtype":"noteOff"},{"deltaTime":1,"channel":0,"type":"channel","noteNumber":79,"velocity":49,"subtype":"noteOn"},{"deltaTime":119,"channel":0,"type":"channel","noteNumber":79,"velocity":0,"subtype":"noteOff"},{"deltaTime":1,"channel":0,"type":"channel","noteNumber":82,"velocity":49,"subtype":"noteOn"},{"deltaTime":719,"channel":0,"type":"channel","noteNumber":82,"velocity":0,"subtype":"noteOff"},{"deltaTime":1,"channel":0,"type":"channel","noteNumber":80,"velocity":49,"subtype":"noteOn"},{"deltaTime":479,"channel":0,"type":"channel","noteNumber":80,"velocity":0,"subtype":"noteOff"},{"deltaTime":1,"channel":0,"type":"channel","noteNumber":79,"velocity":49,"subtype":"noteOn"},{"deltaTime":239,"channel":0,"type":"channel","noteNumber":79,"velocity":0,"subtype":"noteOff"},{"deltaTime":1,"channel":0,"type":"channel","noteNumber":79,"velocity":49,"subtype":"noteOn"},{"deltaTime":0,"channel":0,"type":"channel","noteNumber":77,"velocity":0,"subtype":"noteOff"},{"deltaTime":29,"channel":0,"type":"channel","noteNumber":79,"velocity":0,"subtype":"noteOff"},{"deltaTime":1,"channel":0,"type":"channel","noteNumber":77,"velocity":49,"subtype":"noteOn"},{"deltaTime":29,"channel":0,"type":"channel","noteNumber":77,"velocity":0,"subtype":"noteOff"},{"deltaTime":1,"channel":0,"type":"channel","noteNumber":79,"velocity":49,"subtype":"noteOn"},{"deltaTime":29,"channel":0,"type":"channel","noteNumber":79,"velocity":0,"subtype":"noteOff"},{"deltaTime":1,"channel":0,"type":"channel","noteNumber":77,"velocity":49,"subtype":"noteOn"},{"deltaTime":29,"channel":0,"type":"channel","noteNumber":77,"velocity":0,"subtype":"noteOff"},{"deltaTime":1,"channel":0,"type":"channel","noteNumber":79,"velocity":49,"subtype":"noteOn"},{"deltaTime":29,"channel":0,"type":"channel","noteNumber":79,"velocity":0,"subtype":"noteOff"},{"deltaTime":1,"channel":0,"type":"channel","noteNumber":77,"velocity":49,"subtype":"noteOn"},{"deltaTime":29,"channel":0,"type":"channel","noteNumber":77,"velocity":0,"subtype":"noteOff"},{"deltaTime":1,"channel":0,"type":"channel","noteNumber":79,"velocity":49,"subtype":"noteOn"},{"deltaTime":29,"channel":0,"type":"channel","noteNumber":79,"velocity":0,"subtype":"noteOff"},{"deltaTime":1,"channel":0,"type":"channel","noteNumber":77,"velocity":49,"subtype":"noteOn"},{"deltaTime":29,"channel":0,"type":"channel","noteNumber":77,"velocity":0,"subtype":"noteOff"},{"deltaTime":1,"channel":0,"type":"channel","noteNumber":79,"velocity":49,"subtype":"noteOn"},{"deltaTime":29,"channel":0,"type":"channel","noteNumber":79,"velocity":0,"subtype":"noteOff"},{"deltaTime":1,"channel":0,"type":"channel","noteNumber":77,"velocity":49,"subtype":"noteOn"},{"deltaTime":29,"channel":0,"type":"channel","noteNumber":77,"velocity":0,"subtype":"noteOff"},{"deltaTime":1,"channel":0,"type":"channel","noteNumber":79,"velocity":49,"subtype":"noteOn"},{"deltaTime":29,"channel":0,"type":"channel","noteNumber":79,"velocity":0,"subtype":"noteOff"},{"deltaTime":1,"channel":0,"type":"channel","noteNumber":77,"velocity":49,"subtype":"noteOn"},{"deltaTime":29,"channel":0,"type":"channel","noteNumber":77,"velocity":0,"subtype":"noteOff"},{"deltaTime":1,"channel":0,"type":"channel","noteNumber":79,"velocity":49,"subtype":"noteOn"},{"deltaTime":29,"channel":0,"type":"channel","noteNumber":79,"velocity":0,"subtype":"noteOff"},{"deltaTime":1,"channel":0,"type":"channel","noteNumber":77,"velocity":49,"subtype":"noteOn"},{"deltaTime":29,"channel":0,"type":"channel","noteNumber":77,"velocity":0,"subtype":"noteOff"},{"deltaTime":1,"channel":0,"type":"channel","noteNumber":79,"velocity":49,"subtype":"noteOn"},{"deltaTime":29,"channel":0,"type":"channel","noteNumber":79,"velocity":0,"subtype":"noteOff"},{"deltaTime":1,"channel":0,"type":"channel","noteNumber":77,"velocity":49,"subtype":"noteOn"},{"deltaTime":29,"channel":0,"type":"channel","noteNumber":77,"velocity":0,"subtype":"noteOff"},{"deltaTime":1,"channel":0,"type":"channel","noteNumber":79,"velocity":49,"subtype":"noteOn"},{"deltaTime":29,"channel":0,"type":"channel","noteNumber":79,"velocity":0,"subtype":"noteOff"},{"deltaTime":1,"channel":0,"type":"channel","noteNumber":77,"velocity":49,"subtype":"noteOn"},{"deltaTime":29,"channel":0,"type":"channel","noteNumber":77,"velocity":0,"subtype":"noteOff"},{"deltaTime":1,"channel":0,"type":"channel","noteNumber":79,"velocity":49,"subtype":"noteOn"},{"deltaTime":29,"channel":0,"type":"channel","noteNumber":79,"velocity":0,"subtype":"noteOff"},{"deltaTime":1,"channel":0,"type":"channel","noteNumber":77,"velocity":49,"subtype":"noteOn"},{"deltaTime":29,"channel":0,"type":"channel","noteNumber":77,"velocity":0,"subtype":"noteOff"},{"deltaTime":1,"channel":0,"type":"channel","noteNumber":79,"velocity":49,"subtype":"noteOn"},{"deltaTime":29,"channel":0,"type":"channel","noteNumber":79,"velocity":0,"subtype":"noteOff"},{"deltaTime":1,"channel":0,"type":"channel","noteNumber":77,"velocity":49,"subtype":"noteOn"},{"deltaTime":29,"channel":0,"type":"channel","noteNumber":77,"velocity":0,"subtype":"noteOff"},{"deltaTime":1,"channel":0,"type":"channel","noteNumber":79,"velocity":49,"subtype":"noteOn"},{"deltaTime":0,"channel":0,"type":"channel","noteNumber":76,"velocity":49,"subtype":"noteOn"},{"deltaTime":14,"channel":0,"type":"channel","noteNumber":76,"velocity":0,"subtype":"noteOff"},{"deltaTime":15,"channel":0,"type":"channel","noteNumber":79,"velocity":0,"subtype":"noteOff"},{"deltaTime":1,"channel":0,"type":"channel","noteNumber":77,"velocity":49,"subtype":"noteOn"},{"deltaTime":0,"channel":0,"type":"channel","noteNumber":77,"velocity":49,"subtype":"noteOn"},{"deltaTime":14,"channel":0,"type":"channel","noteNumber":77,"velocity":0,"subtype":"noteOff"},{"deltaTime":15,"channel":0,"type":"channel","noteNumber":77,"velocity":0,"subtype":"noteOff"},{"deltaTime":0,"channel":0,"type":"channel","noteNumber":77,"velocity":0,"subtype":"noteOff"},{"deltaTime":1,"channel":0,"type":"channel","noteNumber":79,"velocity":49,"subtype":"noteOn"},{"deltaTime":119,"channel":0,"type":"channel","noteNumber":79,"velocity":0,"subtype":"noteOff"},{"deltaTime":121,"channel":0,"type":"channel","noteNumber":79,"velocity":49,"subtype":"noteOn"},{"deltaTime":239,"channel":0,"type":"channel","noteNumber":79,"velocity":0,"subtype":"noteOff"},{"deltaTime":1,"channel":0,"type":"channel","noteNumber":74,"velocity":49,"subtype":"noteOn"},{"deltaTime":239,"channel":0,"type":"channel","noteNumber":74,"velocity":0,"subtype":"noteOff"},{"deltaTime":1,"channel":0,"type":"channel","noteNumber":75,"velocity":49,"subtype":"noteOn"},{"deltaTime":719,"channel":0,"type":"channel","noteNumber":75,"velocity":0,"subtype":"noteOff"},{"deltaTime":1,"channel":0,"type":"channel","noteNumber":72,"velocity":49,"subtype":"noteOn"},{"deltaTime":719,"channel":0,"type":"channel","noteNumber":72,"velocity":0,"subtype":"noteOff"},{"deltaTime":1,"channel":0,"type":"channel","noteNumber":70,"velocity":49,"subtype":"noteOn"},{"deltaTime":239,"channel":0,"type":"channel","noteNumber":70,"velocity":0,"subtype":"noteOff"},{"deltaTime":1,"channel":0,"type":"channel","noteNumber":86,"velocity":49,"subtype":"noteOn"},{"deltaTime":239,"channel":0,"type":"channel","noteNumber":86,"velocity":0,"subtype":"noteOff"},{"deltaTime":1,"channel":0,"type":"channel","noteNumber":85,"velocity":49,"subtype":"noteOn"},{"deltaTime":119,"channel":0,"type":"channel","noteNumber":85,"velocity":0,"subtype":"noteOff"},{"deltaTime":121,"channel":0,"type":"channel","noteNumber":84,"velocity":49,"subtype":"noteOn"},{"deltaTime":29,"channel":0,"type":"channel","noteNumber":84,"velocity":0,"subtype":"noteOff"},{"deltaTime":31,"channel":0,"type":"channel","noteNumber":83,"velocity":49,"subtype":"noteOn"},{"deltaTime":29,"channel":0,"type":"channel","noteNumber":83,"velocity":0,"subtype":"noteOff"},{"deltaTime":31,"channel":0,"type":"channel","noteNumber":82,"velocity":49,"subtype":"noteOn"},{"deltaTime":29,"channel":0,"type":"channel","noteNumber":82,"velocity":0,"subtype":"noteOff"},{"deltaTime":31,"channel":0,"type":"channel","noteNumber":81,"velocity":49,"subtype":"noteOn"},{"deltaTime":29,"channel":0,"type":"channel","noteNumber":81,"velocity":0,"subtype":"noteOff"},{"deltaTime":31,"channel":0,"type":"channel","noteNumber":80,"velocity":49,"subtype":"noteOn"},{"deltaTime":29,"channel":0,"type":"channel","noteNumber":80,"velocity":0,"subtype":"noteOff"},{"deltaTime":31,"channel":0,"type":"channel","noteNumber":77,"velocity":49,"subtype":"noteOn"},{"deltaTime":29,"channel":0,"type":"channel","noteNumber":77,"velocity":0,"subtype":"noteOff"},{"deltaTime":31,"channel":0,"type":"channel","noteNumber":74,"velocity":49,"subtype":"noteOn"},{"deltaTime":29,"channel":0,"type":"channel","noteNumber":74,"velocity":0,"subtype":"noteOff"},{"deltaTime":31,"channel":0,"type":"channel","noteNumber":71,"velocity":49,"subtype":"noteOn"},{"deltaTime":59,"channel":0,"type":"channel","noteNumber":71,"velocity":0,"subtype":"noteOff"},{"deltaTime":1,"channel":0,"type":"channel","noteNumber":70,"velocity":49,"subtype":"noteOn"},{"deltaTime":59,"channel":0,"type":"channel","noteNumber":70,"velocity":0,"subtype":"noteOff"},{"deltaTime":1,"channel":0,"type":"channel","noteNumber":74,"velocity":49,"subtype":"noteOn"},{"deltaTime":59,"channel":0,"type":"channel","noteNumber":74,"velocity":0,"subtype":"noteOff"},{"deltaTime":1,"channel":0,"type":"channel","noteNumber":79,"velocity":49,"subtype":"noteOn"},{"deltaTime":39,"channel":0,"type":"channel","noteNumber":79,"velocity":0,"subtype":"noteOff"},{"deltaTime":1,"channel":0,"type":"channel","noteNumber":77,"velocity":49,"subtype":"noteOn"},{"deltaTime":39,"channel":0,"type":"channel","noteNumber":77,"velocity":0,"subtype":"noteOff"},{"deltaTime":1,"channel":0,"type":"channel","noteNumber":75,"velocity":49,"subtype":"noteOn"},{"deltaTime":39,"channel":0,"type":"channel","noteNumber":75,"velocity":0,"subtype":"noteOff"},{"deltaTime":1,"channel":0,"type":"channel","noteNumber":75,"velocity":49,"subtype":"noteOn"},{"deltaTime":959,"channel":0,"type":"channel","noteNumber":75,"velocity":0,"subtype":"noteOff"},{"deltaTime":1,"channel":0,"type":"channel","noteNumber":74,"velocity":49,"subtype":"noteOn"},{"deltaTime":239,"channel":0,"type":"channel","noteNumber":74,"velocity":0,"subtype":"noteOff"},{"deltaTime":1,"channel":0,"type":"channel","noteNumber":75,"velocity":49,"subtype":"noteOn"},{"deltaTime":239,"channel":0,"type":"channel","noteNumber":75,"velocity":0,"subtype":"noteOff"},{"deltaTime":1,"channel":0,"type":"channel","noteNumber":77,"velocity":49,"subtype":"noteOn"},{"deltaTime":719,"channel":0,"type":"channel","noteNumber":77,"velocity":0,"subtype":"noteOff"},{"deltaTime":1,"channel":0,"type":"channel","noteNumber":79,"velocity":49,"subtype":"noteOn"},{"deltaTime":479,"channel":0,"type":"channel","noteNumber":79,"velocity":0,"subtype":"noteOff"},{"deltaTime":1,"channel":0,"type":"channel","noteNumber":77,"velocity":49,"subtype":"noteOn"},{"deltaTime":239,"channel":0,"type":"channel","noteNumber":77,"velocity":0,"subtype":"noteOff"},{"deltaTime":1,"channel":0,"type":"channel","noteNumber":77,"velocity":49,"subtype":"noteOn"},{"deltaTime":719,"channel":0,"type":"channel","noteNumber":77,"velocity":0,"subtype":"noteOff"},{"deltaTime":1,"channel":0,"type":"channel","noteNumber":72,"velocity":49,"subtype":"noteOn"},{"deltaTime":719,"channel":0,"type":"channel","noteNumber":72,"velocity":0,"subtype":"noteOff"},{"deltaTime":1,"channel":0,"type":"channel","noteNumber":75,"velocity":49,"subtype":"noteOn"},{"deltaTime":179,"channel":0,"type":"channel","noteNumber":75,"velocity":0,"subtype":"noteOff"},{"deltaTime":1,"channel":0,"type":"channel","noteNumber":75,"velocity":49,"subtype":"noteOn"},{"deltaTime":179,"channel":0,"type":"channel","noteNumber":75,"velocity":0,"subtype":"noteOff"},{"deltaTime":1,"channel":0,"type":"channel","noteNumber":75,"velocity":49,"subtype":"noteOn"},{"deltaTime":179,"channel":0,"type":"channel","noteNumber":75,"velocity":0,"subtype":"noteOff"},{"deltaTime":1,"channel":0,"type":"channel","noteNumber":75,"velocity":49,"subtype":"noteOn"},{"deltaTime":179,"channel":0,"type":"channel","noteNumber":75,"velocity":0,"subtype":"noteOff"},{"deltaTime":1,"channel":0,"type":"channel","noteNumber":75,"velocity":49,"subtype":"noteOn"},{"deltaTime":239,"channel":0,"type":"channel","noteNumber":75,"velocity":0,"subtype":"noteOff"},{"deltaTime":1,"channel":0,"type":"channel","noteNumber":74,"velocity":49,"subtype":"noteOn"},{"deltaTime":119,"channel":0,"type":"channel","noteNumber":74,"velocity":0,"subtype":"noteOff"},{"deltaTime":1,"channel":0,"type":"channel","noteNumber":75,"velocity":49,"subtype":"noteOn"},{"deltaTime":119,"channel":0,"type":"channel","noteNumber":75,"velocity":0,"subtype":"noteOff"},{"deltaTime":1,"channel":0,"type":"channel","noteNumber":77,"velocity":49,"subtype":"noteOn"},{"deltaTime":179,"channel":0,"type":"channel","noteNumber":77,"velocity":0,"subtype":"noteOff"},{"deltaTime":1,"channel":0,"type":"channel","noteNumber":75,"velocity":49,"subtype":"noteOn"},{"deltaTime":59,"channel":0,"type":"channel","noteNumber":75,"velocity":0,"subtype":"noteOff"},{"deltaTime":1,"channel":0,"type":"channel","noteNumber":75,"velocity":49,"subtype":"noteOn"},{"deltaTime":719,"channel":0,"type":"channel","noteNumber":75,"velocity":0,"subtype":"noteOff"},{"deltaTime":1,"channel":0,"type":"channel","noteNumber":70,"velocity":49,"subtype":"noteOn"},{"deltaTime":719,"channel":0,"type":"channel","noteNumber":70,"velocity":0,"subtype":"noteOff"},{"deltaTime":1,"channel":0,"type":"channel","noteNumber":82,"velocity":96,"subtype":"noteOn"},{"deltaTime":719,"channel":0,"type":"channel","noteNumber":82,"velocity":0,"subtype":"noteOff"},{"deltaTime":1,"channel":0,"type":"channel","noteNumber":81,"velocity":96,"subtype":"noteOn"},{"deltaTime":479,"channel":0,"type":"channel","noteNumber":81,"velocity":0,"subtype":"noteOff"},{"deltaTime":1,"channel":0,"type":"channel","noteNumber":79,"velocity":96,"subtype":"noteOn"},{"deltaTime":239,"channel":0,"type":"channel","noteNumber":79,"velocity":0,"subtype":"noteOff"},{"deltaTime":1,"channel":0,"type":"channel","noteNumber":77,"velocity":96,"subtype":"noteOn"},{"deltaTime":0,"channel":0,"type":"channel","noteNumber":69,"velocity":96,"subtype":"noteOn"},{"deltaTime":719,"channel":0,"type":"channel","noteNumber":77,"velocity":0,"subtype":"noteOff"},{"deltaTime":0,"channel":0,"type":"channel","noteNumber":69,"velocity":0,"subtype":"noteOff"},{"deltaTime":1,"channel":0,"type":"channel","noteNumber":74,"velocity":96,"subtype":"noteOn"},{"deltaTime":0,"channel":0,"type":"channel","noteNumber":70,"velocity":96,"subtype":"noteOn"},{"deltaTime":719,"channel":0,"type":"channel","noteNumber":74,"velocity":0,"subtype":"noteOff"},{"deltaTime":0,"channel":0,"type":"channel","noteNumber":70,"velocity":0,"subtype":"noteOff"},{"deltaTime":1,"channel":0,"type":"channel","noteNumber":75,"velocity":96,"subtype":"noteOn"},{"deltaTime":0,"channel":0,"type":"channel","noteNumber":67,"velocity":96,"subtype":"noteOn"},{"deltaTime":719,"channel":0,"type":"channel","noteNumber":75,"velocity":0,"subtype":"noteOff"},{"deltaTime":0,"channel":0,"type":"channel","noteNumber":67,"velocity":0,"subtype":"noteOff"},{"deltaTime":1,"channel":0,"type":"channel","noteNumber":74,"velocity":96,"subtype":"noteOn"},{"deltaTime":0,"channel":0,"type":"channel","noteNumber":69,"velocity":96,"subtype":"noteOn"},{"deltaTime":119,"channel":0,"type":"channel","noteNumber":74,"velocity":0,"subtype":"noteOff"},{"deltaTime":0,"channel":0,"type":"channel","noteNumber":69,"velocity":0,"subtype":"noteOff"},{"deltaTime":121,"channel":0,"type":"channel","noteNumber":72,"velocity":96,"subtype":"noteOn"},{"deltaTime":0,"channel":0,"type":"channel","noteNumber":69,"velocity":96,"subtype":"noteOn"},{"deltaTime":119,"channel":0,"type":"channel","noteNumber":72,"velocity":0,"subtype":"noteOff"},{"deltaTime":0,"channel":0,"type":"channel","noteNumber":69,"velocity":0,"subtype":"noteOff"},{"deltaTime":121,"channel":0,"type":"channel","noteNumber":74,"velocity":96,"subtype":"noteOn"},{"deltaTime":0,"channel":0,"type":"channel","noteNumber":69,"velocity":96,"subtype":"noteOn"},{"deltaTime":119,"channel":0,"type":"channel","noteNumber":74,"velocity":0,"subtype":"noteOff"},{"deltaTime":0,"channel":0,"type":"channel","noteNumber":69,"velocity":0,"subtype":"noteOff"},{"deltaTime":121,"type":"meta","subtype":"setTempo","microsecondsPerBeat":967745},{"deltaTime":0,"channel":0,"type":"channel","noteNumber":70,"velocity":96,"subtype":"noteOn"},{"deltaTime":0,"channel":0,"type":"channel","noteNumber":65,"velocity":96,"subtype":"noteOn"},{"deltaTime":119,"channel":0,"type":"channel","noteNumber":70,"velocity":0,"subtype":"noteOff"},{"deltaTime":0,"channel":0,"type":"channel","noteNumber":65,"velocity":0,"subtype":"noteOff"},{"deltaTime":121,"channel":0,"type":"channel","noteNumber":71,"velocity":96,"subtype":"noteOn"},{"deltaTime":0,"channel":0,"type":"channel","noteNumber":66,"velocity":96,"subtype":"noteOn"},{"deltaTime":119,"channel":0,"type":"channel","noteNumber":71,"velocity":0,"subtype":"noteOff"},{"deltaTime":0,"channel":0,"type":"channel","noteNumber":66,"velocity":0,"subtype":"noteOff"},{"deltaTime":121,"channel":0,"type":"channel","noteNumber":71,"velocity":96,"subtype":"noteOn"},{"deltaTime":0,"channel":0,"type":"channel","noteNumber":64,"velocity":96,"subtype":"noteOn"},{"deltaTime":119,"channel":0,"type":"channel","noteNumber":71,"velocity":0,"subtype":"noteOff"},{"deltaTime":0,"channel":0,"type":"channel","noteNumber":64,"velocity":0,"subtype":"noteOff"},{"deltaTime":121,"channel":0,"type":"channel","noteNumber":72,"velocity":96,"subtype":"noteOn"},{"deltaTime":0,"channel":0,"type":"channel","noteNumber":70,"velocity":96,"subtype":"noteOn"},{"deltaTime":0,"channel":0,"type":"channel","noteNumber":64,"velocity":96,"subtype":"noteOn"},{"deltaTime":119,"channel":0,"type":"channel","noteNumber":72,"velocity":0,"subtype":"noteOff"},{"deltaTime":0,"channel":0,"type":"channel","noteNumber":70,"velocity":0,"subtype":"noteOff"},{"deltaTime":0,"channel":0,"type":"channel","noteNumber":64,"velocity":0,"subtype":"noteOff"},{"deltaTime":121,"channel":0,"type":"channel","noteNumber":72,"velocity":96,"subtype":"noteOn"},{"deltaTime":0,"channel":0,"type":"channel","noteNumber":69,"velocity":96,"subtype":"noteOn"},{"deltaTime":0,"channel":0,"type":"channel","noteNumber":65,"velocity":96,"subtype":"noteOn"},{"deltaTime":119,"channel":0,"type":"channel","noteNumber":72,"velocity":0,"subtype":"noteOff"},{"deltaTime":0,"channel":0,"type":"channel","noteNumber":69,"velocity":0,"subtype":"noteOff"},{"deltaTime":0,"channel":0,"type":"channel","noteNumber":65,"velocity":0,"subtype":"noteOff"},{"deltaTime":121,"channel":0,"type":"channel","noteNumber":74,"velocity":96,"subtype":"noteOn"},{"deltaTime":0,"channel":0,"type":"channel","noteNumber":68,"velocity":96,"subtype":"noteOn"},{"deltaTime":119,"channel":0,"type":"channel","noteNumber":74,"velocity":0,"subtype":"noteOff"},{"deltaTime":0,"channel":0,"type":"channel","noteNumber":68,"velocity":0,"subtype":"noteOff"},{"deltaTime":121,"type":"meta","subtype":"setTempo","microsecondsPerBeat":909091},{"deltaTime":0,"channel":0,"type":"channel","noteNumber":67,"velocity":49,"subtype":"noteOn"},{"deltaTime":59,"channel":0,"type":"channel","noteNumber":67,"velocity":0,"subtype":"noteOff"},{"deltaTime":1,"channel":0,"type":"channel","noteNumber":70,"velocity":49,"subtype":"noteOn"},{"deltaTime":59,"channel":0,"type":"channel","noteNumber":70,"velocity":0,"subtype":"noteOff"},{"deltaTime":1,"channel":0,"type":"channel","noteNumber":75,"velocity":49,"subtype":"noteOn"},{"deltaTime":59,"channel":0,"type":"channel","noteNumber":75,"velocity":0,"subtype":"noteOff"},{"deltaTime":1,"channel":0,"type":"channel","noteNumber":79,"velocity":49,"subtype":"noteOn"},{"deltaTime":300,"channel":0,"type":"channel","noteNumber":69,"velocity":49,"subtype":"noteOn"},{"deltaTime":119,"channel":0,"type":"channel","noteNumber":69,"velocity":0,"subtype":"noteOff"},{"deltaTime":1,"channel":0,"type":"channel","noteNumber":70,"velocity":49,"subtype":"noteOn"},{"deltaTime":59,"channel":0,"type":"channel","noteNumber":79,"velocity":0,"subtype":"noteOff"},{"deltaTime":60,"channel":0,"type":"channel","noteNumber":70,"velocity":0,"subtype":"noteOff"},{"deltaTime":1,"channel":0,"type":"channel","noteNumber":71,"velocity":49,"subtype":"noteOn"},{"deltaTime":119,"channel":0,"type":"channel","noteNumber":71,"velocity":0,"subtype":"noteOff"},{"deltaTime":1,"channel":0,"type":"channel","noteNumber":70,"velocity":49,"subtype":"noteOn"},{"deltaTime":119,"channel":0,"type":"channel","noteNumber":70,"velocity":0,"subtype":"noteOff"},{"deltaTime":1,"channel":0,"type":"channel","noteNumber":73,"velocity":49,"subtype":"noteOn"},{"deltaTime":119,"channel":0,"type":"channel","noteNumber":73,"velocity":0,"subtype":"noteOff"},{"deltaTime":1,"channel":0,"type":"channel","noteNumber":74,"velocity":49,"subtype":"noteOn"},{"deltaTime":119,"channel":0,"type":"channel","noteNumber":74,"velocity":0,"subtype":"noteOff"},{"deltaTime":1,"channel":0,"type":"channel","noteNumber":79,"velocity":49,"subtype":"noteOn"},{"deltaTime":179,"channel":0,"type":"channel","noteNumber":79,"velocity":0,"subtype":"noteOff"},{"deltaTime":1,"channel":0,"type":"channel","noteNumber":77,"velocity":49,"subtype":"noteOn"},{"deltaTime":59,"channel":0,"type":"channel","noteNumber":77,"velocity":0,"subtype":"noteOff"},{"deltaTime":1,"channel":0,"type":"channel","noteNumber":77,"velocity":49,"subtype":"noteOn"},{"deltaTime":479,"channel":0,"type":"channel","noteNumber":77,"velocity":0,"subtype":"noteOff"},{"deltaTime":1,"channel":0,"type":"channel","noteNumber":75,"velocity":49,"subtype":"noteOn"},{"deltaTime":359,"channel":0,"type":"channel","noteNumber":75,"velocity":0,"subtype":"noteOff"},{"deltaTime":1,"channel":0,"type":"channel","noteNumber":77,"velocity":49,"subtype":"noteOn"},{"deltaTime":119,"channel":0,"type":"channel","noteNumber":77,"velocity":0,"subtype":"noteOff"},{"deltaTime":1,"channel":0,"type":"channel","noteNumber":77,"velocity":49,"subtype":"noteOn"},{"deltaTime":0,"channel":0,"type":"channel","noteNumber":75,"velocity":49,"subtype":"noteOn"},{"deltaTime":29,"channel":0,"type":"channel","noteNumber":77,"velocity":0,"subtype":"noteOff"},{"deltaTime":1,"channel":0,"type":"channel","noteNumber":75,"velocity":49,"subtype":"noteOn"},{"deltaTime":29,"channel":0,"type":"channel","noteNumber":75,"velocity":0,"subtype":"noteOff"},{"deltaTime":1,"channel":0,"type":"channel","noteNumber":77,"velocity":49,"subtype":"noteOn"},{"deltaTime":29,"channel":0,"type":"channel","noteNumber":77,"velocity":0,"subtype":"noteOff"},{"deltaTime":1,"channel":0,"type":"channel","noteNumber":75,"velocity":49,"subtype":"noteOn"},{"deltaTime":29,"channel":0,"type":"channel","noteNumber":75,"velocity":0,"subtype":"noteOff"},{"deltaTime":0,"channel":0,"type":"channel","noteNumber":75,"velocity":0,"subtype":"noteOff"},{"deltaTime":1,"channel":0,"type":"channel","noteNumber":74,"velocity":49,"subtype":"noteOn"},{"deltaTime":119,"channel":0,"type":"channel","noteNumber":74,"velocity":0,"subtype":"noteOff"},{"deltaTime":1,"channel":0,"type":"channel","noteNumber":75,"velocity":49,"subtype":"noteOn"},{"deltaTime":119,"channel":0,"type":"channel","noteNumber":75,"velocity":0,"subtype":"noteOff"},{"deltaTime":1,"channel":0,"type":"channel","noteNumber":77,"velocity":49,"subtype":"noteOn"},{"deltaTime":119,"channel":0,"type":"channel","noteNumber":77,"velocity":0,"subtype":"noteOff"},{"deltaTime":1,"channel":0,"type":"channel","noteNumber":79,"velocity":49,"subtype":"noteOn"},{"deltaTime":119,"channel":0,"type":"channel","noteNumber":79,"velocity":0,"subtype":"noteOff"},{"deltaTime":1,"channel":0,"type":"channel","noteNumber":71,"velocity":49,"subtype":"noteOn"},{"deltaTime":119,"channel":0,"type":"channel","noteNumber":71,"velocity":0,"subtype":"noteOff"},{"deltaTime":1,"channel":0,"type":"channel","noteNumber":72,"velocity":49,"subtype":"noteOn"},{"deltaTime":119,"channel":0,"type":"channel","noteNumber":72,"velocity":0,"subtype":"noteOff"},{"deltaTime":1,"channel":0,"type":"channel","noteNumber":73,"velocity":49,"subtype":"noteOn"},{"deltaTime":119,"channel":0,"type":"channel","noteNumber":73,"velocity":0,"subtype":"noteOff"},{"deltaTime":1,"channel":0,"type":"channel","noteNumber":72,"velocity":49,"subtype":"noteOn"},{"deltaTime":119,"channel":0,"type":"channel","noteNumber":72,"velocity":0,"subtype":"noteOff"},{"deltaTime":1,"channel":0,"type":"channel","noteNumber":77,"velocity":49,"subtype":"noteOn"},{"deltaTime":119,"channel":0,"type":"channel","noteNumber":77,"velocity":0,"subtype":"noteOff"},{"deltaTime":1,"channel":0,"type":"channel","noteNumber":76,"velocity":49,"subtype":"noteOn"},{"deltaTime":119,"channel":0,"type":"channel","noteNumber":76,"velocity":0,"subtype":"noteOff"},{"deltaTime":1,"channel":0,"type":"channel","noteNumber":80,"velocity":49,"subtype":"noteOn"},{"deltaTime":119,"channel":0,"type":"channel","noteNumber":80,"velocity":0,"subtype":"noteOff"},{"deltaTime":1,"channel":0,"type":"channel","noteNumber":79,"velocity":49,"subtype":"noteOn"},{"deltaTime":119,"channel":0,"type":"channel","noteNumber":79,"velocity":0,"subtype":"noteOff"},{"deltaTime":1,"channel":0,"type":"channel","noteNumber":85,"velocity":49,"subtype":"noteOn"},{"deltaTime":119,"channel":0,"type":"channel","noteNumber":85,"velocity":0,"subtype":"noteOff"},{"deltaTime":1,"channel":0,"type":"channel","noteNumber":84,"velocity":49,"subtype":"noteOn"},{"deltaTime":60,"channel":0,"type":"channel","noteNumber":79,"velocity":49,"subtype":"noteOn"},{"deltaTime":59,"channel":0,"type":"channel","noteNumber":84,"velocity":0,"subtype":"noteOff"},{"deltaTime":1,"channel":0,"type":"channel","noteNumber":79,"velocity":49,"subtype":"noteOn"},{"deltaTime":119,"channel":0,"type":"channel","noteNumber":79,"velocity":0,"subtype":"noteOff"},{"deltaTime":0,"channel":0,"type":"channel","noteNumber":79,"velocity":0,"subtype":"noteOff"},{"deltaTime":1,"channel":0,"type":"channel","noteNumber":82,"velocity":49,"subtype":"noteOn"},{"deltaTime":719,"channel":0,"type":"channel","noteNumber":82,"velocity":0,"subtype":"noteOff"},{"deltaTime":1,"channel":0,"type":"channel","noteNumber":80,"velocity":49,"subtype":"noteOn"},{"deltaTime":479,"channel":0,"type":"channel","noteNumber":80,"velocity":0,"subtype":"noteOff"},{"deltaTime":1,"channel":0,"type":"channel","noteNumber":79,"velocity":49,"subtype":"noteOn"},{"deltaTime":239,"channel":0,"type":"channel","noteNumber":79,"velocity":0,"subtype":"noteOff"},{"deltaTime":1,"channel":0,"type":"channel","noteNumber":79,"velocity":49,"subtype":"noteOn"},{"deltaTime":0,"channel":0,"type":"channel","noteNumber":77,"velocity":0,"subtype":"noteOff"},{"deltaTime":29,"channel":0,"type":"channel","noteNumber":79,"velocity":0,"subtype":"noteOff"},{"deltaTime":1,"channel":0,"type":"channel","noteNumber":77,"velocity":49,"subtype":"noteOn"},{"deltaTime":29,"channel":0,"type":"channel","noteNumber":77,"velocity":0,"subtype":"noteOff"},{"deltaTime":1,"channel":0,"type":"channel","noteNumber":79,"velocity":49,"subtype":"noteOn"},{"deltaTime":29,"channel":0,"type":"channel","noteNumber":79,"velocity":0,"subtype":"noteOff"},{"deltaTime":1,"channel":0,"type":"channel","noteNumber":77,"velocity":49,"subtype":"noteOn"},{"deltaTime":29,"channel":0,"type":"channel","noteNumber":77,"velocity":0,"subtype":"noteOff"},{"deltaTime":1,"channel":0,"type":"channel","noteNumber":79,"velocity":49,"subtype":"noteOn"},{"deltaTime":29,"channel":0,"type":"channel","noteNumber":79,"velocity":0,"subtype":"noteOff"},{"deltaTime":1,"channel":0,"type":"channel","noteNumber":77,"velocity":49,"subtype":"noteOn"},{"deltaTime":29,"channel":0,"type":"channel","noteNumber":77,"velocity":0,"subtype":"noteOff"},{"deltaTime":1,"channel":0,"type":"channel","noteNumber":79,"velocity":49,"subtype":"noteOn"},{"deltaTime":29,"channel":0,"type":"channel","noteNumber":79,"velocity":0,"subtype":"noteOff"},{"deltaTime":1,"channel":0,"type":"channel","noteNumber":77,"velocity":49,"subtype":"noteOn"},{"deltaTime":29,"channel":0,"type":"channel","noteNumber":77,"velocity":0,"subtype":"noteOff"},{"deltaTime":1,"channel":0,"type":"channel","noteNumber":79,"velocity":49,"subtype":"noteOn"},{"deltaTime":29,"channel":0,"type":"channel","noteNumber":79,"velocity":0,"subtype":"noteOff"},{"deltaTime":1,"channel":0,"type":"channel","noteNumber":77,"velocity":49,"subtype":"noteOn"},{"deltaTime":29,"channel":0,"type":"channel","noteNumber":77,"velocity":0,"subtype":"noteOff"},{"deltaTime":1,"channel":0,"type":"channel","noteNumber":79,"velocity":49,"subtype":"noteOn"},{"deltaTime":29,"channel":0,"type":"channel","noteNumber":79,"velocity":0,"subtype":"noteOff"},{"deltaTime":1,"channel":0,"type":"channel","noteNumber":77,"velocity":49,"subtype":"noteOn"},{"deltaTime":29,"channel":0,"type":"channel","noteNumber":77,"velocity":0,"subtype":"noteOff"},{"deltaTime":1,"channel":0,"type":"channel","noteNumber":79,"velocity":49,"subtype":"noteOn"},{"deltaTime":29,"channel":0,"type":"channel","noteNumber":79,"velocity":0,"subtype":"noteOff"},{"deltaTime":1,"channel":0,"type":"channel","noteNumber":77,"velocity":49,"subtype":"noteOn"},{"deltaTime":29,"channel":0,"type":"channel","noteNumber":77,"velocity":0,"subtype":"noteOff"},{"deltaTime":1,"channel":0,"type":"channel","noteNumber":79,"velocity":49,"subtype":"noteOn"},{"deltaTime":29,"channel":0,"type":"channel","noteNumber":79,"velocity":0,"subtype":"noteOff"},{"deltaTime":1,"channel":0,"type":"channel","noteNumber":77,"velocity":49,"subtype":"noteOn"},{"deltaTime":29,"channel":0,"type":"channel","noteNumber":77,"velocity":0,"subtype":"noteOff"},{"deltaTime":1,"channel":0,"type":"channel","noteNumber":79,"velocity":49,"subtype":"noteOn"},{"deltaTime":29,"channel":0,"type":"channel","noteNumber":79,"velocity":0,"subtype":"noteOff"},{"deltaTime":1,"channel":0,"type":"channel","noteNumber":77,"velocity":49,"subtype":"noteOn"},{"deltaTime":29,"channel":0,"type":"channel","noteNumber":77,"velocity":0,"subtype":"noteOff"},{"deltaTime":1,"channel":0,"type":"channel","noteNumber":79,"velocity":49,"subtype":"noteOn"},{"deltaTime":29,"channel":0,"type":"channel","noteNumber":79,"velocity":0,"subtype":"noteOff"},{"deltaTime":1,"channel":0,"type":"channel","noteNumber":77,"velocity":49,"subtype":"noteOn"},{"deltaTime":29,"channel":0,"type":"channel","noteNumber":77,"velocity":0,"subtype":"noteOff"},{"deltaTime":1,"channel":0,"type":"channel","noteNumber":79,"velocity":49,"subtype":"noteOn"},{"deltaTime":29,"channel":0,"type":"channel","noteNumber":79,"velocity":0,"subtype":"noteOff"},{"deltaTime":1,"channel":0,"type":"channel","noteNumber":77,"velocity":49,"subtype":"noteOn"},{"deltaTime":29,"channel":0,"type":"channel","noteNumber":77,"velocity":0,"subtype":"noteOff"},{"deltaTime":1,"channel":0,"type":"channel","noteNumber":79,"velocity":49,"subtype":"noteOn"},{"deltaTime":0,"channel":0,"type":"channel","noteNumber":76,"velocity":49,"subtype":"noteOn"},{"deltaTime":14,"channel":0,"type":"channel","noteNumber":76,"velocity":0,"subtype":"noteOff"},{"deltaTime":15,"channel":0,"type":"channel","noteNumber":79,"velocity":0,"subtype":"noteOff"},{"deltaTime":1,"channel":0,"type":"channel","noteNumber":77,"velocity":49,"subtype":"noteOn"},{"deltaTime":0,"channel":0,"type":"channel","noteNumber":77,"velocity":49,"subtype":"noteOn"},{"deltaTime":14,"channel":0,"type":"channel","noteNumber":77,"velocity":0,"subtype":"noteOff"},{"deltaTime":15,"channel":0,"type":"channel","noteNumber":77,"velocity":0,"subtype":"noteOff"},{"deltaTime":0,"channel":0,"type":"channel","noteNumber":77,"velocity":0,"subtype":"noteOff"},{"deltaTime":1,"channel":0,"type":"channel","noteNumber":79,"velocity":49,"subtype":"noteOn"},{"deltaTime":119,"channel":0,"type":"channel","noteNumber":79,"velocity":0,"subtype":"noteOff"},{"deltaTime":121,"channel":0,"type":"channel","noteNumber":79,"velocity":49,"subtype":"noteOn"},{"deltaTime":239,"channel":0,"type":"channel","noteNumber":79,"velocity":0,"subtype":"noteOff"},{"deltaTime":1,"channel":0,"type":"channel","noteNumber":74,"velocity":49,"subtype":"noteOn"},{"deltaTime":239,"channel":0,"type":"channel","noteNumber":74,"velocity":0,"subtype":"noteOff"},{"deltaTime":1,"channel":0,"type":"channel","noteNumber":75,"velocity":49,"subtype":"noteOn"},{"deltaTime":719,"channel":0,"type":"channel","noteNumber":75,"velocity":0,"subtype":"noteOff"},{"deltaTime":1,"channel":0,"type":"channel","noteNumber":72,"velocity":49,"subtype":"noteOn"},{"deltaTime":719,"channel":0,"type":"channel","noteNumber":72,"velocity":0,"subtype":"noteOff"},{"deltaTime":1,"channel":0,"type":"channel","noteNumber":70,"velocity":49,"subtype":"noteOn"},{"deltaTime":59,"channel":0,"type":"channel","noteNumber":70,"velocity":0,"subtype":"noteOff"},{"deltaTime":61,"channel":0,"type":"channel","noteNumber":86,"velocity":49,"subtype":"noteOn"},{"deltaTime":239,"channel":0,"type":"channel","noteNumber":86,"velocity":0,"subtype":"noteOff"},{"deltaTime":1,"channel":0,"type":"channel","noteNumber":85,"velocity":49,"subtype":"noteOn"},{"deltaTime":59,"channel":0,"type":"channel","noteNumber":85,"velocity":0,"subtype":"noteOff"},{"deltaTime":61,"channel":0,"type":"channel","noteNumber":84,"velocity":49,"subtype":"noteOn"},{"deltaTime":179,"channel":0,"type":"channel","noteNumber":84,"velocity":0,"subtype":"noteOff"},{"deltaTime":1,"channel":0,"type":"channel","noteNumber":83,"velocity":49,"subtype":"noteOn"},{"deltaTime":29,"channel":0,"type":"channel","noteNumber":83,"velocity":0,"subtype":"noteOff"},{"deltaTime":31,"channel":0,"type":"channel","noteNumber":82,"velocity":49,"subtype":"noteOn"},{"deltaTime":59,"channel":0,"type":"channel","noteNumber":82,"velocity":0,"subtype":"noteOff"},{"deltaTime":61,"channel":0,"type":"channel","noteNumber":81,"velocity":49,"subtype":"noteOn"},{"deltaTime":59,"channel":0,"type":"channel","noteNumber":81,"velocity":0,"subtype":"noteOff"},{"deltaTime":61,"channel":0,"type":"channel","noteNumber":80,"velocity":49,"subtype":"noteOn"},{"deltaTime":47,"channel":0,"type":"channel","noteNumber":80,"velocity":0,"subtype":"noteOff"},{"deltaTime":1,"channel":0,"type":"channel","noteNumber":69,"velocity":49,"subtype":"noteOn"},{"deltaTime":47,"channel":0,"type":"channel","noteNumber":69,"velocity":0,"subtype":"noteOff"},{"deltaTime":1,"channel":0,"type":"channel","noteNumber":70,"velocity":49,"subtype":"noteOn"},{"deltaTime":47,"channel":0,"type":"channel","noteNumber":70,"velocity":0,"subtype":"noteOff"},{"deltaTime":1,"channel":0,"type":"channel","noteNumber":71,"velocity":49,"subtype":"noteOn"},{"deltaTime":47,"channel":0,"type":"channel","noteNumber":71,"velocity":0,"subtype":"noteOff"},{"deltaTime":1,"channel":0,"type":"channel","noteNumber":72,"velocity":49,"subtype":"noteOn"},{"deltaTime":47,"channel":0,"type":"channel","noteNumber":72,"velocity":0,"subtype":"noteOff"},{"deltaTime":1,"channel":0,"type":"channel","noteNumber":73,"velocity":49,"subtype":"noteOn"},{"deltaTime":59,"channel":0,"type":"channel","noteNumber":73,"velocity":0,"subtype":"noteOff"},{"deltaTime":1,"channel":0,"type":"channel","noteNumber":74,"velocity":49,"subtype":"noteOn"},{"deltaTime":59,"channel":0,"type":"channel","noteNumber":74,"velocity":0,"subtype":"noteOff"},{"deltaTime":1,"channel":0,"type":"channel","noteNumber":79,"velocity":49,"subtype":"noteOn"},{"deltaTime":39,"channel":0,"type":"channel","noteNumber":79,"velocity":0,"subtype":"noteOff"},{"deltaTime":1,"channel":0,"type":"channel","noteNumber":77,"velocity":49,"subtype":"noteOn"},{"deltaTime":39,"channel":0,"type":"channel","noteNumber":77,"velocity":0,"subtype":"noteOff"},{"deltaTime":1,"channel":0,"type":"channel","noteNumber":75,"velocity":49,"subtype":"noteOn"},{"deltaTime":39,"channel":0,"type":"channel","noteNumber":75,"velocity":0,"subtype":"noteOff"},{"deltaTime":1,"channel":0,"type":"channel","noteNumber":75,"velocity":49,"subtype":"noteOn"},{"deltaTime":1439,"channel":0,"type":"channel","noteNumber":75,"velocity":0,"subtype":"noteOff"},{"deltaTime":1,"channel":0,"type":"channel","noteNumber":75,"velocity":49,"subtype":"noteOn"},{"deltaTime":719,"channel":0,"type":"channel","noteNumber":75,"velocity":0,"subtype":"noteOff"},{"deltaTime":1,"channel":0,"type":"channel","noteNumber":77,"velocity":49,"subtype":"noteOn"},{"deltaTime":239,"channel":0,"type":"channel","noteNumber":77,"velocity":0,"subtype":"noteOff"},{"deltaTime":1,"channel":0,"type":"channel","noteNumber":75,"velocity":49,"subtype":"noteOn"},{"deltaTime":239,"channel":0,"type":"channel","noteNumber":75,"velocity":0,"subtype":"noteOff"},{"deltaTime":1,"channel":0,"type":"channel","noteNumber":77,"velocity":49,"subtype":"noteOn"},{"deltaTime":239,"channel":0,"type":"channel","noteNumber":77,"velocity":0,"subtype":"noteOff"},{"deltaTime":1,"channel":0,"type":"channel","noteNumber":79,"velocity":49,"subtype":"noteOn"},{"deltaTime":1439,"channel":0,"type":"channel","noteNumber":79,"velocity":0,"subtype":"noteOff"},{"deltaTime":1,"channel":0,"type":"channel","noteNumber":75,"velocity":49,"subtype":"noteOn"},{"deltaTime":839,"channel":0,"type":"channel","noteNumber":75,"velocity":0,"subtype":"noteOff"},{"deltaTime":1,"channel":0,"type":"channel","noteNumber":77,"velocity":49,"subtype":"noteOn"},{"deltaTime":119,"channel":0,"type":"channel","noteNumber":77,"velocity":0,"subtype":"noteOff"},{"deltaTime":1,"channel":0,"type":"channel","noteNumber":75,"velocity":49,"subtype":"noteOn"},{"deltaTime":119,"channel":0,"type":"channel","noteNumber":75,"velocity":0,"subtype":"noteOff"},{"deltaTime":1,"channel":0,"type":"channel","noteNumber":77,"velocity":49,"subtype":"noteOn"},{"deltaTime":119,"channel":0,"type":"channel","noteNumber":77,"velocity":0,"subtype":"noteOff"},{"deltaTime":1,"channel":0,"type":"channel","noteNumber":75,"velocity":49,"subtype":"noteOn"},{"deltaTime":119,"channel":0,"type":"channel","noteNumber":75,"velocity":0,"subtype":"noteOff"},{"deltaTime":1,"channel":0,"type":"channel","noteNumber":77,"velocity":49,"subtype":"noteOn"},{"deltaTime":119,"channel":0,"type":"channel","noteNumber":77,"velocity":0,"subtype":"noteOff"},{"deltaTime":1,"channel":0,"type":"channel","noteNumber":79,"velocity":49,"subtype":"noteOn"},{"deltaTime":479,"channel":0,"type":"channel","noteNumber":79,"velocity":0,"subtype":"noteOff"},{"deltaTime":1,"type":"meta","subtype":"setTempo","microsecondsPerBeat":937497},{"deltaTime":0,"channel":0,"type":"channel","noteNumber":77,"velocity":49,"subtype":"noteOn"},{"deltaTime":0,"channel":0,"type":"channel","noteNumber":75,"velocity":0,"subtype":"noteOff"},{"deltaTime":59,"channel":0,"type":"channel","noteNumber":77,"velocity":0,"subtype":"noteOff"},{"deltaTime":1,"channel":0,"type":"channel","noteNumber":75,"velocity":49,"subtype":"noteOn"},{"deltaTime":59,"channel":0,"type":"channel","noteNumber":75,"velocity":0,"subtype":"noteOff"},{"deltaTime":1,"channel":0,"type":"channel","noteNumber":74,"velocity":49,"subtype":"noteOn"},{"deltaTime":59,"channel":0,"type":"channel","noteNumber":74,"velocity":0,"subtype":"noteOff"},{"deltaTime":1,"channel":0,"type":"channel","noteNumber":75,"velocity":49,"subtype":"noteOn"},{"deltaTime":59,"channel":0,"type":"channel","noteNumber":75,"velocity":0,"subtype":"noteOff"},{"deltaTime":0,"channel":0,"type":"channel","noteNumber":75,"velocity":0,"subtype":"noteOff"},{"deltaTime":1,"channel":0,"type":"channel","noteNumber":87,"velocity":49,"subtype":"noteOn"},{"deltaTime":239,"channel":0,"type":"channel","noteNumber":87,"velocity":0,"subtype":"noteOff"},{"deltaTime":1,"channel":0,"type":"channel","noteNumber":86,"velocity":49,"subtype":"noteOn"},{"deltaTime":239,"channel":0,"type":"channel","noteNumber":86,"velocity":0,"subtype":"noteOff"},{"deltaTime":1,"channel":0,"type":"channel","noteNumber":84,"velocity":49,"subtype":"noteOn"},{"deltaTime":239,"channel":0,"type":"channel","noteNumber":84,"velocity":0,"subtype":"noteOff"},{"deltaTime":1,"channel":0,"type":"channel","noteNumber":82,"velocity":33,"subtype":"noteOn"},{"deltaTime":479,"channel":0,"type":"channel","noteNumber":82,"velocity":0,"subtype":"noteOff"},{"deltaTime":1,"channel":0,"type":"channel","noteNumber":81,"velocity":33,"subtype":"noteOn"},{"deltaTime":239,"channel":0,"type":"channel","noteNumber":81,"velocity":0,"subtype":"noteOff"},{"deltaTime":1,"channel":0,"type":"channel","noteNumber":80,"velocity":33,"subtype":"noteOn"},{"deltaTime":239,"channel":0,"type":"channel","noteNumber":80,"velocity":0,"subtype":"noteOff"},{"deltaTime":1,"channel":0,"type":"channel","noteNumber":72,"velocity":33,"subtype":"noteOn"},{"deltaTime":239,"channel":0,"type":"channel","noteNumber":72,"velocity":0,"subtype":"noteOff"},{"deltaTime":1,"channel":0,"type":"channel","noteNumber":74,"velocity":33,"subtype":"noteOn"},{"deltaTime":239,"channel":0,"type":"channel","noteNumber":74,"velocity":0,"subtype":"noteOff"},{"deltaTime":1,"channel":0,"type":"channel","noteNumber":75,"velocity":33,"subtype":"noteOn"},{"deltaTime":239,"channel":0,"type":"channel","noteNumber":75,"velocity":0,"subtype":"noteOff"},{"deltaTime":1,"channel":0,"type":"channel","noteNumber":77,"velocity":33,"subtype":"noteOn"},{"deltaTime":119,"channel":0,"type":"channel","noteNumber":77,"velocity":0,"subtype":"noteOff"},{"deltaTime":1,"channel":0,"type":"channel","noteNumber":77,"velocity":33,"subtype":"noteOn"},{"deltaTime":0,"channel":0,"type":"channel","noteNumber":75,"velocity":33,"subtype":"noteOn"},{"deltaTime":29,"channel":0,"type":"channel","noteNumber":77,"velocity":0,"subtype":"noteOff"},{"deltaTime":1,"channel":0,"type":"channel","noteNumber":75,"velocity":33,"subtype":"noteOn"},{"deltaTime":29,"channel":0,"type":"channel","noteNumber":75,"velocity":0,"subtype":"noteOff"},{"deltaTime":1,"channel":0,"type":"channel","noteNumber":77,"velocity":33,"subtype":"noteOn"},{"deltaTime":29,"channel":0,"type":"channel","noteNumber":77,"velocity":0,"subtype":"noteOff"},{"deltaTime":1,"channel":0,"type":"channel","noteNumber":75,"velocity":33,"subtype":"noteOn"},{"deltaTime":29,"channel":0,"type":"channel","noteNumber":75,"velocity":0,"subtype":"noteOff"},{"deltaTime":0,"channel":0,"type":"channel","noteNumber":75,"velocity":0,"subtype":"noteOff"},{"deltaTime":1,"channel":0,"type":"channel","noteNumber":74,"velocity":33,"subtype":"noteOn"},{"deltaTime":119,"channel":0,"type":"channel","noteNumber":74,"velocity":0,"subtype":"noteOff"},{"deltaTime":1,"channel":0,"type":"channel","noteNumber":75,"velocity":33,"subtype":"noteOn"},{"deltaTime":60,"channel":0,"type":"channel","noteNumber":75,"velocity":33,"subtype":"noteOn"},{"deltaTime":29,"channel":0,"type":"channel","noteNumber":75,"velocity":0,"subtype":"noteOff"},{"deltaTime":30,"channel":0,"type":"channel","noteNumber":75,"velocity":0,"subtype":"noteOff"},{"deltaTime":1,"channel":0,"type":"channel","noteNumber":91,"velocity":33,"subtype":"noteOn"},{"deltaTime":119,"channel":0,"type":"channel","noteNumber":91,"velocity":0,"subtype":"noteOff"},{"deltaTime":121,"channel":0,"type":"channel","noteNumber":89,"velocity":33,"subtype":"noteOn"},{"deltaTime":59,"channel":0,"type":"channel","noteNumber":89,"velocity":0,"subtype":"noteOff"},{"deltaTime":61,"channel":0,"type":"channel","noteNumber":87,"velocity":33,"subtype":"noteOn"},{"deltaTime":59,"channel":0,"type":"channel","noteNumber":87,"velocity":0,"subtype":"noteOff"},{"deltaTime":61,"channel":0,"type":"channel","noteNumber":86,"velocity":33,"subtype":"noteOn"},{"deltaTime":59,"channel":0,"type":"channel","noteNumber":86,"velocity":0,"subtype":"noteOff"},{"deltaTime":61,"channel":0,"type":"channel","noteNumber":84,"velocity":33,"subtype":"noteOn"},{"deltaTime":59,"channel":0,"type":"channel","noteNumber":84,"velocity":0,"subtype":"noteOff"},{"deltaTime":61,"channel":0,"type":"channel","noteNumber":83,"velocity":33,"subtype":"noteOn"},{"deltaTime":239,"channel":0,"type":"channel","noteNumber":83,"velocity":0,"subtype":"noteOff"},{"deltaTime":1,"channel":0,"type":"channel","noteNumber":82,"velocity":33,"subtype":"noteOn"},{"deltaTime":239,"channel":0,"type":"channel","noteNumber":82,"velocity":0,"subtype":"noteOff"},{"deltaTime":1,"channel":0,"type":"channel","noteNumber":81,"velocity":33,"subtype":"noteOn"},{"deltaTime":239,"channel":0,"type":"channel","noteNumber":81,"velocity":0,"subtype":"noteOff"},{"deltaTime":1,"channel":0,"type":"channel","noteNumber":81,"velocity":33,"subtype":"noteOn"},{"deltaTime":119,"channel":0,"type":"channel","noteNumber":81,"velocity":0,"subtype":"noteOff"},{"deltaTime":1,"channel":0,"type":"channel","noteNumber":80,"velocity":33,"subtype":"noteOn"},{"deltaTime":119,"channel":0,"type":"channel","noteNumber":80,"velocity":0,"subtype":"noteOff"},{"deltaTime":1,"channel":0,"type":"channel","noteNumber":80,"velocity":33,"subtype":"noteOn"},{"deltaTime":119,"channel":0,"type":"channel","noteNumber":80,"velocity":0,"subtype":"noteOff"},{"deltaTime":1,"channel":0,"type":"channel","noteNumber":79,"velocity":33,"subtype":"noteOn"},{"deltaTime":119,"channel":0,"type":"channel","noteNumber":79,"velocity":0,"subtype":"noteOff"},{"deltaTime":1,"channel":0,"type":"channel","noteNumber":79,"velocity":33,"subtype":"noteOn"},{"deltaTime":179,"channel":0,"type":"channel","noteNumber":79,"velocity":0,"subtype":"noteOff"},{"deltaTime":1,"channel":0,"type":"channel","noteNumber":77,"velocity":33,"subtype":"noteOn"},{"deltaTime":59,"channel":0,"type":"channel","noteNumber":77,"velocity":0,"subtype":"noteOff"},{"deltaTime":1,"channel":0,"type":"channel","noteNumber":75,"velocity":33,"subtype":"noteOn"},{"deltaTime":1439,"channel":0,"type":"channel","noteNumber":75,"velocity":0,"subtype":"noteOff"},{"deltaTime":1,"channel":0,"type":"channel","noteNumber":75,"velocity":49,"subtype":"noteOn"},{"deltaTime":809,"channel":0,"type":"channel","noteNumber":75,"velocity":0,"subtype":"noteOff"},{"deltaTime":1,"channel":0,"type":"channel","noteNumber":77,"velocity":49,"subtype":"noteOn"},{"deltaTime":89,"channel":0,"type":"channel","noteNumber":77,"velocity":0,"subtype":"noteOff"},{"deltaTime":1,"channel":0,"type":"channel","noteNumber":75,"velocity":49,"subtype":"noteOn"},{"deltaTime":89,"channel":0,"type":"channel","noteNumber":75,"velocity":0,"subtype":"noteOff"},{"deltaTime":1,"channel":0,"type":"channel","noteNumber":77,"velocity":49,"subtype":"noteOn"},{"deltaTime":89,"channel":0,"type":"channel","noteNumber":77,"velocity":0,"subtype":"noteOff"},{"deltaTime":1,"channel":0,"type":"channel","noteNumber":75,"velocity":49,"subtype":"noteOn"},{"deltaTime":89,"channel":0,"type":"channel","noteNumber":75,"velocity":0,"subtype":"noteOff"},{"deltaTime":1,"channel":0,"type":"channel","noteNumber":77,"velocity":49,"subtype":"noteOn"},{"deltaTime":89,"channel":0,"type":"channel","noteNumber":77,"velocity":0,"subtype":"noteOff"},{"deltaTime":1,"channel":0,"type":"channel","noteNumber":75,"velocity":49,"subtype":"noteOn"},{"deltaTime":89,"channel":0,"type":"channel","noteNumber":75,"velocity":0,"subtype":"noteOff"},{"deltaTime":1,"channel":0,"type":"channel","noteNumber":77,"velocity":49,"subtype":"noteOn"},{"deltaTime":89,"channel":0,"type":"channel","noteNumber":77,"velocity":0,"subtype":"noteOff"},{"deltaTime":1,"channel":0,"type":"channel","noteNumber":79,"velocity":49,"subtype":"noteOn"},{"deltaTime":719,"channel":0,"type":"channel","noteNumber":79,"velocity":0,"subtype":"noteOff"},{"deltaTime":721,"channel":0,"type":"channel","noteNumber":75,"velocity":96,"subtype":"noteOn"},{"deltaTime":239,"channel":0,"type":"channel","noteNumber":75,"velocity":0,"subtype":"noteOff"},{"deltaTime":1,"channel":0,"type":"channel","noteNumber":68,"velocity":96,"subtype":"noteOn"},{"deltaTime":119,"channel":0,"type":"channel","noteNumber":68,"velocity":0,"subtype":"noteOff"},{"deltaTime":1,"channel":0,"type":"channel","noteNumber":70,"velocity":96,"subtype":"noteOn"},{"deltaTime":119,"channel":0,"type":"channel","noteNumber":70,"velocity":0,"subtype":"noteOff"},{"deltaTime":1,"channel":0,"type":"channel","noteNumber":70,"velocity":96,"subtype":"noteOn"},{"deltaTime":0,"channel":0,"type":"channel","noteNumber":68,"velocity":96,"subtype":"noteOn"},{"deltaTime":29,"channel":0,"type":"channel","noteNumber":70,"velocity":0,"subtype":"noteOff"},{"deltaTime":1,"channel":0,"type":"channel","noteNumber":68,"velocity":96,"subtype":"noteOn"},{"deltaTime":29,"channel":0,"type":"channel","noteNumber":68,"velocity":0,"subtype":"noteOff"},{"deltaTime":1,"channel":0,"type":"channel","noteNumber":70,"velocity":96,"subtype":"noteOn"},{"deltaTime":29,"channel":0,"type":"channel","noteNumber":70,"velocity":0,"subtype":"noteOff"},{"deltaTime":1,"channel":0,"type":"channel","noteNumber":68,"velocity":96,"subtype":"noteOn"},{"deltaTime":29,"channel":0,"type":"channel","noteNumber":68,"velocity":0,"subtype":"noteOff"},{"deltaTime":0,"channel":0,"type":"channel","noteNumber":68,"velocity":0,"subtype":"noteOff"},{"deltaTime":1,"channel":0,"type":"channel","noteNumber":67,"velocity":96,"subtype":"noteOn"},{"deltaTime":119,"channel":0,"type":"channel","noteNumber":67,"velocity":0,"subtype":"noteOff"},{"deltaTime":1,"channel":0,"type":"channel","noteNumber":68,"velocity":96,"subtype":"noteOn"},{"deltaTime":119,"channel":0,"type":"channel","noteNumber":68,"velocity":0,"subtype":"noteOff"},{"deltaTime":1,"channel":0,"type":"channel","noteNumber":71,"velocity":96,"subtype":"noteOn"},{"deltaTime":119,"channel":0,"type":"channel","noteNumber":71,"velocity":0,"subtype":"noteOff"},{"deltaTime":1,"channel":0,"type":"channel","noteNumber":75,"velocity":96,"subtype":"noteOn"},{"deltaTime":119,"channel":0,"type":"channel","noteNumber":75,"velocity":0,"subtype":"noteOff"},{"deltaTime":1,"channel":0,"type":"channel","noteNumber":80,"velocity":96,"subtype":"noteOn"},{"deltaTime":119,"channel":0,"type":"channel","noteNumber":80,"velocity":0,"subtype":"noteOff"},{"deltaTime":1,"channel":0,"type":"channel","noteNumber":87,"velocity":96,"subtype":"noteOn"},{"deltaTime":119,"channel":0,"type":"channel","noteNumber":87,"velocity":0,"subtype":"noteOff"},{"deltaTime":61,"channel":0,"type":"channel","noteNumber":89,"velocity":96,"subtype":"noteOn"},{"deltaTime":59,"channel":0,"type":"channel","noteNumber":89,"velocity":0,"subtype":"noteOff"},{"deltaTime":1,"channel":0,"type":"channel","noteNumber":91,"velocity":96,"subtype":"noteOn"},{"deltaTime":239,"channel":0,"type":"channel","noteNumber":91,"velocity":0,"subtype":"noteOff"},{"deltaTime":1,"channel":0,"type":"channel","noteNumber":87,"velocity":96,"subtype":"noteOn"},{"deltaTime":239,"channel":0,"type":"channel","noteNumber":87,"velocity":0,"subtype":"noteOff"},{"deltaTime":1,"channel":0,"type":"channel","noteNumber":99,"velocity":96,"subtype":"noteOn"},{"deltaTime":0,"channel":0,"type":"channel","noteNumber":87,"velocity":96,"subtype":"noteOn"},{"deltaTime":479,"channel":0,"type":"channel","noteNumber":99,"velocity":0,"subtype":"noteOff"},{"deltaTime":0,"channel":0,"type":"channel","noteNumber":87,"velocity":0,"subtype":"noteOff"},{"deltaTime":1,"channel":0,"type":"channel","noteNumber":98,"velocity":96,"subtype":"noteOn"},{"deltaTime":0,"channel":0,"type":"channel","noteNumber":86,"velocity":96,"subtype":"noteOn"},{"deltaTime":239,"channel":0,"type":"channel","noteNumber":98,"velocity":0,"subtype":"noteOff"},{"deltaTime":0,"channel":0,"type":"channel","noteNumber":86,"velocity":0,"subtype":"noteOff"},{"deltaTime":1,"channel":0,"type":"channel","noteNumber":96,"velocity":96,"subtype":"noteOn"},{"deltaTime":0,"channel":0,"type":"channel","noteNumber":84,"velocity":96,"subtype":"noteOn"},{"deltaTime":239,"channel":0,"type":"channel","noteNumber":96,"velocity":0,"subtype":"noteOff"},{"deltaTime":0,"channel":0,"type":"channel","noteNumber":84,"velocity":0,"subtype":"noteOff"},{"deltaTime":1,"channel":0,"type":"channel","noteNumber":95,"velocity":96,"subtype":"noteOn"},{"deltaTime":0,"channel":0,"type":"channel","noteNumber":83,"velocity":96,"subtype":"noteOn"},{"deltaTime":239,"channel":0,"type":"channel","noteNumber":95,"velocity":0,"subtype":"noteOff"},{"deltaTime":0,"channel":0,"type":"channel","noteNumber":83,"velocity":0,"subtype":"noteOff"},{"deltaTime":1,"channel":0,"type":"channel","noteNumber":94,"velocity":96,"subtype":"noteOn"},{"deltaTime":0,"channel":0,"type":"channel","noteNumber":82,"velocity":96,"subtype":"noteOn"},{"deltaTime":239,"channel":0,"type":"channel","noteNumber":94,"velocity":0,"subtype":"noteOff"},{"deltaTime":0,"channel":0,"type":"channel","noteNumber":82,"velocity":0,"subtype":"noteOff"},{"deltaTime":1,"channel":0,"type":"channel","noteNumber":93,"velocity":96,"subtype":"noteOn"},{"deltaTime":0,"channel":0,"type":"channel","noteNumber":81,"velocity":96,"subtype":"noteOn"},{"deltaTime":239,"channel":0,"type":"channel","noteNumber":93,"velocity":0,"subtype":"noteOff"},{"deltaTime":0,"channel":0,"type":"channel","noteNumber":81,"velocity":0,"subtype":"noteOff"},{"deltaTime":1,"channel":0,"type":"channel","noteNumber":92,"velocity":96,"subtype":"noteOn"},{"deltaTime":0,"channel":0,"type":"channel","noteNumber":80,"velocity":96,"subtype":"noteOn"},{"deltaTime":239,"channel":0,"type":"channel","noteNumber":92,"velocity":0,"subtype":"noteOff"},{"deltaTime":0,"channel":0,"type":"channel","noteNumber":80,"velocity":0,"subtype":"noteOff"},{"deltaTime":1,"channel":0,"type":"channel","noteNumber":91,"velocity":96,"subtype":"noteOn"},{"deltaTime":0,"channel":0,"type":"channel","noteNumber":79,"velocity":96,"subtype":"noteOn"},{"deltaTime":239,"channel":0,"type":"channel","noteNumber":91,"velocity":0,"subtype":"noteOff"},{"deltaTime":0,"channel":0,"type":"channel","noteNumber":79,"velocity":0,"subtype":"noteOff"},{"deltaTime":1,"channel":0,"type":"channel","noteNumber":86,"velocity":96,"subtype":"noteOn"},{"deltaTime":0,"channel":0,"type":"channel","noteNumber":74,"velocity":96,"subtype":"noteOn"},{"deltaTime":239,"channel":0,"type":"channel","noteNumber":86,"velocity":0,"subtype":"noteOff"},{"deltaTime":0,"channel":0,"type":"channel","noteNumber":74,"velocity":0,"subtype":"noteOff"},{"deltaTime":1,"channel":0,"type":"channel","noteNumber":87,"velocity":96,"subtype":"noteOn"},{"deltaTime":0,"channel":0,"type":"channel","noteNumber":75,"velocity":96,"subtype":"noteOn"},{"deltaTime":239,"channel":0,"type":"channel","noteNumber":87,"velocity":0,"subtype":"noteOff"},{"deltaTime":0,"channel":0,"type":"channel","noteNumber":75,"velocity":0,"subtype":"noteOff"},{"deltaTime":1,"channel":0,"type":"channel","noteNumber":99,"velocity":96,"subtype":"noteOn"},{"deltaTime":0,"channel":0,"type":"channel","noteNumber":87,"velocity":96,"subtype":"noteOn"},{"deltaTime":719,"channel":0,"type":"channel","noteNumber":99,"velocity":0,"subtype":"noteOff"},{"deltaTime":0,"channel":0,"type":"channel","noteNumber":87,"velocity":0,"subtype":"noteOff"},{"deltaTime":1,"channel":0,"type":"channel","noteNumber":89,"velocity":96,"subtype":"noteOn"},{"deltaTime":0,"channel":0,"type":"channel","noteNumber":77,"velocity":96,"subtype":"noteOn"},{"deltaTime":239,"channel":0,"type":"channel","noteNumber":89,"velocity":0,"subtype":"noteOff"},{"deltaTime":0,"channel":0,"type":"channel","noteNumber":77,"velocity":0,"subtype":"noteOff"},{"deltaTime":1,"channel":0,"type":"channel","noteNumber":96,"velocity":96,"subtype":"noteOn"},{"deltaTime":0,"channel":0,"type":"channel","noteNumber":84,"velocity":96,"subtype":"noteOn"},{"deltaTime":239,"channel":0,"type":"channel","noteNumber":96,"velocity":0,"subtype":"noteOff"},{"deltaTime":0,"channel":0,"type":"channel","noteNumber":84,"velocity":0,"subtype":"noteOff"},{"deltaTime":1,"channel":0,"type":"channel","noteNumber":95,"velocity":112,"subtype":"noteOn"},{"deltaTime":0,"channel":0,"type":"channel","noteNumber":83,"velocity":112,"subtype":"noteOn"},{"deltaTime":1439,"channel":0,"type":"channel","noteNumber":95,"velocity":0,"subtype":"noteOff"},{"deltaTime":0,"channel":0,"type":"channel","noteNumber":83,"velocity":0,"subtype":"noteOff"},{"deltaTime":1,"channel":0,"type":"channel","noteNumber":94,"velocity":112,"subtype":"noteOn"},{"deltaTime":0,"channel":0,"type":"channel","noteNumber":82,"velocity":112,"subtype":"noteOn"},{"deltaTime":1439,"channel":0,"type":"channel","noteNumber":94,"velocity":0,"subtype":"noteOff"},{"deltaTime":0,"channel":0,"type":"channel","noteNumber":82,"velocity":0,"subtype":"noteOff"},{"deltaTime":1,"type":"meta","subtype":"setTempo","microsecondsPerBeat":750002},{"deltaTime":0,"channel":0,"type":"channel","noteNumber":95,"velocity":112,"subtype":"noteOn"},{"deltaTime":119,"channel":0,"type":"channel","noteNumber":95,"velocity":0,"subtype":"noteOff"},{"deltaTime":1,"channel":0,"type":"channel","noteNumber":94,"velocity":112,"subtype":"noteOn"},{"deltaTime":119,"channel":0,"type":"channel","noteNumber":94,"velocity":0,"subtype":"noteOff"},{"deltaTime":1,"channel":0,"type":"channel","noteNumber":96,"velocity":112,"subtype":"noteOn"},{"deltaTime":119,"channel":0,"type":"channel","noteNumber":96,"velocity":0,"subtype":"noteOff"},{"deltaTime":1,"channel":0,"type":"channel","noteNumber":93,"velocity":112,"subtype":"noteOn"},{"deltaTime":119,"channel":0,"type":"channel","noteNumber":93,"velocity":0,"subtype":"noteOff"},{"deltaTime":1,"type":"meta","subtype":"setTempo","microsecondsPerBeat":666667},{"deltaTime":0,"channel":0,"type":"channel","noteNumber":95,"velocity":112,"subtype":"noteOn"},{"deltaTime":119,"channel":0,"type":"channel","noteNumber":95,"velocity":0,"subtype":"noteOff"},{"deltaTime":1,"channel":0,"type":"channel","noteNumber":94,"velocity":112,"subtype":"noteOn"},{"deltaTime":119,"channel":0,"type":"channel","noteNumber":94,"velocity":0,"subtype":"noteOff"},{"deltaTime":1,"channel":0,"type":"channel","noteNumber":96,"velocity":112,"subtype":"noteOn"},{"deltaTime":119,"channel":0,"type":"channel","noteNumber":96,"velocity":0,"subtype":"noteOff"},{"deltaTime":1,"channel":0,"type":"channel","noteNumber":93,"velocity":112,"subtype":"noteOn"},{"deltaTime":119,"channel":0,"type":"channel","noteNumber":93,"velocity":0,"subtype":"noteOff"},{"deltaTime":1,"type":"meta","subtype":"setTempo","microsecondsPerBeat":599999},{"deltaTime":0,"channel":0,"type":"channel","noteNumber":95,"velocity":112,"subtype":"noteOn"},{"deltaTime":119,"channel":0,"type":"channel","noteNumber":95,"velocity":0,"subtype":"noteOff"},{"deltaTime":1,"channel":0,"type":"channel","noteNumber":94,"velocity":112,"subtype":"noteOn"},{"deltaTime":119,"channel":0,"type":"channel","noteNumber":94,"velocity":0,"subtype":"noteOff"},{"deltaTime":1,"channel":0,"type":"channel","noteNumber":96,"velocity":112,"subtype":"noteOn"},{"deltaTime":119,"channel":0,"type":"channel","noteNumber":96,"velocity":0,"subtype":"noteOff"},{"deltaTime":1,"channel":0,"type":"channel","noteNumber":93,"velocity":112,"subtype":"noteOn"},{"deltaTime":119,"channel":0,"type":"channel","noteNumber":93,"velocity":0,"subtype":"noteOff"},{"deltaTime":1,"type":"meta","subtype":"setTempo","microsecondsPerBeat":545456},{"deltaTime":0,"channel":0,"type":"channel","noteNumber":95,"velocity":112,"subtype":"noteOn"},{"deltaTime":119,"channel":0,"type":"channel","noteNumber":95,"velocity":0,"subtype":"noteOff"},{"deltaTime":1,"channel":0,"type":"channel","noteNumber":94,"velocity":112,"subtype":"noteOn"},{"deltaTime":119,"channel":0,"type":"channel","noteNumber":94,"velocity":0,"subtype":"noteOff"},{"deltaTime":1,"channel":0,"type":"channel","noteNumber":96,"velocity":112,"subtype":"noteOn"},{"deltaTime":119,"channel":0,"type":"channel","noteNumber":96,"velocity":0,"subtype":"noteOff"},{"deltaTime":1,"channel":0,"type":"channel","noteNumber":93,"velocity":112,"subtype":"noteOn"},{"deltaTime":119,"channel":0,"type":"channel","noteNumber":93,"velocity":0,"subtype":"noteOff"},{"deltaTime":1,"type":"meta","subtype":"setTempo","microsecondsPerBeat":500000},{"deltaTime":0,"channel":0,"type":"channel","noteNumber":95,"velocity":112,"subtype":"noteOn"},{"deltaTime":119,"channel":0,"type":"channel","noteNumber":95,"velocity":0,"subtype":"noteOff"},{"deltaTime":1,"channel":0,"type":"channel","noteNumber":94,"velocity":112,"subtype":"noteOn"},{"deltaTime":119,"channel":0,"type":"channel","noteNumber":94,"velocity":0,"subtype":"noteOff"},{"deltaTime":1,"channel":0,"type":"channel","noteNumber":96,"velocity":112,"subtype":"noteOn"},{"deltaTime":119,"channel":0,"type":"channel","noteNumber":96,"velocity":0,"subtype":"noteOff"},{"deltaTime":1,"channel":0,"type":"channel","noteNumber":93,"velocity":112,"subtype":"noteOn"},{"deltaTime":119,"channel":0,"type":"channel","noteNumber":93,"velocity":0,"subtype":"noteOff"},{"deltaTime":1,"type":"meta","subtype":"setTempo","microsecondsPerBeat":461538},{"deltaTime":0,"channel":0,"type":"channel","noteNumber":95,"velocity":112,"subtype":"noteOn"},{"deltaTime":119,"channel":0,"type":"channel","noteNumber":95,"velocity":0,"subtype":"noteOff"},{"deltaTime":1,"channel":0,"type":"channel","noteNumber":94,"velocity":112,"subtype":"noteOn"},{"deltaTime":119,"channel":0,"type":"channel","noteNumber":94,"velocity":0,"subtype":"noteOff"},{"deltaTime":1,"channel":0,"type":"channel","noteNumber":96,"velocity":112,"subtype":"noteOn"},{"deltaTime":119,"channel":0,"type":"channel","noteNumber":96,"velocity":0,"subtype":"noteOff"},{"deltaTime":1,"channel":0,"type":"channel","noteNumber":93,"velocity":112,"subtype":"noteOn"},{"deltaTime":119,"channel":0,"type":"channel","noteNumber":93,"velocity":0,"subtype":"noteOff"},{"deltaTime":1,"type":"meta","subtype":"setTempo","microsecondsPerBeat":428572},{"deltaTime":0,"channel":0,"type":"channel","noteNumber":95,"velocity":112,"subtype":"noteOn"},{"deltaTime":119,"channel":0,"type":"channel","noteNumber":95,"velocity":0,"subtype":"noteOff"},{"deltaTime":1,"channel":0,"type":"channel","noteNumber":94,"velocity":112,"subtype":"noteOn"},{"deltaTime":119,"channel":0,"type":"channel","noteNumber":94,"velocity":0,"subtype":"noteOff"},{"deltaTime":1,"channel":0,"type":"channel","noteNumber":96,"velocity":112,"subtype":"noteOn"},{"deltaTime":119,"channel":0,"type":"channel","noteNumber":96,"velocity":0,"subtype":"noteOff"},{"deltaTime":1,"channel":0,"type":"channel","noteNumber":93,"velocity":112,"subtype":"noteOn"},{"deltaTime":119,"channel":0,"type":"channel","noteNumber":93,"velocity":0,"subtype":"noteOff"},{"deltaTime":1,"type":"meta","subtype":"setTempo","microsecondsPerBeat":400000},{"deltaTime":0,"channel":0,"type":"channel","noteNumber":95,"velocity":112,"subtype":"noteOn"},{"deltaTime":119,"channel":0,"type":"channel","noteNumber":95,"velocity":0,"subtype":"noteOff"},{"deltaTime":1,"channel":0,"type":"channel","noteNumber":94,"velocity":112,"subtype":"noteOn"},{"deltaTime":119,"channel":0,"type":"channel","noteNumber":94,"velocity":0,"subtype":"noteOff"},{"deltaTime":1,"channel":0,"type":"channel","noteNumber":96,"velocity":112,"subtype":"noteOn"},{"deltaTime":119,"channel":0,"type":"channel","noteNumber":96,"velocity":0,"subtype":"noteOff"},{"deltaTime":1,"channel":0,"type":"channel","noteNumber":93,"velocity":112,"subtype":"noteOn"},{"deltaTime":119,"channel":0,"type":"channel","noteNumber":93,"velocity":0,"subtype":"noteOff"},{"deltaTime":1,"type":"meta","subtype":"setTempo","microsecondsPerBeat":375000},{"deltaTime":0,"channel":0,"type":"channel","noteNumber":95,"velocity":112,"subtype":"noteOn"},{"deltaTime":119,"channel":0,"type":"channel","noteNumber":95,"velocity":0,"subtype":"noteOff"},{"deltaTime":1,"channel":0,"type":"channel","noteNumber":94,"velocity":112,"subtype":"noteOn"},{"deltaTime":119,"channel":0,"type":"channel","noteNumber":94,"velocity":0,"subtype":"noteOff"},{"deltaTime":1,"channel":0,"type":"channel","noteNumber":96,"velocity":112,"subtype":"noteOn"},{"deltaTime":119,"channel":0,"type":"channel","noteNumber":96,"velocity":0,"subtype":"noteOff"},{"deltaTime":1,"channel":0,"type":"channel","noteNumber":93,"velocity":112,"subtype":"noteOn"},{"deltaTime":119,"channel":0,"type":"channel","noteNumber":93,"velocity":0,"subtype":"noteOff"},{"deltaTime":1,"type":"meta","subtype":"setTempo","microsecondsPerBeat":400000},{"deltaTime":0,"channel":0,"type":"channel","noteNumber":95,"velocity":112,"subtype":"noteOn"},{"deltaTime":119,"channel":0,"type":"channel","noteNumber":95,"velocity":0,"subtype":"noteOff"},{"deltaTime":1,"channel":0,"type":"channel","noteNumber":94,"velocity":112,"subtype":"noteOn"},{"deltaTime":119,"channel":0,"type":"channel","noteNumber":94,"velocity":0,"subtype":"noteOff"},{"deltaTime":1,"channel":0,"type":"channel","noteNumber":96,"velocity":112,"subtype":"noteOn"},{"deltaTime":119,"channel":0,"type":"channel","noteNumber":96,"velocity":0,"subtype":"noteOff"},{"deltaTime":1,"type":"meta","subtype":"setTempo","microsecondsPerBeat":454545},{"deltaTime":0,"channel":0,"type":"channel","noteNumber":93,"velocity":112,"subtype":"noteOn"},{"deltaTime":119,"channel":0,"type":"channel","noteNumber":93,"velocity":0,"subtype":"noteOff"},{"deltaTime":1,"type":"meta","subtype":"setTempo","microsecondsPerBeat":461538},{"deltaTime":0,"channel":0,"type":"channel","noteNumber":95,"velocity":106,"subtype":"noteOn"},{"deltaTime":119,"channel":0,"type":"channel","noteNumber":95,"velocity":0,"subtype":"noteOff"},{"deltaTime":1,"channel":0,"type":"channel","noteNumber":94,"velocity":103,"subtype":"noteOn"},{"deltaTime":119,"channel":0,"type":"channel","noteNumber":94,"velocity":0,"subtype":"noteOff"},{"deltaTime":1,"channel":0,"type":"channel","noteNumber":96,"velocity":100,"subtype":"noteOn"},{"deltaTime":119,"channel":0,"type":"channel","noteNumber":96,"velocity":0,"subtype":"noteOff"},{"deltaTime":1,"channel":0,"type":"channel","noteNumber":93,"velocity":97,"subtype":"noteOn"},{"deltaTime":119,"channel":0,"type":"channel","noteNumber":93,"velocity":0,"subtype":"noteOff"},{"deltaTime":1,"type":"meta","subtype":"setTempo","microsecondsPerBeat":545456},{"deltaTime":0,"channel":0,"type":"channel","noteNumber":95,"velocity":94,"subtype":"noteOn"},{"deltaTime":119,"channel":0,"type":"channel","noteNumber":95,"velocity":0,"subtype":"noteOff"},{"deltaTime":1,"channel":0,"type":"channel","noteNumber":94,"velocity":91,"subtype":"noteOn"},{"deltaTime":119,"channel":0,"type":"channel","noteNumber":94,"velocity":0,"subtype":"noteOff"},{"deltaTime":1,"channel":0,"type":"channel","noteNumber":96,"velocity":88,"subtype":"noteOn"},{"deltaTime":119,"channel":0,"type":"channel","noteNumber":96,"velocity":0,"subtype":"noteOff"},{"deltaTime":1,"channel":0,"type":"channel","noteNumber":93,"velocity":85,"subtype":"noteOn"},{"deltaTime":119,"channel":0,"type":"channel","noteNumber":93,"velocity":0,"subtype":"noteOff"},{"deltaTime":1,"type":"meta","subtype":"timeSignature","numerator":10,"denominator":8,"metronome":24,"thirtyseconds":8},{"deltaTime":0,"type":"meta","subtype":"setTempo","microsecondsPerBeat":599999},{"deltaTime":0,"channel":0,"type":"channel","noteNumber":95,"velocity":82,"subtype":"noteOn"},{"deltaTime":119,"channel":0,"type":"channel","noteNumber":95,"velocity":0,"subtype":"noteOff"},{"deltaTime":1,"channel":0,"type":"channel","noteNumber":94,"velocity":79,"subtype":"noteOn"},{"deltaTime":119,"channel":0,"type":"channel","noteNumber":94,"velocity":0,"subtype":"noteOff"},{"deltaTime":1,"type":"meta","subtype":"setTempo","microsecondsPerBeat":750002},{"deltaTime":0,"channel":0,"type":"channel","noteNumber":98,"velocity":76,"subtype":"noteOn"},{"deltaTime":119,"channel":0,"type":"channel","noteNumber":98,"velocity":0,"subtype":"noteOff"},{"deltaTime":1,"channel":0,"type":"channel","noteNumber":96,"velocity":73,"subtype":"noteOn"},{"deltaTime":119,"channel":0,"type":"channel","noteNumber":96,"velocity":0,"subtype":"noteOff"},{"deltaTime":1,"type":"meta","subtype":"setTempo","microsecondsPerBeat":967745},{"deltaTime":0,"channel":0,"type":"channel","noteNumber":94,"velocity":69,"subtype":"noteOn"},{"deltaTime":119,"channel":0,"type":"channel","noteNumber":94,"velocity":0,"subtype":"noteOff"},{"deltaTime":1,"channel":0,"type":"channel","noteNumber":93,"velocity":66,"subtype":"noteOn"},{"deltaTime":119,"channel":0,"type":"channel","noteNumber":93,"velocity":0,"subtype":"noteOff"},{"deltaTime":1,"channel":0,"type":"channel","noteNumber":92,"velocity":63,"subtype":"noteOn"},{"deltaTime":119,"channel":0,"type":"channel","noteNumber":92,"velocity":0,"subtype":"noteOff"},{"deltaTime":1,"channel":0,"type":"channel","noteNumber":91,"velocity":60,"subtype":"noteOn"},{"deltaTime":119,"channel":0,"type":"channel","noteNumber":91,"velocity":0,"subtype":"noteOff"},{"deltaTime":1,"channel":0,"type":"channel","noteNumber":89,"velocity":57,"subtype":"noteOn"},{"deltaTime":119,"channel":0,"type":"channel","noteNumber":89,"velocity":0,"subtype":"noteOff"},{"deltaTime":1,"channel":0,"type":"channel","noteNumber":86,"velocity":54,"subtype":"noteOn"},{"deltaTime":119,"channel":0,"type":"channel","noteNumber":86,"velocity":0,"subtype":"noteOff"},{"deltaTime":1,"type":"meta","subtype":"setTempo","microsecondsPerBeat":1153846},{"deltaTime":0,"channel":0,"type":"channel","noteNumber":87,"velocity":51,"subtype":"noteOn"},{"deltaTime":119,"channel":0,"type":"channel","noteNumber":87,"velocity":0,"subtype":"noteOff"},{"deltaTime":1,"channel":0,"type":"channel","noteNumber":84,"velocity":48,"subtype":"noteOn"},{"deltaTime":119,"channel":0,"type":"channel","noteNumber":84,"velocity":0,"subtype":"noteOff"},{"deltaTime":1,"channel":0,"type":"channel","noteNumber":82,"velocity":45,"subtype":"noteOn"},{"deltaTime":239,"channel":0,"type":"channel","noteNumber":82,"velocity":0,"subtype":"noteOff"},{"deltaTime":1,"channel":0,"type":"channel","noteNumber":80,"velocity":42,"subtype":"noteOn"},{"deltaTime":239,"channel":0,"type":"channel","noteNumber":80,"velocity":0,"subtype":"noteOff"},{"deltaTime":1,"channel":0,"type":"channel","noteNumber":72,"velocity":39,"subtype":"noteOn"},{"deltaTime":239,"channel":0,"type":"channel","noteNumber":72,"velocity":0,"subtype":"noteOff"},{"deltaTime":1,"channel":0,"type":"channel","noteNumber":74,"velocity":36,"subtype":"noteOn"},{"deltaTime":239,"channel":0,"type":"channel","noteNumber":74,"velocity":0,"subtype":"noteOff"},{"deltaTime":1,"type":"meta","subtype":"timeSignature","numerator":12,"denominator":8,"metronome":24,"thirtyseconds":8},{"deltaTime":0,"type":"meta","subtype":"setTempo","microsecondsPerBeat":909091},{"deltaTime":0,"channel":0,"type":"channel","noteNumber":75,"velocity":33,"subtype":"noteOn"},{"deltaTime":0,"channel":0,"type":"channel","noteNumber":67,"velocity":33,"subtype":"noteOn"},{"deltaTime":239,"channel":0,"type":"channel","noteNumber":75,"velocity":0,"subtype":"noteOff"},{"deltaTime":0,"channel":0,"type":"channel","noteNumber":67,"velocity":0,"subtype":"noteOff"},{"deltaTime":1,"channel":0,"type":"channel","noteNumber":70,"velocity":33,"subtype":"noteOn"},{"deltaTime":239,"channel":0,"type":"channel","noteNumber":70,"velocity":0,"subtype":"noteOff"},{"deltaTime":1,"channel":0,"type":"channel","noteNumber":79,"velocity":33,"subtype":"noteOn"},{"deltaTime":239,"channel":0,"type":"channel","noteNumber":79,"velocity":0,"subtype":"noteOff"},{"deltaTime":1,"channel":0,"type":"channel","noteNumber":75,"velocity":33,"subtype":"noteOn"},{"deltaTime":0,"channel":0,"type":"channel","noteNumber":67,"velocity":33,"subtype":"noteOn"},{"deltaTime":239,"channel":0,"type":"channel","noteNumber":75,"velocity":0,"subtype":"noteOff"},{"deltaTime":0,"channel":0,"type":"channel","noteNumber":67,"velocity":0,"subtype":"noteOff"},{"deltaTime":1,"channel":0,"type":"channel","noteNumber":70,"velocity":33,"subtype":"noteOn"},{"deltaTime":239,"channel":0,"type":"channel","noteNumber":70,"velocity":0,"subtype":"noteOff"},{"deltaTime":1,"channel":0,"type":"channel","noteNumber":79,"velocity":33,"subtype":"noteOn"},{"deltaTime":239,"channel":0,"type":"channel","noteNumber":79,"velocity":0,"subtype":"noteOff"},{"deltaTime":1,"channel":0,"type":"channel","noteNumber":75,"velocity":33,"subtype":"noteOn"},{"deltaTime":0,"channel":0,"type":"channel","noteNumber":67,"velocity":33,"subtype":"noteOn"},{"deltaTime":239,"channel":0,"type":"channel","noteNumber":75,"velocity":0,"subtype":"noteOff"},{"deltaTime":0,"channel":0,"type":"channel","noteNumber":67,"velocity":0,"subtype":"noteOff"},{"deltaTime":1,"channel":0,"type":"channel","noteNumber":70,"velocity":33,"subtype":"noteOn"},{"deltaTime":239,"channel":0,"type":"channel","noteNumber":70,"velocity":0,"subtype":"noteOff"},{"deltaTime":1,"channel":0,"type":"channel","noteNumber":79,"velocity":33,"subtype":"noteOn"},{"deltaTime":239,"channel":0,"type":"channel","noteNumber":79,"velocity":0,"subtype":"noteOff"},{"deltaTime":1,"channel":0,"type":"channel","noteNumber":75,"velocity":33,"subtype":"noteOn"},{"deltaTime":0,"channel":0,"type":"channel","noteNumber":67,"velocity":33,"subtype":"noteOn"},{"deltaTime":239,"channel":0,"type":"channel","noteNumber":75,"velocity":0,"subtype":"noteOff"},{"deltaTime":0,"channel":0,"type":"channel","noteNumber":67,"velocity":0,"subtype":"noteOff"},{"deltaTime":1,"channel":0,"type":"channel","noteNumber":70,"velocity":33,"subtype":"noteOn"},{"deltaTime":239,"channel":0,"type":"channel","noteNumber":70,"velocity":0,"subtype":"noteOff"},{"deltaTime":1,"channel":0,"type":"channel","noteNumber":79,"velocity":33,"subtype":"noteOn"},{"deltaTime":239,"channel":0,"type":"channel","noteNumber":79,"velocity":0,"subtype":"noteOff"},{"deltaTime":1,"channel":0,"type":"channel","noteNumber":75,"velocity":16,"subtype":"noteOn"},{"deltaTime":0,"channel":0,"type":"channel","noteNumber":67,"velocity":16,"subtype":"noteOn"},{"deltaTime":719,"channel":0,"type":"channel","noteNumber":75,"velocity":0,"subtype":"noteOff"},{"deltaTime":0,"channel":0,"type":"channel","noteNumber":67,"velocity":0,"subtype":"noteOff"},{"deltaTime":1,"channel":0,"type":"channel","noteNumber":87,"velocity":16,"subtype":"noteOn"},{"deltaTime":0,"channel":0,"type":"channel","noteNumber":79,"velocity":16,"subtype":"noteOn"},{"deltaTime":719,"channel":0,"type":"channel","noteNumber":87,"velocity":0,"subtype":"noteOff"},{"deltaTime":0,"channel":0,"type":"channel","noteNumber":79,"velocity":0,"subtype":"noteOff"},{"deltaTime":1,"channel":0,"type":"channel","noteNumber":63,"velocity":16,"subtype":"noteOn"},{"deltaTime":0,"channel":0,"type":"channel","noteNumber":55,"velocity":16,"subtype":"noteOn"},{"deltaTime":1439,"channel":0,"type":"channel","noteNumber":63,"velocity":0,"subtype":"noteOff"},{"deltaTime":0,"channel":0,"type":"channel","noteNumber":55,"velocity":0,"subtype":"noteOff"},{"deltaTime":1,"type":"meta","subtype":"endOfTrack"}],[{"deltaTime":0,"channel":0,"type":"channel","noteNumber":39,"velocity":49,"subtype":"noteOn"},{"deltaTime":119,"channel":0,"type":"channel","noteNumber":39,"velocity":0,"subtype":"noteOff"},{"deltaTime":121,"channel":0,"type":"channel","noteNumber":63,"velocity":49,"subtype":"noteOn"},{"deltaTime":0,"channel":0,"type":"channel","noteNumber":55,"velocity":49,"subtype":"noteOn"},{"deltaTime":239,"channel":0,"type":"channel","noteNumber":63,"velocity":0,"subtype":"noteOff"},{"deltaTime":0,"channel":0,"type":"channel","noteNumber":55,"velocity":0,"subtype":"noteOff"},{"deltaTime":1,"channel":0,"type":"channel","noteNumber":67,"velocity":49,"subtype":"noteOn"},{"deltaTime":0,"channel":0,"type":"channel","noteNumber":63,"velocity":49,"subtype":"noteOn"},{"deltaTime":0,"channel":0,"type":"channel","noteNumber":58,"velocity":49,"subtype":"noteOn"},{"deltaTime":239,"channel":0,"type":"channel","subtype":"controller","controllerType":64,"value":0},{"deltaTime":0,"channel":0,"type":"channel","noteNumber":67,"velocity":0,"subtype":"noteOff"},{"deltaTime":0,"channel":0,"type":"channel","noteNumber":63,"velocity":0,"subtype":"noteOff"},{"deltaTime":0,"channel":0,"type":"channel","noteNumber":58,"velocity":0,"subtype":"noteOff"},{"deltaTime":1,"channel":0,"type":"channel","subtype":"controller","controllerType":64,"value":127},{"deltaTime":0,"channel":0,"type":"channel","noteNumber":51,"velocity":49,"subtype":"noteOn"},{"deltaTime":119,"channel":0,"type":"channel","noteNumber":51,"velocity":0,"subtype":"noteOff"},{"deltaTime":121,"channel":0,"type":"channel","noteNumber":62,"velocity":49,"subtype":"noteOn"},{"deltaTime":0,"channel":0,"type":"channel","noteNumber":56,"velocity":49,"subtype":"noteOn"},{"deltaTime":239,"channel":0,"type":"channel","noteNumber":62,"velocity":0,"subtype":"noteOff"},{"deltaTime":0,"channel":0,"type":"channel","noteNumber":56,"velocity":0,"subtype":"noteOff"},{"deltaTime":1,"channel":0,"type":"channel","noteNumber":68,"velocity":49,"subtype":"noteOn"},{"deltaTime":0,"channel":0,"type":"channel","noteNumber":62,"velocity":49,"subtype":"noteOn"},{"deltaTime":0,"channel":0,"type":"channel","noteNumber":59,"velocity":49,"subtype":"noteOn"},{"deltaTime":239,"channel":0,"type":"channel","subtype":"controller","controllerType":64,"value":0},{"deltaTime":0,"channel":0,"type":"channel","noteNumber":68,"velocity":0,"subtype":"noteOff"},{"deltaTime":0,"channel":0,"type":"channel","noteNumber":62,"velocity":0,"subtype":"noteOff"},{"deltaTime":0,"channel":0,"type":"channel","noteNumber":59,"velocity":0,"subtype":"noteOff"},{"deltaTime":1,"channel":0,"type":"channel","subtype":"controller","controllerType":64,"value":127},{"deltaTime":0,"channel":0,"type":"channel","noteNumber":39,"velocity":49,"subtype":"noteOn"},{"deltaTime":119,"channel":0,"type":"channel","noteNumber":39,"velocity":0,"subtype":"noteOff"},{"deltaTime":121,"channel":0,"type":"channel","noteNumber":63,"velocity":49,"subtype":"noteOn"},{"deltaTime":0,"channel":0,"type":"channel","noteNumber":55,"velocity":49,"subtype":"noteOn"},{"deltaTime":239,"channel":0,"type":"channel","noteNumber":63,"velocity":0,"subtype":"noteOff"},{"deltaTime":0,"channel":0,"type":"channel","noteNumber":55,"velocity":0,"subtype":"noteOff"},{"deltaTime":1,"channel":0,"type":"channel","noteNumber":67,"velocity":49,"subtype":"noteOn"},{"deltaTime":0,"channel":0,"type":"channel","noteNumber":63,"velocity":49,"subtype":"noteOn"},{"deltaTime":0,"channel":0,"type":"channel","noteNumber":58,"velocity":49,"subtype":"noteOn"},{"deltaTime":239,"channel":0,"type":"channel","noteNumber":67,"velocity":0,"subtype":"noteOff"},{"deltaTime":0,"channel":0,"type":"channel","noteNumber":63,"velocity":0,"subtype":"noteOff"},{"deltaTime":0,"channel":0,"type":"channel","noteNumber":58,"velocity":0,"subtype":"noteOff"},{"deltaTime":1,"channel":0,"type":"channel","subtype":"controller","controllerType":64,"value":127},{"deltaTime":0,"channel":0,"type":"channel","noteNumber":38,"velocity":49,"subtype":"noteOn"},{"deltaTime":119,"channel":0,"type":"channel","noteNumber":38,"velocity":0,"subtype":"noteOff"},{"deltaTime":120,"channel":0,"type":"channel","subtype":"controller","controllerType":64,"value":0},{"deltaTime":1,"channel":0,"type":"channel","noteNumber":63,"velocity":49,"subtype":"noteOn"},{"deltaTime":0,"channel":0,"type":"channel","noteNumber":55,"velocity":49,"subtype":"noteOn"},{"deltaTime":239,"channel":0,"type":"channel","noteNumber":63,"velocity":0,"subtype":"noteOff"},{"deltaTime":0,"channel":0,"type":"channel","noteNumber":55,"velocity":0,"subtype":"noteOff"},{"deltaTime":1,"channel":0,"type":"channel","noteNumber":67,"velocity":49,"subtype":"noteOn"},{"deltaTime":0,"channel":0,"type":"channel","noteNumber":63,"velocity":49,"subtype":"noteOn"},{"deltaTime":0,"channel":0,"type":"channel","noteNumber":58,"velocity":49,"subtype":"noteOn"},{"deltaTime":239,"channel":0,"type":"channel","subtype":"controller","controllerType":64,"value":0},{"deltaTime":0,"channel":0,"type":"channel","noteNumber":67,"velocity":0,"subtype":"noteOff"},{"deltaTime":0,"channel":0,"type":"channel","noteNumber":63,"velocity":0,"subtype":"noteOff"},{"deltaTime":0,"channel":0,"type":"channel","noteNumber":58,"velocity":0,"subtype":"noteOff"},{"deltaTime":1,"channel":0,"type":"channel","subtype":"controller","controllerType":64,"value":127},{"deltaTime":0,"channel":0,"type":"channel","noteNumber":36,"velocity":49,"subtype":"noteOn"},{"deltaTime":239,"channel":0,"type":"channel","noteNumber":36,"velocity":0,"subtype":"noteOff"},{"deltaTime":1,"channel":0,"type":"channel","noteNumber":64,"velocity":49,"subtype":"noteOn"},{"deltaTime":0,"channel":0,"type":"channel","noteNumber":55,"velocity":49,"subtype":"noteOn"},{"deltaTime":239,"channel":0,"type":"channel","noteNumber":64,"velocity":0,"subtype":"noteOff"},{"deltaTime":0,"channel":0,"type":"channel","noteNumber":55,"velocity":0,"subtype":"noteOff"},{"deltaTime":1,"channel":0,"type":"channel","noteNumber":67,"velocity":49,"subtype":"noteOn"},{"deltaTime":0,"channel":0,"type":"channel","noteNumber":64,"velocity":49,"subtype":"noteOn"},{"deltaTime":0,"channel":0,"type":"channel","noteNumber":58,"velocity":49,"subtype":"noteOn"},{"deltaTime":239,"channel":0,"type":"channel","subtype":"controller","controllerType":64,"value":0},{"deltaTime":0,"channel":0,"type":"channel","noteNumber":67,"velocity":0,"subtype":"noteOff"},{"deltaTime":0,"channel":0,"type":"channel","noteNumber":64,"velocity":0,"subtype":"noteOff"},{"deltaTime":0,"channel":0,"type":"channel","noteNumber":58,"velocity":0,"subtype":"noteOff"},{"deltaTime":1,"channel":0,"type":"channel","subtype":"controller","controllerType":64,"value":127},{"deltaTime":0,"channel":0,"type":"channel","noteNumber":48,"velocity":49,"subtype":"noteOn"},{"deltaTime":239,"channel":0,"type":"channel","noteNumber":48,"velocity":0,"subtype":"noteOff"},{"deltaTime":1,"channel":0,"type":"channel","noteNumber":64,"velocity":49,"subtype":"noteOn"},{"deltaTime":0,"channel":0,"type":"channel","noteNumber":56,"velocity":49,"subtype":"noteOn"},{"deltaTime":239,"channel":0,"type":"channel","noteNumber":64,"velocity":0,"subtype":"noteOff"},{"deltaTime":0,"channel":0,"type":"channel","noteNumber":56,"velocity":0,"subtype":"noteOff"},{"deltaTime":1,"channel":0,"type":"channel","noteNumber":70,"velocity":49,"subtype":"noteOn"},{"deltaTime":0,"channel":0,"type":"channel","noteNumber":64,"velocity":49,"subtype":"noteOn"},{"deltaTime":0,"channel":0,"type":"channel","noteNumber":60,"velocity":49,"subtype":"noteOn"},{"deltaTime":239,"channel":0,"type":"channel","subtype":"controller","controllerType":64,"value":0},{"deltaTime":0,"channel":0,"type":"channel","noteNumber":70,"velocity":0,"subtype":"noteOff"},{"deltaTime":0,"channel":0,"type":"channel","noteNumber":64,"velocity":0,"subtype":"noteOff"},{"deltaTime":0,"channel":0,"type":"channel","noteNumber":60,"velocity":0,"subtype":"noteOff"},{"deltaTime":1,"channel":0,"type":"channel","subtype":"controller","controllerType":64,"value":127},{"deltaTime":0,"channel":0,"type":"channel","noteNumber":41,"velocity":49,"subtype":"noteOn"},{"deltaTime":239,"channel":0,"type":"channel","noteNumber":41,"velocity":0,"subtype":"noteOff"},{"deltaTime":1,"channel":0,"type":"channel","noteNumber":61,"velocity":49,"subtype":"noteOn"},{"deltaTime":0,"channel":0,"type":"channel","noteNumber":53,"velocity":49,"subtype":"noteOn"},{"deltaTime":239,"channel":0,"type":"channel","noteNumber":61,"velocity":0,"subtype":"noteOff"},{"deltaTime":0,"channel":0,"type":"channel","noteNumber":53,"velocity":0,"subtype":"noteOff"},{"deltaTime":1,"channel":0,"type":"channel","noteNumber":64,"velocity":49,"subtype":"noteOn"},{"deltaTime":0,"channel":0,"type":"channel","noteNumber":61,"velocity":49,"subtype":"noteOn"},{"deltaTime":0,"channel":0,"type":"channel","noteNumber":58,"velocity":49,"subtype":"noteOn"},{"deltaTime":239,"channel":0,"type":"channel","subtype":"controller","controllerType":64,"value":0},{"deltaTime":0,"channel":0,"type":"channel","noteNumber":64,"velocity":0,"subtype":"noteOff"},{"deltaTime":0,"channel":0,"type":"channel","noteNumber":61,"velocity":0,"subtype":"noteOff"},{"deltaTime":0,"channel":0,"type":"channel","noteNumber":58,"velocity":0,"subtype":"noteOff"},{"deltaTime":1,"channel":0,"type":"channel","subtype":"controller","controllerType":64,"value":127},{"deltaTime":0,"channel":0,"type":"channel","noteNumber":41,"velocity":49,"subtype":"noteOn"},{"deltaTime":239,"channel":0,"type":"channel","noteNumber":41,"velocity":0,"subtype":"noteOff"},{"deltaTime":1,"channel":0,"type":"channel","noteNumber":60,"velocity":49,"subtype":"noteOn"},{"deltaTime":0,"channel":0,"type":"channel","noteNumber":53,"velocity":49,"subtype":"noteOn"},{"deltaTime":239,"channel":0,"type":"channel","noteNumber":60,"velocity":0,"subtype":"noteOff"},{"deltaTime":0,"channel":0,"type":"channel","noteNumber":53,"velocity":0,"subtype":"noteOff"},{"deltaTime":1,"channel":0,"type":"channel","noteNumber":65,"velocity":49,"subtype":"noteOn"},{"deltaTime":0,"channel":0,"type":"channel","noteNumber":60,"velocity":49,"subtype":"noteOn"},{"deltaTime":0,"channel":0,"type":"channel","noteNumber":56,"velocity":49,"subtype":"noteOn"},{"deltaTime":239,"channel":0,"type":"channel","subtype":"controller","controllerType":64,"value":0},{"deltaTime":0,"channel":0,"type":"channel","noteNumber":65,"velocity":0,"subtype":"noteOff"},{"deltaTime":0,"channel":0,"type":"channel","noteNumber":60,"velocity":0,"subtype":"noteOff"},{"deltaTime":0,"channel":0,"type":"channel","noteNumber":56,"velocity":0,"subtype":"noteOff"},{"deltaTime":1,"channel":0,"type":"channel","subtype":"controller","controllerType":64,"value":127},{"deltaTime":0,"channel":0,"type":"channel","noteNumber":46,"velocity":49,"subtype":"noteOn"},{"deltaTime":239,"channel":0,"type":"channel","noteNumber":46,"velocity":0,"subtype":"noteOff"},{"deltaTime":1,"channel":0,"type":"channel","noteNumber":62,"velocity":49,"subtype":"noteOn"},{"deltaTime":0,"channel":0,"type":"channel","noteNumber":53,"velocity":49,"subtype":"noteOn"},{"deltaTime":239,"channel":0,"type":"channel","noteNumber":62,"velocity":0,"subtype":"noteOff"},{"deltaTime":0,"channel":0,"type":"channel","noteNumber":53,"velocity":0,"subtype":"noteOff"},{"deltaTime":1,"channel":0,"type":"channel","noteNumber":68,"velocity":49,"subtype":"noteOn"},{"deltaTime":0,"channel":0,"type":"channel","noteNumber":62,"velocity":49,"subtype":"noteOn"},{"deltaTime":0,"channel":0,"type":"channel","noteNumber":58,"velocity":49,"subtype":"noteOn"},{"deltaTime":239,"channel":0,"type":"channel","subtype":"controller","controllerType":64,"value":0},{"deltaTime":0,"channel":0,"type":"channel","noteNumber":68,"velocity":0,"subtype":"noteOff"},{"deltaTime":0,"channel":0,"type":"channel","noteNumber":62,"velocity":0,"subtype":"noteOff"},{"deltaTime":0,"channel":0,"type":"channel","noteNumber":58,"velocity":0,"subtype":"noteOff"},{"deltaTime":1,"channel":0,"type":"channel","subtype":"controller","controllerType":64,"value":127},{"deltaTime":0,"channel":0,"type":"channel","noteNumber":47,"velocity":49,"subtype":"noteOn"},{"deltaTime":239,"channel":0,"type":"channel","noteNumber":47,"velocity":0,"subtype":"noteOff"},{"deltaTime":1,"channel":0,"type":"channel","noteNumber":65,"velocity":49,"subtype":"noteOn"},{"deltaTime":0,"channel":0,"type":"channel","noteNumber":55,"velocity":49,"subtype":"noteOn"},{"deltaTime":239,"channel":0,"type":"channel","noteNumber":65,"velocity":0,"subtype":"noteOff"},{"deltaTime":0,"channel":0,"type":"channel","noteNumber":55,"velocity":0,"subtype":"noteOff"},{"deltaTime":1,"channel":0,"type":"channel","noteNumber":67,"velocity":49,"subtype":"noteOn"},{"deltaTime":0,"channel":0,"type":"channel","noteNumber":65,"velocity":49,"subtype":"noteOn"},{"deltaTime":0,"channel":0,"type":"channel","noteNumber":62,"velocity":49,"subtype":"noteOn"},{"deltaTime":239,"channel":0,"type":"channel","subtype":"controller","controllerType":64,"value":0},{"deltaTime":0,"channel":0,"type":"channel","noteNumber":67,"velocity":0,"subtype":"noteOff"},{"deltaTime":0,"channel":0,"type":"channel","noteNumber":65,"velocity":0,"subtype":"noteOff"},{"deltaTime":0,"channel":0,"type":"channel","noteNumber":62,"velocity":0,"subtype":"noteOff"},{"deltaTime":1,"channel":0,"type":"channel","subtype":"controller","controllerType":64,"value":127},{"deltaTime":0,"channel":0,"type":"channel","noteNumber":48,"velocity":49,"subtype":"noteOn"},{"deltaTime":239,"channel":0,"type":"channel","noteNumber":48,"velocity":0,"subtype":"noteOff"},{"deltaTime":1,"channel":0,"type":"channel","noteNumber":63,"velocity":49,"subtype":"noteOn"},{"deltaTime":0,"channel":0,"type":"channel","noteNumber":55,"velocity":49,"subtype":"noteOn"},{"deltaTime":239,"channel":0,"type":"channel","noteNumber":63,"velocity":0,"subtype":"noteOff"},{"deltaTime":0,"channel":0,"type":"channel","noteNumber":55,"velocity":0,"subtype":"noteOff"},{"deltaTime":1,"channel":0,"type":"channel","noteNumber":67,"velocity":49,"subtype":"noteOn"},{"deltaTime":0,"channel":0,"type":"channel","noteNumber":63,"velocity":49,"subtype":"noteOn"},{"deltaTime":0,"channel":0,"type":"channel","noteNumber":60,"velocity":49,"subtype":"noteOn"},{"deltaTime":239,"channel":0,"type":"channel","subtype":"controller","controllerType":64,"value":0},{"deltaTime":0,"channel":0,"type":"channel","noteNumber":67,"velocity":0,"subtype":"noteOff"},{"deltaTime":0,"channel":0,"type":"channel","noteNumber":63,"velocity":0,"subtype":"noteOff"},{"deltaTime":0,"channel":0,"type":"channel","noteNumber":60,"velocity":0,"subtype":"noteOff"},{"deltaTime":1,"channel":0,"type":"channel","subtype":"controller","controllerType":64,"value":127},{"deltaTime":0,"channel":0,"type":"channel","noteNumber":45,"velocity":49,"subtype":"noteOn"},{"deltaTime":239,"channel":0,"type":"channel","noteNumber":45,"velocity":0,"subtype":"noteOff"},{"deltaTime":1,"channel":0,"type":"channel","noteNumber":63,"velocity":49,"subtype":"noteOn"},{"deltaTime":0,"channel":0,"type":"channel","noteNumber":54,"velocity":49,"subtype":"noteOn"},{"deltaTime":239,"channel":0,"type":"channel","noteNumber":63,"velocity":0,"subtype":"noteOff"},{"deltaTime":0,"channel":0,"type":"channel","noteNumber":54,"velocity":0,"subtype":"noteOff"},{"deltaTime":1,"channel":0,"type":"channel","noteNumber":66,"velocity":49,"subtype":"noteOn"},{"deltaTime":0,"channel":0,"type":"channel","noteNumber":63,"velocity":49,"subtype":"noteOn"},{"deltaTime":0,"channel":0,"type":"channel","noteNumber":60,"velocity":49,"subtype":"noteOn"},{"deltaTime":239,"channel":0,"type":"channel","subtype":"controller","controllerType":64,"value":0},{"deltaTime":0,"channel":0,"type":"channel","noteNumber":66,"velocity":0,"subtype":"noteOff"},{"deltaTime":0,"channel":0,"type":"channel","noteNumber":63,"velocity":0,"subtype":"noteOff"},{"deltaTime":0,"channel":0,"type":"channel","noteNumber":60,"velocity":0,"subtype":"noteOff"},{"deltaTime":1,"channel":0,"type":"channel","subtype":"controller","controllerType":64,"value":127},{"deltaTime":0,"channel":0,"type":"channel","noteNumber":46,"velocity":96,"subtype":"noteOn"},{"deltaTime":239,"channel":0,"type":"channel","noteNumber":46,"velocity":0,"subtype":"noteOff"},{"deltaTime":1,"channel":0,"type":"channel","noteNumber":63,"velocity":96,"subtype":"noteOn"},{"deltaTime":0,"channel":0,"type":"channel","noteNumber":53,"velocity":96,"subtype":"noteOn"},{"deltaTime":239,"channel":0,"type":"channel","noteNumber":63,"velocity":0,"subtype":"noteOff"},{"deltaTime":0,"channel":0,"type":"channel","noteNumber":53,"velocity":0,"subtype":"noteOff"},{"deltaTime":1,"channel":0,"type":"channel","noteNumber":68,"velocity":96,"subtype":"noteOn"},{"deltaTime":0,"channel":0,"type":"channel","noteNumber":63,"velocity":96,"subtype":"noteOn"},{"deltaTime":0,"channel":0,"type":"channel","noteNumber":58,"velocity":96,"subtype":"noteOn"},{"deltaTime":239,"channel":0,"type":"channel","subtype":"controller","controllerType":64,"value":0},{"deltaTime":0,"channel":0,"type":"channel","noteNumber":68,"velocity":0,"subtype":"noteOff"},{"deltaTime":0,"channel":0,"type":"channel","noteNumber":63,"velocity":0,"subtype":"noteOff"},{"deltaTime":0,"channel":0,"type":"channel","noteNumber":58,"velocity":0,"subtype":"noteOff"},{"deltaTime":1,"channel":0,"type":"channel","subtype":"controller","controllerType":64,"value":127},{"deltaTime":0,"channel":0,"type":"channel","noteNumber":34,"velocity":96,"subtype":"noteOn"},{"deltaTime":239,"channel":0,"type":"channel","noteNumber":34,"velocity":0,"subtype":"noteOff"},{"deltaTime":1,"channel":0,"type":"channel","noteNumber":62,"velocity":96,"subtype":"noteOn"},{"deltaTime":0,"channel":0,"type":"channel","noteNumber":53,"velocity":96,"subtype":"noteOn"},{"deltaTime":239,"channel":0,"type":"channel","noteNumber":62,"velocity":0,"subtype":"noteOff"},{"deltaTime":0,"channel":0,"type":"channel","noteNumber":53,"velocity":0,"subtype":"noteOff"},{"deltaTime":1,"channel":0,"type":"channel","noteNumber":68,"velocity":96,"subtype":"noteOn"},{"deltaTime":0,"channel":0,"type":"channel","noteNumber":58,"velocity":96,"subtype":"noteOn"},{"deltaTime":239,"channel":0,"type":"channel","subtype":"controller","controllerType":64,"value":0},{"deltaTime":0,"channel":0,"type":"channel","noteNumber":68,"velocity":0,"subtype":"noteOff"},{"deltaTime":0,"channel":0,"type":"channel","noteNumber":58,"velocity":0,"subtype":"noteOff"},{"deltaTime":1,"channel":0,"type":"channel","subtype":"controller","controllerType":64,"value":127},{"deltaTime":0,"channel":0,"type":"channel","noteNumber":39,"velocity":96,"subtype":"noteOn"},{"deltaTime":239,"channel":0,"type":"channel","noteNumber":39,"velocity":0,"subtype":"noteOff"},{"deltaTime":1,"channel":0,"type":"channel","noteNumber":63,"velocity":96,"subtype":"noteOn"},{"deltaTime":0,"channel":0,"type":"channel","noteNumber":55,"velocity":96,"subtype":"noteOn"},{"deltaTime":239,"channel":0,"type":"channel","noteNumber":63,"velocity":0,"subtype":"noteOff"},{"deltaTime":0,"channel":0,"type":"channel","noteNumber":55,"velocity":0,"subtype":"noteOff"},{"deltaTime":1,"channel":0,"type":"channel","noteNumber":67,"velocity":96,"subtype":"noteOn"},{"deltaTime":0,"channel":0,"type":"channel","noteNumber":63,"velocity":96,"subtype":"noteOn"},{"deltaTime":0,"channel":0,"type":"channel","noteNumber":58,"velocity":96,"subtype":"noteOn"},{"deltaTime":239,"channel":0,"type":"channel","noteNumber":67,"velocity":0,"subtype":"noteOff"},{"deltaTime":0,"channel":0,"type":"channel","noteNumber":63,"velocity":0,"subtype":"noteOff"},{"deltaTime":0,"channel":0,"type":"channel","noteNumber":58,"velocity":0,"subtype":"noteOff"},{"deltaTime":1,"channel":0,"type":"channel","noteNumber":51,"velocity":96,"subtype":"noteOn"},{"deltaTime":239,"channel":0,"type":"channel","noteNumber":51,"velocity":0,"subtype":"noteOff"},{"deltaTime":1,"channel":0,"type":"channel","noteNumber":63,"velocity":96,"subtype":"noteOn"},{"deltaTime":0,"channel":0,"type":"channel","noteNumber":55,"velocity":96,"subtype":"noteOn"},{"deltaTime":239,"channel":0,"type":"channel","noteNumber":63,"velocity":0,"subtype":"noteOff"},{"deltaTime":0,"channel":0,"type":"channel","noteNumber":55,"velocity":0,"subtype":"noteOff"},{"deltaTime":1,"channel":0,"type":"channel","noteNumber":67,"velocity":49,"subtype":"noteOn"},{"deltaTime":0,"channel":0,"type":"channel","noteNumber":63,"velocity":49,"subtype":"noteOn"},{"deltaTime":0,"channel":0,"type":"channel","noteNumber":58,"velocity":49,"subtype":"noteOn"},{"deltaTime":239,"channel":0,"type":"channel","noteNumber":67,"velocity":0,"subtype":"noteOff"},{"deltaTime":0,"channel":0,"type":"channel","noteNumber":63,"velocity":0,"subtype":"noteOff"},{"deltaTime":0,"channel":0,"type":"channel","noteNumber":58,"velocity":0,"subtype":"noteOff"},{"deltaTime":1,"channel":0,"type":"channel","noteNumber":51,"velocity":49,"subtype":"noteOn"},{"deltaTime":239,"channel":0,"type":"channel","noteNumber":51,"velocity":0,"subtype":"noteOff"},{"deltaTime":1,"channel":0,"type":"channel","noteNumber":63,"velocity":49,"subtype":"noteOn"},{"deltaTime":0,"channel":0,"type":"channel","noteNumber":55,"velocity":49,"subtype":"noteOn"},{"deltaTime":239,"channel":0,"type":"channel","noteNumber":63,"velocity":0,"subtype":"noteOff"},{"deltaTime":0,"channel":0,"type":"channel","noteNumber":55,"velocity":0,"subtype":"noteOff"},{"deltaTime":1,"channel":0,"type":"channel","noteNumber":67,"velocity":49,"subtype":"noteOn"},{"deltaTime":0,"channel":0,"type":"channel","noteNumber":63,"velocity":49,"subtype":"noteOn"},{"deltaTime":0,"channel":0,"type":"channel","noteNumber":58,"velocity":49,"subtype":"noteOn"},{"deltaTime":239,"channel":0,"type":"channel","subtype":"controller","controllerType":64,"value":0},{"deltaTime":0,"channel":0,"type":"channel","noteNumber":67,"velocity":0,"subtype":"noteOff"},{"deltaTime":0,"channel":0,"type":"channel","noteNumber":63,"velocity":0,"subtype":"noteOff"},{"deltaTime":0,"channel":0,"type":"channel","noteNumber":58,"velocity":0,"subtype":"noteOff"},{"deltaTime":1,"channel":0,"type":"channel","subtype":"controller","controllerType":64,"value":127},{"deltaTime":0,"channel":0,"type":"channel","noteNumber":51,"velocity":49,"subtype":"noteOn"},{"deltaTime":239,"channel":0,"type":"channel","noteNumber":51,"velocity":0,"subtype":"noteOff"},{"deltaTime":1,"channel":0,"type":"channel","noteNumber":62,"velocity":49,"subtype":"noteOn"},{"deltaTime":0,"channel":0,"type":"channel","noteNumber":56,"velocity":49,"subtype":"noteOn"},{"deltaTime":239,"channel":0,"type":"channel","noteNumber":62,"velocity":0,"subtype":"noteOff"},{"deltaTime":0,"channel":0,"type":"channel","noteNumber":56,"velocity":0,"subtype":"noteOff"},{"deltaTime":1,"channel":0,"type":"channel","noteNumber":68,"velocity":49,"subtype":"noteOn"},{"deltaTime":0,"channel":0,"type":"channel","noteNumber":62,"velocity":49,"subtype":"noteOn"},{"deltaTime":0,"channel":0,"type":"channel","noteNumber":59,"velocity":49,"subtype":"noteOn"},{"deltaTime":239,"channel":0,"type":"channel","subtype":"controller","controllerType":64,"value":0},{"deltaTime":0,"channel":0,"type":"channel","noteNumber":68,"velocity":0,"subtype":"noteOff"},{"deltaTime":0,"channel":0,"type":"channel","noteNumber":62,"velocity":0,"subtype":"noteOff"},{"deltaTime":0,"channel":0,"type":"channel","noteNumber":59,"velocity":0,"subtype":"noteOff"},{"deltaTime":1,"channel":0,"type":"channel","subtype":"controller","controllerType":64,"value":127},{"deltaTime":0,"channel":0,"type":"channel","noteNumber":51,"velocity":49,"subtype":"noteOn"},{"deltaTime":239,"channel":0,"type":"channel","noteNumber":51,"velocity":0,"subtype":"noteOff"},{"deltaTime":1,"channel":0,"type":"channel","noteNumber":63,"velocity":49,"subtype":"noteOn"},{"deltaTime":0,"channel":0,"type":"channel","noteNumber":55,"velocity":49,"subtype":"noteOn"},{"deltaTime":239,"channel":0,"type":"channel","noteNumber":63,"velocity":0,"subtype":"noteOff"},{"deltaTime":0,"channel":0,"type":"channel","noteNumber":55,"velocity":0,"subtype":"noteOff"},{"deltaTime":1,"channel":0,"type":"channel","noteNumber":67,"velocity":49,"subtype":"noteOn"},{"deltaTime":0,"channel":0,"type":"channel","noteNumber":63,"velocity":49,"subtype":"noteOn"},{"deltaTime":0,"channel":0,"type":"channel","noteNumber":58,"velocity":49,"subtype":"noteOn"},{"deltaTime":239,"channel":0,"type":"channel","subtype":"controller","controllerType":64,"value":0},{"deltaTime":0,"channel":0,"type":"channel","noteNumber":67,"velocity":0,"subtype":"noteOff"},{"deltaTime":0,"channel":0,"type":"channel","noteNumber":63,"velocity":0,"subtype":"noteOff"},{"deltaTime":0,"channel":0,"type":"channel","noteNumber":58,"velocity":0,"subtype":"noteOff"},{"deltaTime":1,"channel":0,"type":"channel","subtype":"controller","controllerType":64,"value":127},{"deltaTime":0,"channel":0,"type":"channel","noteNumber":50,"velocity":49,"subtype":"noteOn"},{"deltaTime":239,"channel":0,"type":"channel","noteNumber":50,"velocity":0,"subtype":"noteOff"},{"deltaTime":1,"channel":0,"type":"channel","noteNumber":63,"velocity":49,"subtype":"noteOn"},{"deltaTime":0,"channel":0,"type":"channel","noteNumber":55,"velocity":49,"subtype":"noteOn"},{"deltaTime":239,"channel":0,"type":"channel","noteNumber":63,"velocity":0,"subtype":"noteOff"},{"deltaTime":0,"channel":0,"type":"channel","noteNumber":55,"velocity":0,"subtype":"noteOff"},{"deltaTime":1,"channel":0,"type":"channel","noteNumber":67,"velocity":49,"subtype":"noteOn"},{"deltaTime":0,"channel":0,"type":"channel","noteNumber":63,"velocity":49,"subtype":"noteOn"},{"deltaTime":0,"channel":0,"type":"channel","noteNumber":58,"velocity":49,"subtype":"noteOn"},{"deltaTime":239,"channel":0,"type":"channel","subtype":"controller","controllerType":64,"value":0},{"deltaTime":0,"channel":0,"type":"channel","noteNumber":67,"velocity":0,"subtype":"noteOff"},{"deltaTime":0,"channel":0,"type":"channel","noteNumber":63,"velocity":0,"subtype":"noteOff"},{"deltaTime":0,"channel":0,"type":"channel","noteNumber":58,"velocity":0,"subtype":"noteOff"},{"deltaTime":1,"channel":0,"type":"channel","subtype":"controller","controllerType":64,"value":127},{"deltaTime":0,"channel":0,"type":"channel","noteNumber":48,"velocity":49,"subtype":"noteOn"},{"deltaTime":239,"channel":0,"type":"channel","noteNumber":48,"velocity":0,"subtype":"noteOff"},{"deltaTime":1,"channel":0,"type":"channel","noteNumber":64,"velocity":49,"subtype":"noteOn"},{"deltaTime":0,"channel":0,"type":"channel","noteNumber":55,"velocity":49,"subtype":"noteOn"},{"deltaTime":239,"channel":0,"type":"channel","noteNumber":64,"velocity":0,"subtype":"noteOff"},{"deltaTime":0,"channel":0,"type":"channel","noteNumber":55,"velocity":0,"subtype":"noteOff"},{"deltaTime":1,"channel":0,"type":"channel","noteNumber":67,"velocity":49,"subtype":"noteOn"},{"deltaTime":0,"channel":0,"type":"channel","noteNumber":64,"velocity":49,"subtype":"noteOn"},{"deltaTime":0,"channel":0,"type":"channel","noteNumber":58,"velocity":49,"subtype":"noteOn"},{"deltaTime":239,"channel":0,"type":"channel","noteNumber":67,"velocity":0,"subtype":"noteOff"},{"deltaTime":0,"channel":0,"type":"channel","noteNumber":64,"velocity":0,"subtype":"noteOff"},{"deltaTime":0,"channel":0,"type":"channel","noteNumber":58,"velocity":0,"subtype":"noteOff"},{"deltaTime":1,"channel":0,"type":"channel","noteNumber":48,"velocity":49,"subtype":"noteOn"},{"deltaTime":239,"channel":0,"type":"channel","noteNumber":48,"velocity":0,"subtype":"noteOff"},{"deltaTime":1,"channel":0,"type":"channel","noteNumber":64,"velocity":49,"subtype":"noteOn"},{"deltaTime":0,"channel":0,"type":"channel","noteNumber":55,"velocity":49,"subtype":"noteOn"},{"deltaTime":239,"channel":0,"type":"channel","noteNumber":64,"velocity":0,"subtype":"noteOff"},{"deltaTime":0,"channel":0,"type":"channel","noteNumber":55,"velocity":0,"subtype":"noteOff"},{"deltaTime":1,"channel":0,"type":"channel","noteNumber":70,"velocity":49,"subtype":"noteOn"},{"deltaTime":0,"channel":0,"type":"channel","noteNumber":64,"velocity":49,"subtype":"noteOn"},{"deltaTime":0,"channel":0,"type":"channel","noteNumber":60,"velocity":49,"subtype":"noteOn"},{"deltaTime":239,"channel":0,"type":"channel","subtype":"controller","controllerType":64,"value":0},{"deltaTime":0,"channel":0,"type":"channel","noteNumber":70,"velocity":0,"subtype":"noteOff"},{"deltaTime":0,"channel":0,"type":"channel","noteNumber":64,"velocity":0,"subtype":"noteOff"},{"deltaTime":0,"channel":0,"type":"channel","noteNumber":60,"velocity":0,"subtype":"noteOff"},{"deltaTime":1,"channel":0,"type":"channel","subtype":"controller","controllerType":64,"value":127},{"deltaTime":0,"channel":0,"type":"channel","noteNumber":41,"velocity":49,"subtype":"noteOn"},{"deltaTime":239,"channel":0,"type":"channel","noteNumber":41,"velocity":0,"subtype":"noteOff"},{"deltaTime":1,"channel":0,"type":"channel","noteNumber":61,"velocity":49,"subtype":"noteOn"},{"deltaTime":0,"channel":0,"type":"channel","noteNumber":53,"velocity":49,"subtype":"noteOn"},{"deltaTime":239,"channel":0,"type":"channel","noteNumber":61,"velocity":0,"subtype":"noteOff"},{"deltaTime":0,"channel":0,"type":"channel","noteNumber":53,"velocity":0,"subtype":"noteOff"},{"deltaTime":1,"channel":0,"type":"channel","noteNumber":64,"velocity":49,"subtype":"noteOn"},{"deltaTime":0,"channel":0,"type":"channel","noteNumber":61,"velocity":49,"subtype":"noteOn"},{"deltaTime":0,"channel":0,"type":"channel","noteNumber":58,"velocity":49,"subtype":"noteOn"},{"deltaTime":239,"channel":0,"type":"channel","subtype":"controller","controllerType":64,"value":0},{"deltaTime":0,"channel":0,"type":"channel","noteNumber":64,"velocity":0,"subtype":"noteOff"},{"deltaTime":0,"channel":0,"type":"channel","noteNumber":61,"velocity":0,"subtype":"noteOff"},{"deltaTime":0,"channel":0,"type":"channel","noteNumber":58,"velocity":0,"subtype":"noteOff"},{"deltaTime":1,"channel":0,"type":"channel","subtype":"controller","controllerType":64,"value":127},{"deltaTime":0,"channel":0,"type":"channel","noteNumber":41,"velocity":49,"subtype":"noteOn"},{"deltaTime":239,"channel":0,"type":"channel","noteNumber":41,"velocity":0,"subtype":"noteOff"},{"deltaTime":1,"channel":0,"type":"channel","noteNumber":60,"velocity":49,"subtype":"noteOn"},{"deltaTime":0,"channel":0,"type":"channel","noteNumber":53,"velocity":49,"subtype":"noteOn"},{"deltaTime":239,"channel":0,"type":"channel","noteNumber":60,"velocity":0,"subtype":"noteOff"},{"deltaTime":0,"channel":0,"type":"channel","noteNumber":53,"velocity":0,"subtype":"noteOff"},{"deltaTime":1,"channel":0,"type":"channel","noteNumber":65,"velocity":49,"subtype":"noteOn"},{"deltaTime":0,"channel":0,"type":"channel","noteNumber":60,"velocity":49,"subtype":"noteOn"},{"deltaTime":0,"channel":0,"type":"channel","noteNumber":56,"velocity":49,"subtype":"noteOn"},{"deltaTime":239,"channel":0,"type":"channel","subtype":"controller","controllerType":64,"value":0},{"deltaTime":0,"channel":0,"type":"channel","noteNumber":65,"velocity":0,"subtype":"noteOff"},{"deltaTime":0,"channel":0,"type":"channel","noteNumber":60,"velocity":0,"subtype":"noteOff"},{"deltaTime":0,"channel":0,"type":"channel","noteNumber":56,"velocity":0,"subtype":"noteOff"},{"deltaTime":1,"channel":0,"type":"channel","subtype":"controller","controllerType":64,"value":127},{"deltaTime":0,"channel":0,"type":"channel","noteNumber":46,"velocity":49,"subtype":"noteOn"},{"deltaTime":239,"channel":0,"type":"channel","noteNumber":46,"velocity":0,"subtype":"noteOff"},{"deltaTime":1,"channel":0,"type":"channel","noteNumber":62,"velocity":49,"subtype":"noteOn"},{"deltaTime":0,"channel":0,"type":"channel","noteNumber":53,"velocity":49,"subtype":"noteOn"},{"deltaTime":239,"channel":0,"type":"channel","noteNumber":62,"velocity":0,"subtype":"noteOff"},{"deltaTime":0,"channel":0,"type":"channel","noteNumber":53,"velocity":0,"subtype":"noteOff"},{"deltaTime":1,"channel":0,"type":"channel","noteNumber":68,"velocity":49,"subtype":"noteOn"},{"deltaTime":0,"channel":0,"type":"channel","noteNumber":62,"velocity":49,"subtype":"noteOn"},{"deltaTime":0,"channel":0,"type":"channel","noteNumber":58,"velocity":49,"subtype":"noteOn"},{"deltaTime":239,"channel":0,"type":"channel","subtype":"controller","controllerType":64,"value":0},{"deltaTime":0,"channel":0,"type":"channel","noteNumber":68,"velocity":0,"subtype":"noteOff"},{"deltaTime":0,"channel":0,"type":"channel","noteNumber":62,"velocity":0,"subtype":"noteOff"},{"deltaTime":0,"channel":0,"type":"channel","noteNumber":58,"velocity":0,"subtype":"noteOff"},{"deltaTime":1,"channel":0,"type":"channel","subtype":"controller","controllerType":64,"value":127},{"deltaTime":0,"channel":0,"type":"channel","noteNumber":47,"velocity":49,"subtype":"noteOn"},{"deltaTime":239,"channel":0,"type":"channel","noteNumber":47,"velocity":0,"subtype":"noteOff"},{"deltaTime":1,"channel":0,"type":"channel","noteNumber":65,"velocity":49,"subtype":"noteOn"},{"deltaTime":0,"channel":0,"type":"channel","noteNumber":55,"velocity":49,"subtype":"noteOn"},{"deltaTime":239,"channel":0,"type":"channel","noteNumber":65,"velocity":0,"subtype":"noteOff"},{"deltaTime":0,"channel":0,"type":"channel","noteNumber":55,"velocity":0,"subtype":"noteOff"},{"deltaTime":1,"channel":0,"type":"channel","noteNumber":67,"velocity":49,"subtype":"noteOn"},{"deltaTime":0,"channel":0,"type":"channel","noteNumber":65,"velocity":49,"subtype":"noteOn"},{"deltaTime":0,"channel":0,"type":"channel","noteNumber":62,"velocity":49,"subtype":"noteOn"},{"deltaTime":239,"channel":0,"type":"channel","subtype":"controller","controllerType":64,"value":0},{"deltaTime":0,"channel":0,"type":"channel","noteNumber":67,"velocity":0,"subtype":"noteOff"},{"deltaTime":0,"channel":0,"type":"channel","noteNumber":65,"velocity":0,"subtype":"noteOff"},{"deltaTime":0,"channel":0,"type":"channel","noteNumber":62,"velocity":0,"subtype":"noteOff"},{"deltaTime":1,"channel":0,"type":"channel","subtype":"controller","controllerType":64,"value":127},{"deltaTime":0,"channel":0,"type":"channel","noteNumber":48,"velocity":49,"subtype":"noteOn"},{"deltaTime":239,"channel":0,"type":"channel","noteNumber":48,"velocity":0,"subtype":"noteOff"},{"deltaTime":1,"channel":0,"type":"channel","noteNumber":63,"velocity":49,"subtype":"noteOn"},{"deltaTime":0,"channel":0,"type":"channel","noteNumber":55,"velocity":49,"subtype":"noteOn"},{"deltaTime":239,"channel":0,"type":"channel","noteNumber":63,"velocity":0,"subtype":"noteOff"},{"deltaTime":0,"channel":0,"type":"channel","noteNumber":55,"velocity":0,"subtype":"noteOff"},{"deltaTime":1,"channel":0,"type":"channel","noteNumber":67,"velocity":49,"subtype":"noteOn"},{"deltaTime":0,"channel":0,"type":"channel","noteNumber":63,"velocity":49,"subtype":"noteOn"},{"deltaTime":0,"channel":0,"type":"channel","noteNumber":60,"velocity":49,"subtype":"noteOn"},{"deltaTime":239,"channel":0,"type":"channel","subtype":"controller","controllerType":64,"value":0},{"deltaTime":0,"channel":0,"type":"channel","noteNumber":67,"velocity":0,"subtype":"noteOff"},{"deltaTime":0,"channel":0,"type":"channel","noteNumber":63,"velocity":0,"subtype":"noteOff"},{"deltaTime":0,"channel":0,"type":"channel","noteNumber":60,"velocity":0,"subtype":"noteOff"},{"deltaTime":1,"channel":0,"type":"channel","subtype":"controller","controllerType":64,"value":127},{"deltaTime":0,"channel":0,"type":"channel","noteNumber":45,"velocity":49,"subtype":"noteOn"},{"deltaTime":239,"channel":0,"type":"channel","noteNumber":45,"velocity":0,"subtype":"noteOff"},{"deltaTime":1,"channel":0,"type":"channel","noteNumber":63,"velocity":49,"subtype":"noteOn"},{"deltaTime":0,"channel":0,"type":"channel","noteNumber":54,"velocity":49,"subtype":"noteOn"},{"deltaTime":239,"channel":0,"type":"channel","noteNumber":63,"velocity":0,"subtype":"noteOff"},{"deltaTime":0,"channel":0,"type":"channel","noteNumber":54,"velocity":0,"subtype":"noteOff"},{"deltaTime":1,"channel":0,"type":"channel","noteNumber":66,"velocity":49,"subtype":"noteOn"},{"deltaTime":0,"channel":0,"type":"channel","noteNumber":63,"velocity":49,"subtype":"noteOn"},{"deltaTime":0,"channel":0,"type":"channel","noteNumber":60,"velocity":49,"subtype":"noteOn"},{"deltaTime":239,"channel":0,"type":"channel","subtype":"controller","controllerType":64,"value":0},{"deltaTime":0,"channel":0,"type":"channel","noteNumber":66,"velocity":0,"subtype":"noteOff"},{"deltaTime":0,"channel":0,"type":"channel","noteNumber":63,"velocity":0,"subtype":"noteOff"},{"deltaTime":0,"channel":0,"type":"channel","noteNumber":60,"velocity":0,"subtype":"noteOff"},{"deltaTime":1,"channel":0,"type":"channel","subtype":"controller","controllerType":64,"value":127},{"deltaTime":0,"channel":0,"type":"channel","noteNumber":46,"velocity":49,"subtype":"noteOn"},{"deltaTime":239,"channel":0,"type":"channel","noteNumber":46,"velocity":0,"subtype":"noteOff"},{"deltaTime":1,"channel":0,"type":"channel","noteNumber":63,"velocity":49,"subtype":"noteOn"},{"deltaTime":0,"channel":0,"type":"channel","noteNumber":53,"velocity":49,"subtype":"noteOn"},{"deltaTime":239,"channel":0,"type":"channel","noteNumber":63,"velocity":0,"subtype":"noteOff"},{"deltaTime":0,"channel":0,"type":"channel","noteNumber":53,"velocity":0,"subtype":"noteOff"},{"deltaTime":1,"channel":0,"type":"channel","noteNumber":68,"velocity":49,"subtype":"noteOn"},{"deltaTime":0,"channel":0,"type":"channel","noteNumber":63,"velocity":49,"subtype":"noteOn"},{"deltaTime":0,"channel":0,"type":"channel","noteNumber":58,"velocity":49,"subtype":"noteOn"},{"deltaTime":239,"channel":0,"type":"channel","subtype":"controller","controllerType":64,"value":0},{"deltaTime":0,"channel":0,"type":"channel","noteNumber":68,"velocity":0,"subtype":"noteOff"},{"deltaTime":0,"channel":0,"type":"channel","noteNumber":63,"velocity":0,"subtype":"noteOff"},{"deltaTime":0,"channel":0,"type":"channel","noteNumber":58,"velocity":0,"subtype":"noteOff"},{"deltaTime":1,"channel":0,"type":"channel","subtype":"controller","controllerType":64,"value":127},{"deltaTime":0,"channel":0,"type":"channel","noteNumber":34,"velocity":49,"subtype":"noteOn"},{"deltaTime":239,"channel":0,"type":"channel","noteNumber":34,"velocity":0,"subtype":"noteOff"},{"deltaTime":1,"channel":0,"type":"channel","noteNumber":62,"velocity":49,"subtype":"noteOn"},{"deltaTime":0,"channel":0,"type":"channel","noteNumber":53,"velocity":49,"subtype":"noteOn"},{"deltaTime":239,"channel":0,"type":"channel","noteNumber":62,"velocity":0,"subtype":"noteOff"},{"deltaTime":0,"channel":0,"type":"channel","noteNumber":53,"velocity":0,"subtype":"noteOff"},{"deltaTime":1,"channel":0,"type":"channel","noteNumber":68,"velocity":49,"subtype":"noteOn"},{"deltaTime":0,"channel":0,"type":"channel","noteNumber":58,"velocity":49,"subtype":"noteOn"},{"deltaTime":239,"channel":0,"type":"channel","subtype":"controller","controllerType":64,"value":0},{"deltaTime":0,"channel":0,"type":"channel","noteNumber":68,"velocity":0,"subtype":"noteOff"},{"deltaTime":0,"channel":0,"type":"channel","noteNumber":58,"velocity":0,"subtype":"noteOff"},{"deltaTime":1,"channel":0,"type":"channel","subtype":"controller","controllerType":64,"value":127},{"deltaTime":0,"channel":0,"type":"channel","noteNumber":39,"velocity":49,"subtype":"noteOn"},{"deltaTime":239,"channel":0,"type":"channel","noteNumber":39,"velocity":0,"subtype":"noteOff"},{"deltaTime":1,"channel":0,"type":"channel","noteNumber":63,"velocity":49,"subtype":"noteOn"},{"deltaTime":0,"channel":0,"type":"channel","noteNumber":55,"velocity":49,"subtype":"noteOn"},{"deltaTime":239,"channel":0,"type":"channel","noteNumber":63,"velocity":0,"subtype":"noteOff"},{"deltaTime":0,"channel":0,"type":"channel","noteNumber":55,"velocity":0,"subtype":"noteOff"},{"deltaTime":1,"channel":0,"type":"channel","noteNumber":67,"velocity":49,"subtype":"noteOn"},{"deltaTime":0,"channel":0,"type":"channel","noteNumber":63,"velocity":49,"subtype":"noteOn"},{"deltaTime":0,"channel":0,"type":"channel","noteNumber":58,"velocity":49,"subtype":"noteOn"},{"deltaTime":239,"channel":0,"type":"channel","noteNumber":67,"velocity":0,"subtype":"noteOff"},{"deltaTime":0,"channel":0,"type":"channel","noteNumber":63,"velocity":0,"subtype":"noteOff"},{"deltaTime":0,"channel":0,"type":"channel","noteNumber":58,"velocity":0,"subtype":"noteOff"},{"deltaTime":1,"channel":0,"type":"channel","noteNumber":51,"velocity":49,"subtype":"noteOn"},{"deltaTime":239,"channel":0,"type":"channel","noteNumber":51,"velocity":0,"subtype":"noteOff"},{"deltaTime":1,"channel":0,"type":"channel","noteNumber":63,"velocity":49,"subtype":"noteOn"},{"deltaTime":0,"channel":0,"type":"channel","noteNumber":55,"velocity":49,"subtype":"noteOn"},{"deltaTime":239,"channel":0,"type":"channel","noteNumber":63,"velocity":0,"subtype":"noteOff"},{"deltaTime":0,"channel":0,"type":"channel","noteNumber":55,"velocity":0,"subtype":"noteOff"},{"deltaTime":1,"channel":0,"type":"channel","noteNumber":67,"velocity":49,"subtype":"noteOn"},{"deltaTime":0,"channel":0,"type":"channel","noteNumber":63,"velocity":49,"subtype":"noteOn"},{"deltaTime":0,"channel":0,"type":"channel","noteNumber":58,"velocity":49,"subtype":"noteOn"},{"deltaTime":239,"channel":0,"type":"channel","subtype":"controller","controllerType":64,"value":0},{"deltaTime":0,"channel":0,"type":"channel","noteNumber":67,"velocity":0,"subtype":"noteOff"},{"deltaTime":0,"channel":0,"type":"channel","noteNumber":63,"velocity":0,"subtype":"noteOff"},{"deltaTime":0,"channel":0,"type":"channel","noteNumber":58,"velocity":0,"subtype":"noteOff"},{"deltaTime":1,"channel":0,"type":"channel","subtype":"controller","controllerType":64,"value":127},{"deltaTime":0,"channel":0,"type":"channel","noteNumber":46,"velocity":49,"subtype":"noteOn"},{"deltaTime":239,"channel":0,"type":"channel","noteNumber":46,"velocity":0,"subtype":"noteOff"},{"deltaTime":1,"channel":0,"type":"channel","noteNumber":62,"velocity":49,"subtype":"noteOn"},{"deltaTime":0,"channel":0,"type":"channel","noteNumber":53,"velocity":49,"subtype":"noteOn"},{"deltaTime":239,"channel":0,"type":"channel","noteNumber":62,"velocity":0,"subtype":"noteOff"},{"deltaTime":0,"channel":0,"type":"channel","noteNumber":53,"velocity":0,"subtype":"noteOff"},{"deltaTime":1,"channel":0,"type":"channel","noteNumber":65,"velocity":49,"subtype":"noteOn"},{"deltaTime":0,"channel":0,"type":"channel","noteNumber":62,"velocity":49,"subtype":"noteOn"},{"deltaTime":0,"channel":0,"type":"channel","noteNumber":58,"velocity":49,"subtype":"noteOn"},{"deltaTime":239,"channel":0,"type":"channel","noteNumber":65,"velocity":0,"subtype":"noteOff"},{"deltaTime":0,"channel":0,"type":"channel","noteNumber":62,"velocity":0,"subtype":"noteOff"},{"deltaTime":0,"channel":0,"type":"channel","noteNumber":58,"velocity":0,"subtype":"noteOff"},{"deltaTime":1,"channel":0,"type":"channel","noteNumber":46,"velocity":49,"subtype":"noteOn"},{"deltaTime":239,"channel":0,"type":"channel","noteNumber":46,"velocity":0,"subtype":"noteOff"},{"deltaTime":1,"channel":0,"type":"channel","noteNumber":62,"velocity":49,"subtype":"noteOn"},{"deltaTime":0,"channel":0,"type":"channel","noteNumber":53,"velocity":49,"subtype":"noteOn"},{"deltaTime":239,"channel":0,"type":"channel","noteNumber":62,"velocity":0,"subtype":"noteOff"},{"deltaTime":0,"channel":0,"type":"channel","noteNumber":53,"velocity":0,"subtype":"noteOff"},{"deltaTime":1,"channel":0,"type":"channel","noteNumber":65,"velocity":49,"subtype":"noteOn"},{"deltaTime":0,"channel":0,"type":"channel","noteNumber":62,"velocity":49,"subtype":"noteOn"},{"deltaTime":0,"channel":0,"type":"channel","noteNumber":58,"velocity":49,"subtype":"noteOn"},{"deltaTime":239,"channel":0,"type":"channel","subtype":"controller","controllerType":64,"value":0},{"deltaTime":0,"channel":0,"type":"channel","noteNumber":65,"velocity":0,"subtype":"noteOff"},{"deltaTime":0,"channel":0,"type":"channel","noteNumber":62,"velocity":0,"subtype":"noteOff"},{"deltaTime":0,"channel":0,"type":"channel","noteNumber":58,"velocity":0,"subtype":"noteOff"},{"deltaTime":1,"channel":0,"type":"channel","subtype":"controller","controllerType":64,"value":127},{"deltaTime":0,"channel":0,"type":"channel","noteNumber":45,"velocity":33,"subtype":"noteOn"},{"deltaTime":239,"channel":0,"type":"channel","noteNumber":45,"velocity":0,"subtype":"noteOff"},{"deltaTime":1,"channel":0,"type":"channel","noteNumber":60,"velocity":33,"subtype":"noteOn"},{"deltaTime":0,"channel":0,"type":"channel","noteNumber":53,"velocity":33,"subtype":"noteOn"},{"deltaTime":239,"channel":0,"type":"channel","noteNumber":60,"velocity":0,"subtype":"noteOff"},{"deltaTime":0,"channel":0,"type":"channel","noteNumber":53,"velocity":0,"subtype":"noteOff"},{"deltaTime":1,"channel":0,"type":"channel","noteNumber":65,"velocity":33,"subtype":"noteOn"},{"deltaTime":0,"channel":0,"type":"channel","noteNumber":60,"velocity":33,"subtype":"noteOn"},{"deltaTime":239,"channel":0,"type":"channel","noteNumber":65,"velocity":0,"subtype":"noteOff"},{"deltaTime":0,"channel":0,"type":"channel","noteNumber":60,"velocity":0,"subtype":"noteOff"},{"deltaTime":1,"channel":0,"type":"channel","noteNumber":45,"velocity":33,"subtype":"noteOn"},{"deltaTime":239,"channel":0,"type":"channel","noteNumber":45,"velocity":0,"subtype":"noteOff"},{"deltaTime":1,"channel":0,"type":"channel","noteNumber":60,"velocity":33,"subtype":"noteOn"},{"deltaTime":0,"channel":0,"type":"channel","noteNumber":53,"velocity":33,"subtype":"noteOn"},{"deltaTime":239,"channel":0,"type":"channel","noteNumber":60,"velocity":0,"subtype":"noteOff"},{"deltaTime":0,"channel":0,"type":"channel","noteNumber":53,"velocity":0,"subtype":"noteOff"},{"deltaTime":1,"channel":0,"type":"channel","noteNumber":65,"velocity":33,"subtype":"noteOn"},{"deltaTime":0,"channel":0,"type":"channel","noteNumber":60,"velocity":33,"subtype":"noteOn"},{"deltaTime":239,"channel":0,"type":"channel","subtype":"controller","controllerType":64,"value":0},{"deltaTime":0,"channel":0,"type":"channel","noteNumber":65,"velocity":0,"subtype":"noteOff"},{"deltaTime":0,"channel":0,"type":"channel","noteNumber":60,"velocity":0,"subtype":"noteOff"},{"deltaTime":1,"channel":0,"type":"channel","subtype":"controller","controllerType":64,"value":127},{"deltaTime":0,"channel":0,"type":"channel","noteNumber":44,"velocity":33,"subtype":"noteOn"},{"deltaTime":239,"channel":0,"type":"channel","noteNumber":44,"velocity":0,"subtype":"noteOff"},{"deltaTime":1,"channel":0,"type":"channel","noteNumber":60,"velocity":33,"subtype":"noteOn"},{"deltaTime":0,"channel":0,"type":"channel","noteNumber":51,"velocity":33,"subtype":"noteOn"},{"deltaTime":239,"channel":0,"type":"channel","noteNumber":60,"velocity":0,"subtype":"noteOff"},{"deltaTime":0,"channel":0,"type":"channel","noteNumber":51,"velocity":0,"subtype":"noteOff"},{"deltaTime":1,"channel":0,"type":"channel","noteNumber":63,"velocity":33,"subtype":"noteOn"},{"deltaTime":0,"channel":0,"type":"channel","noteNumber":60,"velocity":33,"subtype":"noteOn"},{"deltaTime":0,"channel":0,"type":"channel","noteNumber":56,"velocity":33,"subtype":"noteOn"},{"deltaTime":239,"channel":0,"type":"channel","subtype":"controller","controllerType":64,"value":0},{"deltaTime":0,"channel":0,"type":"channel","noteNumber":63,"velocity":0,"subtype":"noteOff"},{"deltaTime":0,"channel":0,"type":"channel","noteNumber":60,"velocity":0,"subtype":"noteOff"},{"deltaTime":0,"channel":0,"type":"channel","noteNumber":56,"velocity":0,"subtype":"noteOff"},{"deltaTime":1,"channel":0,"type":"channel","subtype":"controller","controllerType":64,"value":127},{"deltaTime":0,"channel":0,"type":"channel","noteNumber":32,"velocity":33,"subtype":"noteOn"},{"deltaTime":239,"channel":0,"type":"channel","noteNumber":32,"velocity":0,"subtype":"noteOff"},{"deltaTime":1,"channel":0,"type":"channel","noteNumber":59,"velocity":33,"subtype":"noteOn"},{"deltaTime":0,"channel":0,"type":"channel","noteNumber":51,"velocity":33,"subtype":"noteOn"},{"deltaTime":239,"channel":0,"type":"channel","noteNumber":59,"velocity":0,"subtype":"noteOff"},{"deltaTime":0,"channel":0,"type":"channel","noteNumber":51,"velocity":0,"subtype":"noteOff"},{"deltaTime":1,"channel":0,"type":"channel","noteNumber":63,"velocity":33,"subtype":"noteOn"},{"deltaTime":0,"channel":0,"type":"channel","noteNumber":60,"velocity":33,"subtype":"noteOn"},{"deltaTime":0,"channel":0,"type":"channel","noteNumber":56,"velocity":33,"subtype":"noteOn"},{"deltaTime":239,"channel":0,"type":"channel","subtype":"controller","controllerType":64,"value":0},{"deltaTime":0,"channel":0,"type":"channel","noteNumber":63,"velocity":0,"subtype":"noteOff"},{"deltaTime":0,"channel":0,"type":"channel","noteNumber":60,"velocity":0,"subtype":"noteOff"},{"deltaTime":0,"channel":0,"type":"channel","noteNumber":56,"velocity":0,"subtype":"noteOff"},{"deltaTime":1,"channel":0,"type":"channel","subtype":"controller","controllerType":64,"value":127},{"deltaTime":0,"channel":0,"type":"channel","noteNumber":39,"velocity":33,"subtype":"noteOn"},{"deltaTime":239,"channel":0,"type":"channel","noteNumber":39,"velocity":0,"subtype":"noteOff"},{"deltaTime":1,"channel":0,"type":"channel","noteNumber":63,"velocity":33,"subtype":"noteOn"},{"deltaTime":0,"channel":0,"type":"channel","noteNumber":55,"velocity":33,"subtype":"noteOn"},{"deltaTime":239,"channel":0,"type":"channel","noteNumber":63,"velocity":0,"subtype":"noteOff"},{"deltaTime":0,"channel":0,"type":"channel","noteNumber":55,"velocity":0,"subtype":"noteOff"},{"deltaTime":1,"channel":0,"type":"channel","noteNumber":67,"velocity":33,"subtype":"noteOn"},{"deltaTime":0,"channel":0,"type":"channel","noteNumber":63,"velocity":33,"subtype":"noteOn"},{"deltaTime":0,"channel":0,"type":"channel","noteNumber":58,"velocity":33,"subtype":"noteOn"},{"deltaTime":239,"channel":0,"type":"channel","noteNumber":67,"velocity":0,"subtype":"noteOff"},{"deltaTime":0,"channel":0,"type":"channel","noteNumber":63,"velocity":0,"subtype":"noteOff"},{"deltaTime":0,"channel":0,"type":"channel","noteNumber":58,"velocity":0,"subtype":"noteOff"},{"deltaTime":1,"channel":0,"type":"channel","noteNumber":51,"velocity":33,"subtype":"noteOn"},{"deltaTime":239,"channel":0,"type":"channel","noteNumber":51,"velocity":0,"subtype":"noteOff"},{"deltaTime":1,"channel":0,"type":"channel","noteNumber":63,"velocity":33,"subtype":"noteOn"},{"deltaTime":0,"channel":0,"type":"channel","noteNumber":55,"velocity":33,"subtype":"noteOn"},{"deltaTime":239,"channel":0,"type":"channel","noteNumber":63,"velocity":0,"subtype":"noteOff"},{"deltaTime":0,"channel":0,"type":"channel","noteNumber":55,"velocity":0,"subtype":"noteOff"},{"deltaTime":1,"channel":0,"type":"channel","noteNumber":67,"velocity":33,"subtype":"noteOn"},{"deltaTime":0,"channel":0,"type":"channel","noteNumber":63,"velocity":33,"subtype":"noteOn"},{"deltaTime":0,"channel":0,"type":"channel","noteNumber":58,"velocity":33,"subtype":"noteOn"},{"deltaTime":239,"channel":0,"type":"channel","subtype":"controller","controllerType":64,"value":0},{"deltaTime":0,"channel":0,"type":"channel","noteNumber":67,"velocity":0,"subtype":"noteOff"},{"deltaTime":0,"channel":0,"type":"channel","noteNumber":63,"velocity":0,"subtype":"noteOff"},{"deltaTime":0,"channel":0,"type":"channel","noteNumber":58,"velocity":0,"subtype":"noteOff"},{"deltaTime":1,"channel":0,"type":"channel","subtype":"controller","controllerType":64,"value":127},{"deltaTime":0,"channel":0,"type":"channel","noteNumber":40,"velocity":96,"subtype":"noteOn"},{"deltaTime":239,"channel":0,"type":"channel","noteNumber":40,"velocity":0,"subtype":"noteOff"},{"deltaTime":1,"channel":0,"type":"channel","noteNumber":61,"velocity":96,"subtype":"noteOn"},{"deltaTime":0,"channel":0,"type":"channel","noteNumber":52,"velocity":96,"subtype":"noteOn"},{"deltaTime":239,"channel":0,"type":"channel","noteNumber":61,"velocity":0,"subtype":"noteOff"},{"deltaTime":0,"channel":0,"type":"channel","noteNumber":52,"velocity":0,"subtype":"noteOff"},{"deltaTime":1,"channel":0,"type":"channel","noteNumber":67,"velocity":96,"subtype":"noteOn"},{"deltaTime":0,"channel":0,"type":"channel","noteNumber":61,"velocity":96,"subtype":"noteOn"},{"deltaTime":0,"channel":0,"type":"channel","noteNumber":58,"velocity":96,"subtype":"noteOn"},{"deltaTime":239,"channel":0,"type":"channel","subtype":"controller","controllerType":64,"value":0},{"deltaTime":0,"channel":0,"type":"channel","noteNumber":67,"velocity":0,"subtype":"noteOff"},{"deltaTime":0,"channel":0,"type":"channel","noteNumber":61,"velocity":0,"subtype":"noteOff"},{"deltaTime":0,"channel":0,"type":"channel","noteNumber":58,"velocity":0,"subtype":"noteOff"},{"deltaTime":1,"channel":0,"type":"channel","subtype":"controller","controllerType":64,"value":127},{"deltaTime":0,"channel":0,"type":"channel","noteNumber":40,"velocity":96,"subtype":"noteOn"},{"deltaTime":239,"channel":0,"type":"channel","noteNumber":40,"velocity":0,"subtype":"noteOff"},{"deltaTime":1,"channel":0,"type":"channel","noteNumber":60,"velocity":96,"subtype":"noteOn"},{"deltaTime":0,"channel":0,"type":"channel","noteNumber":52,"velocity":96,"subtype":"noteOn"},{"deltaTime":239,"channel":0,"type":"channel","noteNumber":60,"velocity":0,"subtype":"noteOff"},{"deltaTime":0,"channel":0,"type":"channel","noteNumber":52,"velocity":0,"subtype":"noteOff"},{"deltaTime":1,"channel":0,"type":"channel","noteNumber":67,"velocity":96,"subtype":"noteOn"},{"deltaTime":0,"channel":0,"type":"channel","noteNumber":60,"velocity":96,"subtype":"noteOn"},{"deltaTime":0,"channel":0,"type":"channel","noteNumber":58,"velocity":96,"subtype":"noteOn"},{"deltaTime":239,"channel":0,"type":"channel","subtype":"controller","controllerType":64,"value":0},{"deltaTime":0,"channel":0,"type":"channel","noteNumber":67,"velocity":0,"subtype":"noteOff"},{"deltaTime":0,"channel":0,"type":"channel","noteNumber":60,"velocity":0,"subtype":"noteOff"},{"deltaTime":0,"channel":0,"type":"channel","noteNumber":58,"velocity":0,"subtype":"noteOff"},{"deltaTime":1,"channel":0,"type":"channel","subtype":"controller","controllerType":64,"value":127},{"deltaTime":0,"channel":0,"type":"channel","noteNumber":41,"velocity":96,"subtype":"noteOn"},{"deltaTime":239,"channel":0,"type":"channel","noteNumber":41,"velocity":0,"subtype":"noteOff"},{"deltaTime":1,"channel":0,"type":"channel","noteNumber":63,"velocity":96,"subtype":"noteOn"},{"deltaTime":0,"channel":0,"type":"channel","noteNumber":53,"velocity":96,"subtype":"noteOn"},{"deltaTime":239,"channel":0,"type":"channel","noteNumber":63,"velocity":0,"subtype":"noteOff"},{"deltaTime":0,"channel":0,"type":"channel","noteNumber":53,"velocity":0,"subtype":"noteOff"},{"deltaTime":1,"channel":0,"type":"channel","noteNumber":69,"velocity":96,"subtype":"noteOn"},{"deltaTime":0,"channel":0,"type":"channel","noteNumber":63,"velocity":96,"subtype":"noteOn"},{"deltaTime":0,"channel":0,"type":"channel","noteNumber":60,"velocity":96,"subtype":"noteOn"},{"deltaTime":239,"channel":0,"type":"channel","subtype":"controller","controllerType":64,"value":0},{"deltaTime":0,"channel":0,"type":"channel","noteNumber":69,"velocity":0,"subtype":"noteOff"},{"deltaTime":0,"channel":0,"type":"channel","noteNumber":63,"velocity":0,"subtype":"noteOff"},{"deltaTime":0,"channel":0,"type":"channel","noteNumber":60,"velocity":0,"subtype":"noteOff"},{"deltaTime":1,"channel":0,"type":"channel","subtype":"controller","controllerType":64,"value":127},{"deltaTime":0,"channel":0,"type":"channel","noteNumber":43,"velocity":96,"subtype":"noteOn"},{"deltaTime":239,"channel":0,"type":"channel","noteNumber":43,"velocity":0,"subtype":"noteOff"},{"deltaTime":1,"channel":0,"type":"channel","noteNumber":62,"velocity":96,"subtype":"noteOn"},{"deltaTime":0,"channel":0,"type":"channel","noteNumber":55,"velocity":96,"subtype":"noteOn"},{"deltaTime":239,"channel":0,"type":"channel","noteNumber":62,"velocity":0,"subtype":"noteOff"},{"deltaTime":0,"channel":0,"type":"channel","noteNumber":55,"velocity":0,"subtype":"noteOff"},{"deltaTime":1,"channel":0,"type":"channel","noteNumber":70,"velocity":96,"subtype":"noteOn"},{"deltaTime":0,"channel":0,"type":"channel","noteNumber":62,"velocity":96,"subtype":"noteOn"},{"deltaTime":0,"channel":0,"type":"channel","noteNumber":58,"velocity":96,"subtype":"noteOn"},{"deltaTime":239,"channel":0,"type":"channel","subtype":"controller","controllerType":64,"value":0},{"deltaTime":0,"channel":0,"type":"channel","noteNumber":70,"velocity":0,"subtype":"noteOff"},{"deltaTime":0,"channel":0,"type":"channel","noteNumber":62,"velocity":0,"subtype":"noteOff"},{"deltaTime":0,"channel":0,"type":"channel","noteNumber":58,"velocity":0,"subtype":"noteOff"},{"deltaTime":1,"channel":0,"type":"channel","subtype":"controller","controllerType":64,"value":127},{"deltaTime":0,"channel":0,"type":"channel","noteNumber":36,"velocity":96,"subtype":"noteOn"},{"deltaTime":239,"channel":0,"type":"channel","noteNumber":36,"velocity":0,"subtype":"noteOff"},{"deltaTime":1,"channel":0,"type":"channel","noteNumber":63,"velocity":96,"subtype":"noteOn"},{"deltaTime":0,"channel":0,"type":"channel","noteNumber":55,"velocity":96,"subtype":"noteOn"},{"deltaTime":239,"channel":0,"type":"channel","noteNumber":63,"velocity":0,"subtype":"noteOff"},{"deltaTime":0,"channel":0,"type":"channel","noteNumber":55,"velocity":0,"subtype":"noteOff"},{"deltaTime":1,"channel":0,"type":"channel","noteNumber":67,"velocity":96,"subtype":"noteOn"},{"deltaTime":0,"channel":0,"type":"channel","noteNumber":63,"velocity":96,"subtype":"noteOn"},{"deltaTime":0,"channel":0,"type":"channel","noteNumber":60,"velocity":96,"subtype":"noteOn"},{"deltaTime":239,"channel":0,"type":"channel","subtype":"controller","controllerType":64,"value":0},{"deltaTime":0,"channel":0,"type":"channel","noteNumber":67,"velocity":0,"subtype":"noteOff"},{"deltaTime":0,"channel":0,"type":"channel","noteNumber":63,"velocity":0,"subtype":"noteOff"},{"deltaTime":0,"channel":0,"type":"channel","noteNumber":60,"velocity":0,"subtype":"noteOff"},{"deltaTime":1,"channel":0,"type":"channel","subtype":"controller","controllerType":64,"value":127},{"deltaTime":0,"channel":0,"type":"channel","noteNumber":41,"velocity":96,"subtype":"noteOn"},{"deltaTime":239,"channel":0,"type":"channel","noteNumber":41,"velocity":0,"subtype":"noteOff"},{"deltaTime":1,"channel":0,"type":"channel","noteNumber":63,"velocity":96,"subtype":"noteOn"},{"deltaTime":0,"channel":0,"type":"channel","noteNumber":53,"velocity":96,"subtype":"noteOn"},{"deltaTime":239,"channel":0,"type":"channel","noteNumber":63,"velocity":0,"subtype":"noteOff"},{"deltaTime":0,"channel":0,"type":"channel","noteNumber":53,"velocity":0,"subtype":"noteOff"},{"deltaTime":1,"channel":0,"type":"channel","noteNumber":65,"velocity":96,"subtype":"noteOn"},{"deltaTime":0,"channel":0,"type":"channel","noteNumber":63,"velocity":96,"subtype":"noteOn"},{"deltaTime":0,"channel":0,"type":"channel","noteNumber":60,"velocity":96,"subtype":"noteOn"},{"deltaTime":239,"channel":0,"type":"channel","subtype":"controller","controllerType":64,"value":0},{"deltaTime":0,"channel":0,"type":"channel","noteNumber":65,"velocity":0,"subtype":"noteOff"},{"deltaTime":0,"channel":0,"type":"channel","noteNumber":63,"velocity":0,"subtype":"noteOff"},{"deltaTime":0,"channel":0,"type":"channel","noteNumber":60,"velocity":0,"subtype":"noteOff"},{"deltaTime":1,"channel":0,"type":"channel","noteNumber":62,"velocity":96,"subtype":"noteOn"},{"deltaTime":0,"channel":0,"type":"channel","noteNumber":58,"velocity":96,"subtype":"noteOn"},{"deltaTime":239,"channel":0,"type":"channel","noteNumber":62,"velocity":0,"subtype":"noteOff"},{"deltaTime":0,"channel":0,"type":"channel","noteNumber":58,"velocity":0,"subtype":"noteOff"},{"deltaTime":1,"channel":0,"type":"channel","noteNumber":63,"velocity":96,"subtype":"noteOn"},{"deltaTime":0,"channel":0,"type":"channel","noteNumber":57,"velocity":96,"subtype":"noteOn"},{"deltaTime":239,"channel":0,"type":"channel","noteNumber":63,"velocity":0,"subtype":"noteOff"},{"deltaTime":0,"channel":0,"type":"channel","noteNumber":57,"velocity":0,"subtype":"noteOff"},{"deltaTime":1,"channel":0,"type":"channel","noteNumber":56,"velocity":96,"subtype":"noteOn"},{"deltaTime":239,"channel":0,"type":"channel","noteNumber":56,"velocity":0,"subtype":"noteOff"},{"deltaTime":1,"channel":0,"type":"channel","noteNumber":55,"velocity":96,"subtype":"noteOn"},{"deltaTime":239,"channel":0,"type":"channel","noteNumber":55,"velocity":0,"subtype":"noteOff"},{"deltaTime":1,"channel":0,"type":"channel","noteNumber":63,"velocity":96,"subtype":"noteOn"},{"deltaTime":0,"channel":0,"type":"channel","noteNumber":60,"velocity":96,"subtype":"noteOn"},{"deltaTime":0,"channel":0,"type":"channel","noteNumber":53,"velocity":96,"subtype":"noteOn"},{"deltaTime":239,"channel":0,"type":"channel","noteNumber":63,"velocity":0,"subtype":"noteOff"},{"deltaTime":0,"channel":0,"type":"channel","noteNumber":60,"velocity":0,"subtype":"noteOff"},{"deltaTime":0,"channel":0,"type":"channel","noteNumber":53,"velocity":0,"subtype":"noteOff"},{"deltaTime":1,"channel":0,"type":"channel","noteNumber":65,"velocity":96,"subtype":"noteOn"},{"deltaTime":0,"channel":0,"type":"channel","noteNumber":58,"velocity":96,"subtype":"noteOn"},{"deltaTime":239,"channel":0,"type":"channel","noteNumber":65,"velocity":0,"subtype":"noteOff"},{"deltaTime":0,"channel":0,"type":"channel","noteNumber":58,"velocity":0,"subtype":"noteOff"},{"deltaTime":1,"channel":0,"type":"channel","subtype":"controller","controllerType":64,"value":127},{"deltaTime":0,"channel":0,"type":"channel","noteNumber":39,"velocity":49,"subtype":"noteOn"},{"deltaTime":239,"channel":0,"type":"channel","noteNumber":39,"velocity":0,"subtype":"noteOff"},{"deltaTime":1,"channel":0,"type":"channel","noteNumber":63,"velocity":49,"subtype":"noteOn"},{"deltaTime":0,"channel":0,"type":"channel","noteNumber":55,"velocity":49,"subtype":"noteOn"},{"deltaTime":239,"channel":0,"type":"channel","noteNumber":63,"velocity":0,"subtype":"noteOff"},{"deltaTime":0,"channel":0,"type":"channel","noteNumber":55,"velocity":0,"subtype":"noteOff"},{"deltaTime":1,"channel":0,"type":"channel","noteNumber":67,"velocity":49,"subtype":"noteOn"},{"deltaTime":0,"channel":0,"type":"channel","noteNumber":63,"velocity":49,"subtype":"noteOn"},{"deltaTime":0,"channel":0,"type":"channel","noteNumber":58,"velocity":49,"subtype":"noteOn"},{"deltaTime":239,"channel":0,"type":"channel","subtype":"controller","controllerType":64,"value":0},{"deltaTime":0,"channel":0,"type":"channel","noteNumber":67,"velocity":0,"subtype":"noteOff"},{"deltaTime":0,"channel":0,"type":"channel","noteNumber":63,"velocity":0,"subtype":"noteOff"},{"deltaTime":0,"channel":0,"type":"channel","noteNumber":58,"velocity":0,"subtype":"noteOff"},{"deltaTime":1,"channel":0,"type":"channel","subtype":"controller","controllerType":64,"value":127},{"deltaTime":0,"channel":0,"type":"channel","noteNumber":51,"velocity":49,"subtype":"noteOn"},{"deltaTime":239,"channel":0,"type":"channel","noteNumber":51,"velocity":0,"subtype":"noteOff"},{"deltaTime":1,"channel":0,"type":"channel","noteNumber":62,"velocity":49,"subtype":"noteOn"},{"deltaTime":0,"channel":0,"type":"channel","noteNumber":56,"velocity":49,"subtype":"noteOn"},{"deltaTime":239,"channel":0,"type":"channel","noteNumber":62,"velocity":0,"subtype":"noteOff"},{"deltaTime":0,"channel":0,"type":"channel","noteNumber":56,"velocity":0,"subtype":"noteOff"},{"deltaTime":1,"channel":0,"type":"channel","noteNumber":68,"velocity":49,"subtype":"noteOn"},{"deltaTime":0,"channel":0,"type":"channel","noteNumber":62,"velocity":49,"subtype":"noteOn"},{"deltaTime":0,"channel":0,"type":"channel","noteNumber":58,"velocity":49,"subtype":"noteOn"},{"deltaTime":239,"channel":0,"type":"channel","subtype":"controller","controllerType":64,"value":0},{"deltaTime":0,"channel":0,"type":"channel","noteNumber":68,"velocity":0,"subtype":"noteOff"},{"deltaTime":0,"channel":0,"type":"channel","noteNumber":62,"velocity":0,"subtype":"noteOff"},{"deltaTime":0,"channel":0,"type":"channel","noteNumber":58,"velocity":0,"subtype":"noteOff"},{"deltaTime":1,"channel":0,"type":"channel","subtype":"controller","controllerType":64,"value":127},{"deltaTime":0,"channel":0,"type":"channel","noteNumber":51,"velocity":49,"subtype":"noteOn"},{"deltaTime":239,"channel":0,"type":"channel","noteNumber":51,"velocity":0,"subtype":"noteOff"},{"deltaTime":1,"channel":0,"type":"channel","noteNumber":63,"velocity":49,"subtype":"noteOn"},{"deltaTime":0,"channel":0,"type":"channel","noteNumber":55,"velocity":49,"subtype":"noteOn"},{"deltaTime":239,"channel":0,"type":"channel","noteNumber":63,"velocity":0,"subtype":"noteOff"},{"deltaTime":0,"channel":0,"type":"channel","noteNumber":55,"velocity":0,"subtype":"noteOff"},{"deltaTime":1,"channel":0,"type":"channel","noteNumber":67,"velocity":49,"subtype":"noteOn"},{"deltaTime":0,"channel":0,"type":"channel","noteNumber":63,"velocity":49,"subtype":"noteOn"},{"deltaTime":0,"channel":0,"type":"channel","noteNumber":58,"velocity":49,"subtype":"noteOn"},{"deltaTime":239,"channel":0,"type":"channel","subtype":"controller","controllerType":64,"value":0},{"deltaTime":0,"channel":0,"type":"channel","noteNumber":67,"velocity":0,"subtype":"noteOff"},{"deltaTime":0,"channel":0,"type":"channel","noteNumber":63,"velocity":0,"subtype":"noteOff"},{"deltaTime":0,"channel":0,"type":"channel","noteNumber":58,"velocity":0,"subtype":"noteOff"},{"deltaTime":1,"channel":0,"type":"channel","subtype":"controller","controllerType":64,"value":127},{"deltaTime":0,"channel":0,"type":"channel","noteNumber":50,"velocity":49,"subtype":"noteOn"},{"deltaTime":239,"channel":0,"type":"channel","noteNumber":50,"velocity":0,"subtype":"noteOff"},{"deltaTime":1,"channel":0,"type":"channel","noteNumber":63,"velocity":49,"subtype":"noteOn"},{"deltaTime":0,"channel":0,"type":"channel","noteNumber":55,"velocity":49,"subtype":"noteOn"},{"deltaTime":239,"channel":0,"type":"channel","noteNumber":63,"velocity":0,"subtype":"noteOff"},{"deltaTime":0,"channel":0,"type":"channel","noteNumber":55,"velocity":0,"subtype":"noteOff"},{"deltaTime":1,"channel":0,"type":"channel","noteNumber":67,"velocity":49,"subtype":"noteOn"},{"deltaTime":0,"channel":0,"type":"channel","noteNumber":63,"velocity":49,"subtype":"noteOn"},{"deltaTime":0,"channel":0,"type":"channel","noteNumber":58,"velocity":49,"subtype":"noteOn"},{"deltaTime":239,"channel":0,"type":"channel","subtype":"controller","controllerType":64,"value":0},{"deltaTime":0,"channel":0,"type":"channel","noteNumber":67,"velocity":0,"subtype":"noteOff"},{"deltaTime":0,"channel":0,"type":"channel","noteNumber":63,"velocity":0,"subtype":"noteOff"},{"deltaTime":0,"channel":0,"type":"channel","noteNumber":58,"velocity":0,"subtype":"noteOff"},{"deltaTime":1,"channel":0,"type":"channel","subtype":"controller","controllerType":64,"value":127},{"deltaTime":0,"channel":0,"type":"channel","noteNumber":48,"velocity":49,"subtype":"noteOn"},{"deltaTime":239,"channel":0,"type":"channel","noteNumber":48,"velocity":0,"subtype":"noteOff"},{"deltaTime":1,"channel":0,"type":"channel","noteNumber":64,"velocity":49,"subtype":"noteOn"},{"deltaTime":0,"channel":0,"type":"channel","noteNumber":55,"velocity":49,"subtype":"noteOn"},{"deltaTime":239,"channel":0,"type":"channel","noteNumber":64,"velocity":0,"subtype":"noteOff"},{"deltaTime":0,"channel":0,"type":"channel","noteNumber":55,"velocity":0,"subtype":"noteOff"},{"deltaTime":1,"channel":0,"type":"channel","noteNumber":67,"velocity":49,"subtype":"noteOn"},{"deltaTime":0,"channel":0,"type":"channel","noteNumber":64,"velocity":49,"subtype":"noteOn"},{"deltaTime":0,"channel":0,"type":"channel","noteNumber":58,"velocity":49,"subtype":"noteOn"},{"deltaTime":239,"channel":0,"type":"channel","subtype":"controller","controllerType":64,"value":0},{"deltaTime":0,"channel":0,"type":"channel","noteNumber":67,"velocity":0,"subtype":"noteOff"},{"deltaTime":0,"channel":0,"type":"channel","noteNumber":64,"velocity":0,"subtype":"noteOff"},{"deltaTime":0,"channel":0,"type":"channel","noteNumber":58,"velocity":0,"subtype":"noteOff"},{"deltaTime":1,"channel":0,"type":"channel","subtype":"controller","controllerType":64,"value":127},{"deltaTime":0,"channel":0,"type":"channel","noteNumber":48,"velocity":49,"subtype":"noteOn"},{"deltaTime":239,"channel":0,"type":"channel","noteNumber":48,"velocity":0,"subtype":"noteOff"},{"deltaTime":1,"channel":0,"type":"channel","noteNumber":64,"velocity":49,"subtype":"noteOn"},{"deltaTime":0,"channel":0,"type":"channel","noteNumber":55,"velocity":49,"subtype":"noteOn"},{"deltaTime":239,"channel":0,"type":"channel","noteNumber":64,"velocity":0,"subtype":"noteOff"},{"deltaTime":0,"channel":0,"type":"channel","noteNumber":55,"velocity":0,"subtype":"noteOff"},{"deltaTime":1,"channel":0,"type":"channel","noteNumber":70,"velocity":49,"subtype":"noteOn"},{"deltaTime":0,"channel":0,"type":"channel","noteNumber":64,"velocity":49,"subtype":"noteOn"},{"deltaTime":0,"channel":0,"type":"channel","noteNumber":60,"velocity":49,"subtype":"noteOn"},{"deltaTime":239,"channel":0,"type":"channel","subtype":"controller","controllerType":64,"value":0},{"deltaTime":0,"channel":0,"type":"channel","noteNumber":70,"velocity":0,"subtype":"noteOff"},{"deltaTime":0,"channel":0,"type":"channel","noteNumber":64,"velocity":0,"subtype":"noteOff"},{"deltaTime":0,"channel":0,"type":"channel","noteNumber":60,"velocity":0,"subtype":"noteOff"},{"deltaTime":1,"channel":0,"type":"channel","subtype":"controller","controllerType":64,"value":127},{"deltaTime":0,"channel":0,"type":"channel","noteNumber":41,"velocity":49,"subtype":"noteOn"},{"deltaTime":239,"channel":0,"type":"channel","noteNumber":41,"velocity":0,"subtype":"noteOff"},{"deltaTime":1,"channel":0,"type":"channel","noteNumber":61,"velocity":49,"subtype":"noteOn"},{"deltaTime":0,"channel":0,"type":"channel","noteNumber":53,"velocity":49,"subtype":"noteOn"},{"deltaTime":239,"channel":0,"type":"channel","noteNumber":61,"velocity":0,"subtype":"noteOff"},{"deltaTime":0,"channel":0,"type":"channel","noteNumber":53,"velocity":0,"subtype":"noteOff"},{"deltaTime":1,"channel":0,"type":"channel","noteNumber":64,"velocity":49,"subtype":"noteOn"},{"deltaTime":0,"channel":0,"type":"channel","noteNumber":61,"velocity":49,"subtype":"noteOn"},{"deltaTime":0,"channel":0,"type":"channel","noteNumber":58,"velocity":49,"subtype":"noteOn"},{"deltaTime":239,"channel":0,"type":"channel","subtype":"controller","controllerType":64,"value":0},{"deltaTime":0,"channel":0,"type":"channel","noteNumber":64,"velocity":0,"subtype":"noteOff"},{"deltaTime":0,"channel":0,"type":"channel","noteNumber":61,"velocity":0,"subtype":"noteOff"},{"deltaTime":0,"channel":0,"type":"channel","noteNumber":58,"velocity":0,"subtype":"noteOff"},{"deltaTime":1,"channel":0,"type":"channel","subtype":"controller","controllerType":64,"value":127},{"deltaTime":0,"channel":0,"type":"channel","noteNumber":41,"velocity":49,"subtype":"noteOn"},{"deltaTime":239,"channel":0,"type":"channel","noteNumber":41,"velocity":0,"subtype":"noteOff"},{"deltaTime":1,"channel":0,"type":"channel","noteNumber":60,"velocity":49,"subtype":"noteOn"},{"deltaTime":0,"channel":0,"type":"channel","noteNumber":53,"velocity":49,"subtype":"noteOn"},{"deltaTime":239,"channel":0,"type":"channel","noteNumber":60,"velocity":0,"subtype":"noteOff"},{"deltaTime":0,"channel":0,"type":"channel","noteNumber":53,"velocity":0,"subtype":"noteOff"},{"deltaTime":1,"channel":0,"type":"channel","noteNumber":65,"velocity":49,"subtype":"noteOn"},{"deltaTime":0,"channel":0,"type":"channel","noteNumber":60,"velocity":49,"subtype":"noteOn"},{"deltaTime":0,"channel":0,"type":"channel","noteNumber":56,"velocity":49,"subtype":"noteOn"},{"deltaTime":239,"channel":0,"type":"channel","subtype":"controller","controllerType":64,"value":0},{"deltaTime":0,"channel":0,"type":"channel","noteNumber":65,"velocity":0,"subtype":"noteOff"},{"deltaTime":0,"channel":0,"type":"channel","noteNumber":60,"velocity":0,"subtype":"noteOff"},{"deltaTime":0,"channel":0,"type":"channel","noteNumber":56,"velocity":0,"subtype":"noteOff"},{"deltaTime":1,"channel":0,"type":"channel","subtype":"controller","controllerType":64,"value":127},{"deltaTime":0,"channel":0,"type":"channel","noteNumber":46,"velocity":49,"subtype":"noteOn"},{"deltaTime":239,"channel":0,"type":"channel","noteNumber":46,"velocity":0,"subtype":"noteOff"},{"deltaTime":1,"channel":0,"type":"channel","noteNumber":62,"velocity":49,"subtype":"noteOn"},{"deltaTime":0,"channel":0,"type":"channel","noteNumber":53,"velocity":49,"subtype":"noteOn"},{"deltaTime":239,"channel":0,"type":"channel","noteNumber":62,"velocity":0,"subtype":"noteOff"},{"deltaTime":0,"channel":0,"type":"channel","noteNumber":53,"velocity":0,"subtype":"noteOff"},{"deltaTime":1,"channel":0,"type":"channel","noteNumber":68,"velocity":49,"subtype":"noteOn"},{"deltaTime":0,"channel":0,"type":"channel","noteNumber":62,"velocity":49,"subtype":"noteOn"},{"deltaTime":0,"channel":0,"type":"channel","noteNumber":58,"velocity":49,"subtype":"noteOn"},{"deltaTime":239,"channel":0,"type":"channel","subtype":"controller","controllerType":64,"value":0},{"deltaTime":0,"channel":0,"type":"channel","noteNumber":68,"velocity":0,"subtype":"noteOff"},{"deltaTime":0,"channel":0,"type":"channel","noteNumber":62,"velocity":0,"subtype":"noteOff"},{"deltaTime":0,"channel":0,"type":"channel","noteNumber":58,"velocity":0,"subtype":"noteOff"},{"deltaTime":1,"channel":0,"type":"channel","subtype":"controller","controllerType":64,"value":127},{"deltaTime":0,"channel":0,"type":"channel","noteNumber":47,"velocity":49,"subtype":"noteOn"},{"deltaTime":239,"channel":0,"type":"channel","noteNumber":47,"velocity":0,"subtype":"noteOff"},{"deltaTime":1,"channel":0,"type":"channel","noteNumber":65,"velocity":49,"subtype":"noteOn"},{"deltaTime":0,"channel":0,"type":"channel","noteNumber":55,"velocity":49,"subtype":"noteOn"},{"deltaTime":239,"channel":0,"type":"channel","noteNumber":65,"velocity":0,"subtype":"noteOff"},{"deltaTime":0,"channel":0,"type":"channel","noteNumber":55,"velocity":0,"subtype":"noteOff"},{"deltaTime":1,"channel":0,"type":"channel","noteNumber":67,"velocity":49,"subtype":"noteOn"},{"deltaTime":0,"channel":0,"type":"channel","noteNumber":65,"velocity":49,"subtype":"noteOn"},{"deltaTime":0,"channel":0,"type":"channel","noteNumber":62,"velocity":49,"subtype":"noteOn"},{"deltaTime":239,"channel":0,"type":"channel","subtype":"controller","controllerType":64,"value":0},{"deltaTime":0,"channel":0,"type":"channel","noteNumber":67,"velocity":0,"subtype":"noteOff"},{"deltaTime":0,"channel":0,"type":"channel","noteNumber":65,"velocity":0,"subtype":"noteOff"},{"deltaTime":0,"channel":0,"type":"channel","noteNumber":62,"velocity":0,"subtype":"noteOff"},{"deltaTime":1,"channel":0,"type":"channel","subtype":"controller","controllerType":64,"value":127},{"deltaTime":0,"channel":0,"type":"channel","noteNumber":48,"velocity":49,"subtype":"noteOn"},{"deltaTime":239,"channel":0,"type":"channel","noteNumber":48,"velocity":0,"subtype":"noteOff"},{"deltaTime":1,"channel":0,"type":"channel","noteNumber":63,"velocity":49,"subtype":"noteOn"},{"deltaTime":0,"channel":0,"type":"channel","noteNumber":55,"velocity":49,"subtype":"noteOn"},{"deltaTime":239,"channel":0,"type":"channel","noteNumber":63,"velocity":0,"subtype":"noteOff"},{"deltaTime":0,"channel":0,"type":"channel","noteNumber":55,"velocity":0,"subtype":"noteOff"},{"deltaTime":1,"channel":0,"type":"channel","noteNumber":67,"velocity":49,"subtype":"noteOn"},{"deltaTime":0,"channel":0,"type":"channel","noteNumber":63,"velocity":49,"subtype":"noteOn"},{"deltaTime":0,"channel":0,"type":"channel","noteNumber":60,"velocity":49,"subtype":"noteOn"},{"deltaTime":239,"channel":0,"type":"channel","subtype":"controller","controllerType":64,"value":0},{"deltaTime":0,"channel":0,"type":"channel","noteNumber":67,"velocity":0,"subtype":"noteOff"},{"deltaTime":0,"channel":0,"type":"channel","noteNumber":63,"velocity":0,"subtype":"noteOff"},{"deltaTime":0,"channel":0,"type":"channel","noteNumber":60,"velocity":0,"subtype":"noteOff"},{"deltaTime":1,"channel":0,"type":"channel","subtype":"controller","controllerType":64,"value":127},{"deltaTime":0,"channel":0,"type":"channel","noteNumber":45,"velocity":49,"subtype":"noteOn"},{"deltaTime":239,"channel":0,"type":"channel","noteNumber":45,"velocity":0,"subtype":"noteOff"},{"deltaTime":1,"channel":0,"type":"channel","noteNumber":63,"velocity":49,"subtype":"noteOn"},{"deltaTime":0,"channel":0,"type":"channel","noteNumber":54,"velocity":49,"subtype":"noteOn"},{"deltaTime":239,"channel":0,"type":"channel","noteNumber":63,"velocity":0,"subtype":"noteOff"},{"deltaTime":0,"channel":0,"type":"channel","noteNumber":54,"velocity":0,"subtype":"noteOff"},{"deltaTime":1,"channel":0,"type":"channel","noteNumber":66,"velocity":49,"subtype":"noteOn"},{"deltaTime":0,"channel":0,"type":"channel","noteNumber":63,"velocity":49,"subtype":"noteOn"},{"deltaTime":0,"channel":0,"type":"channel","noteNumber":60,"velocity":49,"subtype":"noteOn"},{"deltaTime":239,"channel":0,"type":"channel","subtype":"controller","controllerType":64,"value":0},{"deltaTime":0,"channel":0,"type":"channel","noteNumber":66,"velocity":0,"subtype":"noteOff"},{"deltaTime":0,"channel":0,"type":"channel","noteNumber":63,"velocity":0,"subtype":"noteOff"},{"deltaTime":0,"channel":0,"type":"channel","noteNumber":60,"velocity":0,"subtype":"noteOff"},{"deltaTime":1,"channel":0,"type":"channel","subtype":"controller","controllerType":64,"value":127},{"deltaTime":0,"channel":0,"type":"channel","noteNumber":46,"velocity":49,"subtype":"noteOn"},{"deltaTime":239,"channel":0,"type":"channel","noteNumber":46,"velocity":0,"subtype":"noteOff"},{"deltaTime":1,"channel":0,"type":"channel","noteNumber":63,"velocity":49,"subtype":"noteOn"},{"deltaTime":0,"channel":0,"type":"channel","noteNumber":53,"velocity":49,"subtype":"noteOn"},{"deltaTime":239,"channel":0,"type":"channel","noteNumber":63,"velocity":0,"subtype":"noteOff"},{"deltaTime":0,"channel":0,"type":"channel","noteNumber":53,"velocity":0,"subtype":"noteOff"},{"deltaTime":1,"channel":0,"type":"channel","noteNumber":68,"velocity":49,"subtype":"noteOn"},{"deltaTime":0,"channel":0,"type":"channel","noteNumber":63,"velocity":49,"subtype":"noteOn"},{"deltaTime":0,"channel":0,"type":"channel","noteNumber":58,"velocity":49,"subtype":"noteOn"},{"deltaTime":239,"channel":0,"type":"channel","subtype":"controller","controllerType":64,"value":0},{"deltaTime":0,"channel":0,"type":"channel","noteNumber":68,"velocity":0,"subtype":"noteOff"},{"deltaTime":0,"channel":0,"type":"channel","noteNumber":63,"velocity":0,"subtype":"noteOff"},{"deltaTime":0,"channel":0,"type":"channel","noteNumber":58,"velocity":0,"subtype":"noteOff"},{"deltaTime":1,"channel":0,"type":"channel","subtype":"controller","controllerType":64,"value":127},{"deltaTime":0,"channel":0,"type":"channel","noteNumber":34,"velocity":49,"subtype":"noteOn"},{"deltaTime":239,"channel":0,"type":"channel","noteNumber":34,"velocity":0,"subtype":"noteOff"},{"deltaTime":1,"channel":0,"type":"channel","noteNumber":62,"velocity":49,"subtype":"noteOn"},{"deltaTime":0,"channel":0,"type":"channel","noteNumber":53,"velocity":49,"subtype":"noteOn"},{"deltaTime":239,"channel":0,"type":"channel","noteNumber":62,"velocity":0,"subtype":"noteOff"},{"deltaTime":0,"channel":0,"type":"channel","noteNumber":53,"velocity":0,"subtype":"noteOff"},{"deltaTime":1,"channel":0,"type":"channel","noteNumber":68,"velocity":49,"subtype":"noteOn"},{"deltaTime":0,"channel":0,"type":"channel","noteNumber":62,"velocity":49,"subtype":"noteOn"},{"deltaTime":0,"channel":0,"type":"channel","noteNumber":58,"velocity":49,"subtype":"noteOn"},{"deltaTime":239,"channel":0,"type":"channel","subtype":"controller","controllerType":64,"value":0},{"deltaTime":0,"channel":0,"type":"channel","noteNumber":68,"velocity":0,"subtype":"noteOff"},{"deltaTime":0,"channel":0,"type":"channel","noteNumber":62,"velocity":0,"subtype":"noteOff"},{"deltaTime":0,"channel":0,"type":"channel","noteNumber":58,"velocity":0,"subtype":"noteOff"},{"deltaTime":1,"channel":0,"type":"channel","subtype":"controller","controllerType":64,"value":127},{"deltaTime":0,"channel":0,"type":"channel","noteNumber":39,"velocity":49,"subtype":"noteOn"},{"deltaTime":239,"channel":0,"type":"channel","noteNumber":39,"velocity":0,"subtype":"noteOff"},{"deltaTime":1,"channel":0,"type":"channel","noteNumber":63,"velocity":49,"subtype":"noteOn"},{"deltaTime":0,"channel":0,"type":"channel","noteNumber":55,"velocity":49,"subtype":"noteOn"},{"deltaTime":239,"channel":0,"type":"channel","noteNumber":63,"velocity":0,"subtype":"noteOff"},{"deltaTime":0,"channel":0,"type":"channel","noteNumber":55,"velocity":0,"subtype":"noteOff"},{"deltaTime":1,"channel":0,"type":"channel","noteNumber":67,"velocity":49,"subtype":"noteOn"},{"deltaTime":0,"channel":0,"type":"channel","noteNumber":58,"velocity":49,"subtype":"noteOn"},{"deltaTime":239,"channel":0,"type":"channel","subtype":"controller","controllerType":64,"value":0},{"deltaTime":0,"channel":0,"type":"channel","noteNumber":67,"velocity":0,"subtype":"noteOff"},{"deltaTime":0,"channel":0,"type":"channel","noteNumber":58,"velocity":0,"subtype":"noteOff"},{"deltaTime":1,"channel":0,"type":"channel","subtype":"controller","controllerType":64,"value":127},{"deltaTime":0,"channel":0,"type":"channel","noteNumber":51,"velocity":49,"subtype":"noteOn"},{"deltaTime":239,"channel":0,"type":"channel","noteNumber":51,"velocity":0,"subtype":"noteOff"},{"deltaTime":1,"channel":0,"type":"channel","noteNumber":63,"velocity":49,"subtype":"noteOn"},{"deltaTime":0,"channel":0,"type":"channel","noteNumber":55,"velocity":49,"subtype":"noteOn"},{"deltaTime":239,"channel":0,"type":"channel","noteNumber":63,"velocity":0,"subtype":"noteOff"},{"deltaTime":0,"channel":0,"type":"channel","noteNumber":55,"velocity":0,"subtype":"noteOff"},{"deltaTime":1,"channel":0,"type":"channel","noteNumber":67,"velocity":49,"subtype":"noteOn"},{"deltaTime":0,"channel":0,"type":"channel","noteNumber":58,"velocity":49,"subtype":"noteOn"},{"deltaTime":239,"channel":0,"type":"channel","subtype":"controller","controllerType":64,"value":0},{"deltaTime":0,"channel":0,"type":"channel","noteNumber":67,"velocity":0,"subtype":"noteOff"},{"deltaTime":0,"channel":0,"type":"channel","noteNumber":58,"velocity":0,"subtype":"noteOff"},{"deltaTime":1,"channel":0,"type":"channel","subtype":"controller","controllerType":64,"value":127},{"deltaTime":0,"channel":0,"type":"channel","noteNumber":46,"velocity":49,"subtype":"noteOn"},{"deltaTime":239,"channel":0,"type":"channel","noteNumber":46,"velocity":0,"subtype":"noteOff"},{"deltaTime":1,"channel":0,"type":"channel","noteNumber":62,"velocity":49,"subtype":"noteOn"},{"deltaTime":0,"channel":0,"type":"channel","noteNumber":53,"velocity":49,"subtype":"noteOn"},{"deltaTime":239,"channel":0,"type":"channel","noteNumber":62,"velocity":0,"subtype":"noteOff"},{"deltaTime":0,"channel":0,"type":"channel","noteNumber":53,"velocity":0,"subtype":"noteOff"},{"deltaTime":1,"channel":0,"type":"channel","noteNumber":65,"velocity":49,"subtype":"noteOn"},{"deltaTime":0,"channel":0,"type":"channel","noteNumber":62,"velocity":49,"subtype":"noteOn"},{"deltaTime":0,"channel":0,"type":"channel","noteNumber":58,"velocity":49,"subtype":"noteOn"},{"deltaTime":239,"channel":0,"type":"channel","subtype":"controller","controllerType":64,"value":0},{"deltaTime":0,"channel":0,"type":"channel","noteNumber":65,"velocity":0,"subtype":"noteOff"},{"deltaTime":0,"channel":0,"type":"channel","noteNumber":62,"velocity":0,"subtype":"noteOff"},{"deltaTime":0,"channel":0,"type":"channel","noteNumber":58,"velocity":0,"subtype":"noteOff"},{"deltaTime":1,"channel":0,"type":"channel","subtype":"controller","controllerType":64,"value":127},{"deltaTime":0,"channel":0,"type":"channel","noteNumber":46,"velocity":49,"subtype":"noteOn"},{"deltaTime":239,"channel":0,"type":"channel","noteNumber":46,"velocity":0,"subtype":"noteOff"},{"deltaTime":1,"channel":0,"type":"channel","noteNumber":62,"velocity":49,"subtype":"noteOn"},{"deltaTime":0,"channel":0,"type":"channel","noteNumber":53,"velocity":49,"subtype":"noteOn"},{"deltaTime":239,"channel":0,"type":"channel","noteNumber":62,"velocity":0,"subtype":"noteOff"},{"deltaTime":0,"channel":0,"type":"channel","noteNumber":53,"velocity":0,"subtype":"noteOff"},{"deltaTime":1,"channel":0,"type":"channel","noteNumber":65,"velocity":49,"subtype":"noteOn"},{"deltaTime":0,"channel":0,"type":"channel","noteNumber":62,"velocity":49,"subtype":"noteOn"},{"deltaTime":0,"channel":0,"type":"channel","noteNumber":58,"velocity":49,"subtype":"noteOn"},{"deltaTime":239,"channel":0,"type":"channel","subtype":"controller","controllerType":64,"value":0},{"deltaTime":0,"channel":0,"type":"channel","noteNumber":65,"velocity":0,"subtype":"noteOff"},{"deltaTime":0,"channel":0,"type":"channel","noteNumber":62,"velocity":0,"subtype":"noteOff"},{"deltaTime":0,"channel":0,"type":"channel","noteNumber":58,"velocity":0,"subtype":"noteOff"},{"deltaTime":1,"channel":0,"type":"channel","subtype":"controller","controllerType":64,"value":127},{"deltaTime":0,"channel":0,"type":"channel","noteNumber":45,"velocity":49,"subtype":"noteOn"},{"deltaTime":239,"channel":0,"type":"channel","noteNumber":45,"velocity":0,"subtype":"noteOff"},{"deltaTime":1,"channel":0,"type":"channel","noteNumber":60,"velocity":49,"subtype":"noteOn"},{"deltaTime":0,"channel":0,"type":"channel","noteNumber":53,"velocity":49,"subtype":"noteOn"},{"deltaTime":239,"channel":0,"type":"channel","noteNumber":60,"velocity":0,"subtype":"noteOff"},{"deltaTime":0,"channel":0,"type":"channel","noteNumber":53,"velocity":0,"subtype":"noteOff"},{"deltaTime":1,"channel":0,"type":"channel","noteNumber":65,"velocity":49,"subtype":"noteOn"},{"deltaTime":0,"channel":0,"type":"channel","noteNumber":60,"velocity":49,"subtype":"noteOn"},{"deltaTime":239,"channel":0,"type":"channel","subtype":"controller","controllerType":64,"value":0},{"deltaTime":0,"channel":0,"type":"channel","noteNumber":65,"velocity":0,"subtype":"noteOff"},{"deltaTime":0,"channel":0,"type":"channel","noteNumber":60,"velocity":0,"subtype":"noteOff"},{"deltaTime":1,"channel":0,"type":"channel","subtype":"controller","controllerType":64,"value":127},{"deltaTime":0,"channel":0,"type":"channel","noteNumber":45,"velocity":49,"subtype":"noteOn"},{"deltaTime":239,"channel":0,"type":"channel","noteNumber":45,"velocity":0,"subtype":"noteOff"},{"deltaTime":1,"channel":0,"type":"channel","noteNumber":60,"velocity":49,"subtype":"noteOn"},{"deltaTime":0,"channel":0,"type":"channel","noteNumber":53,"velocity":49,"subtype":"noteOn"},{"deltaTime":239,"channel":0,"type":"channel","noteNumber":60,"velocity":0,"subtype":"noteOff"},{"deltaTime":0,"channel":0,"type":"channel","noteNumber":53,"velocity":0,"subtype":"noteOff"},{"deltaTime":1,"channel":0,"type":"channel","noteNumber":65,"velocity":49,"subtype":"noteOn"},{"deltaTime":0,"channel":0,"type":"channel","noteNumber":60,"velocity":49,"subtype":"noteOn"},{"deltaTime":239,"channel":0,"type":"channel","subtype":"controller","controllerType":64,"value":0},{"deltaTime":0,"channel":0,"type":"channel","noteNumber":65,"velocity":0,"subtype":"noteOff"},{"deltaTime":0,"channel":0,"type":"channel","noteNumber":60,"velocity":0,"subtype":"noteOff"},{"deltaTime":1,"channel":0,"type":"channel","subtype":"controller","controllerType":64,"value":127},{"deltaTime":0,"channel":0,"type":"channel","noteNumber":44,"velocity":49,"subtype":"noteOn"},{"deltaTime":239,"channel":0,"type":"channel","noteNumber":44,"velocity":0,"subtype":"noteOff"},{"deltaTime":1,"channel":0,"type":"channel","noteNumber":60,"velocity":49,"subtype":"noteOn"},{"deltaTime":0,"channel":0,"type":"channel","noteNumber":51,"velocity":49,"subtype":"noteOn"},{"deltaTime":239,"channel":0,"type":"channel","noteNumber":60,"velocity":0,"subtype":"noteOff"},{"deltaTime":0,"channel":0,"type":"channel","noteNumber":51,"velocity":0,"subtype":"noteOff"},{"deltaTime":1,"channel":0,"type":"channel","noteNumber":63,"velocity":49,"subtype":"noteOn"},{"deltaTime":0,"channel":0,"type":"channel","noteNumber":60,"velocity":49,"subtype":"noteOn"},{"deltaTime":0,"channel":0,"type":"channel","noteNumber":56,"velocity":49,"subtype":"noteOn"},{"deltaTime":239,"channel":0,"type":"channel","subtype":"controller","controllerType":64,"value":0},{"deltaTime":0,"channel":0,"type":"channel","noteNumber":63,"velocity":0,"subtype":"noteOff"},{"deltaTime":0,"channel":0,"type":"channel","noteNumber":60,"velocity":0,"subtype":"noteOff"},{"deltaTime":0,"channel":0,"type":"channel","noteNumber":56,"velocity":0,"subtype":"noteOff"},{"deltaTime":1,"channel":0,"type":"channel","subtype":"controller","controllerType":64,"value":127},{"deltaTime":0,"channel":0,"type":"channel","noteNumber":32,"velocity":49,"subtype":"noteOn"},{"deltaTime":239,"channel":0,"type":"channel","noteNumber":32,"velocity":0,"subtype":"noteOff"},{"deltaTime":1,"channel":0,"type":"channel","noteNumber":59,"velocity":49,"subtype":"noteOn"},{"deltaTime":0,"channel":0,"type":"channel","noteNumber":51,"velocity":49,"subtype":"noteOn"},{"deltaTime":239,"channel":0,"type":"channel","noteNumber":59,"velocity":0,"subtype":"noteOff"},{"deltaTime":0,"channel":0,"type":"channel","noteNumber":51,"velocity":0,"subtype":"noteOff"},{"deltaTime":1,"channel":0,"type":"channel","noteNumber":63,"velocity":49,"subtype":"noteOn"},{"deltaTime":0,"channel":0,"type":"channel","noteNumber":59,"velocity":49,"subtype":"noteOn"},{"deltaTime":0,"channel":0,"type":"channel","noteNumber":56,"velocity":49,"subtype":"noteOn"},{"deltaTime":239,"channel":0,"type":"channel","subtype":"controller","controllerType":64,"value":0},{"deltaTime":0,"channel":0,"type":"channel","noteNumber":63,"velocity":0,"subtype":"noteOff"},{"deltaTime":0,"channel":0,"type":"channel","noteNumber":59,"velocity":0,"subtype":"noteOff"},{"deltaTime":0,"channel":0,"type":"channel","noteNumber":56,"velocity":0,"subtype":"noteOff"},{"deltaTime":1,"channel":0,"type":"channel","subtype":"controller","controllerType":64,"value":127},{"deltaTime":0,"channel":0,"type":"channel","noteNumber":39,"velocity":49,"subtype":"noteOn"},{"deltaTime":239,"channel":0,"type":"channel","noteNumber":39,"velocity":0,"subtype":"noteOff"},{"deltaTime":1,"channel":0,"type":"channel","noteNumber":63,"velocity":49,"subtype":"noteOn"},{"deltaTime":0,"channel":0,"type":"channel","noteNumber":55,"velocity":49,"subtype":"noteOn"},{"deltaTime":239,"channel":0,"type":"channel","noteNumber":63,"velocity":0,"subtype":"noteOff"},{"deltaTime":0,"channel":0,"type":"channel","noteNumber":55,"velocity":0,"subtype":"noteOff"},{"deltaTime":1,"channel":0,"type":"channel","noteNumber":67,"velocity":49,"subtype":"noteOn"},{"deltaTime":0,"channel":0,"type":"channel","noteNumber":63,"velocity":49,"subtype":"noteOn"},{"deltaTime":0,"channel":0,"type":"channel","noteNumber":58,"velocity":49,"subtype":"noteOn"},{"deltaTime":239,"channel":0,"type":"channel","subtype":"controller","controllerType":64,"value":0},{"deltaTime":0,"channel":0,"type":"channel","noteNumber":67,"velocity":0,"subtype":"noteOff"},{"deltaTime":0,"channel":0,"type":"channel","noteNumber":63,"velocity":0,"subtype":"noteOff"},{"deltaTime":0,"channel":0,"type":"channel","noteNumber":58,"velocity":0,"subtype":"noteOff"},{"deltaTime":1,"channel":0,"type":"channel","subtype":"controller","controllerType":64,"value":127},{"deltaTime":0,"channel":0,"type":"channel","noteNumber":51,"velocity":49,"subtype":"noteOn"},{"deltaTime":239,"channel":0,"type":"channel","noteNumber":51,"velocity":0,"subtype":"noteOff"},{"deltaTime":1,"channel":0,"type":"channel","noteNumber":63,"velocity":49,"subtype":"noteOn"},{"deltaTime":0,"channel":0,"type":"channel","noteNumber":55,"velocity":49,"subtype":"noteOn"},{"deltaTime":239,"channel":0,"type":"channel","noteNumber":63,"velocity":0,"subtype":"noteOff"},{"deltaTime":0,"channel":0,"type":"channel","noteNumber":55,"velocity":0,"subtype":"noteOff"},{"deltaTime":1,"channel":0,"type":"channel","noteNumber":67,"velocity":49,"subtype":"noteOn"},{"deltaTime":0,"channel":0,"type":"channel","noteNumber":63,"velocity":49,"subtype":"noteOn"},{"deltaTime":0,"channel":0,"type":"channel","noteNumber":58,"velocity":49,"subtype":"noteOn"},{"deltaTime":239,"channel":0,"type":"channel","subtype":"controller","controllerType":64,"value":0},{"deltaTime":0,"channel":0,"type":"channel","noteNumber":67,"velocity":0,"subtype":"noteOff"},{"deltaTime":0,"channel":0,"type":"channel","noteNumber":63,"velocity":0,"subtype":"noteOff"},{"deltaTime":0,"channel":0,"type":"channel","noteNumber":58,"velocity":0,"subtype":"noteOff"},{"deltaTime":1,"channel":0,"type":"channel","subtype":"controller","controllerType":64,"value":127},{"deltaTime":0,"channel":0,"type":"channel","noteNumber":40,"velocity":96,"subtype":"noteOn"},{"deltaTime":239,"channel":0,"type":"channel","noteNumber":40,"velocity":0,"subtype":"noteOff"},{"deltaTime":1,"channel":0,"type":"channel","noteNumber":61,"velocity":96,"subtype":"noteOn"},{"deltaTime":0,"channel":0,"type":"channel","noteNumber":52,"velocity":96,"subtype":"noteOn"},{"deltaTime":239,"channel":0,"type":"channel","noteNumber":61,"velocity":0,"subtype":"noteOff"},{"deltaTime":0,"channel":0,"type":"channel","noteNumber":52,"velocity":0,"subtype":"noteOff"},{"deltaTime":1,"channel":0,"type":"channel","noteNumber":67,"velocity":96,"subtype":"noteOn"},{"deltaTime":0,"channel":0,"type":"channel","noteNumber":61,"velocity":96,"subtype":"noteOn"},{"deltaTime":0,"channel":0,"type":"channel","noteNumber":58,"velocity":96,"subtype":"noteOn"},{"deltaTime":239,"channel":0,"type":"channel","subtype":"controller","controllerType":64,"value":0},{"deltaTime":0,"channel":0,"type":"channel","noteNumber":67,"velocity":0,"subtype":"noteOff"},{"deltaTime":0,"channel":0,"type":"channel","noteNumber":61,"velocity":0,"subtype":"noteOff"},{"deltaTime":0,"channel":0,"type":"channel","noteNumber":58,"velocity":0,"subtype":"noteOff"},{"deltaTime":1,"channel":0,"type":"channel","subtype":"controller","controllerType":64,"value":127},{"deltaTime":0,"channel":0,"type":"channel","noteNumber":40,"velocity":96,"subtype":"noteOn"},{"deltaTime":239,"channel":0,"type":"channel","noteNumber":40,"velocity":0,"subtype":"noteOff"},{"deltaTime":1,"channel":0,"type":"channel","noteNumber":60,"velocity":96,"subtype":"noteOn"},{"deltaTime":0,"channel":0,"type":"channel","noteNumber":52,"velocity":96,"subtype":"noteOn"},{"deltaTime":239,"channel":0,"type":"channel","noteNumber":60,"velocity":0,"subtype":"noteOff"},{"deltaTime":0,"channel":0,"type":"channel","noteNumber":52,"velocity":0,"subtype":"noteOff"},{"deltaTime":1,"channel":0,"type":"channel","noteNumber":67,"velocity":96,"subtype":"noteOn"},{"deltaTime":0,"channel":0,"type":"channel","noteNumber":60,"velocity":96,"subtype":"noteOn"},{"deltaTime":0,"channel":0,"type":"channel","noteNumber":58,"velocity":96,"subtype":"noteOn"},{"deltaTime":239,"channel":0,"type":"channel","subtype":"controller","controllerType":64,"value":0},{"deltaTime":0,"channel":0,"type":"channel","noteNumber":67,"velocity":0,"subtype":"noteOff"},{"deltaTime":0,"channel":0,"type":"channel","noteNumber":60,"velocity":0,"subtype":"noteOff"},{"deltaTime":0,"channel":0,"type":"channel","noteNumber":58,"velocity":0,"subtype":"noteOff"},{"deltaTime":1,"channel":0,"type":"channel","subtype":"controller","controllerType":64,"value":127},{"deltaTime":0,"channel":0,"type":"channel","noteNumber":41,"velocity":96,"subtype":"noteOn"},{"deltaTime":239,"channel":0,"type":"channel","noteNumber":41,"velocity":0,"subtype":"noteOff"},{"deltaTime":1,"channel":0,"type":"channel","noteNumber":63,"velocity":96,"subtype":"noteOn"},{"deltaTime":0,"channel":0,"type":"channel","noteNumber":53,"velocity":96,"subtype":"noteOn"},{"deltaTime":239,"channel":0,"type":"channel","noteNumber":63,"velocity":0,"subtype":"noteOff"},{"deltaTime":0,"channel":0,"type":"channel","noteNumber":53,"velocity":0,"subtype":"noteOff"},{"deltaTime":1,"channel":0,"type":"channel","noteNumber":69,"velocity":96,"subtype":"noteOn"},{"deltaTime":0,"channel":0,"type":"channel","noteNumber":63,"velocity":96,"subtype":"noteOn"},{"deltaTime":0,"channel":0,"type":"channel","noteNumber":60,"velocity":96,"subtype":"noteOn"},{"deltaTime":239,"channel":0,"type":"channel","subtype":"controller","controllerType":64,"value":0},{"deltaTime":0,"channel":0,"type":"channel","noteNumber":69,"velocity":0,"subtype":"noteOff"},{"deltaTime":0,"channel":0,"type":"channel","noteNumber":63,"velocity":0,"subtype":"noteOff"},{"deltaTime":0,"channel":0,"type":"channel","noteNumber":60,"velocity":0,"subtype":"noteOff"},{"deltaTime":1,"channel":0,"type":"channel","subtype":"controller","controllerType":64,"value":127},{"deltaTime":0,"channel":0,"type":"channel","noteNumber":43,"velocity":96,"subtype":"noteOn"},{"deltaTime":239,"channel":0,"type":"channel","noteNumber":43,"velocity":0,"subtype":"noteOff"},{"deltaTime":1,"channel":0,"type":"channel","noteNumber":62,"velocity":96,"subtype":"noteOn"},{"deltaTime":0,"channel":0,"type":"channel","noteNumber":55,"velocity":96,"subtype":"noteOn"},{"deltaTime":239,"channel":0,"type":"channel","noteNumber":62,"velocity":0,"subtype":"noteOff"},{"deltaTime":0,"channel":0,"type":"channel","noteNumber":55,"velocity":0,"subtype":"noteOff"},{"deltaTime":1,"channel":0,"type":"channel","noteNumber":70,"velocity":96,"subtype":"noteOn"},{"deltaTime":0,"channel":0,"type":"channel","noteNumber":62,"velocity":96,"subtype":"noteOn"},{"deltaTime":0,"channel":0,"type":"channel","noteNumber":58,"velocity":96,"subtype":"noteOn"},{"deltaTime":239,"channel":0,"type":"channel","subtype":"controller","controllerType":64,"value":0},{"deltaTime":0,"channel":0,"type":"channel","noteNumber":70,"velocity":0,"subtype":"noteOff"},{"deltaTime":0,"channel":0,"type":"channel","noteNumber":62,"velocity":0,"subtype":"noteOff"},{"deltaTime":0,"channel":0,"type":"channel","noteNumber":58,"velocity":0,"subtype":"noteOff"},{"deltaTime":1,"channel":0,"type":"channel","subtype":"controller","controllerType":64,"value":127},{"deltaTime":0,"channel":0,"type":"channel","noteNumber":36,"velocity":96,"subtype":"noteOn"},{"deltaTime":239,"channel":0,"type":"channel","noteNumber":36,"velocity":0,"subtype":"noteOff"},{"deltaTime":1,"channel":0,"type":"channel","noteNumber":63,"velocity":96,"subtype":"noteOn"},{"deltaTime":0,"channel":0,"type":"channel","noteNumber":55,"velocity":96,"subtype":"noteOn"},{"deltaTime":239,"channel":0,"type":"channel","noteNumber":63,"velocity":0,"subtype":"noteOff"},{"deltaTime":0,"channel":0,"type":"channel","noteNumber":55,"velocity":0,"subtype":"noteOff"},{"deltaTime":1,"channel":0,"type":"channel","noteNumber":67,"velocity":96,"subtype":"noteOn"},{"deltaTime":0,"channel":0,"type":"channel","noteNumber":63,"velocity":96,"subtype":"noteOn"},{"deltaTime":0,"channel":0,"type":"channel","noteNumber":60,"velocity":96,"subtype":"noteOn"},{"deltaTime":239,"channel":0,"type":"channel","subtype":"controller","controllerType":64,"value":0},{"deltaTime":0,"channel":0,"type":"channel","noteNumber":67,"velocity":0,"subtype":"noteOff"},{"deltaTime":0,"channel":0,"type":"channel","noteNumber":63,"velocity":0,"subtype":"noteOff"},{"deltaTime":0,"channel":0,"type":"channel","noteNumber":60,"velocity":0,"subtype":"noteOff"},{"deltaTime":1,"channel":0,"type":"channel","subtype":"controller","controllerType":64,"value":127},{"deltaTime":0,"channel":0,"type":"channel","noteNumber":41,"velocity":96,"subtype":"noteOn"},{"deltaTime":239,"channel":0,"type":"channel","noteNumber":41,"velocity":0,"subtype":"noteOff"},{"deltaTime":1,"channel":0,"type":"channel","noteNumber":63,"velocity":96,"subtype":"noteOn"},{"deltaTime":0,"channel":0,"type":"channel","noteNumber":53,"velocity":96,"subtype":"noteOn"},{"deltaTime":239,"channel":0,"type":"channel","noteNumber":63,"velocity":0,"subtype":"noteOff"},{"deltaTime":0,"channel":0,"type":"channel","noteNumber":53,"velocity":0,"subtype":"noteOff"},{"deltaTime":1,"channel":0,"type":"channel","noteNumber":65,"velocity":96,"subtype":"noteOn"},{"deltaTime":0,"channel":0,"type":"channel","noteNumber":63,"velocity":96,"subtype":"noteOn"},{"deltaTime":0,"channel":0,"type":"channel","noteNumber":60,"velocity":96,"subtype":"noteOn"},{"deltaTime":239,"channel":0,"type":"channel","subtype":"controller","controllerType":64,"value":0},{"deltaTime":0,"channel":0,"type":"channel","noteNumber":65,"velocity":0,"subtype":"noteOff"},{"deltaTime":0,"channel":0,"type":"channel","noteNumber":63,"velocity":0,"subtype":"noteOff"},{"deltaTime":0,"channel":0,"type":"channel","noteNumber":60,"velocity":0,"subtype":"noteOff"},{"deltaTime":1,"channel":0,"type":"channel","noteNumber":62,"velocity":96,"subtype":"noteOn"},{"deltaTime":0,"channel":0,"type":"channel","noteNumber":58,"velocity":96,"subtype":"noteOn"},{"deltaTime":239,"channel":0,"type":"channel","noteNumber":62,"velocity":0,"subtype":"noteOff"},{"deltaTime":0,"channel":0,"type":"channel","noteNumber":58,"velocity":0,"subtype":"noteOff"},{"deltaTime":1,"channel":0,"type":"channel","noteNumber":63,"velocity":96,"subtype":"noteOn"},{"deltaTime":0,"channel":0,"type":"channel","noteNumber":57,"velocity":96,"subtype":"noteOn"},{"deltaTime":239,"channel":0,"type":"channel","noteNumber":63,"velocity":0,"subtype":"noteOff"},{"deltaTime":0,"channel":0,"type":"channel","noteNumber":57,"velocity":0,"subtype":"noteOff"},{"deltaTime":1,"channel":0,"type":"channel","noteNumber":56,"velocity":96,"subtype":"noteOn"},{"deltaTime":239,"channel":0,"type":"channel","noteNumber":56,"velocity":0,"subtype":"noteOff"},{"deltaTime":1,"channel":0,"type":"channel","noteNumber":55,"velocity":96,"subtype":"noteOn"},{"deltaTime":239,"channel":0,"type":"channel","noteNumber":55,"velocity":0,"subtype":"noteOff"},{"deltaTime":1,"channel":0,"type":"channel","noteNumber":63,"velocity":96,"subtype":"noteOn"},{"deltaTime":0,"channel":0,"type":"channel","noteNumber":60,"velocity":96,"subtype":"noteOn"},{"deltaTime":0,"channel":0,"type":"channel","noteNumber":53,"velocity":96,"subtype":"noteOn"},{"deltaTime":239,"channel":0,"type":"channel","noteNumber":63,"velocity":0,"subtype":"noteOff"},{"deltaTime":0,"channel":0,"type":"channel","noteNumber":60,"velocity":0,"subtype":"noteOff"},{"deltaTime":0,"channel":0,"type":"channel","noteNumber":53,"velocity":0,"subtype":"noteOff"},{"deltaTime":1,"channel":0,"type":"channel","noteNumber":65,"velocity":96,"subtype":"noteOn"},{"deltaTime":0,"channel":0,"type":"channel","noteNumber":58,"velocity":96,"subtype":"noteOn"},{"deltaTime":239,"channel":0,"type":"channel","noteNumber":65,"velocity":0,"subtype":"noteOff"},{"deltaTime":0,"channel":0,"type":"channel","noteNumber":58,"velocity":0,"subtype":"noteOff"},{"deltaTime":1,"channel":0,"type":"channel","subtype":"controller","controllerType":64,"value":127},{"deltaTime":0,"channel":0,"type":"channel","noteNumber":39,"velocity":49,"subtype":"noteOn"},{"deltaTime":239,"channel":0,"type":"channel","noteNumber":39,"velocity":0,"subtype":"noteOff"},{"deltaTime":1,"channel":0,"type":"channel","noteNumber":63,"velocity":49,"subtype":"noteOn"},{"deltaTime":0,"channel":0,"type":"channel","noteNumber":55,"velocity":49,"subtype":"noteOn"},{"deltaTime":239,"channel":0,"type":"channel","noteNumber":63,"velocity":0,"subtype":"noteOff"},{"deltaTime":0,"channel":0,"type":"channel","noteNumber":55,"velocity":0,"subtype":"noteOff"},{"deltaTime":1,"channel":0,"type":"channel","noteNumber":67,"velocity":49,"subtype":"noteOn"},{"deltaTime":0,"channel":0,"type":"channel","noteNumber":63,"velocity":49,"subtype":"noteOn"},{"deltaTime":0,"channel":0,"type":"channel","noteNumber":58,"velocity":49,"subtype":"noteOn"},{"deltaTime":239,"channel":0,"type":"channel","subtype":"controller","controllerType":64,"value":0},{"deltaTime":0,"channel":0,"type":"channel","noteNumber":67,"velocity":0,"subtype":"noteOff"},{"deltaTime":0,"channel":0,"type":"channel","noteNumber":63,"velocity":0,"subtype":"noteOff"},{"deltaTime":0,"channel":0,"type":"channel","noteNumber":58,"velocity":0,"subtype":"noteOff"},{"deltaTime":1,"channel":0,"type":"channel","subtype":"controller","controllerType":64,"value":127},{"deltaTime":0,"channel":0,"type":"channel","noteNumber":51,"velocity":49,"subtype":"noteOn"},{"deltaTime":239,"channel":0,"type":"channel","noteNumber":51,"velocity":0,"subtype":"noteOff"},{"deltaTime":1,"channel":0,"type":"channel","noteNumber":62,"velocity":49,"subtype":"noteOn"},{"deltaTime":0,"channel":0,"type":"channel","noteNumber":56,"velocity":49,"subtype":"noteOn"},{"deltaTime":239,"channel":0,"type":"channel","noteNumber":62,"velocity":0,"subtype":"noteOff"},{"deltaTime":0,"channel":0,"type":"channel","noteNumber":56,"velocity":0,"subtype":"noteOff"},{"deltaTime":1,"channel":0,"type":"channel","noteNumber":68,"velocity":49,"subtype":"noteOn"},{"deltaTime":0,"channel":0,"type":"channel","noteNumber":62,"velocity":49,"subtype":"noteOn"},{"deltaTime":0,"channel":0,"type":"channel","noteNumber":58,"velocity":49,"subtype":"noteOn"},{"deltaTime":239,"channel":0,"type":"channel","subtype":"controller","controllerType":64,"value":0},{"deltaTime":0,"channel":0,"type":"channel","noteNumber":68,"velocity":0,"subtype":"noteOff"},{"deltaTime":0,"channel":0,"type":"channel","noteNumber":62,"velocity":0,"subtype":"noteOff"},{"deltaTime":0,"channel":0,"type":"channel","noteNumber":58,"velocity":0,"subtype":"noteOff"},{"deltaTime":1,"channel":0,"type":"channel","subtype":"controller","controllerType":64,"value":127},{"deltaTime":0,"channel":0,"type":"channel","noteNumber":51,"velocity":49,"subtype":"noteOn"},{"deltaTime":239,"channel":0,"type":"channel","noteNumber":51,"velocity":0,"subtype":"noteOff"},{"deltaTime":1,"channel":0,"type":"channel","noteNumber":63,"velocity":49,"subtype":"noteOn"},{"deltaTime":0,"channel":0,"type":"channel","noteNumber":55,"velocity":49,"subtype":"noteOn"},{"deltaTime":239,"channel":0,"type":"channel","noteNumber":63,"velocity":0,"subtype":"noteOff"},{"deltaTime":0,"channel":0,"type":"channel","noteNumber":55,"velocity":0,"subtype":"noteOff"},{"deltaTime":1,"channel":0,"type":"channel","noteNumber":67,"velocity":49,"subtype":"noteOn"},{"deltaTime":0,"channel":0,"type":"channel","noteNumber":63,"velocity":49,"subtype":"noteOn"},{"deltaTime":0,"channel":0,"type":"channel","noteNumber":58,"velocity":49,"subtype":"noteOn"},{"deltaTime":239,"channel":0,"type":"channel","subtype":"controller","controllerType":64,"value":0},{"deltaTime":0,"channel":0,"type":"channel","noteNumber":67,"velocity":0,"subtype":"noteOff"},{"deltaTime":0,"channel":0,"type":"channel","noteNumber":63,"velocity":0,"subtype":"noteOff"},{"deltaTime":0,"channel":0,"type":"channel","noteNumber":58,"velocity":0,"subtype":"noteOff"},{"deltaTime":1,"channel":0,"type":"channel","subtype":"controller","controllerType":64,"value":127},{"deltaTime":0,"channel":0,"type":"channel","noteNumber":50,"velocity":49,"subtype":"noteOn"},{"deltaTime":239,"channel":0,"type":"channel","noteNumber":50,"velocity":0,"subtype":"noteOff"},{"deltaTime":1,"channel":0,"type":"channel","noteNumber":63,"velocity":49,"subtype":"noteOn"},{"deltaTime":0,"channel":0,"type":"channel","noteNumber":55,"velocity":49,"subtype":"noteOn"},{"deltaTime":239,"channel":0,"type":"channel","noteNumber":63,"velocity":0,"subtype":"noteOff"},{"deltaTime":0,"channel":0,"type":"channel","noteNumber":55,"velocity":0,"subtype":"noteOff"},{"deltaTime":1,"channel":0,"type":"channel","noteNumber":67,"velocity":49,"subtype":"noteOn"},{"deltaTime":0,"channel":0,"type":"channel","noteNumber":63,"velocity":49,"subtype":"noteOn"},{"deltaTime":0,"channel":0,"type":"channel","noteNumber":58,"velocity":49,"subtype":"noteOn"},{"deltaTime":239,"channel":0,"type":"channel","subtype":"controller","controllerType":64,"value":0},{"deltaTime":0,"channel":0,"type":"channel","noteNumber":67,"velocity":0,"subtype":"noteOff"},{"deltaTime":0,"channel":0,"type":"channel","noteNumber":63,"velocity":0,"subtype":"noteOff"},{"deltaTime":0,"channel":0,"type":"channel","noteNumber":58,"velocity":0,"subtype":"noteOff"},{"deltaTime":1,"channel":0,"type":"channel","subtype":"controller","controllerType":64,"value":127},{"deltaTime":0,"channel":0,"type":"channel","noteNumber":48,"velocity":49,"subtype":"noteOn"},{"deltaTime":239,"channel":0,"type":"channel","noteNumber":48,"velocity":0,"subtype":"noteOff"},{"deltaTime":1,"channel":0,"type":"channel","noteNumber":64,"velocity":49,"subtype":"noteOn"},{"deltaTime":0,"channel":0,"type":"channel","noteNumber":55,"velocity":49,"subtype":"noteOn"},{"deltaTime":239,"channel":0,"type":"channel","noteNumber":64,"velocity":0,"subtype":"noteOff"},{"deltaTime":0,"channel":0,"type":"channel","noteNumber":55,"velocity":0,"subtype":"noteOff"},{"deltaTime":1,"channel":0,"type":"channel","noteNumber":67,"velocity":49,"subtype":"noteOn"},{"deltaTime":0,"channel":0,"type":"channel","noteNumber":64,"velocity":49,"subtype":"noteOn"},{"deltaTime":0,"channel":0,"type":"channel","noteNumber":58,"velocity":49,"subtype":"noteOn"},{"deltaTime":239,"channel":0,"type":"channel","subtype":"controller","controllerType":64,"value":0},{"deltaTime":0,"channel":0,"type":"channel","noteNumber":67,"velocity":0,"subtype":"noteOff"},{"deltaTime":0,"channel":0,"type":"channel","noteNumber":64,"velocity":0,"subtype":"noteOff"},{"deltaTime":0,"channel":0,"type":"channel","noteNumber":58,"velocity":0,"subtype":"noteOff"},{"deltaTime":1,"channel":0,"type":"channel","subtype":"controller","controllerType":64,"value":127},{"deltaTime":0,"channel":0,"type":"channel","noteNumber":48,"velocity":49,"subtype":"noteOn"},{"deltaTime":239,"channel":0,"type":"channel","noteNumber":48,"velocity":0,"subtype":"noteOff"},{"deltaTime":1,"channel":0,"type":"channel","noteNumber":64,"velocity":49,"subtype":"noteOn"},{"deltaTime":0,"channel":0,"type":"channel","noteNumber":55,"velocity":49,"subtype":"noteOn"},{"deltaTime":239,"channel":0,"type":"channel","noteNumber":64,"velocity":0,"subtype":"noteOff"},{"deltaTime":0,"channel":0,"type":"channel","noteNumber":55,"velocity":0,"subtype":"noteOff"},{"deltaTime":1,"channel":0,"type":"channel","noteNumber":70,"velocity":49,"subtype":"noteOn"},{"deltaTime":0,"channel":0,"type":"channel","noteNumber":64,"velocity":49,"subtype":"noteOn"},{"deltaTime":0,"channel":0,"type":"channel","noteNumber":60,"velocity":49,"subtype":"noteOn"},{"deltaTime":239,"channel":0,"type":"channel","subtype":"controller","controllerType":64,"value":0},{"deltaTime":0,"channel":0,"type":"channel","noteNumber":70,"velocity":0,"subtype":"noteOff"},{"deltaTime":0,"channel":0,"type":"channel","noteNumber":64,"velocity":0,"subtype":"noteOff"},{"deltaTime":0,"channel":0,"type":"channel","noteNumber":60,"velocity":0,"subtype":"noteOff"},{"deltaTime":1,"channel":0,"type":"channel","subtype":"controller","controllerType":64,"value":127},{"deltaTime":0,"channel":0,"type":"channel","noteNumber":41,"velocity":49,"subtype":"noteOn"},{"deltaTime":239,"channel":0,"type":"channel","noteNumber":41,"velocity":0,"subtype":"noteOff"},{"deltaTime":1,"channel":0,"type":"channel","noteNumber":61,"velocity":49,"subtype":"noteOn"},{"deltaTime":0,"channel":0,"type":"channel","noteNumber":58,"velocity":49,"subtype":"noteOn"},{"deltaTime":0,"channel":0,"type":"channel","noteNumber":53,"velocity":49,"subtype":"noteOn"},{"deltaTime":239,"channel":0,"type":"channel","noteNumber":61,"velocity":0,"subtype":"noteOff"},{"deltaTime":0,"channel":0,"type":"channel","noteNumber":58,"velocity":0,"subtype":"noteOff"},{"deltaTime":0,"channel":0,"type":"channel","noteNumber":53,"velocity":0,"subtype":"noteOff"},{"deltaTime":1,"channel":0,"type":"channel","noteNumber":64,"velocity":49,"subtype":"noteOn"},{"deltaTime":0,"channel":0,"type":"channel","noteNumber":61,"velocity":49,"subtype":"noteOn"},{"deltaTime":0,"channel":0,"type":"channel","noteNumber":58,"velocity":49,"subtype":"noteOn"},{"deltaTime":239,"channel":0,"type":"channel","subtype":"controller","controllerType":64,"value":0},{"deltaTime":0,"channel":0,"type":"channel","noteNumber":64,"velocity":0,"subtype":"noteOff"},{"deltaTime":0,"channel":0,"type":"channel","noteNumber":61,"velocity":0,"subtype":"noteOff"},{"deltaTime":0,"channel":0,"type":"channel","noteNumber":58,"velocity":0,"subtype":"noteOff"},{"deltaTime":1,"channel":0,"type":"channel","subtype":"controller","controllerType":64,"value":127},{"deltaTime":0,"channel":0,"type":"channel","noteNumber":41,"velocity":49,"subtype":"noteOn"},{"deltaTime":239,"channel":0,"type":"channel","noteNumber":41,"velocity":0,"subtype":"noteOff"},{"deltaTime":1,"channel":0,"type":"channel","noteNumber":60,"velocity":49,"subtype":"noteOn"},{"deltaTime":0,"channel":0,"type":"channel","noteNumber":53,"velocity":49,"subtype":"noteOn"},{"deltaTime":239,"channel":0,"type":"channel","noteNumber":60,"velocity":0,"subtype":"noteOff"},{"deltaTime":0,"channel":0,"type":"channel","noteNumber":53,"velocity":0,"subtype":"noteOff"},{"deltaTime":1,"channel":0,"type":"channel","noteNumber":65,"velocity":49,"subtype":"noteOn"},{"deltaTime":0,"channel":0,"type":"channel","noteNumber":60,"velocity":49,"subtype":"noteOn"},{"deltaTime":0,"channel":0,"type":"channel","noteNumber":56,"velocity":49,"subtype":"noteOn"},{"deltaTime":239,"channel":0,"type":"channel","subtype":"controller","controllerType":64,"value":0},{"deltaTime":0,"channel":0,"type":"channel","noteNumber":65,"velocity":0,"subtype":"noteOff"},{"deltaTime":0,"channel":0,"type":"channel","noteNumber":60,"velocity":0,"subtype":"noteOff"},{"deltaTime":0,"channel":0,"type":"channel","noteNumber":56,"velocity":0,"subtype":"noteOff"},{"deltaTime":1,"channel":0,"type":"channel","subtype":"controller","controllerType":64,"value":127},{"deltaTime":0,"channel":0,"type":"channel","noteNumber":46,"velocity":49,"subtype":"noteOn"},{"deltaTime":239,"channel":0,"type":"channel","noteNumber":46,"velocity":0,"subtype":"noteOff"},{"deltaTime":1,"channel":0,"type":"channel","noteNumber":62,"velocity":49,"subtype":"noteOn"},{"deltaTime":0,"channel":0,"type":"channel","noteNumber":53,"velocity":49,"subtype":"noteOn"},{"deltaTime":239,"channel":0,"type":"channel","noteNumber":62,"velocity":0,"subtype":"noteOff"},{"deltaTime":0,"channel":0,"type":"channel","noteNumber":53,"velocity":0,"subtype":"noteOff"},{"deltaTime":1,"channel":0,"type":"channel","noteNumber":68,"velocity":49,"subtype":"noteOn"},{"deltaTime":0,"channel":0,"type":"channel","noteNumber":62,"velocity":49,"subtype":"noteOn"},{"deltaTime":0,"channel":0,"type":"channel","noteNumber":58,"velocity":49,"subtype":"noteOn"},{"deltaTime":239,"channel":0,"type":"channel","subtype":"controller","controllerType":64,"value":0},{"deltaTime":0,"channel":0,"type":"channel","noteNumber":68,"velocity":0,"subtype":"noteOff"},{"deltaTime":0,"channel":0,"type":"channel","noteNumber":62,"velocity":0,"subtype":"noteOff"},{"deltaTime":0,"channel":0,"type":"channel","noteNumber":58,"velocity":0,"subtype":"noteOff"},{"deltaTime":1,"channel":0,"type":"channel","subtype":"controller","controllerType":64,"value":127},{"deltaTime":0,"channel":0,"type":"channel","noteNumber":47,"velocity":49,"subtype":"noteOn"},{"deltaTime":239,"channel":0,"type":"channel","noteNumber":47,"velocity":0,"subtype":"noteOff"},{"deltaTime":1,"channel":0,"type":"channel","noteNumber":65,"velocity":49,"subtype":"noteOn"},{"deltaTime":0,"channel":0,"type":"channel","noteNumber":55,"velocity":49,"subtype":"noteOn"},{"deltaTime":239,"channel":0,"type":"channel","noteNumber":65,"velocity":0,"subtype":"noteOff"},{"deltaTime":0,"channel":0,"type":"channel","noteNumber":55,"velocity":0,"subtype":"noteOff"},{"deltaTime":1,"channel":0,"type":"channel","noteNumber":67,"velocity":49,"subtype":"noteOn"},{"deltaTime":0,"channel":0,"type":"channel","noteNumber":65,"velocity":49,"subtype":"noteOn"},{"deltaTime":0,"channel":0,"type":"channel","noteNumber":62,"velocity":49,"subtype":"noteOn"},{"deltaTime":239,"channel":0,"type":"channel","subtype":"controller","controllerType":64,"value":0},{"deltaTime":0,"channel":0,"type":"channel","noteNumber":67,"velocity":0,"subtype":"noteOff"},{"deltaTime":0,"channel":0,"type":"channel","noteNumber":65,"velocity":0,"subtype":"noteOff"},{"deltaTime":0,"channel":0,"type":"channel","noteNumber":62,"velocity":0,"subtype":"noteOff"},{"deltaTime":1,"channel":0,"type":"channel","subtype":"controller","controllerType":64,"value":127},{"deltaTime":0,"channel":0,"type":"channel","noteNumber":48,"velocity":49,"subtype":"noteOn"},{"deltaTime":239,"channel":0,"type":"channel","noteNumber":48,"velocity":0,"subtype":"noteOff"},{"deltaTime":1,"channel":0,"type":"channel","noteNumber":63,"velocity":49,"subtype":"noteOn"},{"deltaTime":0,"channel":0,"type":"channel","noteNumber":55,"velocity":49,"subtype":"noteOn"},{"deltaTime":239,"channel":0,"type":"channel","noteNumber":63,"velocity":0,"subtype":"noteOff"},{"deltaTime":0,"channel":0,"type":"channel","noteNumber":55,"velocity":0,"subtype":"noteOff"},{"deltaTime":1,"channel":0,"type":"channel","noteNumber":67,"velocity":49,"subtype":"noteOn"},{"deltaTime":0,"channel":0,"type":"channel","noteNumber":63,"velocity":49,"subtype":"noteOn"},{"deltaTime":0,"channel":0,"type":"channel","noteNumber":60,"velocity":49,"subtype":"noteOn"},{"deltaTime":239,"channel":0,"type":"channel","subtype":"controller","controllerType":64,"value":0},{"deltaTime":0,"channel":0,"type":"channel","noteNumber":67,"velocity":0,"subtype":"noteOff"},{"deltaTime":0,"channel":0,"type":"channel","noteNumber":63,"velocity":0,"subtype":"noteOff"},{"deltaTime":0,"channel":0,"type":"channel","noteNumber":60,"velocity":0,"subtype":"noteOff"},{"deltaTime":1,"channel":0,"type":"channel","subtype":"controller","controllerType":64,"value":127},{"deltaTime":0,"channel":0,"type":"channel","noteNumber":45,"velocity":49,"subtype":"noteOn"},{"deltaTime":239,"channel":0,"type":"channel","noteNumber":45,"velocity":0,"subtype":"noteOff"},{"deltaTime":1,"channel":0,"type":"channel","noteNumber":63,"velocity":49,"subtype":"noteOn"},{"deltaTime":0,"channel":0,"type":"channel","noteNumber":54,"velocity":49,"subtype":"noteOn"},{"deltaTime":239,"channel":0,"type":"channel","noteNumber":63,"velocity":0,"subtype":"noteOff"},{"deltaTime":0,"channel":0,"type":"channel","noteNumber":54,"velocity":0,"subtype":"noteOff"},{"deltaTime":1,"channel":0,"type":"channel","noteNumber":66,"velocity":49,"subtype":"noteOn"},{"deltaTime":0,"channel":0,"type":"channel","noteNumber":63,"velocity":49,"subtype":"noteOn"},{"deltaTime":0,"channel":0,"type":"channel","noteNumber":60,"velocity":49,"subtype":"noteOn"},{"deltaTime":239,"channel":0,"type":"channel","subtype":"controller","controllerType":64,"value":0},{"deltaTime":0,"channel":0,"type":"channel","noteNumber":66,"velocity":0,"subtype":"noteOff"},{"deltaTime":0,"channel":0,"type":"channel","noteNumber":63,"velocity":0,"subtype":"noteOff"},{"deltaTime":0,"channel":0,"type":"channel","noteNumber":60,"velocity":0,"subtype":"noteOff"},{"deltaTime":1,"channel":0,"type":"channel","subtype":"controller","controllerType":64,"value":127},{"deltaTime":0,"channel":0,"type":"channel","noteNumber":46,"velocity":49,"subtype":"noteOn"},{"deltaTime":239,"channel":0,"type":"channel","noteNumber":46,"velocity":0,"subtype":"noteOff"},{"deltaTime":1,"channel":0,"type":"channel","noteNumber":63,"velocity":49,"subtype":"noteOn"},{"deltaTime":0,"channel":0,"type":"channel","noteNumber":53,"velocity":49,"subtype":"noteOn"},{"deltaTime":239,"channel":0,"type":"channel","noteNumber":63,"velocity":0,"subtype":"noteOff"},{"deltaTime":0,"channel":0,"type":"channel","noteNumber":53,"velocity":0,"subtype":"noteOff"},{"deltaTime":1,"channel":0,"type":"channel","noteNumber":68,"velocity":49,"subtype":"noteOn"},{"deltaTime":0,"channel":0,"type":"channel","noteNumber":63,"velocity":49,"subtype":"noteOn"},{"deltaTime":0,"channel":0,"type":"channel","noteNumber":58,"velocity":49,"subtype":"noteOn"},{"deltaTime":239,"channel":0,"type":"channel","subtype":"controller","controllerType":64,"value":0},{"deltaTime":0,"channel":0,"type":"channel","noteNumber":68,"velocity":0,"subtype":"noteOff"},{"deltaTime":0,"channel":0,"type":"channel","noteNumber":63,"velocity":0,"subtype":"noteOff"},{"deltaTime":0,"channel":0,"type":"channel","noteNumber":58,"velocity":0,"subtype":"noteOff"},{"deltaTime":1,"channel":0,"type":"channel","subtype":"controller","controllerType":64,"value":127},{"deltaTime":0,"channel":0,"type":"channel","noteNumber":34,"velocity":49,"subtype":"noteOn"},{"deltaTime":239,"channel":0,"type":"channel","noteNumber":34,"velocity":0,"subtype":"noteOff"},{"deltaTime":1,"channel":0,"type":"channel","noteNumber":62,"velocity":49,"subtype":"noteOn"},{"deltaTime":0,"channel":0,"type":"channel","noteNumber":53,"velocity":49,"subtype":"noteOn"},{"deltaTime":239,"channel":0,"type":"channel","noteNumber":62,"velocity":0,"subtype":"noteOff"},{"deltaTime":0,"channel":0,"type":"channel","noteNumber":53,"velocity":0,"subtype":"noteOff"},{"deltaTime":1,"channel":0,"type":"channel","noteNumber":68,"velocity":49,"subtype":"noteOn"},{"deltaTime":0,"channel":0,"type":"channel","noteNumber":62,"velocity":49,"subtype":"noteOn"},{"deltaTime":0,"channel":0,"type":"channel","noteNumber":58,"velocity":49,"subtype":"noteOn"},{"deltaTime":239,"channel":0,"type":"channel","subtype":"controller","controllerType":64,"value":0},{"deltaTime":0,"channel":0,"type":"channel","noteNumber":68,"velocity":0,"subtype":"noteOff"},{"deltaTime":0,"channel":0,"type":"channel","noteNumber":62,"velocity":0,"subtype":"noteOff"},{"deltaTime":0,"channel":0,"type":"channel","noteNumber":58,"velocity":0,"subtype":"noteOff"},{"deltaTime":1,"channel":0,"type":"channel","subtype":"controller","controllerType":64,"value":127},{"deltaTime":0,"channel":0,"type":"channel","noteNumber":39,"velocity":49,"subtype":"noteOn"},{"deltaTime":239,"channel":0,"type":"channel","noteNumber":39,"velocity":0,"subtype":"noteOff"},{"deltaTime":1,"channel":0,"type":"channel","noteNumber":63,"velocity":49,"subtype":"noteOn"},{"deltaTime":0,"channel":0,"type":"channel","noteNumber":55,"velocity":49,"subtype":"noteOn"},{"deltaTime":239,"channel":0,"type":"channel","noteNumber":63,"velocity":0,"subtype":"noteOff"},{"deltaTime":0,"channel":0,"type":"channel","noteNumber":55,"velocity":0,"subtype":"noteOff"},{"deltaTime":1,"channel":0,"type":"channel","noteNumber":67,"velocity":49,"subtype":"noteOn"},{"deltaTime":0,"channel":0,"type":"channel","noteNumber":63,"velocity":49,"subtype":"noteOn"},{"deltaTime":0,"channel":0,"type":"channel","noteNumber":58,"velocity":49,"subtype":"noteOn"},{"deltaTime":239,"channel":0,"type":"channel","subtype":"controller","controllerType":64,"value":0},{"deltaTime":0,"channel":0,"type":"channel","noteNumber":67,"velocity":0,"subtype":"noteOff"},{"deltaTime":0,"channel":0,"type":"channel","noteNumber":63,"velocity":0,"subtype":"noteOff"},{"deltaTime":0,"channel":0,"type":"channel","noteNumber":58,"velocity":0,"subtype":"noteOff"},{"deltaTime":1,"channel":0,"type":"channel","subtype":"controller","controllerType":64,"value":127},{"deltaTime":0,"channel":0,"type":"channel","noteNumber":51,"velocity":49,"subtype":"noteOn"},{"deltaTime":239,"channel":0,"type":"channel","noteNumber":51,"velocity":0,"subtype":"noteOff"},{"deltaTime":1,"channel":0,"type":"channel","noteNumber":63,"velocity":49,"subtype":"noteOn"},{"deltaTime":0,"channel":0,"type":"channel","noteNumber":55,"velocity":49,"subtype":"noteOn"},{"deltaTime":239,"channel":0,"type":"channel","noteNumber":63,"velocity":0,"subtype":"noteOff"},{"deltaTime":0,"channel":0,"type":"channel","noteNumber":55,"velocity":0,"subtype":"noteOff"},{"deltaTime":1,"channel":0,"type":"channel","noteNumber":67,"velocity":49,"subtype":"noteOn"},{"deltaTime":0,"channel":0,"type":"channel","noteNumber":63,"velocity":49,"subtype":"noteOn"},{"deltaTime":0,"channel":0,"type":"channel","noteNumber":58,"velocity":49,"subtype":"noteOn"},{"deltaTime":239,"channel":0,"type":"channel","subtype":"controller","controllerType":64,"value":0},{"deltaTime":0,"channel":0,"type":"channel","noteNumber":67,"velocity":0,"subtype":"noteOff"},{"deltaTime":0,"channel":0,"type":"channel","noteNumber":63,"velocity":0,"subtype":"noteOff"},{"deltaTime":0,"channel":0,"type":"channel","noteNumber":58,"velocity":0,"subtype":"noteOff"},{"deltaTime":1,"channel":0,"type":"channel","subtype":"controller","controllerType":64,"value":127},{"deltaTime":0,"channel":0,"type":"channel","noteNumber":39,"velocity":49,"subtype":"noteOn"},{"deltaTime":239,"channel":0,"type":"channel","noteNumber":39,"velocity":0,"subtype":"noteOff"},{"deltaTime":1,"channel":0,"type":"channel","noteNumber":63,"velocity":49,"subtype":"noteOn"},{"deltaTime":0,"channel":0,"type":"channel","noteNumber":59,"velocity":49,"subtype":"noteOn"},{"deltaTime":0,"channel":0,"type":"channel","noteNumber":56,"velocity":49,"subtype":"noteOn"},{"deltaTime":239,"channel":0,"type":"channel","noteNumber":63,"velocity":0,"subtype":"noteOff"},{"deltaTime":0,"channel":0,"type":"channel","noteNumber":59,"velocity":0,"subtype":"noteOff"},{"deltaTime":0,"channel":0,"type":"channel","noteNumber":56,"velocity":0,"subtype":"noteOff"},{"deltaTime":1,"channel":0,"type":"channel","noteNumber":68,"velocity":49,"subtype":"noteOn"},{"deltaTime":0,"channel":0,"type":"channel","noteNumber":63,"velocity":49,"subtype":"noteOn"},{"deltaTime":0,"channel":0,"type":"channel","noteNumber":59,"velocity":49,"subtype":"noteOn"},{"deltaTime":239,"channel":0,"type":"channel","noteNumber":68,"velocity":0,"subtype":"noteOff"},{"deltaTime":0,"channel":0,"type":"channel","noteNumber":63,"velocity":0,"subtype":"noteOff"},{"deltaTime":0,"channel":0,"type":"channel","noteNumber":59,"velocity":0,"subtype":"noteOff"},{"deltaTime":1,"channel":0,"type":"channel","noteNumber":51,"velocity":49,"subtype":"noteOn"},{"deltaTime":239,"channel":0,"type":"channel","noteNumber":51,"velocity":0,"subtype":"noteOff"},{"deltaTime":1,"channel":0,"type":"channel","noteNumber":63,"velocity":49,"subtype":"noteOn"},{"deltaTime":0,"channel":0,"type":"channel","noteNumber":59,"velocity":49,"subtype":"noteOn"},{"deltaTime":0,"channel":0,"type":"channel","noteNumber":56,"velocity":49,"subtype":"noteOn"},{"deltaTime":239,"channel":0,"type":"channel","noteNumber":63,"velocity":0,"subtype":"noteOff"},{"deltaTime":0,"channel":0,"type":"channel","noteNumber":59,"velocity":0,"subtype":"noteOff"},{"deltaTime":0,"channel":0,"type":"channel","noteNumber":56,"velocity":0,"subtype":"noteOff"},{"deltaTime":1,"channel":0,"type":"channel","noteNumber":68,"velocity":49,"subtype":"noteOn"},{"deltaTime":0,"channel":0,"type":"channel","noteNumber":63,"velocity":49,"subtype":"noteOn"},{"deltaTime":0,"channel":0,"type":"channel","noteNumber":59,"velocity":49,"subtype":"noteOn"},{"deltaTime":239,"channel":0,"type":"channel","subtype":"controller","controllerType":64,"value":0},{"deltaTime":0,"channel":0,"type":"channel","noteNumber":68,"velocity":0,"subtype":"noteOff"},{"deltaTime":0,"channel":0,"type":"channel","noteNumber":63,"velocity":0,"subtype":"noteOff"},{"deltaTime":0,"channel":0,"type":"channel","noteNumber":59,"velocity":0,"subtype":"noteOff"},{"deltaTime":1,"channel":0,"type":"channel","subtype":"controller","controllerType":64,"value":127},{"deltaTime":0,"channel":0,"type":"channel","noteNumber":39,"velocity":49,"subtype":"noteOn"},{"deltaTime":239,"channel":0,"type":"channel","noteNumber":39,"velocity":0,"subtype":"noteOff"},{"deltaTime":1,"channel":0,"type":"channel","noteNumber":63,"velocity":49,"subtype":"noteOn"},{"deltaTime":0,"channel":0,"type":"channel","noteNumber":55,"velocity":49,"subtype":"noteOn"},{"deltaTime":239,"channel":0,"type":"channel","noteNumber":63,"velocity":0,"subtype":"noteOff"},{"deltaTime":0,"channel":0,"type":"channel","noteNumber":55,"velocity":0,"subtype":"noteOff"},{"deltaTime":1,"channel":0,"type":"channel","noteNumber":67,"velocity":49,"subtype":"noteOn"},{"deltaTime":0,"channel":0,"type":"channel","noteNumber":63,"velocity":49,"subtype":"noteOn"},{"deltaTime":0,"channel":0,"type":"channel","noteNumber":58,"velocity":49,"subtype":"noteOn"},{"deltaTime":239,"channel":0,"type":"channel","noteNumber":67,"velocity":0,"subtype":"noteOff"},{"deltaTime":0,"channel":0,"type":"channel","noteNumber":63,"velocity":0,"subtype":"noteOff"},{"deltaTime":0,"channel":0,"type":"channel","noteNumber":58,"velocity":0,"subtype":"noteOff"},{"deltaTime":1,"channel":0,"type":"channel","noteNumber":51,"velocity":49,"subtype":"noteOn"},{"deltaTime":239,"channel":0,"type":"channel","noteNumber":51,"velocity":0,"subtype":"noteOff"},{"deltaTime":1,"channel":0,"type":"channel","noteNumber":63,"velocity":49,"subtype":"noteOn"},{"deltaTime":0,"channel":0,"type":"channel","noteNumber":55,"velocity":49,"subtype":"noteOn"},{"deltaTime":239,"channel":0,"type":"channel","noteNumber":63,"velocity":0,"subtype":"noteOff"},{"deltaTime":0,"channel":0,"type":"channel","noteNumber":55,"velocity":0,"subtype":"noteOff"},{"deltaTime":1,"channel":0,"type":"channel","noteNumber":67,"velocity":49,"subtype":"noteOn"},{"deltaTime":0,"channel":0,"type":"channel","noteNumber":63,"velocity":49,"subtype":"noteOn"},{"deltaTime":0,"channel":0,"type":"channel","noteNumber":58,"velocity":49,"subtype":"noteOn"},{"deltaTime":239,"channel":0,"type":"channel","subtype":"controller","controllerType":64,"value":0},{"deltaTime":0,"channel":0,"type":"channel","noteNumber":67,"velocity":0,"subtype":"noteOff"},{"deltaTime":0,"channel":0,"type":"channel","noteNumber":63,"velocity":0,"subtype":"noteOff"},{"deltaTime":0,"channel":0,"type":"channel","noteNumber":58,"velocity":0,"subtype":"noteOff"},{"deltaTime":1,"channel":0,"type":"channel","subtype":"controller","controllerType":64,"value":127},{"deltaTime":0,"channel":0,"type":"channel","noteNumber":39,"velocity":49,"subtype":"noteOn"},{"deltaTime":239,"channel":0,"type":"channel","noteNumber":39,"velocity":0,"subtype":"noteOff"},{"deltaTime":1,"channel":0,"type":"channel","noteNumber":63,"velocity":49,"subtype":"noteOn"},{"deltaTime":0,"channel":0,"type":"channel","noteNumber":59,"velocity":49,"subtype":"noteOn"},{"deltaTime":0,"channel":0,"type":"channel","noteNumber":56,"velocity":49,"subtype":"noteOn"},{"deltaTime":239,"channel":0,"type":"channel","noteNumber":63,"velocity":0,"subtype":"noteOff"},{"deltaTime":0,"channel":0,"type":"channel","noteNumber":59,"velocity":0,"subtype":"noteOff"},{"deltaTime":0,"channel":0,"type":"channel","noteNumber":56,"velocity":0,"subtype":"noteOff"},{"deltaTime":1,"channel":0,"type":"channel","noteNumber":68,"velocity":49,"subtype":"noteOn"},{"deltaTime":0,"channel":0,"type":"channel","noteNumber":63,"velocity":49,"subtype":"noteOn"},{"deltaTime":0,"channel":0,"type":"channel","noteNumber":59,"velocity":49,"subtype":"noteOn"},{"deltaTime":239,"channel":0,"type":"channel","noteNumber":68,"velocity":0,"subtype":"noteOff"},{"deltaTime":0,"channel":0,"type":"channel","noteNumber":63,"velocity":0,"subtype":"noteOff"},{"deltaTime":0,"channel":0,"type":"channel","noteNumber":59,"velocity":0,"subtype":"noteOff"},{"deltaTime":1,"channel":0,"type":"channel","noteNumber":51,"velocity":49,"subtype":"noteOn"},{"deltaTime":239,"channel":0,"type":"channel","noteNumber":51,"velocity":0,"subtype":"noteOff"},{"deltaTime":1,"channel":0,"type":"channel","noteNumber":63,"velocity":49,"subtype":"noteOn"},{"deltaTime":0,"channel":0,"type":"channel","noteNumber":59,"velocity":49,"subtype":"noteOn"},{"deltaTime":0,"channel":0,"type":"channel","noteNumber":56,"velocity":49,"subtype":"noteOn"},{"deltaTime":239,"channel":0,"type":"channel","noteNumber":63,"velocity":0,"subtype":"noteOff"},{"deltaTime":0,"channel":0,"type":"channel","noteNumber":59,"velocity":0,"subtype":"noteOff"},{"deltaTime":0,"channel":0,"type":"channel","noteNumber":56,"velocity":0,"subtype":"noteOff"},{"deltaTime":1,"channel":0,"type":"channel","noteNumber":68,"velocity":49,"subtype":"noteOn"},{"deltaTime":0,"channel":0,"type":"channel","noteNumber":63,"velocity":49,"subtype":"noteOn"},{"deltaTime":0,"channel":0,"type":"channel","noteNumber":59,"velocity":49,"subtype":"noteOn"},{"deltaTime":239,"channel":0,"type":"channel","subtype":"controller","controllerType":64,"value":0},{"deltaTime":0,"channel":0,"type":"channel","noteNumber":68,"velocity":0,"subtype":"noteOff"},{"deltaTime":0,"channel":0,"type":"channel","noteNumber":63,"velocity":0,"subtype":"noteOff"},{"deltaTime":0,"channel":0,"type":"channel","noteNumber":59,"velocity":0,"subtype":"noteOff"},{"deltaTime":1,"channel":0,"type":"channel","subtype":"controller","controllerType":64,"value":127},{"deltaTime":0,"channel":0,"type":"channel","noteNumber":39,"velocity":49,"subtype":"noteOn"},{"deltaTime":239,"channel":0,"type":"channel","noteNumber":39,"velocity":0,"subtype":"noteOff"},{"deltaTime":1,"channel":0,"type":"channel","noteNumber":63,"velocity":49,"subtype":"noteOn"},{"deltaTime":0,"channel":0,"type":"channel","noteNumber":55,"velocity":49,"subtype":"noteOn"},{"deltaTime":239,"channel":0,"type":"channel","noteNumber":63,"velocity":0,"subtype":"noteOff"},{"deltaTime":0,"channel":0,"type":"channel","noteNumber":55,"velocity":0,"subtype":"noteOff"},{"deltaTime":1,"channel":0,"type":"channel","noteNumber":67,"velocity":49,"subtype":"noteOn"},{"deltaTime":0,"channel":0,"type":"channel","noteNumber":63,"velocity":49,"subtype":"noteOn"},{"deltaTime":0,"channel":0,"type":"channel","noteNumber":58,"velocity":49,"subtype":"noteOn"},{"deltaTime":239,"channel":0,"type":"channel","noteNumber":67,"velocity":0,"subtype":"noteOff"},{"deltaTime":0,"channel":0,"type":"channel","noteNumber":63,"velocity":0,"subtype":"noteOff"},{"deltaTime":0,"channel":0,"type":"channel","noteNumber":58,"velocity":0,"subtype":"noteOff"},{"deltaTime":1,"channel":0,"type":"channel","noteNumber":51,"velocity":49,"subtype":"noteOn"},{"deltaTime":239,"channel":0,"type":"channel","noteNumber":51,"velocity":0,"subtype":"noteOff"},{"deltaTime":1,"channel":0,"type":"channel","noteNumber":63,"velocity":49,"subtype":"noteOn"},{"deltaTime":0,"channel":0,"type":"channel","noteNumber":55,"velocity":49,"subtype":"noteOn"},{"deltaTime":239,"channel":0,"type":"channel","noteNumber":63,"velocity":0,"subtype":"noteOff"},{"deltaTime":0,"channel":0,"type":"channel","noteNumber":55,"velocity":0,"subtype":"noteOff"},{"deltaTime":1,"channel":0,"type":"channel","noteNumber":67,"velocity":49,"subtype":"noteOn"},{"deltaTime":0,"channel":0,"type":"channel","noteNumber":63,"velocity":49,"subtype":"noteOn"},{"deltaTime":0,"channel":0,"type":"channel","noteNumber":58,"velocity":49,"subtype":"noteOn"},{"deltaTime":239,"channel":0,"type":"channel","subtype":"controller","controllerType":64,"value":0},{"deltaTime":0,"channel":0,"type":"channel","noteNumber":67,"velocity":0,"subtype":"noteOff"},{"deltaTime":0,"channel":0,"type":"channel","noteNumber":63,"velocity":0,"subtype":"noteOff"},{"deltaTime":0,"channel":0,"type":"channel","noteNumber":58,"velocity":0,"subtype":"noteOff"},{"deltaTime":1,"channel":0,"type":"channel","subtype":"controller","controllerType":64,"value":127},{"deltaTime":0,"channel":0,"type":"channel","noteNumber":51,"velocity":33,"subtype":"noteOn"},{"deltaTime":239,"channel":0,"type":"channel","noteNumber":51,"velocity":0,"subtype":"noteOff"},{"deltaTime":1,"channel":0,"type":"channel","noteNumber":62,"velocity":33,"subtype":"noteOn"},{"deltaTime":0,"channel":0,"type":"channel","noteNumber":53,"velocity":33,"subtype":"noteOn"},{"deltaTime":239,"channel":0,"type":"channel","noteNumber":62,"velocity":0,"subtype":"noteOff"},{"deltaTime":0,"channel":0,"type":"channel","noteNumber":53,"velocity":0,"subtype":"noteOff"},{"deltaTime":1,"channel":0,"type":"channel","noteNumber":68,"velocity":33,"subtype":"noteOn"},{"deltaTime":0,"channel":0,"type":"channel","noteNumber":58,"velocity":33,"subtype":"noteOn"},{"deltaTime":239,"channel":0,"type":"channel","noteNumber":68,"velocity":0,"subtype":"noteOff"},{"deltaTime":0,"channel":0,"type":"channel","noteNumber":58,"velocity":0,"subtype":"noteOff"},{"deltaTime":1,"channel":0,"type":"channel","noteNumber":51,"velocity":33,"subtype":"noteOn"},{"deltaTime":239,"channel":0,"type":"channel","noteNumber":51,"velocity":0,"subtype":"noteOff"},{"deltaTime":1,"channel":0,"type":"channel","noteNumber":62,"velocity":33,"subtype":"noteOn"},{"deltaTime":0,"channel":0,"type":"channel","noteNumber":53,"velocity":33,"subtype":"noteOn"},{"deltaTime":239,"channel":0,"type":"channel","noteNumber":62,"velocity":0,"subtype":"noteOff"},{"deltaTime":0,"channel":0,"type":"channel","noteNumber":53,"velocity":0,"subtype":"noteOff"},{"deltaTime":1,"channel":0,"type":"channel","noteNumber":68,"velocity":33,"subtype":"noteOn"},{"deltaTime":0,"channel":0,"type":"channel","noteNumber":58,"velocity":33,"subtype":"noteOn"},{"deltaTime":239,"channel":0,"type":"channel","subtype":"controller","controllerType":64,"value":0},{"deltaTime":0,"channel":0,"type":"channel","noteNumber":68,"velocity":0,"subtype":"noteOff"},{"deltaTime":0,"channel":0,"type":"channel","noteNumber":58,"velocity":0,"subtype":"noteOff"},{"deltaTime":1,"channel":0,"type":"channel","subtype":"controller","controllerType":64,"value":127},{"deltaTime":0,"channel":0,"type":"channel","noteNumber":51,"velocity":33,"subtype":"noteOn"},{"deltaTime":239,"channel":0,"type":"channel","noteNumber":51,"velocity":0,"subtype":"noteOff"},{"deltaTime":1,"channel":0,"type":"channel","noteNumber":63,"velocity":33,"subtype":"noteOn"},{"deltaTime":0,"channel":0,"type":"channel","noteNumber":55,"velocity":33,"subtype":"noteOn"},{"deltaTime":239,"channel":0,"type":"channel","noteNumber":63,"velocity":0,"subtype":"noteOff"},{"deltaTime":0,"channel":0,"type":"channel","noteNumber":55,"velocity":0,"subtype":"noteOff"},{"deltaTime":1,"channel":0,"type":"channel","noteNumber":67,"velocity":33,"subtype":"noteOn"},{"deltaTime":0,"channel":0,"type":"channel","noteNumber":58,"velocity":33,"subtype":"noteOn"},{"deltaTime":239,"channel":0,"type":"channel","subtype":"controller","controllerType":64,"value":0},{"deltaTime":0,"channel":0,"type":"channel","noteNumber":67,"velocity":0,"subtype":"noteOff"},{"deltaTime":0,"channel":0,"type":"channel","noteNumber":58,"velocity":0,"subtype":"noteOff"},{"deltaTime":1,"channel":0,"type":"channel","subtype":"controller","controllerType":64,"value":127},{"deltaTime":0,"channel":0,"type":"channel","noteNumber":45,"velocity":33,"subtype":"noteOn"},{"deltaTime":239,"channel":0,"type":"channel","noteNumber":45,"velocity":0,"subtype":"noteOff"},{"deltaTime":1,"channel":0,"type":"channel","noteNumber":63,"velocity":33,"subtype":"noteOn"},{"deltaTime":0,"channel":0,"type":"channel","noteNumber":53,"velocity":33,"subtype":"noteOn"},{"deltaTime":239,"channel":0,"type":"channel","noteNumber":63,"velocity":0,"subtype":"noteOff"},{"deltaTime":0,"channel":0,"type":"channel","noteNumber":53,"velocity":0,"subtype":"noteOff"},{"deltaTime":1,"channel":0,"type":"channel","noteNumber":65,"velocity":33,"subtype":"noteOn"},{"deltaTime":0,"channel":0,"type":"channel","noteNumber":63,"velocity":33,"subtype":"noteOn"},{"deltaTime":0,"channel":0,"type":"channel","noteNumber":60,"velocity":33,"subtype":"noteOn"},{"deltaTime":239,"channel":0,"type":"channel","subtype":"controller","controllerType":64,"value":0},{"deltaTime":0,"channel":0,"type":"channel","noteNumber":65,"velocity":0,"subtype":"noteOff"},{"deltaTime":0,"channel":0,"type":"channel","noteNumber":63,"velocity":0,"subtype":"noteOff"},{"deltaTime":0,"channel":0,"type":"channel","noteNumber":60,"velocity":0,"subtype":"noteOff"},{"deltaTime":1,"channel":0,"type":"channel","subtype":"controller","controllerType":64,"value":127},{"deltaTime":0,"channel":0,"type":"channel","noteNumber":46,"velocity":33,"subtype":"noteOn"},{"deltaTime":239,"channel":0,"type":"channel","noteNumber":46,"velocity":0,"subtype":"noteOff"},{"deltaTime":1,"channel":0,"type":"channel","noteNumber":63,"velocity":33,"subtype":"noteOn"},{"deltaTime":0,"channel":0,"type":"channel","noteNumber":53,"velocity":33,"subtype":"noteOn"},{"deltaTime":239,"channel":0,"type":"channel","noteNumber":63,"velocity":0,"subtype":"noteOff"},{"deltaTime":0,"channel":0,"type":"channel","noteNumber":53,"velocity":0,"subtype":"noteOff"},{"deltaTime":1,"channel":0,"type":"channel","noteNumber":68,"velocity":33,"subtype":"noteOn"},{"deltaTime":0,"channel":0,"type":"channel","noteNumber":63,"velocity":33,"subtype":"noteOn"},{"deltaTime":0,"channel":0,"type":"channel","noteNumber":58,"velocity":33,"subtype":"noteOn"},{"deltaTime":239,"channel":0,"type":"channel","subtype":"controller","controllerType":64,"value":0},{"deltaTime":0,"channel":0,"type":"channel","noteNumber":68,"velocity":0,"subtype":"noteOff"},{"deltaTime":0,"channel":0,"type":"channel","noteNumber":63,"velocity":0,"subtype":"noteOff"},{"deltaTime":0,"channel":0,"type":"channel","noteNumber":58,"velocity":0,"subtype":"noteOff"},{"deltaTime":1,"channel":0,"type":"channel","subtype":"controller","controllerType":64,"value":127},{"deltaTime":0,"channel":0,"type":"channel","noteNumber":34,"velocity":33,"subtype":"noteOn"},{"deltaTime":239,"channel":0,"type":"channel","noteNumber":34,"velocity":0,"subtype":"noteOff"},{"deltaTime":1,"channel":0,"type":"channel","noteNumber":62,"velocity":33,"subtype":"noteOn"},{"deltaTime":0,"channel":0,"type":"channel","noteNumber":53,"velocity":33,"subtype":"noteOn"},{"deltaTime":239,"channel":0,"type":"channel","noteNumber":62,"velocity":0,"subtype":"noteOff"},{"deltaTime":0,"channel":0,"type":"channel","noteNumber":53,"velocity":0,"subtype":"noteOff"},{"deltaTime":1,"channel":0,"type":"channel","noteNumber":68,"velocity":33,"subtype":"noteOn"},{"deltaTime":0,"channel":0,"type":"channel","noteNumber":62,"velocity":33,"subtype":"noteOn"},{"deltaTime":0,"channel":0,"type":"channel","noteNumber":58,"velocity":33,"subtype":"noteOn"},{"deltaTime":239,"channel":0,"type":"channel","subtype":"controller","controllerType":64,"value":0},{"deltaTime":0,"channel":0,"type":"channel","noteNumber":68,"velocity":0,"subtype":"noteOff"},{"deltaTime":0,"channel":0,"type":"channel","noteNumber":62,"velocity":0,"subtype":"noteOff"},{"deltaTime":0,"channel":0,"type":"channel","noteNumber":58,"velocity":0,"subtype":"noteOff"},{"deltaTime":1,"channel":0,"type":"channel","subtype":"controller","controllerType":64,"value":127},{"deltaTime":0,"channel":0,"type":"channel","noteNumber":39,"velocity":33,"subtype":"noteOn"},{"deltaTime":239,"channel":0,"type":"channel","noteNumber":39,"velocity":0,"subtype":"noteOff"},{"deltaTime":1,"channel":0,"type":"channel","noteNumber":63,"velocity":33,"subtype":"noteOn"},{"deltaTime":0,"channel":0,"type":"channel","noteNumber":55,"velocity":33,"subtype":"noteOn"},{"deltaTime":239,"channel":0,"type":"channel","noteNumber":63,"velocity":0,"subtype":"noteOff"},{"deltaTime":0,"channel":0,"type":"channel","noteNumber":55,"velocity":0,"subtype":"noteOff"},{"deltaTime":1,"channel":0,"type":"channel","noteNumber":67,"velocity":33,"subtype":"noteOn"},{"deltaTime":0,"channel":0,"type":"channel","noteNumber":63,"velocity":33,"subtype":"noteOn"},{"deltaTime":0,"channel":0,"type":"channel","noteNumber":58,"velocity":33,"subtype":"noteOn"},{"deltaTime":239,"channel":0,"type":"channel","noteNumber":67,"velocity":0,"subtype":"noteOff"},{"deltaTime":0,"channel":0,"type":"channel","noteNumber":63,"velocity":0,"subtype":"noteOff"},{"deltaTime":0,"channel":0,"type":"channel","noteNumber":58,"velocity":0,"subtype":"noteOff"},{"deltaTime":1,"channel":0,"type":"channel","noteNumber":51,"velocity":33,"subtype":"noteOn"},{"deltaTime":239,"channel":0,"type":"channel","noteNumber":51,"velocity":0,"subtype":"noteOff"},{"deltaTime":1,"channel":0,"type":"channel","noteNumber":63,"velocity":33,"subtype":"noteOn"},{"deltaTime":0,"channel":0,"type":"channel","noteNumber":55,"velocity":33,"subtype":"noteOn"},{"deltaTime":239,"channel":0,"type":"channel","noteNumber":63,"velocity":0,"subtype":"noteOff"},{"deltaTime":0,"channel":0,"type":"channel","noteNumber":55,"velocity":0,"subtype":"noteOff"},{"deltaTime":1,"channel":0,"type":"channel","noteNumber":67,"velocity":33,"subtype":"noteOn"},{"deltaTime":0,"channel":0,"type":"channel","noteNumber":63,"velocity":33,"subtype":"noteOn"},{"deltaTime":0,"channel":0,"type":"channel","noteNumber":58,"velocity":33,"subtype":"noteOn"},{"deltaTime":239,"channel":0,"type":"channel","subtype":"controller","controllerType":64,"value":0},{"deltaTime":0,"channel":0,"type":"channel","noteNumber":67,"velocity":0,"subtype":"noteOff"},{"deltaTime":0,"channel":0,"type":"channel","noteNumber":63,"velocity":0,"subtype":"noteOff"},{"deltaTime":0,"channel":0,"type":"channel","noteNumber":58,"velocity":0,"subtype":"noteOff"},{"deltaTime":1,"channel":0,"type":"channel","subtype":"controller","controllerType":64,"value":127},{"deltaTime":0,"channel":0,"type":"channel","noteNumber":32,"velocity":49,"subtype":"noteOn"},{"deltaTime":239,"channel":0,"type":"channel","noteNumber":32,"velocity":0,"subtype":"noteOff"},{"deltaTime":1,"channel":0,"type":"channel","noteNumber":59,"velocity":49,"subtype":"noteOn"},{"deltaTime":0,"channel":0,"type":"channel","noteNumber":56,"velocity":49,"subtype":"noteOn"},{"deltaTime":0,"channel":0,"type":"channel","noteNumber":51,"velocity":49,"subtype":"noteOn"},{"deltaTime":239,"channel":0,"type":"channel","noteNumber":59,"velocity":0,"subtype":"noteOff"},{"deltaTime":0,"channel":0,"type":"channel","noteNumber":56,"velocity":0,"subtype":"noteOff"},{"deltaTime":0,"channel":0,"type":"channel","noteNumber":51,"velocity":0,"subtype":"noteOff"},{"deltaTime":1,"channel":0,"type":"channel","noteNumber":63,"velocity":49,"subtype":"noteOn"},{"deltaTime":0,"channel":0,"type":"channel","noteNumber":59,"velocity":49,"subtype":"noteOn"},{"deltaTime":0,"channel":0,"type":"channel","noteNumber":56,"velocity":49,"subtype":"noteOn"},{"deltaTime":239,"channel":0,"type":"channel","noteNumber":63,"velocity":0,"subtype":"noteOff"},{"deltaTime":0,"channel":0,"type":"channel","noteNumber":59,"velocity":0,"subtype":"noteOff"},{"deltaTime":0,"channel":0,"type":"channel","noteNumber":56,"velocity":0,"subtype":"noteOff"},{"deltaTime":1,"channel":0,"type":"channel","noteNumber":68,"velocity":49,"subtype":"noteOn"},{"deltaTime":0,"channel":0,"type":"channel","noteNumber":63,"velocity":49,"subtype":"noteOn"},{"deltaTime":0,"channel":0,"type":"channel","noteNumber":59,"velocity":49,"subtype":"noteOn"},{"deltaTime":239,"channel":0,"type":"channel","noteNumber":68,"velocity":0,"subtype":"noteOff"},{"deltaTime":0,"channel":0,"type":"channel","noteNumber":63,"velocity":0,"subtype":"noteOff"},{"deltaTime":0,"channel":0,"type":"channel","noteNumber":59,"velocity":0,"subtype":"noteOff"},{"deltaTime":1,"channel":0,"type":"channel","noteNumber":63,"velocity":49,"subtype":"noteOn"},{"deltaTime":0,"channel":0,"type":"channel","noteNumber":59,"velocity":49,"subtype":"noteOn"},{"deltaTime":0,"channel":0,"type":"channel","noteNumber":56,"velocity":49,"subtype":"noteOn"},{"deltaTime":239,"channel":0,"type":"channel","noteNumber":63,"velocity":0,"subtype":"noteOff"},{"deltaTime":0,"channel":0,"type":"channel","noteNumber":59,"velocity":0,"subtype":"noteOff"},{"deltaTime":0,"channel":0,"type":"channel","noteNumber":56,"velocity":0,"subtype":"noteOff"},{"deltaTime":1,"channel":0,"type":"channel","noteNumber":59,"velocity":49,"subtype":"noteOn"},{"deltaTime":0,"channel":0,"type":"channel","noteNumber":56,"velocity":49,"subtype":"noteOn"},{"deltaTime":0,"channel":0,"type":"channel","noteNumber":51,"velocity":49,"subtype":"noteOn"},{"deltaTime":239,"channel":0,"type":"channel","subtype":"controller","controllerType":64,"value":0},{"deltaTime":0,"channel":0,"type":"channel","noteNumber":59,"velocity":0,"subtype":"noteOff"},{"deltaTime":0,"channel":0,"type":"channel","noteNumber":56,"velocity":0,"subtype":"noteOff"},{"deltaTime":0,"channel":0,"type":"channel","noteNumber":51,"velocity":0,"subtype":"noteOff"},{"deltaTime":1,"channel":0,"type":"channel","subtype":"controller","controllerType":64,"value":127},{"deltaTime":0,"channel":0,"type":"channel","noteNumber":39,"velocity":49,"subtype":"noteOn"},{"deltaTime":239,"channel":0,"type":"channel","noteNumber":39,"velocity":0,"subtype":"noteOff"},{"deltaTime":1,"channel":0,"type":"channel","noteNumber":63,"velocity":49,"subtype":"noteOn"},{"deltaTime":0,"channel":0,"type":"channel","noteNumber":55,"velocity":49,"subtype":"noteOn"},{"deltaTime":239,"channel":0,"type":"channel","noteNumber":63,"velocity":0,"subtype":"noteOff"},{"deltaTime":0,"channel":0,"type":"channel","noteNumber":55,"velocity":0,"subtype":"noteOff"},{"deltaTime":1,"channel":0,"type":"channel","noteNumber":67,"velocity":49,"subtype":"noteOn"},{"deltaTime":0,"channel":0,"type":"channel","noteNumber":63,"velocity":49,"subtype":"noteOn"},{"deltaTime":0,"channel":0,"type":"channel","noteNumber":58,"velocity":49,"subtype":"noteOn"},{"deltaTime":239,"channel":0,"type":"channel","noteNumber":67,"velocity":0,"subtype":"noteOff"},{"deltaTime":0,"channel":0,"type":"channel","noteNumber":63,"velocity":0,"subtype":"noteOff"},{"deltaTime":0,"channel":0,"type":"channel","noteNumber":58,"velocity":0,"subtype":"noteOff"},{"deltaTime":1,"channel":0,"type":"channel","noteNumber":51,"velocity":49,"subtype":"noteOn"},{"deltaTime":239,"channel":0,"type":"channel","noteNumber":51,"velocity":0,"subtype":"noteOff"},{"deltaTime":1,"channel":0,"type":"channel","noteNumber":63,"velocity":49,"subtype":"noteOn"},{"deltaTime":0,"channel":0,"type":"channel","noteNumber":55,"velocity":49,"subtype":"noteOn"},{"deltaTime":239,"channel":0,"type":"channel","noteNumber":63,"velocity":0,"subtype":"noteOff"},{"deltaTime":0,"channel":0,"type":"channel","noteNumber":55,"velocity":0,"subtype":"noteOff"},{"deltaTime":1,"channel":0,"type":"channel","noteNumber":67,"velocity":49,"subtype":"noteOn"},{"deltaTime":0,"channel":0,"type":"channel","noteNumber":63,"velocity":49,"subtype":"noteOn"},{"deltaTime":0,"channel":0,"type":"channel","noteNumber":58,"velocity":49,"subtype":"noteOn"},{"deltaTime":239,"channel":0,"type":"channel","subtype":"controller","controllerType":64,"value":0},{"deltaTime":0,"channel":0,"type":"channel","noteNumber":67,"velocity":0,"subtype":"noteOff"},{"deltaTime":0,"channel":0,"type":"channel","noteNumber":63,"velocity":0,"subtype":"noteOff"},{"deltaTime":0,"channel":0,"type":"channel","noteNumber":58,"velocity":0,"subtype":"noteOff"},{"deltaTime":1,"channel":0,"type":"channel","subtype":"controller","controllerType":64,"value":127},{"deltaTime":0,"channel":0,"type":"channel","noteNumber":32,"velocity":96,"subtype":"noteOn"},{"deltaTime":239,"channel":0,"type":"channel","noteNumber":32,"velocity":0,"subtype":"noteOff"},{"deltaTime":1,"channel":0,"type":"channel","noteNumber":59,"velocity":96,"subtype":"noteOn"},{"deltaTime":0,"channel":0,"type":"channel","noteNumber":56,"velocity":96,"subtype":"noteOn"},{"deltaTime":0,"channel":0,"type":"channel","noteNumber":51,"velocity":96,"subtype":"noteOn"},{"deltaTime":239,"channel":0,"type":"channel","noteNumber":59,"velocity":0,"subtype":"noteOff"},{"deltaTime":0,"channel":0,"type":"channel","noteNumber":56,"velocity":0,"subtype":"noteOff"},{"deltaTime":0,"channel":0,"type":"channel","noteNumber":51,"velocity":0,"subtype":"noteOff"},{"deltaTime":1,"channel":0,"type":"channel","noteNumber":63,"velocity":96,"subtype":"noteOn"},{"deltaTime":0,"channel":0,"type":"channel","noteNumber":59,"velocity":96,"subtype":"noteOn"},{"deltaTime":0,"channel":0,"type":"channel","noteNumber":56,"velocity":96,"subtype":"noteOn"},{"deltaTime":239,"channel":0,"type":"channel","noteNumber":63,"velocity":0,"subtype":"noteOff"},{"deltaTime":0,"channel":0,"type":"channel","noteNumber":59,"velocity":0,"subtype":"noteOff"},{"deltaTime":0,"channel":0,"type":"channel","noteNumber":56,"velocity":0,"subtype":"noteOff"},{"deltaTime":1,"channel":0,"type":"channel","noteNumber":59,"velocity":96,"subtype":"noteOn"},{"deltaTime":0,"channel":0,"type":"channel","noteNumber":56,"velocity":96,"subtype":"noteOn"},{"deltaTime":0,"channel":0,"type":"channel","noteNumber":51,"velocity":96,"subtype":"noteOn"},{"deltaTime":239,"channel":0,"type":"channel","noteNumber":59,"velocity":0,"subtype":"noteOff"},{"deltaTime":0,"channel":0,"type":"channel","noteNumber":56,"velocity":0,"subtype":"noteOff"},{"deltaTime":0,"channel":0,"type":"channel","noteNumber":51,"velocity":0,"subtype":"noteOff"},{"deltaTime":1,"channel":0,"type":"channel","noteNumber":63,"velocity":96,"subtype":"noteOn"},{"deltaTime":0,"channel":0,"type":"channel","noteNumber":59,"velocity":96,"subtype":"noteOn"},{"deltaTime":0,"channel":0,"type":"channel","noteNumber":56,"velocity":96,"subtype":"noteOn"},{"deltaTime":239,"channel":0,"type":"channel","noteNumber":63,"velocity":0,"subtype":"noteOff"},{"deltaTime":0,"channel":0,"type":"channel","noteNumber":59,"velocity":0,"subtype":"noteOff"},{"deltaTime":0,"channel":0,"type":"channel","noteNumber":56,"velocity":0,"subtype":"noteOff"},{"deltaTime":1,"channel":0,"type":"channel","noteNumber":59,"velocity":96,"subtype":"noteOn"},{"deltaTime":0,"channel":0,"type":"channel","noteNumber":56,"velocity":96,"subtype":"noteOn"},{"deltaTime":0,"channel":0,"type":"channel","noteNumber":51,"velocity":96,"subtype":"noteOn"},{"deltaTime":239,"channel":0,"type":"channel","subtype":"controller","controllerType":64,"value":0},{"deltaTime":0,"channel":0,"type":"channel","noteNumber":59,"velocity":0,"subtype":"noteOff"},{"deltaTime":0,"channel":0,"type":"channel","noteNumber":56,"velocity":0,"subtype":"noteOff"},{"deltaTime":0,"channel":0,"type":"channel","noteNumber":51,"velocity":0,"subtype":"noteOff"},{"deltaTime":1,"channel":0,"type":"channel","subtype":"controller","controllerType":64,"value":127},{"deltaTime":0,"channel":0,"type":"channel","noteNumber":39,"velocity":96,"subtype":"noteOn"},{"deltaTime":239,"channel":0,"type":"channel","noteNumber":39,"velocity":0,"subtype":"noteOff"},{"deltaTime":1,"channel":0,"type":"channel","noteNumber":63,"velocity":96,"subtype":"noteOn"},{"deltaTime":0,"channel":0,"type":"channel","noteNumber":55,"velocity":96,"subtype":"noteOn"},{"deltaTime":239,"channel":0,"type":"channel","noteNumber":63,"velocity":0,"subtype":"noteOff"},{"deltaTime":0,"channel":0,"type":"channel","noteNumber":55,"velocity":0,"subtype":"noteOff"},{"deltaTime":1,"channel":0,"type":"channel","noteNumber":67,"velocity":96,"subtype":"noteOn"},{"deltaTime":0,"channel":0,"type":"channel","noteNumber":63,"velocity":96,"subtype":"noteOn"},{"deltaTime":0,"channel":0,"type":"channel","noteNumber":58,"velocity":96,"subtype":"noteOn"},{"deltaTime":239,"channel":0,"type":"channel","subtype":"controller","controllerType":64,"value":0},{"deltaTime":0,"channel":0,"type":"channel","noteNumber":67,"velocity":0,"subtype":"noteOff"},{"deltaTime":0,"channel":0,"type":"channel","noteNumber":63,"velocity":0,"subtype":"noteOff"},{"deltaTime":0,"channel":0,"type":"channel","noteNumber":58,"velocity":0,"subtype":"noteOff"},{"deltaTime":1,"channel":0,"type":"channel","subtype":"controller","controllerType":64,"value":127},{"deltaTime":0,"channel":0,"type":"channel","noteNumber":45,"velocity":96,"subtype":"noteOn"},{"deltaTime":239,"channel":0,"type":"channel","noteNumber":45,"velocity":0,"subtype":"noteOff"},{"deltaTime":1,"channel":0,"type":"channel","noteNumber":63,"velocity":96,"subtype":"noteOn"},{"deltaTime":0,"channel":0,"type":"channel","noteNumber":53,"velocity":96,"subtype":"noteOn"},{"deltaTime":239,"channel":0,"type":"channel","noteNumber":63,"velocity":0,"subtype":"noteOff"},{"deltaTime":0,"channel":0,"type":"channel","noteNumber":53,"velocity":0,"subtype":"noteOff"},{"deltaTime":1,"channel":0,"type":"channel","noteNumber":65,"velocity":96,"subtype":"noteOn"},{"deltaTime":0,"channel":0,"type":"channel","noteNumber":63,"velocity":96,"subtype":"noteOn"},{"deltaTime":0,"channel":0,"type":"channel","noteNumber":60,"velocity":96,"subtype":"noteOn"},{"deltaTime":239,"channel":0,"type":"channel","subtype":"controller","controllerType":64,"value":0},{"deltaTime":0,"channel":0,"type":"channel","noteNumber":65,"velocity":0,"subtype":"noteOff"},{"deltaTime":0,"channel":0,"type":"channel","noteNumber":63,"velocity":0,"subtype":"noteOff"},{"deltaTime":0,"channel":0,"type":"channel","noteNumber":60,"velocity":0,"subtype":"noteOff"},{"deltaTime":1,"channel":0,"type":"channel","subtype":"controller","controllerType":64,"value":127},{"deltaTime":0,"channel":0,"type":"channel","noteNumber":46,"velocity":96,"subtype":"noteOn"},{"deltaTime":239,"channel":0,"type":"channel","noteNumber":46,"velocity":0,"subtype":"noteOff"},{"deltaTime":1,"channel":0,"type":"channel","noteNumber":63,"velocity":96,"subtype":"noteOn"},{"deltaTime":0,"channel":0,"type":"channel","noteNumber":58,"velocity":96,"subtype":"noteOn"},{"deltaTime":0,"channel":0,"type":"channel","noteNumber":53,"velocity":96,"subtype":"noteOn"},{"deltaTime":239,"channel":0,"type":"channel","noteNumber":63,"velocity":0,"subtype":"noteOff"},{"deltaTime":0,"channel":0,"type":"channel","noteNumber":58,"velocity":0,"subtype":"noteOff"},{"deltaTime":0,"channel":0,"type":"channel","noteNumber":53,"velocity":0,"subtype":"noteOff"},{"deltaTime":1,"channel":0,"type":"channel","noteNumber":68,"velocity":96,"subtype":"noteOn"},{"deltaTime":0,"channel":0,"type":"channel","noteNumber":63,"velocity":96,"subtype":"noteOn"},{"deltaTime":0,"channel":0,"type":"channel","noteNumber":58,"velocity":96,"subtype":"noteOn"},{"deltaTime":239,"channel":0,"type":"channel","subtype":"controller","controllerType":64,"value":0},{"deltaTime":0,"channel":0,"type":"channel","noteNumber":68,"velocity":0,"subtype":"noteOff"},{"deltaTime":0,"channel":0,"type":"channel","noteNumber":63,"velocity":0,"subtype":"noteOff"},{"deltaTime":0,"channel":0,"type":"channel","noteNumber":58,"velocity":0,"subtype":"noteOff"},{"deltaTime":1,"channel":0,"type":"channel","subtype":"controller","controllerType":64,"value":127},{"deltaTime":0,"channel":0,"type":"channel","noteNumber":47,"velocity":96,"subtype":"noteOn"},{"deltaTime":239,"channel":0,"type":"channel","noteNumber":47,"velocity":0,"subtype":"noteOff"},{"deltaTime":1,"channel":0,"type":"channel","noteNumber":65,"velocity":96,"subtype":"noteOn"},{"deltaTime":0,"channel":0,"type":"channel","noteNumber":55,"velocity":96,"subtype":"noteOn"},{"deltaTime":239,"channel":0,"type":"channel","noteNumber":65,"velocity":0,"subtype":"noteOff"},{"deltaTime":0,"channel":0,"type":"channel","noteNumber":55,"velocity":0,"subtype":"noteOff"},{"deltaTime":1,"channel":0,"type":"channel","noteNumber":67,"velocity":96,"subtype":"noteOn"},{"deltaTime":0,"channel":0,"type":"channel","noteNumber":65,"velocity":96,"subtype":"noteOn"},{"deltaTime":0,"channel":0,"type":"channel","noteNumber":62,"velocity":96,"subtype":"noteOn"},{"deltaTime":239,"channel":0,"type":"channel","subtype":"controller","controllerType":64,"value":0},{"deltaTime":0,"channel":0,"type":"channel","noteNumber":67,"velocity":0,"subtype":"noteOff"},{"deltaTime":0,"channel":0,"type":"channel","noteNumber":65,"velocity":0,"subtype":"noteOff"},{"deltaTime":0,"channel":0,"type":"channel","noteNumber":62,"velocity":0,"subtype":"noteOff"},{"deltaTime":1,"channel":0,"type":"channel","subtype":"controller","controllerType":64,"value":127},{"deltaTime":0,"channel":0,"type":"channel","noteNumber":48,"velocity":96,"subtype":"noteOn"},{"deltaTime":239,"channel":0,"type":"channel","noteNumber":48,"velocity":0,"subtype":"noteOff"},{"deltaTime":1,"channel":0,"type":"channel","noteNumber":63,"velocity":96,"subtype":"noteOn"},{"deltaTime":0,"channel":0,"type":"channel","noteNumber":55,"velocity":96,"subtype":"noteOn"},{"deltaTime":239,"channel":0,"type":"channel","noteNumber":63,"velocity":0,"subtype":"noteOff"},{"deltaTime":0,"channel":0,"type":"channel","noteNumber":55,"velocity":0,"subtype":"noteOff"},{"deltaTime":1,"channel":0,"type":"channel","noteNumber":67,"velocity":96,"subtype":"noteOn"},{"deltaTime":0,"channel":0,"type":"channel","noteNumber":60,"velocity":96,"subtype":"noteOn"},{"deltaTime":239,"channel":0,"type":"channel","subtype":"controller","controllerType":64,"value":0},{"deltaTime":0,"channel":0,"type":"channel","noteNumber":67,"velocity":0,"subtype":"noteOff"},{"deltaTime":0,"channel":0,"type":"channel","noteNumber":60,"velocity":0,"subtype":"noteOff"},{"deltaTime":1,"channel":0,"type":"channel","subtype":"controller","controllerType":64,"value":127},{"deltaTime":0,"channel":0,"type":"channel","noteNumber":45,"velocity":96,"subtype":"noteOn"},{"deltaTime":239,"channel":0,"type":"channel","noteNumber":45,"velocity":0,"subtype":"noteOff"},{"deltaTime":1,"channel":0,"type":"channel","noteNumber":63,"velocity":96,"subtype":"noteOn"},{"deltaTime":0,"channel":0,"type":"channel","noteNumber":60,"velocity":96,"subtype":"noteOn"},{"deltaTime":0,"channel":0,"type":"channel","noteNumber":53,"velocity":96,"subtype":"noteOn"},{"deltaTime":239,"channel":0,"type":"channel","noteNumber":63,"velocity":0,"subtype":"noteOff"},{"deltaTime":0,"channel":0,"type":"channel","noteNumber":60,"velocity":0,"subtype":"noteOff"},{"deltaTime":1,"channel":0,"type":"channel","noteNumber":65,"velocity":96,"subtype":"noteOn"},{"deltaTime":0,"channel":0,"type":"channel","noteNumber":63,"velocity":96,"subtype":"noteOn"},{"deltaTime":0,"channel":0,"type":"channel","noteNumber":60,"velocity":96,"subtype":"noteOn"},{"deltaTime":239,"channel":0,"type":"channel","subtype":"controller","controllerType":64,"value":0},{"deltaTime":0,"channel":0,"type":"channel","noteNumber":65,"velocity":0,"subtype":"noteOff"},{"deltaTime":0,"channel":0,"type":"channel","noteNumber":63,"velocity":0,"subtype":"noteOff"},{"deltaTime":0,"channel":0,"type":"channel","noteNumber":60,"velocity":0,"subtype":"noteOff"},{"deltaTime":0,"channel":0,"type":"channel","noteNumber":53,"velocity":0,"subtype":"noteOff"},{"deltaTime":1,"channel":0,"type":"channel","subtype":"controller","controllerType":64,"value":127},{"deltaTime":0,"channel":0,"type":"channel","noteNumber":34,"velocity":112,"subtype":"noteOn"},{"deltaTime":179,"channel":0,"type":"channel","noteNumber":34,"velocity":0,"subtype":"noteOff"},{"deltaTime":1,"channel":0,"type":"channel","noteNumber":46,"velocity":112,"subtype":"noteOn"},{"deltaTime":179,"channel":0,"type":"channel","noteNumber":46,"velocity":0,"subtype":"noteOff"},{"deltaTime":1,"channel":0,"type":"channel","noteNumber":53,"velocity":112,"subtype":"noteOn"},{"deltaTime":179,"channel":0,"type":"channel","noteNumber":53,"velocity":0,"subtype":"noteOff"},{"deltaTime":1,"channel":0,"type":"channel","noteNumber":56,"velocity":112,"subtype":"noteOn"},{"deltaTime":179,"channel":0,"type":"channel","noteNumber":56,"velocity":0,"subtype":"noteOff"},{"deltaTime":1,"channel":0,"type":"channel","noteNumber":62,"velocity":112,"subtype":"noteOn"},{"deltaTime":179,"channel":0,"type":"channel","noteNumber":62,"velocity":0,"subtype":"noteOff"},{"deltaTime":1,"channel":0,"type":"channel","noteNumber":58,"velocity":112,"subtype":"noteOn"},{"deltaTime":179,"channel":0,"type":"channel","noteNumber":58,"velocity":0,"subtype":"noteOff"},{"deltaTime":1,"channel":0,"type":"channel","noteNumber":65,"velocity":112,"subtype":"noteOn"},{"deltaTime":179,"channel":0,"type":"channel","noteNumber":65,"velocity":0,"subtype":"noteOff"},{"deltaTime":1,"channel":0,"type":"channel","noteNumber":68,"velocity":112,"subtype":"noteOn"},{"deltaTime":179,"channel":0,"type":"channel","noteNumber":68,"velocity":0,"subtype":"noteOff"},{"deltaTime":1,"channel":0,"type":"channel","noteNumber":74,"velocity":112,"subtype":"noteOn"},{"deltaTime":1439,"channel":0,"type":"channel","noteNumber":74,"velocity":0,"subtype":"noteOff"},{"deltaTime":8160,"channel":0,"type":"channel","subtype":"controller","controllerType":64,"value":0},{"deltaTime":1,"channel":0,"type":"channel","subtype":"controller","controllerType":64,"value":127},{"deltaTime":0,"channel":0,"type":"channel","noteNumber":39,"velocity":33,"subtype":"noteOn"},{"deltaTime":239,"channel":0,"type":"channel","noteNumber":39,"velocity":0,"subtype":"noteOff"},{"deltaTime":1,"channel":0,"type":"channel","noteNumber":58,"velocity":33,"subtype":"noteOn"},{"deltaTime":240,"channel":0,"type":"channel","noteNumber":46,"velocity":33,"subtype":"noteOn"},{"deltaTime":239,"channel":0,"type":"channel","noteNumber":46,"velocity":0,"subtype":"noteOff"},{"deltaTime":0,"channel":0,"type":"channel","noteNumber":58,"velocity":0,"subtype":"noteOff"},{"deltaTime":1,"channel":0,"type":"channel","noteNumber":51,"velocity":33,"subtype":"noteOn"},{"deltaTime":239,"channel":0,"type":"channel","noteNumber":51,"velocity":0,"subtype":"noteOff"},{"deltaTime":1,"channel":0,"type":"channel","noteNumber":58,"velocity":33,"subtype":"noteOn"},{"deltaTime":240,"channel":0,"type":"channel","noteNumber":46,"velocity":33,"subtype":"noteOn"},{"deltaTime":239,"channel":0,"type":"channel","noteNumber":46,"velocity":0,"subtype":"noteOff"},{"deltaTime":0,"channel":0,"type":"channel","noteNumber":58,"velocity":0,"subtype":"noteOff"},{"deltaTime":1,"channel":0,"type":"channel","noteNumber":39,"velocity":33,"subtype":"noteOn"},{"deltaTime":239,"channel":0,"type":"channel","noteNumber":39,"velocity":0,"subtype":"noteOff"},{"deltaTime":1,"channel":0,"type":"channel","noteNumber":58,"velocity":33,"subtype":"noteOn"},{"deltaTime":240,"channel":0,"type":"channel","noteNumber":46,"velocity":33,"subtype":"noteOn"},{"deltaTime":239,"channel":0,"type":"channel","noteNumber":46,"velocity":0,"subtype":"noteOff"},{"deltaTime":0,"channel":0,"type":"channel","noteNumber":58,"velocity":0,"subtype":"noteOff"},{"deltaTime":1,"channel":0,"type":"channel","noteNumber":51,"velocity":33,"subtype":"noteOn"},{"deltaTime":239,"channel":0,"type":"channel","noteNumber":51,"velocity":0,"subtype":"noteOff"},{"deltaTime":1,"channel":0,"type":"channel","noteNumber":58,"velocity":33,"subtype":"noteOn"},{"deltaTime":240,"channel":0,"type":"channel","noteNumber":46,"velocity":33,"subtype":"noteOn"},{"deltaTime":239,"channel":0,"type":"channel","noteNumber":46,"velocity":0,"subtype":"noteOff"},{"deltaTime":1,"channel":0,"type":"channel","noteNumber":51,"velocity":16,"subtype":"noteOn"},{"deltaTime":719,"channel":0,"type":"channel","noteNumber":51,"velocity":0,"subtype":"noteOff"},{"deltaTime":0,"channel":0,"type":"channel","noteNumber":58,"velocity":0,"subtype":"noteOff"},{"deltaTime":1,"channel":0,"type":"channel","noteNumber":70,"velocity":16,"subtype":"noteOn"},{"deltaTime":0,"channel":0,"type":"channel","noteNumber":63,"velocity":16,"subtype":"noteOn"},{"deltaTime":719,"channel":0,"type":"channel","noteNumber":70,"velocity":0,"subtype":"noteOff"},{"deltaTime":0,"channel":0,"type":"channel","noteNumber":63,"velocity":0,"subtype":"noteOff"},{"deltaTime":1,"channel":0,"type":"channel","noteNumber":46,"velocity":16,"subtype":"noteOn"},{"deltaTime":0,"channel":0,"type":"channel","noteNumber":39,"velocity":16,"subtype":"noteOn"},{"deltaTime":1439,"channel":0,"type":"channel","subtype":"controller","controllerType":64,"value":0},{"deltaTime":0,"channel":0,"type":"channel","noteNumber":46,"velocity":0,"subtype":"noteOff"},{"deltaTime":0,"channel":0,"type":"channel","noteNumber":39,"velocity":0,"subtype":"noteOff"},{"deltaTime":1,"type":"meta","subtype":"endOfTrack"}]]}